<svg width="545" height="158" viewBox="0 0 545 158" fill="none" xmlns="http://www.w3.org/2000/svg">
<g filter="url(#filter0_d_94_46)">
<path d="M19.8 149.8C18.6 149.8 18 149.6 18 149.2C18.5333 143.867 19.0667 137 19.6 128.6C20.2667 120.067 20.6667 110.933 20.8 101.2C18.5333 101.2 16.2 101.2 13.8 101.2C11.5333 101.2 9.4 101.133 7.4 101C6.06667 99.8 5.13333 98.4 4.6 96.8C4.2 95.0667 4 93.8 4 93C4 91.9333 4.2 91.4 4.6 91.4C6.73333 91.8 9 92.0667 11.4 92.2C13.8 92.2 16.9333 92.2 20.8 92.2C20.6667 82.6 20.0667 73.0667 19 63.6C18.0667 54.1333 16.4667 45.4667 14.2 37.6C11.9333 29.6 8.8 23.2667 4.8 18.6L14.2 5.2C21.5333 10.2667 28.8 14.5333 36 18C43.3333 21.4667 50.2 24.6667 56.6 27.6C63.1333 30.4 68.8667 33.3333 73.8 36.4C78.8667 39.3333 82.8 42.8 85.6 46.8C88.5333 50.6667 90 55.4667 90 61.2C90 65.2 89.0667 69.3333 87.2 73.6C85.4667 77.8667 82.4667 81.9333 78.2 85.8C73.9333 89.5333 68.0667 92.8 60.6 95.6C53.2667 98.2667 44 100 32.8 100.8C32.1333 108.667 31.3333 116.467 30.4 124.2C29.4667 131.933 28.5333 139.467 27.6 146.8C26.6667 147.733 25.3333 148.467 23.6 149C22 149.533 20.7333 149.8 19.8 149.8ZM33.4 91.2C46.0667 89.3333 55.2667 85.6667 61 80.2C66.8667 74.7333 69.8 68.8 69.8 62.4C69.8 56.5333 68.0667 51.6667 64.6 47.8C61.1333 43.8 56.4667 40.2667 50.6 37.2C44.7333 34 38.1333 30.8 30.8 27.6C32.1333 34.9333 33 41.9333 33.4 48.6C33.9333 55.2667 34.2 62.1333 34.2 69.2C34.2 72.8 34.1333 76.4667 34 80.2C33.8667 83.8 33.6667 87.4667 33.4 91.2ZM104.294 149C103.227 149 102.694 148.733 102.694 148.2C104.694 138.333 106.027 129.267 106.694 121C107.494 112.733 107.894 105.267 107.894 98.6C107.894 85.9333 107.094 75.6 105.494 67.6C104.027 59.6 102.76 53.5333 101.694 49.4L106.494 46L122.694 54.6C123.094 58.7333 123.427 62.9333 123.694 67.2C123.96 71.3333 124.094 75.6 124.094 80V83.8H125.694C132.76 63.8 142.694 51.3333 155.494 46.4L159.694 50.2L154.894 73.2C153.96 72.9333 152.96 72.7333 151.894 72.6C150.96 72.4667 150.094 72.4 149.294 72.4C143.827 72.4 139.494 74.4667 136.294 78.6C133.227 82.6 130.427 88.5333 127.894 96.4C125.36 104.133 122.227 113.667 118.494 125L111.694 146C110.894 146.933 109.694 147.667 108.094 148.2C106.494 148.733 105.227 149 104.294 149ZM189.314 147.4C180.914 147.4 174.447 144.333 169.914 138.2C165.381 132.067 163.114 124.067 163.114 114.2C163.114 107.933 163.981 101.467 165.714 94.8C167.581 88 170.581 81.4667 174.714 75.2C178.981 68.9333 184.714 63.4 191.914 58.6C199.114 53.8 208.114 50.1333 218.914 47.6C223.581 49.2 226.781 52.1333 228.514 56.4C230.247 60.6667 231.114 65 231.114 69.4C229.514 75.9333 226.514 81.5333 222.114 86.2C217.847 90.8667 212.981 94.7333 207.514 97.8C202.047 100.733 196.847 103.067 191.914 104.8C186.981 106.4 183.114 107.467 180.314 108C180.981 114.933 182.781 119.933 185.714 123C188.781 126.067 192.247 127.6 196.114 127.6C202.247 127.6 207.981 125 213.314 119.8C218.647 114.467 223.514 107.2 227.914 98C228.181 97.2 228.647 96.8 229.314 96.8C229.981 96.8 230.914 97.1333 232.114 97.8C233.314 98.3333 234.381 98.9333 235.314 99.6C231.714 108.4 227.381 116.467 222.314 123.8C217.381 131 212.047 136.733 206.314 141C200.714 145.267 195.047 147.4 189.314 147.4ZM180.314 100C188.314 97.8667 194.847 95.1333 199.914 91.8C204.981 88.3333 208.714 84.7333 211.114 81C213.514 77.1333 214.714 73.6 214.714 70.4C214.714 68.5333 214.114 66.9333 212.914 65.6C211.714 64.1333 209.981 63.4 207.714 63.4C204.647 63.4 201.047 64.7333 196.914 67.4C192.914 69.9333 189.247 73.8667 185.914 79.2C182.714 84.5333 180.847 91.4667 180.314 100ZM253.67 149.2C252.604 149.2 252.07 148.867 252.07 148.2C255.67 132.867 258.137 118.4 259.47 104.8C260.804 91.0667 261.47 78.5333 261.47 67.2C261.47 58.4 261.07 49.9333 260.27 41.8C259.47 33.6667 258.47 26.3333 257.27 19.8C256.07 13.1333 254.87 7.8 253.67 3.79999L258.67 0.599998L274.67 8.2C276.27 18.8667 276.937 30.4 276.67 42.8C276.537 55.2 275.804 67.7333 274.47 80.4C273.137 92.9333 271.404 104.867 269.27 116.2C267.27 127.533 265.137 137.4 262.87 145.8C261.937 146.733 260.47 147.533 258.47 148.2C256.47 148.867 254.87 149.2 253.67 149.2ZM378.508 148.6C377.574 148.6 376.241 148.333 374.508 147.8C372.908 147.267 371.708 146.6 370.908 145.8C368.641 140.333 366.641 133.667 364.908 125.8C363.174 117.8 361.774 110 360.708 102.4C357.108 111.2 352.908 119 348.108 125.8C343.308 132.467 338.374 137.733 333.308 141.6C328.241 145.467 323.374 147.4 318.708 147.4C312.974 147.4 308.841 145.267 306.308 141C303.908 136.733 302.708 131.333 302.708 124.8C302.708 112.933 303.574 101 305.308 89C307.041 76.8667 308.708 64.3333 310.308 51.4C311.108 50.6 312.508 49.9333 314.508 49.4C316.508 48.8667 317.974 48.6 318.908 48.6C319.841 48.6 320.308 48.8667 320.308 49.4C319.508 57 318.841 64.4667 318.308 71.8C317.774 79.1333 317.508 85.8667 317.508 92C317.508 101.333 318.308 108.933 319.908 114.8C321.641 120.533 324.774 123.4 329.308 123.4C333.974 123.4 338.974 120.133 344.308 113.6C349.774 107.067 354.574 97.3333 358.708 84.4C358.574 82.8 358.508 81.3333 358.508 80C358.508 78.6667 358.508 77.4667 358.508 76.4C358.508 69.8667 358.641 64.9333 358.908 61.6C359.308 58.1333 359.774 54.7333 360.308 51.4L376.308 44.4L381.308 47.2C379.308 53.0667 377.708 60.1333 376.508 68.4C375.308 76.6667 374.708 84.5333 374.708 92C374.708 95.6 374.841 100.067 375.108 105.4C375.508 110.733 375.908 116.267 376.308 122C376.841 127.6 377.441 132.8 378.108 137.6C378.774 142.267 379.374 145.733 379.908 148C379.908 148.4 379.441 148.6 378.508 148.6ZM405.856 149C404.79 149 404.256 148.733 404.256 148.2C406.256 138.333 407.59 129.267 408.256 121C409.056 112.733 409.456 105.267 409.456 98.6C409.456 85.9333 408.656 75.6 407.056 67.6C405.59 59.6 404.323 53.5333 403.256 49.4L408.056 46L424.256 54.6C424.656 58.7333 424.99 62.9333 425.256 67.2C425.523 71.3333 425.656 75.6 425.656 80V83.8H427.256C434.323 63.8 444.256 51.3333 457.056 46.4L461.256 50.2L456.456 73.2C455.523 72.9333 454.523 72.7333 453.456 72.6C452.523 72.4667 451.656 72.4 450.856 72.4C445.39 72.4 441.056 74.4667 437.856 78.6C434.79 82.6 431.99 88.5333 429.456 96.4C426.923 104.133 423.79 113.667 420.056 125L413.256 146C412.456 146.933 411.256 147.667 409.656 148.2C408.056 148.733 406.79 149 405.856 149ZM538.077 148.6C537.143 148.6 535.877 148.333 534.277 147.8C532.677 147.267 531.477 146.6 530.677 145.8C528.277 140.333 526.21 133.667 524.477 125.8C522.877 117.8 521.543 109.933 520.477 102.2C516.743 111 512.477 118.8 507.677 125.6C502.877 132.4 497.943 137.733 492.877 141.6C487.943 145.467 483.143 147.4 478.477 147.4C472.477 147.4 468.077 145.267 465.277 141C462.61 136.733 461.277 131.333 461.277 124.8C461.277 115.733 463.01 107.4 466.477 99.8C469.943 92.0667 474.543 85.1333 480.277 79C486.143 72.7333 492.477 67.3333 499.277 62.8C506.21 58.1333 513.077 54.3333 519.877 51.4L536.077 44.4L540.877 47.2C538.877 53.0667 537.277 60.1333 536.077 68.4C534.877 76.6667 534.277 84.5333 534.277 92C534.277 95.6 534.41 100.067 534.677 105.4C535.077 110.733 535.543 116.267 536.077 122C536.61 127.6 537.143 132.8 537.677 137.6C538.343 142.267 538.943 145.733 539.477 148C539.477 148.4 539.01 148.6 538.077 148.6ZM490.077 123.4C494.077 123.4 498.743 120.133 504.077 113.6C509.41 107.067 514.21 97.2 518.477 84C518.343 82.5333 518.277 81.2 518.277 80C518.277 78.6667 518.277 77.4667 518.277 76.4C518.277 73.0667 518.277 70.2 518.277 67.8C518.277 65.4 518.343 63.2667 518.477 61.4C512.343 64.8667 506.343 68.8667 500.477 73.4C494.61 77.8 489.743 82.9333 485.877 88.8C482.01 94.5333 480.077 101.133 480.077 108.6C480.077 112.867 480.743 116.4 482.077 119.2C483.543 122 486.21 123.4 490.077 123.4Z" fill="#AB28B2"/>
</g>
<defs>
<filter id="filter0_d_94_46" x="0" y="0.600098" width="544.877" height="157.2" filterUnits="userSpaceOnUse" color-interpolation-filters="sRGB">
<feFlood flood-opacity="0" result="BackgroundImageFix"/>
<feColorMatrix in="SourceAlpha" type="matrix" values="0 0 0 0 0 0 0 0 0 0 0 0 0 0 0 0 0 0 127 0" result="hardAlpha"/>
<feOffset dy="4"/>
<feGaussianBlur stdDeviation="2"/>
<feComposite in2="hardAlpha" operator="out"/>
<feColorMatrix type="matrix" values="0 0 0 0 0 0 0 0 0 0 0 0 0 0 0 0 0 0 0.25 0"/>
<feBlend mode="normal" in2="BackgroundImageFix" result="effect1_dropShadow_94_46"/>
<feBlend mode="normal" in="SourceGraphic" in2="effect1_dropShadow_94_46" result="shape"/>
</filter>
</defs>
</svg>
