<svg width="24" height="24" viewBox="0 0 24 24" fill="none" xmlns="http://www.w3.org/2000/svg">
<path d="M11.8537 4.47375L9.53247 7.67625L6.53247 4.6425L7.68372 2.3175C8.15446 2.98456 8.77869 3.52866 9.50377 3.90393C10.2289 4.27919 11.0335 4.47463 11.85 4.47375C12.6865 4.4741 13.5103 4.26914 14.2491 3.87684C14.9879 3.48455 15.6192 2.91691 16.0875 2.22375L17.46 4.95L14.5387 7.68L11.8537 4.47375Z" stroke="black" stroke-width="1.3" stroke-linecap="round" stroke-linejoin="round"/>
<path d="M10.3613 6.52875L11.2876 8.385H12.7463L13.5826 6.52875" stroke="black" stroke-width="1.3" stroke-linecap="round" stroke-linejoin="round"/>
<path d="M12.7124 8.385L13.9087 10.4437L14.5799 19.7212L11.9999 21.78L9.41992 19.7212L10.0912 10.4437L11.2874 8.385" stroke="black" stroke-width="1.3" stroke-linecap="round" stroke-linejoin="round"/>
</svg>
