<svg width="24" height="24" viewBox="0 0 24 24" fill="none" xmlns="http://www.w3.org/2000/svg">
<path d="M3.7688 12.8287C3.7688 12.8287 8.36255 12.165 8.52755 8.0175" stroke="black" stroke-width="1.3" stroke-linecap="round" stroke-linejoin="round"/>
<path d="M11.9999 14.505L12.7987 17.4487C12.8458 17.6185 12.9321 17.7747 13.0506 17.905C13.1692 18.0353 13.3167 18.1359 13.4812 18.1987C15.446 18.974 17.629 18.99 19.6049 18.2437C19.7947 18.1661 19.9596 18.0381 20.0819 17.8735C20.2041 17.7089 20.2791 17.5141 20.2987 17.31C20.4599 15.6562 20.6737 11.2162 18.6374 8.01H5.36619C3.34869 11.2162 3.54369 15.6562 3.70494 17.31C3.72452 17.5141 3.79949 17.7089 3.92176 17.8735C4.04403 18.0381 4.20895 18.1661 4.39869 18.2437C6.37465 18.99 8.55766 18.974 10.5224 18.1987C10.687 18.1359 10.8344 18.0353 10.953 17.905C11.0715 17.7747 11.1578 17.6185 11.2049 17.4487L11.9999 14.505Z" stroke="black" stroke-width="1.3" stroke-linecap="round" stroke-linejoin="round"/>
<path d="M18.6338 8.0175L18.6563 5.19375H5.31006L5.36631 8.0175" stroke="black" stroke-width="1.3" stroke-linecap="round" stroke-linejoin="round"/>
<path d="M20.2499 12.8287C20.2499 12.8287 15.6374 12.165 15.4724 8.0175" stroke="black" stroke-width="1.3" stroke-linecap="round" stroke-linejoin="round"/>
<path d="M7.39502 8.0175V5.19375" stroke="black" stroke-width="1.3" stroke-linecap="round" stroke-linejoin="round"/>
<path d="M16.74 8.0175V5.19375" stroke="black" stroke-width="1.3" stroke-linecap="round" stroke-linejoin="round"/>
<path d="M12 11.3662V5.19375" stroke="black" stroke-width="1.3" stroke-linecap="round" stroke-linejoin="round"/>
</svg>
