<svg width="24" height="16" viewBox="0 0 24 16" fill="none" xmlns="http://www.w3.org/2000/svg">
<path d="M11.9998 3.49672C16.8523 3.49672 21.0312 4.66766 22.9217 6.35234C23.3618 5.85453 23.6801 5.32438 23.9107 4.7825C23.1875 2.36937 18.1311 0.5 11.9998 0.5C5.86856 0.5 0.812149 2.36937 0.0888672 4.7825C0.319492 5.32391 0.637773 5.85453 1.07793 6.35234C2.9684 4.66766 7.14731 3.49672 11.9998 3.49672Z" fill="black"/>
<path d="M23.9668 5.75C23.6415 7.55 20.9223 9.07859 17.1001 9.81031C19.021 10.1844 20.8403 10.8078 21.8181 11.173C23.1868 10.3813 23.9935 9.41656 23.9992 8.375V5.75H23.9659H23.9668Z" fill="black"/>
<path d="M13.875 9.875H10.125C9.71062 9.875 9.375 10.2106 9.375 10.625V12.875C9.375 13.2894 9.71062 13.625 10.125 13.625H13.875C14.2894 13.625 14.625 13.2894 14.625 12.875V10.625C14.625 10.2106 14.2894 9.875 13.875 9.875ZM12.75 12.125H11.25C11.0428 12.125 10.875 11.9572 10.875 11.75C10.875 11.5428 11.0428 11.375 11.25 11.375H12.75C12.9572 11.375 13.125 11.5428 13.125 11.75C13.125 11.9572 12.9572 12.125 12.75 12.125Z" fill="black"/>
<path d="M22.2693 12.1541C22.1029 12.0847 18.5601 10.6217 15.3749 10.3091V13.2505C15.3749 13.272 15.374 13.2941 15.373 13.3156C18.6482 13.6775 21.9088 15.4353 21.9454 15.455C22.0012 15.4855 22.063 15.5005 22.1249 15.5005C22.1915 15.5005 22.2576 15.4827 22.3166 15.448C22.4305 15.3805 22.5004 15.2581 22.5004 15.1255V12.5005C22.5004 12.3491 22.4095 12.2127 22.2698 12.1545L22.2693 12.1541Z" fill="black"/>
<path d="M0.0332812 5.75H0V8.375C0.0126563 10.5912 3.64922 12.4611 8.62453 13.0536V10.25C8.62453 10.1919 8.62828 10.1347 8.63484 10.078C3.92016 9.51828 0.405469 7.81203 0.0332812 5.75Z" fill="black"/>
</svg>
