<svg width="16" height="22" viewBox="0 0 16 22" fill="none" xmlns="http://www.w3.org/2000/svg">
<path d="M8.05338 19.4988C8.04689 19.4733 8.04825 19.4656 8.02931 19.4461L7.65731 20.0827C6.8403 21.3343 5.56408 21.9517 4.08073 21.7372C3.46631 21.6483 2.81414 21.5158 2.51374 20.9113C2.49462 20.8729 2.47486 20.7405 2.45161 20.7173C2.38162 20.6474 1.19913 20.8794 0.866201 20.6517C0.736381 20.563 0.595826 20.3692 0.572248 20.212L0.570607 20.1992C0.555279 20.0914 0.560506 19.9795 0.559826 19.8706L0.540607 17.5875C0.538193 17.4546 0.512553 17.3265 0.511709 17.1931L0.507068 15.3295L0.455061 13.6711L0.418498 13.209L0.361147 11.419L0.319123 10.9111L0.266506 9.39454L0.261256 7.74939C0.261842 7.23215 0.255373 6.80894 0.300842 6.29364L0.326459 5.93596C0.374108 5.49114 0.454967 5.05133 0.544006 4.61329C0.854014 3.08828 1.32105 3.19056 2.51205 2.70904C3.28483 2.39659 4.09094 2.03877 4.73615 1.49819C5.07194 1.21685 5.37729 0.909625 5.72707 0.6433C6.29374 0.211858 6.62498 0.246989 7.30275 0.216499C7.49972 0.207637 7.69146 0.182786 7.89065 0.179578C8.21723 0.174963 8.46087 0.204372 8.77054 0.220792C9.43575 0.256066 9.76572 0.153398 10.33 0.642567L10.9439 1.20919C11.7214 1.91976 12.6119 2.39176 13.599 2.75781C14.3423 3.03348 14.9926 3.1359 15.3121 4.02149L15.5653 5.1681C15.6614 5.66444 15.7194 6.24339 15.7314 6.7529L15.7281 10.0448C15.7239 10.1334 15.6948 10.2161 15.6901 10.3027L15.6853 11.0641C15.6803 11.3269 15.654 11.6072 15.6387 11.8732L15.5864 13.4992C15.5824 13.6125 15.5577 13.7209 15.5517 13.8335L15.5231 15.1327C15.5199 15.2027 15.5047 15.2716 15.5023 15.3418L15.4969 16.6572C15.4938 16.7602 15.4683 16.8596 15.4645 16.9622L15.4585 17.9086C15.4559 18.0246 15.4322 18.1382 15.4306 18.2538L15.426 20.0285C15.4251 20.1092 15.4318 20.2103 15.3997 20.2853C15.1934 20.7673 14.9676 20.751 14.5299 20.7434C14.2131 20.738 13.8974 20.7412 13.5813 20.7147C13.5504 20.7675 13.5394 20.8152 13.5154 20.8687C13.2422 21.4774 12.6599 21.6322 12.0429 21.7296C10.31 22.0033 8.7139 21.1648 8.05338 19.4988ZM7.94805 0.879939L6.89571 0.943663C6.49319 0.978006 6.2873 1.04873 5.96501 1.31585C6.01535 1.37725 6.05294 1.4354 6.09072 1.50451L6.13287 1.59702C6.20627 1.77182 6.22458 1.95627 6.28514 2.13219L6.45497 2.70639C6.64673 2.63094 7.09047 2.64517 7.31065 2.66835C7.54502 2.87772 7.36268 3.04893 7.7654 3.04213L8.12013 3.04L8.3872 3.03093C8.47554 2.91597 8.58094 2.80567 8.65108 2.67887C8.83158 2.65054 9.38958 2.61414 9.52931 2.70109L9.71789 2.10515C9.79774 1.81975 9.85162 1.5494 10.0239 1.30247C10.002 1.26666 9.95409 1.23482 9.92076 1.20847C9.6033 0.957632 9.42623 0.920941 9.03009 0.916265L8.28126 0.910818C8.16532 0.905107 8.06723 0.870893 7.94805 0.879939ZM10.5303 1.79493C10.5092 1.8519 10.4878 1.90724 10.4752 1.96679L8.62711 9.53781L9.16146 8.78615C9.43809 8.37329 9.6783 7.92728 9.90295 7.4844L10.4293 6.39142L11.5535 3.38587C11.6287 3.15683 11.6948 2.92237 11.7892 2.70055C11.5666 2.55547 11.3401 2.43247 11.1253 2.27329L10.7371 1.96654C10.6905 1.92702 10.5878 1.80641 10.5303 1.79493ZM5.46403 1.80353C4.95752 2.18699 4.76557 2.38323 4.18786 2.6939L4.67325 4.06928C4.67951 4.09185 4.68769 4.11112 4.69617 4.13282L4.76883 4.34697C4.77422 4.36813 4.78141 4.38247 4.78969 4.40235L5.7858 6.85926L6.28936 7.85877C6.45897 8.17771 6.6285 8.4906 6.83151 8.79041L7.36617 9.50819L6.49078 5.77562L5.63871 2.39509C5.58494 2.19796 5.54683 1.99098 5.46403 1.80353ZM3.5831 3.01119L2.05617 3.62167C1.35776 3.88621 1.3384 4.19476 1.20368 4.82422L1.11279 5.29089C1.0477 5.65874 1.01955 6.0279 0.989084 6.39944L0.951608 6.75479C0.930209 7.10781 0.946217 7.47111 0.946405 7.82518L0.950717 8.99727C0.955592 9.1018 0.979475 9.20392 0.982803 9.31058L0.994146 10.4235L1.06685 12.1603C1.07147 12.253 1.09812 12.3435 1.1017 12.4356L1.10847 13.3236C1.11295 13.4447 1.14532 13.5612 1.14989 13.682L1.15652 14.9465C1.15922 15.0533 1.18671 15.1565 1.18884 15.2641L1.20694 17.6797C1.20874 17.7985 1.23595 17.9132 1.23705 18.0333L1.2405 20.0597L2.38352 20.013L2.33355 17.8177L2.28905 15.8239C2.28687 15.6037 2.25138 15.386 2.24693 15.1666L2.21311 12.6345C2.20821 12.5569 2.19572 12.4807 2.1934 12.4026L2.18836 10.6679C2.18672 10.54 2.15653 10.4189 2.15374 10.2911L2.15262 7.41878C2.15707 7.31624 2.17969 7.21785 2.18578 7.11559C2.20092 6.8619 2.15763 6.56202 2.46942 6.47176C2.59884 6.43429 2.81386 6.53376 2.85675 6.66641L2.86922 6.70846C2.88429 6.75519 2.87665 6.82375 2.87601 6.87329L2.84053 9.67747L2.84311 10.4199C2.84887 10.5663 2.87266 10.7091 2.87473 10.8571L2.89708 13.3824C2.89929 13.4965 2.93177 13.6051 2.93327 13.7206L2.93754 15.3652C2.94021 15.4529 2.96008 15.5408 2.96463 15.6289L2.99353 17.5972C2.99693 17.704 3.02383 17.8067 3.02552 17.915L3.02988 19.0031C3.03422 19.1256 3.05965 19.2456 3.06375 19.3679L3.06902 20.0737C3.07256 20.74 3.19797 20.8488 3.90431 20.9965C5.21958 21.2716 6.30712 20.8451 7.07372 19.7017C7.23192 19.4657 7.36697 19.207 7.51308 18.9625L7.66779 18.703C7.69833 18.6544 7.74035 18.602 7.75964 18.548L7.66744 18.0213C7.63962 17.8716 7.60809 17.7197 7.58995 17.5684L7.54312 17.1523C7.52076 16.8786 7.49149 16.6142 7.49044 16.3396L7.49306 13.4422C7.49648 13.2667 7.52601 13.0965 7.53454 12.9222L7.59316 11.1615C7.60497 10.9875 7.62717 10.8185 7.62637 10.6431C6.32829 10.0726 4.92462 6.69273 4.4513 5.47541L3.61643 3.1C3.60691 3.07272 3.59885 3.03454 3.5831 3.01119ZM12.4074 3.01684C12.3356 3.19712 12.2857 3.38926 12.223 3.57367L11.058 6.68523L10.5429 7.75942C10.1348 8.55576 9.20179 10.3344 8.32444 10.6706L8.26411 11.634C8.25677 11.7392 8.23809 11.8422 8.2346 11.9481L8.18177 13.6L8.17526 15.4941C8.17469 16.3768 8.21353 17.2243 8.37717 18.0919L8.51571 18.7344C8.85396 20.0185 9.96473 21.1204 11.3463 21.0984C11.7671 21.0917 12.6303 20.988 12.8499 20.6353L12.8869 20.5684C12.9367 20.4764 12.9607 19.9092 12.9653 19.7386L13.0166 17.9141L13.0255 16.5371L13.0697 15.4943L13.117 12.9073L13.1213 10.7854C13.1231 10.681 13.152 10.5807 13.1556 10.4761L13.1595 9.59392L13.1473 7.10751C13.1394 6.97951 13.0888 6.83209 13.1402 6.70719L13.1472 6.68964C13.267 6.3977 13.6623 6.38875 13.7726 6.68249L13.786 6.71875C13.8174 6.80476 13.8314 7.16849 13.8381 7.29688L13.842 10.7949C13.8404 10.9161 13.8143 11.0357 13.8127 11.1584L13.809 12.5669C13.8058 12.6719 13.7758 12.7714 13.7734 12.8779L13.748 16.0322C13.746 16.1488 13.7183 16.2628 13.7146 16.3805L13.6683 19.3041C13.668 19.5421 13.6721 19.7772 13.6484 20.0143L14.7444 20.0577L14.7524 17.552C14.7535 17.4535 14.773 17.3589 14.7776 17.2611L14.7832 16.6368C14.7856 16.5323 14.8035 16.4295 14.8054 16.3243L14.8117 15.3945C14.8158 15.3067 14.8376 15.2194 14.8412 15.1299L14.9073 12.8759L14.9795 11.4981L14.99 10.5015C14.9955 10.3425 15.0305 10.1878 15.0366 10.0299L15.0433 8.19076C15.0447 6.95729 15.0499 6.1097 14.8122 4.87696C14.596 3.75559 14.4003 3.78697 13.3858 3.42477L12.7187 3.15983C12.6157 3.11483 12.5051 3.07197 12.4074 3.01684ZM8.31572 3.97375L7.57781 3.98113C7.53382 4.03056 7.38621 4.26658 7.35105 4.28359C7.24842 4.33321 6.99661 4.28425 6.87255 4.29939C6.87761 4.34943 6.88122 4.3982 6.89522 4.44665L7.0342 5.07135C7.18448 5.58894 7.27392 6.13281 7.40011 6.65821L7.65651 7.75977C7.68478 7.87297 7.70004 7.99375 7.73822 8.10397L7.92616 8.91034L7.95051 9.01954C7.96183 9.06276 7.96645 9.08127 7.99722 9.11594L8.01117 9.12175C8.04412 9.07363 8.04757 9.00611 8.05997 8.94988L9.12028 4.31195L8.83666 4.29198C8.52982 4.28057 8.60348 4.16312 8.41099 3.9749L8.31572 3.97375Z" fill="black"/>
</svg>
