<svg width="24" height="24" viewBox="0 0 24 24" fill="none" xmlns="http://www.w3.org/2000/svg">
<g clip-path="url(#clip0_1_732)">
<path d="M24 17.1274C24 15.9992 23.5929 14.9085 22.8537 14.0561C22.1145 13.2038 21.0923 12.6465 19.9754 12.487L17.4947 12.1326C13.7209 11.5935 10.875 8.31216 10.875 4.5V3.5625H8.0625C6.84023 3.5625 5.79759 4.3462 5.41064 5.4375H0V20.4375H24V17.1274ZM7.125 6.375C7.125 5.85806 7.54556 5.4375 8.0625 5.4375H9.04594C9.23939 7.40559 10.0383 9.27478 11.3439 10.7802C12.6929 12.3356 14.5029 13.4099 16.5 13.8549V18.5625H8.90573C8.47022 16.4255 6.57619 14.8125 4.3125 14.8125H1.875V11.0625H4.3125C5.86331 11.0625 7.125 9.80081 7.125 8.25V6.375ZM5.25 7.3125V8.25C5.25 8.76694 4.82944 9.1875 4.3125 9.1875H1.875V7.3125H5.25ZM1.875 16.6875H4.3125C5.53467 16.6875 6.5767 17.4713 6.96375 18.5625H1.875V16.6875ZM22.125 18.5625H18.375V14.1524L19.7102 14.3431C21.0869 14.5398 22.125 15.7367 22.125 17.1274V18.5625Z" fill="black"/>
</g>
<defs>
<clipPath id="clip0_1_732">
<rect width="24" height="24" fill="white"/>
</clipPath>
</defs>
</svg>
