<svg width="14" height="20" viewBox="0 0 14 20" fill="none" xmlns="http://www.w3.org/2000/svg">
<path d="M7.89999 13.2905L7.01358 9.00691C6.94306 9.16279 6.92597 9.33937 6.88899 9.50556L6.11183 13.2109L5.73301 15.2799L5.20365 18.651C5.10486 19.2159 4.5353 19.1843 4.1202 19.1846L1.22079 19.1851C1.1281 19.185 1.02619 19.1905 0.935419 19.1701L0.918029 19.166C0.306263 19.0269 0.335958 18.5553 0.33624 18.0678L0.34156 13.7548L0.394927 11.7988C0.399849 11.6155 0.431091 11.4321 0.439575 11.2483L0.445693 10.3269C0.450474 10.136 0.48488 9.94783 0.490997 9.7581L0.500747 8.78711C0.505013 8.65108 0.530091 8.51732 0.535177 8.3811L0.594029 6.83449L0.688247 5.43998C0.733036 4.90511 0.822615 4.36769 0.9297 3.84201L1.12658 2.85895C1.15632 2.71204 1.1468 2.5517 1.14676 2.40203L1.14622 1.73854C1.14615 1.59424 1.12531 1.39949 1.19178 1.26841C1.35024 0.955938 1.55853 0.816673 1.92031 0.794009L11.7815 0.791032C12.5791 0.79054 12.8518 0.955071 12.8537 1.75188L12.8549 2.34016C12.8556 2.5371 12.8788 2.72798 12.9095 2.92277L12.9975 3.41781C13.0027 3.44861 13.0163 3.47737 13.0232 3.50781L13.1224 3.97403C13.1942 4.34273 13.2411 4.71702 13.2726 5.09139L13.344 6.11167C13.3521 6.23744 13.3423 6.38934 13.3701 6.51074L13.385 6.57813C13.4396 6.82764 13.4141 7.11318 13.426 7.36914C13.4306 7.46873 13.453 7.56768 13.4563 7.66616L13.4664 8.41537C13.4724 8.5277 13.4952 8.63936 13.4989 8.752L13.5072 9.54222C13.5128 9.6854 13.5455 9.82647 13.5518 9.9707L13.5661 10.9405C13.5692 11.0216 13.5855 11.1017 13.5879 11.1827L13.6142 12.327C13.6175 12.4169 13.6396 12.5044 13.6421 12.5944L13.6454 13.3966C13.6483 13.4927 13.6702 13.5866 13.6726 13.6822L13.6761 17.8313C13.6763 18.3892 13.8003 18.9509 13.1114 19.16L13.0775 19.1701C13.0063 19.1867 12.9294 19.1828 12.8568 19.1834L10.1198 19.1848C9.10833 19.1843 8.89665 19.2899 8.73408 18.127L7.89999 13.2905ZM1.81719 1.47114C1.80195 1.60602 1.80486 1.73491 1.80966 1.86684L12.1504 1.86262L12.1851 1.8693C12.1891 1.75366 12.1871 1.60485 12.1629 1.49226C11.9839 1.46549 11.8066 1.46891 11.6261 1.4687L1.81719 1.47114ZM1.81381 2.53527L1.73042 3.33402L12.2063 3.33189C12.2396 3.33632 12.2724 3.3378 12.3049 3.33091L12.2126 2.7052C12.2078 2.66552 12.2061 2.56837 12.1835 2.53865L1.81381 2.53527ZM2.32892 4.00131L1.57681 4.00633C1.553 4.06947 1.5541 4.14041 1.54561 4.20698L1.50052 4.46875C1.38064 5.18116 1.31372 5.58667 1.31438 6.30691C1.91574 6.30787 2.28687 6.31457 2.84349 6.01492C3.56715 5.61081 4.05195 4.83913 4.09929 4.0112C3.8903 3.98842 3.67259 4.00075 3.46226 4.00056L2.32892 4.00131ZM4.76752 4.0004C4.6786 5.4367 3.73367 6.6517 2.28767 6.93904C2.18668 6.9591 2.07959 6.98519 1.9771 6.99009L1.4889 6.99365C1.41511 6.99388 1.33254 6.98627 1.26001 6.99841C1.25677 7.12317 1.23308 7.24014 1.22834 7.3638L1.22044 8.03418L1.12519 10.0851L1.11999 10.6621C1.11511 10.7706 1.09526 10.875 1.094 10.9848L1.04424 12.6503L1.04009 13.9444C1.03843 14.0569 1.00878 14.1695 1.00632 14.2845L1.00212 18.2213C1.00229 18.3112 0.996052 18.4053 1.01325 18.4938L4.54798 18.4927C4.57065 18.4121 4.56704 18.3289 4.57883 18.2467L5.05311 15.311L5.61767 12.2324L6.62183 7.75736C6.70911 7.40116 6.67081 6.67211 7.00383 6.48053C7.06442 6.44568 7.13164 6.42379 7.19042 6.38533C7.47542 6.19891 7.50024 5.73998 7.53338 5.43555L7.60505 4.75954C7.6257 4.5532 7.59755 4.34031 7.80272 4.21893C7.94855 4.13268 8.16732 4.21593 8.24363 4.36047C8.34425 4.55106 8.21276 5.65818 8.13155 5.97166C8.05575 6.35573 7.88361 6.74526 7.54583 6.96784C7.47905 7.01186 7.39686 7.03952 7.37855 7.12314C7.28513 7.54982 7.30965 7.61406 7.4389 8.00842L7.95579 10.1947L8.47386 12.7578L9.27085 17.2457C9.2877 17.3135 9.28995 17.3855 9.30279 17.4541L9.41867 18.2358C9.43165 18.3232 9.43273 18.4161 9.45804 18.5005L12.6758 18.4961C13.1151 18.4959 13.0087 18.5202 13.0092 18.021L13.005 14.005L12.9578 12.1692L12.9206 11.6521L12.8821 10.2578C12.8782 10.1862 12.8628 10.1164 12.8598 10.0443L12.8539 9.39234L12.7424 7.14063C12.739 7.10064 12.7445 7.03113 12.7248 6.99726C12.3926 6.98702 12.0868 7.0004 11.7575 6.93822C10.4308 6.68772 9.46707 5.63381 9.26201 4.31641C9.24617 4.21457 9.25081 4.10974 9.23614 4.00766L4.76752 4.0004ZM9.91641 4.00244C9.89581 4.07209 9.92206 4.12961 9.93202 4.19477C10.1008 5.29863 10.8997 6.12428 11.9929 6.29268C12.2208 6.32777 12.4677 6.30491 12.6987 6.31527L12.6954 6.30023C12.6713 6.14423 12.6747 5.9841 12.666 5.82667L12.6197 5.25651C12.5974 4.99197 12.5705 4.72281 12.5262 4.46099L12.4362 4.01205C12.3759 3.98064 11.8298 4.00028 11.7257 4.00028L9.91641 4.00244Z" fill="black"/>
</svg>
