<svg width="20" height="22" viewBox="0 0 20 22" fill="none" xmlns="http://www.w3.org/2000/svg">
<path d="M10.8793 17.0443L10.1059 14.6795C10.0735 14.5602 10.0435 14.4287 9.98672 14.3184L9.5348 15.7836L8.44659 18.7958C8.15444 19.5235 8.08847 19.8434 7.56419 20.4468C7.12015 20.958 6.56421 21.3965 5.84995 21.3918C5.31921 21.3884 4.78331 21.1397 4.28093 20.9957L3.6364 20.8166C3.45454 20.7679 3.25594 20.7302 3.08794 20.6433C2.55541 20.3678 2.29741 19.7891 2.44657 19.2034L4.27753 10.1017C4.32555 9.89338 4.42228 9.56915 4.72678 9.74507C4.99978 9.9028 4.8491 10.2633 4.80016 10.5004L3.01744 19.4168C2.97801 19.6559 3.06077 19.9212 3.28751 20.0453L3.30122 20.0525C3.49155 20.1542 3.71894 20.1931 3.92557 20.2502L5.21833 20.6366C6.15996 20.9233 6.67111 20.6115 7.23637 19.8898C7.56628 19.4686 7.63258 19.1953 7.83295 18.704C8.42004 17.2642 8.91909 15.7775 9.37795 14.2922L9.68887 13.283C9.73987 13.1246 9.78724 12.9348 9.86885 12.79L9.23346 11.7928C9.04066 11.4985 8.8773 11.1769 8.71983 10.8625L7.04531 7.43015L5.89462 4.89664C5.80561 4.70633 5.69798 4.51131 5.62926 4.31296C5.52354 4.00782 5.916 3.73979 6.13015 4.02125C6.22636 4.14768 6.28598 4.32735 6.35381 4.471L6.5419 4.84963C6.65327 5.09771 6.75375 5.35581 6.87736 5.59778L9.20161 10.4724C9.24504 10.5732 9.30091 10.6703 9.35151 10.7676L9.74972 11.4918C9.80587 11.3733 9.85849 11.2641 9.93626 11.1578C9.7954 10.958 9.7402 10.6772 9.6633 10.4478L8.01729 5.38996L7.4182 2.98646L7.08712 1.3566C6.66675 1.59901 6.65751 1.81733 6.14156 1.96979L4.0248 2.74646C3.8159 2.82379 3.57745 2.86004 3.38165 2.9653L3.29653 3.01391C2.46075 3.53697 2.21233 4.64629 1.95635 5.52479C1.55011 6.91895 1.3016 8.36223 1.11883 9.80129L0.957701 11.0139L0.818037 12.6863C0.79399 12.9041 0.768232 13.2311 0.759771 13.4558L0.750466 13.9731C0.743974 14.1313 0.71606 14.2879 0.711326 14.4459L0.746342 17.6978C0.752927 17.8217 0.826638 18.8872 0.797599 18.9451L0.791341 18.9568C0.666607 19.2159 0.265833 19.2299 0.215864 18.9199C0.195668 18.7946 0.200332 18.6614 0.192898 18.5346L0.117188 17.4109L0.117382 14.2709L0.198171 13.0614C0.216994 12.7034 0.234253 12.3662 0.269611 12.0083L0.668787 8.73805C0.868826 7.44313 1.11361 6.15327 1.50335 4.89993C1.7992 3.94857 2.13253 3.01696 3.01729 2.45422C3.20709 2.3335 3.3982 2.28618 3.60923 2.22053L5.33683 1.59278C5.57714 1.50301 5.81641 1.40685 6.06218 1.33277C6.17714 1.29811 6.28584 1.16048 6.37762 1.08222C6.6529 0.847512 6.96283 0.638658 7.32087 0.560234C7.40142 0.557035 7.47839 0.598346 7.55283 0.624809L9.40788 1.25066C9.57654 1.30563 9.89988 1.47261 10.0724 1.42049L12.5574 0.587904C13.0903 0.434656 13.5993 1.22237 14.0733 1.37954L16.0994 2.14555C16.3658 2.24258 16.6444 2.27729 16.8945 2.41888C17.7861 2.92368 18.0802 3.70508 18.3904 4.59547C18.4701 4.82422 18.5617 5.06718 18.6165 5.30265L18.6639 5.47438C18.6717 5.52064 18.6885 5.55683 18.6997 5.6012L18.789 5.95485C18.8176 6.05825 18.8333 6.16707 18.859 6.27125L19.164 7.7361C19.1746 7.78829 19.1762 7.84262 19.1873 7.8943L19.5866 10.5812L19.8292 13.3175C19.8431 13.4743 19.8394 13.635 19.8424 13.7923C19.8468 14.022 19.8835 14.2422 19.885 14.4743L19.882 17.4621C19.8789 17.5483 19.8542 17.6286 19.8472 17.7133L19.7865 18.7537C19.77 19.2863 19.2436 19.2522 19.1887 18.9053C19.1709 18.7921 19.1919 18.3553 19.214 18.2544C19.2771 17.9663 19.2102 17.6578 19.2545 17.3689C19.3114 16.9989 19.2875 16.5998 19.2878 16.226L19.2851 14.4986L19.2377 13.511C19.2299 13.283 19.2049 13.0097 19.1841 12.7822L19.0398 11.0927L18.4304 7.09513C18.2183 6.0857 17.8443 4.36 17.2206 3.51299C16.7617 2.88988 16.5636 2.97721 15.9502 2.74454L13.7698 1.9329C13.6477 1.90241 13.5848 1.90112 13.4945 1.81037L13.3064 1.62261C13.185 1.51241 13.0316 1.40734 12.8829 1.33744C12.8589 1.42752 12.8512 1.52111 12.8365 1.61305L12.2374 4.42555L11.6917 6.37775L10.1944 10.888C10.1696 10.9629 10.1476 11.0559 10.1 11.1205L10.0882 11.1358C10.1695 11.2716 10.2128 11.4083 10.2418 11.5638L13.6499 4.4083C13.705 4.29308 13.755 4.16504 13.8249 4.05845C14.0277 3.74931 14.4755 3.97804 14.3461 4.34657C14.2764 4.54511 14.1651 4.73748 14.0777 4.92946L11.0383 11.2781L10.7321 11.8249C10.5551 12.1503 10.3756 12.4933 10.16 12.7951C10.2964 13.1291 10.3587 13.4833 10.476 13.8216L10.7883 14.8541C10.7933 14.8761 10.7955 14.8937 10.8042 14.9147L11.6391 17.3396C11.7758 17.7677 11.9815 18.1791 12.1418 18.5994C12.2562 18.8991 12.3427 19.2335 12.4949 19.5158C12.8542 20.1827 13.4405 20.794 14.2572 20.7518C14.5762 20.7353 14.9051 20.592 15.2101 20.5007L15.9173 20.2964C16.5568 20.1066 17.1276 20.1005 16.9516 19.2209L15.1987 10.5231C15.1677 10.3696 15.1297 10.2122 15.1155 10.0564C15.0862 9.73508 15.5362 9.56012 15.6765 9.88602C15.7304 10.0113 15.7349 10.1746 15.7653 10.3084L15.9283 11.0829C15.9807 11.3621 16.029 11.656 16.0938 11.9314L16.6735 14.7468C16.7213 14.97 16.7446 15.2016 16.7968 15.4236L17.148 17.1521C17.2125 17.4312 17.2439 17.7176 17.3123 17.9959L17.5032 18.9501C17.5953 19.4328 17.6846 19.7659 17.4082 20.2051C17.0907 20.7098 16.556 20.7489 16.0353 20.9032L15.125 21.1781C14.8099 21.2724 14.4947 21.3839 14.1615 21.3861C13.2064 21.3924 12.4566 20.6827 12.0113 19.8983C11.8465 19.608 11.7573 19.2779 11.6351 18.9686L10.8793 17.0443ZM7.70676 1.34938C7.7013 1.435 7.73962 1.50261 7.75329 1.58558L8.17476 3.55689C8.19984 3.69463 8.23706 3.86326 8.28469 3.99566L8.75372 5.72966C8.78958 5.83288 8.8076 5.94618 8.84702 6.04705L9.44529 7.93775C9.46964 7.99879 9.48328 8.06209 9.50768 8.12282L9.60822 8.42952C9.64451 8.51523 9.65559 8.6154 9.71123 8.69429L9.71702 4.36361C9.71707 4.21893 9.6746 3.89094 9.7469 3.76632L9.75583 3.74975C9.88244 3.51826 10.226 3.523 10.2857 3.80825L10.2925 3.85208C10.3159 3.98354 10.3054 4.12897 10.3054 4.26273L10.3045 8.28568C10.3045 8.41356 10.2959 8.54778 10.3093 8.67486C10.3222 8.61416 10.3338 8.55512 10.3568 8.49735L10.5273 7.93801L10.8552 6.98024C11.3107 5.55561 11.7299 4.11325 12.0336 2.648L12.2058 1.77095C12.2322 1.62634 12.2666 1.48004 12.2831 1.33404C12.0626 1.43779 11.8251 1.50503 11.5934 1.5786L11.0023 1.77048C10.8327 1.82279 10.66 1.86969 10.4964 1.93911L10.8591 2.44129C10.9907 2.62473 11.2108 2.82761 11.0864 3.06618L11.0795 3.08007C10.9133 3.4075 10.676 3.20647 10.5285 3.01921L10.2393 2.63579C10.1594 2.5221 10.0873 2.39743 9.98983 2.29759L9.57926 2.87868C9.45895 3.04759 9.27612 3.39915 9.02259 3.18456C8.77242 2.97278 8.94865 2.71616 9.08526 2.50951L9.46905 1.92721C9.44001 1.90175 9.37333 1.8917 9.33562 1.8804L7.70676 1.34938Z" fill="black"/>
</svg>
