<svg width="23" height="18" viewBox="0 0 23 18" fill="none" xmlns="http://www.w3.org/2000/svg">
<path d="M1 16C1 16.1989 1.07902 16.3897 1.21967 16.5303C1.36032 16.671 1.55109 16.75 1.75 16.75H20.5C20.6989 16.75 20.8897 16.671 21.0303 16.5303C21.171 16.3897 21.25 16.1989 21.25 16V13.6619C21.2499 13.0324 21.0517 12.4188 20.6835 11.9082C20.3154 11.3975 19.796 11.0156 19.1988 10.8166L13.5053 8.91812C13.1099 8.78627 12.7462 8.57345 12.4376 8.29323C12.129 8.01301 11.8821 7.67155 11.7128 7.29062L9.53125 2.19531C9.45418 2.02273 9.31479 1.88562 9.14097 1.8114C8.96714 1.73718 8.77171 1.73132 8.59375 1.795L1.49406 4.375C1.34899 4.42767 1.22369 4.52381 1.13527 4.65032C1.04685 4.77683 0.999612 4.92753 1 5.08187V16Z" stroke="#343330" stroke-width="2" stroke-linecap="round" stroke-linejoin="round"/>
</svg>
