<svg width="22" height="24" viewBox="0 0 22 24" fill="none" xmlns="http://www.w3.org/2000/svg">
<path d="M13.0507 22.9065C12.7659 22.8765 12.4805 22.8233 12.1953 22.8069L10.8349 22.7938C10.7485 22.7929 10.6641 22.7789 10.5781 22.7763L10.0384 22.7847C9.69008 22.8052 9.3421 22.8644 8.9961 22.9066L7.22071 23.0371C6.26286 23.0737 5.32157 23.0786 4.42464 22.7075C3.88593 22.4846 3.63845 22.3758 3.59425 21.7748L3.50846 20.666L3.50235 19.6248C3.50317 19.3082 3.52393 19.0665 3.55869 18.7559C3.58724 18.5006 3.62375 18.2351 3.68021 17.9846L3.82007 17.4592C4.03053 16.7965 4.10575 16.2889 4.22687 15.6033L4.93135 11.7619C5.05494 11.0151 5.15396 10.5795 5.15106 9.81984C5.14794 9.01221 5.12312 8.24519 4.66846 7.55273C4.54525 7.36512 4.40664 7.18999 4.30963 6.98625C3.85614 6.03365 4.37075 4.88503 5.26607 4.40229C5.75129 4.14065 6.48512 3.96396 7.02465 3.72522C6.99721 3.37275 6.97267 3.1234 6.97065 2.75365C6.91431 2.79522 6.84327 2.80305 6.77811 2.8256L5.87092 3.17606C4.63159 3.65175 4.16312 3.83287 3.49862 5.05819L2.29089 7.1081L0.954461 9.02135C0.702121 9.37385 0.957346 9.61901 1.20507 9.88915C1.84883 10.5912 2.80914 11.2054 3.68935 11.5626L3.95047 11.6569C4.05561 11.6965 4.14953 11.7456 4.19771 11.8532L4.21363 11.8859C4.2996 12.0612 4.19202 12.2634 4.01162 12.32C3.86225 12.3669 3.69062 12.2684 3.55773 12.2131L2.86843 11.9011C2.28416 11.6088 1.68929 11.2266 1.19727 10.7907L0.970328 10.5731C0.499717 10.1271 0.0218268 9.58467 0.276461 8.89615C0.353688 8.68734 0.529846 8.50615 0.665896 8.33165L1.73258 6.78131L2.90821 4.78092C3.6684 3.39506 4.21004 3.09508 5.58533 2.57662L7.16797 1.94598C7.28631 1.89371 7.38048 1.71169 7.46858 1.61333C7.80123 1.24188 8.39148 0.969126 8.88796 0.9426L12.6877 0.937439C13.376 0.937495 14.0458 1.06343 14.5232 1.61778C14.9243 2.08343 14.9189 1.99294 15.5093 2.21877L16.1338 2.46466C18.0844 3.17688 18.3212 3.46748 19.3027 5.14139L20.3679 6.90007L21.4206 8.45796C21.9332 9.15677 21.9338 9.61387 21.2944 10.3045C20.6412 11.01 19.76 11.5959 18.8991 12.0162L18.404 12.2387C18.1657 12.3375 17.9087 12.4152 17.7789 12.1205C17.6951 11.93 17.8446 11.7365 18.02 11.6738C18.9782 11.3313 19.8995 10.7395 20.6379 10.0386C21.0963 9.60349 21.3196 9.44988 20.9496 8.92026L20.1381 7.74478L18.9602 5.8451C17.834 3.90708 17.8679 3.78171 15.7481 3.01479C15.5117 2.92929 15.2595 2.84191 15.038 2.72236L14.9895 3.65226C15.2597 3.92637 16.1145 4.13001 16.5118 4.356C17.1524 4.72038 17.6396 5.33313 17.8483 6.03726C17.9859 6.50191 17.8281 7.05888 17.5629 7.44726C17.4337 7.63631 17.2622 7.7838 17.1486 7.98797C16.6584 8.8683 16.8084 10.3204 16.9792 11.3158L17.3544 13.3953C17.3932 13.6093 17.4244 13.8263 17.4691 14.0391L17.6804 15.1172C17.6921 15.1691 17.6918 15.2239 17.7033 15.2754L17.8697 16.1018C17.9273 16.4499 17.9567 16.8492 18.0853 17.1808C18.1986 17.4725 18.2705 17.7765 18.3362 18.082L18.4754 19.1777C18.5039 19.3811 18.4993 19.6098 18.5002 19.8154L18.4091 21.6262C18.3676 22.1525 18.4489 22.2622 17.9018 22.5527C17.1522 22.9507 16.3794 23.0521 15.5422 23.0516L14.1811 23.008L13.0507 22.9065ZM10.3569 1.58844L9.52121 1.58899C9.35532 1.5892 9.17926 1.57798 9.01485 1.60104C9.3887 2.52813 10.6907 2.69018 11.5592 2.51636C12.1103 2.41858 12.7572 2.21205 12.9416 1.61244C12.6511 1.55928 12.3224 1.58858 12.0263 1.58846L10.3569 1.58844ZM13.5634 1.72804C13.509 2.00124 13.4971 2.26773 13.47 2.54297L13.3722 3.20334C13.3152 3.5321 13.232 3.85783 13.1492 4.18085L12.6803 5.72787C12.8822 5.70145 13.0981 5.57735 13.2715 5.47676C13.4408 5.35629 13.5936 5.23251 13.7283 5.07208C14.341 4.34201 14.7521 2.52801 13.8497 1.89148L13.5634 1.72804ZM8.4039 1.74353C7.75878 2.01066 7.48246 2.71404 7.64312 3.35972C7.66513 3.44812 7.65943 3.54286 7.67774 3.63286C7.80892 4.27793 8.09804 4.83436 8.63007 5.22684C8.79484 5.35338 8.96603 5.42644 9.16154 5.48972C9.05968 4.84879 8.96108 4.48507 8.78591 3.86583C8.62611 3.30091 8.5682 2.73478 8.4823 2.15693C8.46109 2.01427 8.44743 1.88216 8.4039 1.74353ZM12.7613 2.79492C11.8164 3.30131 10.1377 3.41158 9.21557 2.80078C9.29479 3.33919 9.44628 3.87754 9.61152 4.39514L9.70639 4.79468C9.83675 5.28002 9.78636 5.64994 10.0551 6.13343L10.6675 7.32869C11.4715 6.88404 11.7109 6.39937 12.0149 5.6178C12.1358 5.307 12.2507 4.9988 12.343 4.67782L12.7388 3.07697C12.7564 2.98251 12.7795 2.88642 12.7894 2.79091L12.7613 2.79492ZM14.8192 4.32921C14.4854 5.4697 13.6696 6.2599 12.4953 6.4384C12.3189 6.46521 12.1543 6.8366 12.0239 7.00195C11.8329 7.24397 11.6017 7.46693 11.3601 7.65825L11.1612 7.80738C11.1008 7.84847 10.9985 7.89841 10.9643 7.96289L10.9648 21.9658C10.9653 22.0261 10.9441 22.0924 10.9788 22.1461L14.9463 22.3714H15.753C16.3999 22.3703 17.0854 22.3146 17.6383 21.9409C17.6881 21.9072 17.7223 21.8963 17.7584 21.8419C17.7634 21.4752 17.818 21.114 17.8428 20.7486C17.9009 19.8939 17.8591 18.7471 17.6444 17.944C17.5675 17.6566 17.4518 17.3726 17.3902 17.0831L16.3995 11.7779L16.2619 10.9336C16.234 10.7347 16.2025 10.5278 16.1988 10.3272L16.1935 9.9015C16.1854 9.01155 16.1835 8.19391 16.7366 7.43245C16.9355 7.15861 17.1894 6.91603 17.2348 6.5625L17.2378 6.54126C17.3123 5.96442 16.7464 5.2799 16.2786 4.97901C15.8452 4.70029 15.1779 4.61062 14.8192 4.32921ZM7.19945 4.37695C6.71905 4.57868 5.88093 4.77888 5.47412 5.04072C4.96724 5.36697 4.66248 5.97904 4.84302 6.56948C4.92315 6.83149 5.13446 7.05895 5.27485 7.29258C5.77813 8.13007 5.78703 9.09384 5.7872 10.0402C5.78729 10.6181 5.75357 10.8207 5.65623 11.3906L4.61406 17.065C4.51363 17.5246 4.3292 17.9545 4.25375 18.4227C4.16898 18.9488 4.14254 19.4804 4.14367 20.0125L4.22652 21.5508C4.26296 21.8812 4.1601 21.8555 4.50782 22.0412C5.00497 22.3068 5.69985 22.4006 6.26251 22.3714L10.2843 22.133L10.2808 8.01895C10.2774 7.95047 10.0613 7.56286 10.0185 7.47937L9.42132 6.31404C9.3985 6.26716 9.38035 6.21684 9.34581 6.17721L9.32228 6.17404C8.33931 6.03724 7.58209 5.3673 7.24061 4.43346C7.23325 4.41335 7.23217 4.38825 7.2114 4.38108L7.19945 4.37695Z" fill="black"/>
</svg>
