<svg width="24" height="24" viewBox="0 0 24 24" fill="none" xmlns="http://www.w3.org/2000/svg">
<path d="M17.4037 8.92875V18.375C17.4037 18.6734 17.2852 18.9595 17.0742 19.1705C16.8632 19.3815 16.5771 19.5 16.2787 19.5H7.72119C7.42282 19.5 7.13667 19.3815 6.9257 19.1705C6.71472 18.9595 6.59619 18.6734 6.59619 18.375V8.92875" stroke="black" stroke-linecap="round" stroke-linejoin="round"/>
<path d="M16.5487 19.5V20.25C16.5487 20.4489 16.4697 20.6397 16.329 20.7803C16.1883 20.921 15.9976 21 15.7987 21H8.20117C8.00226 21 7.81149 20.921 7.67084 20.7803C7.53019 20.6397 7.45117 20.4489 7.45117 20.25V19.5" stroke="black" stroke-linecap="round" stroke-linejoin="round"/>
<path d="M6.59615 17.5538L5.91365 20.5987H4.1474C3.2249 17.0925 4.22615 10.7925 4.7849 7.84875C4.88046 7.35473 5.07447 6.885 5.35536 6.46753C5.63625 6.05006 5.99829 5.69338 6.4199 5.41875L7.68365 4.5975" stroke="black" stroke-linecap="round" stroke-linejoin="round"/>
<path d="M16.3162 4.6125L17.5799 5.43375C18.0027 5.70965 18.3655 6.06809 18.6465 6.48758C18.9274 6.90707 19.1208 7.37897 19.2149 7.875C19.7737 10.8037 20.7749 17.1037 19.8524 20.625H18.0824L17.4037 17.58" stroke="black" stroke-linecap="round" stroke-linejoin="round"/>
<path d="M11.9999 7.14375C8.68494 7.00125 7.87494 5.52375 7.69869 4.71375C7.66765 4.57068 7.67917 4.42166 7.73181 4.28505C7.78445 4.14845 7.87592 4.03024 7.99494 3.945L9.25869 3.03375C9.25869 3.03375 8.15994 5.4975 11.9999 7.15875" stroke="black" stroke-linecap="round" stroke-linejoin="round"/>
<path d="M12 7.14375C15.315 7.00125 16.125 5.52375 16.3013 4.71375C16.3323 4.57068 16.3208 4.42166 16.2681 4.28505C16.2155 4.14845 16.124 4.03024 16.005 3.945L14.7413 3.03375C14.7413 3.03375 15.84 5.4975 12 7.15875" stroke="black" stroke-linecap="round" stroke-linejoin="round"/>
<path d="M14.741 3.03375H9.25854" stroke="black" stroke-linecap="round" stroke-linejoin="round"/>
<path d="M10.2974 10.0537V6.91125" stroke="black" stroke-linecap="round" stroke-linejoin="round"/>
<path d="M13.6912 10.0537V6.91125" stroke="black" stroke-linecap="round" stroke-linejoin="round"/>
</svg>
