<svg width="24" height="24" viewBox="0 0 24 24" fill="none" xmlns="http://www.w3.org/2000/svg">
<path d="M12.1539 4.63125L9.21387 2.71125V5.04375L12.1539 6.62625V4.63125Z" stroke="black" stroke-linecap="round" stroke-linejoin="round"/>
<path d="M9.21377 5.04375H7.20752C6.41187 5.04375 5.64881 5.35982 5.0862 5.92243C4.5236 6.48504 4.20752 7.2481 4.20752 8.04375V16.995C4.20703 17.176 4.24226 17.3554 4.31121 17.5228C4.38015 17.6902 4.48144 17.8424 4.60929 17.9706C4.73714 18.0988 4.88902 18.2005 5.05624 18.2699C5.22346 18.3393 5.40273 18.375 5.58377 18.375C5.76433 18.375 5.94311 18.3394 6.10988 18.2702C6.27664 18.201 6.42811 18.0995 6.55561 17.9717C6.6831 17.8438 6.78412 17.6921 6.85288 17.5251C6.92163 17.3582 6.95677 17.1793 6.95627 16.9987V7.7925" stroke="black" stroke-linecap="round" stroke-linejoin="round"/>
<path d="M12.1538 4.63125L15.0901 2.71125V5.04375L12.1538 6.62625V4.63125Z" stroke="black" stroke-linecap="round" stroke-linejoin="round"/>
<path d="M15.0901 5.04375H17.0963C17.892 5.04375 18.655 5.35982 19.2177 5.92243C19.7803 6.48504 20.0963 7.2481 20.0963 8.04375V16.995C20.0973 17.1759 20.0626 17.3551 19.994 17.5225C19.9255 17.6899 19.8245 17.8421 19.697 17.9704C19.5695 18.0986 19.4178 18.2004 19.2508 18.2698C19.0838 18.3393 18.9047 18.375 18.7238 18.375C18.3588 18.375 18.0088 18.23 17.7507 17.9719C17.4926 17.7138 17.3476 17.3638 17.3476 16.9987V7.7925" stroke="black" stroke-linecap="round" stroke-linejoin="round"/>
<path d="M6.7124 17.7787V19.7587C6.7124 20.1566 6.87044 20.5381 7.15174 20.8194C7.43305 21.1007 7.81458 21.2587 8.2124 21.2587H16.0874C16.4852 21.2587 16.8668 21.1007 17.1481 20.8194C17.4294 20.5381 17.5874 20.1566 17.5874 19.7587V17.7787" stroke="black" stroke-linecap="round" stroke-linejoin="round"/>
<path d="M9.21387 2.71125H15.0901" stroke="black" stroke-linecap="round" stroke-linejoin="round"/>
<path d="M12.1538 21.2587V6.62625" stroke="black" stroke-linecap="round" stroke-linejoin="round"/>
<path d="M6.9563 10.6312H17.3475" stroke="black" stroke-linecap="round" stroke-linejoin="round"/>
<path d="M6.9563 14.205H17.3475" stroke="black" stroke-linecap="round" stroke-linejoin="round"/>
<path d="M6.7124 17.7787H17.5949" stroke="black" stroke-linecap="round" stroke-linejoin="round"/>
<path d="M4.20752 9.0225H6.95627" stroke="black" stroke-linecap="round" stroke-linejoin="round"/>
<path d="M4.20752 12.4238H6.95627" stroke="black" stroke-linecap="round" stroke-linejoin="round"/>
<path d="M4.20752 15.8213H6.95627" stroke="black" stroke-linecap="round" stroke-linejoin="round"/>
<path d="M17.3474 9.0225H20.0962" stroke="black" stroke-linecap="round" stroke-linejoin="round"/>
<path d="M17.3474 12.4238H20.0962" stroke="black" stroke-linecap="round" stroke-linejoin="round"/>
<path d="M17.3474 15.8213H20.0962" stroke="black" stroke-linecap="round" stroke-linejoin="round"/>
</svg>
