<svg width="24" height="24" viewBox="0 0 24 24" fill="none" xmlns="http://www.w3.org/2000/svg">
<path d="M14.3175 20.9425C14.0113 20.9606 13.7724 20.9824 13.6372 20.6624C13.5186 20.3816 13.4452 20.075 13.3506 19.7854L12.1677 15.8897C12.1122 15.7028 12.0333 15.5097 11.9964 15.3195L11.9937 15.305C11.9496 15.3949 11.9309 15.4864 11.9023 15.5813L10.5584 20.1874C10.3062 21.1149 10.2762 20.9755 9.37631 20.9122L7.34513 20.7246C5.5721 20.4784 3.80206 19.9951 2.30534 18.9779L1.88098 18.6862C1.42938 18.3526 1.51228 18.18 1.62251 17.7017L2.18657 15.4039C2.28096 15.0467 2.35491 14.8283 2.35526 14.4595L2.37949 13.6816C2.4079 13.2251 2.48684 12.837 2.56824 12.387L2.66794 11.6854C2.94115 9.64535 3.03056 7.97016 3.96722 6.10322L4.12437 5.78974C4.29202 5.44624 4.24531 5.50563 4.24125 5.13277L4.23992 3.93659C4.24017 3.54956 4.13695 3.15675 4.60355 3.01259C4.71445 3.00722 4.80063 3.03035 4.90831 3.04498L6.72668 3.27685L7.80842 3.34763C7.93934 3.35564 8.06953 3.37866 8.20069 3.38185L8.88485 3.38695C9.24656 3.39195 9.57209 3.42492 9.94718 3.42558L14.6398 3.42272C14.7507 3.42005 14.8552 3.39033 14.9649 3.38735L15.9347 3.37777C16.0419 3.37259 16.1468 3.35152 16.254 3.34397L17.1622 3.28043L18.9963 3.04983C19.1316 3.02916 19.291 2.98099 19.4257 3.02728L19.4415 3.03312C19.6613 3.11037 19.7427 3.28308 19.7491 3.49669L19.7524 5.05488C19.7524 5.15325 19.7293 5.48372 19.7717 5.56135C20.03 6.03441 20.2881 6.53592 20.478 7.04065L20.6253 7.5C20.6741 7.64885 20.7277 7.80588 20.7595 7.95928L20.9325 8.74345L21.377 12.0059C21.4314 12.4363 21.5584 12.8577 21.6036 13.2891C21.6378 13.6148 21.6534 13.929 21.6543 14.2567C21.6555 14.7323 21.654 14.7771 21.7411 15.2344L21.7875 15.4102C21.8206 15.5816 21.8816 15.7519 21.9188 15.9231L22.0489 16.4694C22.0624 16.5189 22.0677 16.5709 22.0853 16.6192L22.4448 17.8699C22.4828 18.0614 22.6239 18.2666 22.5536 18.4635L22.5472 18.4805C22.4663 18.7116 22.3039 18.7532 22.1003 18.8621L21.4982 19.1825C19.2698 20.3033 16.8178 20.9464 14.3175 20.9425ZM5.0771 3.91594L5.07767 5.0903C6.33024 5.58122 7.55391 5.64638 8.86772 5.64752L16.1467 5.64288C16.6277 5.61835 17.4309 5.53198 17.8913 5.40809L18.7645 5.16021L18.9079 5.10152L18.9124 4.3676C18.9123 4.22325 18.9196 4.07243 18.9028 3.92937L16.8986 4.1622L15.1616 4.23103C15.0515 4.23516 14.9461 4.26985 14.8331 4.27315L9.35972 4.27367C9.28854 4.27364 9.21361 4.27938 9.14414 4.26368L5.0771 3.91594ZM4.99113 5.96599C4.81601 6.30204 4.61351 6.62684 4.45899 6.97277C4.1554 7.65251 3.98224 8.39871 3.86885 9.13109L3.76207 9.89508C4.19726 9.81656 4.62631 9.63134 4.97909 9.36492C5.90569 8.6696 6.52788 7.50912 6.75115 6.37599L5.9498 6.24009C5.62474 6.17044 5.30639 6.07036 4.99113 5.96599ZM19.0329 5.98233L18.2224 6.20597C17.912 6.285 17.5886 6.33738 17.2708 6.37603L17.3483 6.71445C17.5677 7.69104 18.2228 8.78128 19.0279 9.36431C19.3628 9.61116 19.8178 9.83665 20.2351 9.89051L20.1525 9.22104C19.9735 8.11383 19.7682 7.39374 19.2536 6.42188L19.0918 6.10062C19.0754 6.06741 19.0561 6.00987 19.0329 5.98233ZM7.60493 6.46795C7.56159 6.58435 7.53607 6.71426 7.49895 6.84375L7.2957 7.48362C6.76024 8.98744 5.6236 10.4047 3.99047 10.7219L3.62227 10.7778C3.60024 10.8829 3.59642 10.9921 3.58247 11.0987L3.23883 13.4724C3.16259 14.0006 3.25849 14.5915 3.1441 15.0703L3.0611 15.4074C2.95495 15.807 2.82406 16.2116 2.74877 16.6172C3.46742 17.2498 5.49863 17.8501 6.40706 18.0794L10.0603 18.8854C10.1104 18.6621 10.1842 18.4433 10.2451 18.2226L11.3541 14.5651C11.4337 14.3168 11.5064 14.0434 11.6151 13.8067C11.7634 13.4838 12.1978 13.4516 12.3628 13.7695C12.4391 13.9166 12.4821 14.0848 12.5338 14.2419L12.7797 15.018C12.8369 15.2076 12.8885 15.4055 12.9574 15.5909L13.3858 17.0156C13.4157 17.1088 13.4368 17.2109 13.4723 17.3008L13.7949 18.3584L13.933 18.7958C15.681 18.9908 17.3643 18.0345 18.941 17.4318L21.232 16.6667L20.9059 15.3633C20.7975 14.9064 20.8066 14.8288 20.8098 14.3539C20.8153 13.5284 20.6768 12.9608 20.5436 12.1582L20.3756 10.7738C18.4498 10.6383 17.1042 8.87513 16.6024 7.14511L16.4321 6.46052L15.4579 6.48049C15.4538 7.52501 14.8886 8.42906 13.8224 8.67089C13.4804 8.74847 13.1408 8.74144 12.7929 8.74174L11.0769 8.74172C10.8319 8.74144 10.5947 8.74313 10.3515 8.70603C9.4376 8.56664 8.60093 7.75599 8.57653 6.80562L8.57604 6.47663L7.60493 6.46795ZM13.2107 6.50088L9.41241 6.50386C9.33764 7.16953 9.8711 7.82534 10.5272 7.88245L10.8134 7.88794L13.1475 7.88749C13.9803 7.88663 14.6408 7.40128 14.6172 6.50311L13.2107 6.50088ZM21.4322 17.4902C21.2217 17.567 21.0053 17.6163 20.7922 17.683L19.4172 18.1477L17.6156 18.8852C16.4798 19.3534 15.4532 19.7182 14.1941 19.6521L14.3015 19.9907C14.3099 20.025 14.3239 20.0579 14.3439 20.087L14.4145 20.094C14.7081 20.063 15.0055 20.088 15.2986 20.0605L16.5236 19.9201C18.0101 19.7023 19.4177 19.2336 20.774 18.5936L21.6481 18.1339L21.4322 17.4902ZM2.54009 17.4952L2.41856 18.0004C4.0571 19.2979 6.31824 19.8001 8.35069 19.9863C8.80369 20.0278 9.25411 20.0748 9.70948 20.0723L9.81795 19.7062L7.28182 19.1567L5.32292 18.6738C4.36936 18.3992 3.37945 18.0323 2.54009 17.4952Z" fill="black"/>
</svg>
