<svg width="20" height="20" viewBox="0 0 20 20" fill="none" xmlns="http://www.w3.org/2000/svg">
<path d="M10.9546 16.9699C10.8539 16.5495 10.7395 16.1458 10.6775 15.7161C10.6387 15.4469 10.6598 15.1661 10.5937 14.9016C10.458 14.3587 10.1855 13.8533 10.0375 13.3112L10.0347 13.3006C9.88925 13.5641 9.78355 13.8581 9.67048 14.1367L9.47316 14.6468C9.35183 14.9934 9.36474 15.3207 9.33788 15.6833C9.27716 16.5031 9.06221 17.2889 8.70169 18.0264L8.49123 18.4278C8.42567 18.558 8.38416 18.695 8.29051 18.8092C7.76384 19.4513 6.40344 19.5578 5.58774 19.5005C4.32507 19.4118 2.22638 18.8246 1.25143 17.932C0.818327 17.5354 0.530374 17.0005 1.0557 16.5558C1.12332 16.4985 1.10101 16.434 1.11301 16.3505L1.18447 15.9596C1.25173 15.632 1.34373 15.3055 1.43628 14.9842L1.73888 14.0781C1.98753 13.3503 2.23744 12.6302 2.42464 11.8835L2.63682 10.832L2.74855 9.91216C2.80339 9.48773 2.9052 9.07778 3.03669 8.67112L3.51929 7.26227C3.67761 6.77128 3.80698 6.26821 4.01598 5.79525C4.37173 4.99014 4.85164 4.61184 4.98828 3.65634L5.02323 3.349C5.03562 3.26971 5.07052 3.19668 5.08046 3.11775L5.18541 1.88416C5.21478 1.59675 5.26749 1.31231 5.32918 1.03031C5.37999 0.798019 5.40127 0.547613 5.66642 0.474886C5.80653 0.455457 5.96813 0.507675 6.10845 0.5253L8.72251 0.724824L11.3829 0.726277C11.5113 0.724589 11.653 0.731105 11.7793 0.706753C12.012 0.661871 12.2637 0.686152 12.5002 0.666394L14.1424 0.484871C14.3556 0.454871 14.546 0.51855 14.5892 0.747136L14.7909 1.83653C14.825 2.0245 14.8359 2.23596 14.8497 2.42838L14.8769 2.99697C14.9121 3.55092 15.0259 4.27933 15.309 4.74539L15.6351 5.24308C15.9374 5.75725 16.1997 6.34129 16.3643 6.91797L16.5522 7.49219C16.6073 7.68965 16.6861 7.88896 16.7575 8.08148L17.0698 9.02528C17.1147 9.24403 17.1837 9.44824 17.2189 9.67188L17.3186 10.4146C17.3595 10.7642 17.4404 11.4512 17.5542 11.7859L17.8193 12.7598C17.8695 13.0023 17.9776 13.2435 18.0504 13.4805L18.4747 14.6825L18.8799 16.3624C18.8852 16.3941 18.884 16.5247 18.8967 16.5437C18.9664 16.6478 19.0908 16.6726 19.1803 16.8689L19.1874 16.8848C19.5846 17.7555 17.9678 18.4949 17.3565 18.7506C16.2929 19.1954 15.1397 19.5023 13.9813 19.5058C13.2244 19.5081 12.1878 19.37 11.6955 18.7393C11.6189 18.6412 11.5786 18.509 11.5258 18.3973L11.2535 17.8257C11.136 17.5446 11.0509 17.2578 10.9546 16.9699ZM6.02248 1.2933C5.94334 1.73707 5.84061 2.63496 5.85055 3.09714C6.11555 3.10771 6.39144 3.09414 6.65415 3.12424L8.02836 3.31455C8.66288 3.37481 8.73941 3.35041 9.29508 3.17561C9.19885 2.75224 8.74798 2.86682 8.65906 2.51493C8.59498 2.26127 8.83873 2.03615 9.086 2.07407C9.49803 2.13726 9.7835 2.42559 10.0377 2.73412L10.044 2.71816C10.1547 2.43881 10.4593 2.20964 10.733 2.09805L10.8026 2.07745C11.159 1.98869 11.4995 2.31726 11.2796 2.64063C11.1125 2.88632 10.7823 2.76588 10.7374 3.19141L10.7291 3.27344L10.9696 3.29449L14.1389 3.09609C14.1044 2.66667 14.0897 2.23143 14.0304 1.80478L13.9336 1.2933L12.2282 1.45868L11.2816 1.49519L8.87485 1.49625L7.83774 1.46238C7.27974 1.44164 6.56119 1.37716 6.02248 1.2933ZM5.73462 3.86423C5.58788 4.71185 5.43809 4.90345 5.00405 5.57151C4.78815 5.90388 4.64581 6.2305 4.51946 6.60433L4.13965 7.8086C3.80328 8.7941 3.57837 9.37584 3.4625 10.4077L3.3688 11.0583C3.24786 11.8287 3.03786 12.5766 2.79835 13.3165C2.51448 14.1936 2.16305 15.0518 1.95973 15.9531C1.92549 16.1049 1.87285 16.2734 1.86669 16.4289L2.32142 16.4306C3.08661 16.4357 3.68356 16.7522 4.36749 17.0583C5.01772 17.3493 5.6952 17.5071 6.40519 17.5463C7.04837 17.5818 7.27946 17.6441 7.90974 17.8716C8.28596 17.2205 8.51644 16.4369 8.59198 15.6886C8.62055 15.4055 8.6045 15.134 8.64948 14.8328C8.71693 14.3809 9.53511 12.2088 9.9061 12.0847L9.92251 12.079C10.2023 11.9885 10.3725 12.1796 10.4771 12.4087L11.3309 14.7548C11.397 14.9879 11.39 15.2298 11.409 15.4687C11.4369 15.8211 11.4991 16.2081 11.6134 16.543L11.9256 17.4767C11.9709 17.6198 12.0528 17.7865 12.1297 17.913C12.8251 17.5716 13.5411 17.6092 14.2678 17.4215C14.839 17.274 15.3676 17.043 15.9132 16.8251L16.2721 16.6955C16.8704 16.4903 17.5006 16.4226 18.1313 16.4343L17.8221 15.0988L16.949 12.4345C16.8151 11.9276 16.6998 11.4032 16.6213 10.8848C16.5599 10.48 16.547 10.0646 16.4639 9.66382C16.362 9.17285 16.1797 8.70014 16.0153 8.22801L15.5126 6.74962C15.3848 6.38629 15.2446 6.02025 15.04 5.69221C14.8618 5.40665 14.6338 5.13703 14.4941 4.83063C14.3535 4.52207 14.3152 4.20738 14.2236 3.88921C13.7336 3.88296 13.2463 3.94628 12.7592 3.9896L12.3169 4.01064C12.22 4.01735 12.1251 4.03802 12.0277 4.04151L11.1916 4.04421C11.1019 4.04423 10.9642 4.02705 10.8811 4.05103L10.8852 4.06096C10.9738 4.29935 11.0141 4.59979 11.0972 4.80818L11.1397 4.95215C11.2501 5.24397 11.1384 5.62563 11.0838 5.91665C11.0002 6.36274 11.0212 6.87571 11.141 7.31693C11.2537 7.73172 10.547 7.88777 10.4094 7.48047L10.404 7.46514C10.2974 7.15054 10.2389 6.31476 10.3006 5.96332L10.401 5.48343C10.4866 5.03013 10.2339 4.52069 10.0712 4.10955C10.0005 4.17377 9.94843 4.31039 9.90694 4.39539C9.30338 5.6321 9.6856 5.38258 9.71197 6.49643L9.71375 7.45666C9.71037 7.692 9.70686 7.95018 9.47251 8.08007C9.26642 8.19431 9.06181 8.11118 8.96037 7.90821L8.95236 7.89267C8.9015 7.78469 8.94172 7.57551 8.95147 7.45767L8.96098 7.2011C8.96485 6.84646 8.96288 6.4905 8.91727 6.13821L8.8231 5.58993C8.75412 5.04888 8.96276 4.53663 9.20869 4.06886L8.11365 4.09366C7.96262 4.08932 7.80812 4.08895 7.65922 4.06054L7.42791 4.02557C6.81041 3.91225 6.37217 3.85495 5.73462 3.86423ZM2.03244 17.2156L1.65205 17.2508C2.09944 17.8127 3.39251 18.2557 4.04673 18.4364L4.55778 18.5531C5.28141 18.7159 6.24059 18.8513 6.95801 18.6446C7.11573 18.616 7.2706 18.5569 7.41608 18.4902C6.94976 18.2852 6.42233 18.3246 5.92826 18.2842C5.31854 18.2345 4.6793 18.0221 4.12308 17.7816C3.65506 17.5792 3.19147 17.3063 2.68226 17.2259C2.47587 17.1934 2.24192 17.2152 2.03244 17.2156ZM17.6253 17.2203C16.7339 17.3088 16.424 17.4492 15.6058 17.7842C15.0677 18.0044 14.5037 18.1896 13.9268 18.2749L13.1376 18.3854C12.9791 18.4127 12.8067 18.4468 12.6586 18.5094C12.9294 18.612 13.1806 18.6724 13.466 18.7172C15.0518 18.7148 16.2986 18.5385 17.7371 17.7405C17.9572 17.6184 18.2326 17.4754 18.3761 17.2596C18.2033 17.2144 17.8156 17.193 17.6253 17.2203Z" fill="black"/>
</svg>
