
<svg width="22" height="20" viewBox="0 0 22 20" fill="none" xmlns="http://www.w3.org/2000/svg">
<path d="M15.6933 19.281L5.71928 19.2816C5.45345 19.2814 5.12603 19.2822 5.0863 18.9121C5.07983 18.8519 5.0961 18.783 5.0968 18.7214L5.09987 18.1773C5.1014 17.9133 5.12718 17.6458 5.15324 17.3828L5.25308 16.6147L5.60619 14.852C5.6402 14.6494 5.65119 14.4408 5.66814 14.2363L5.74223 13.2718C5.76501 12.8117 5.71276 12.428 5.70805 11.9956L5.70175 10.5273C5.69954 10.4203 5.67355 10.3166 5.67079 10.2109L5.62068 8.4016C5.59808 8.41742 5.57394 8.4369 5.54753 8.44541L5.50975 8.4572C5.1932 8.59979 4.86079 9.09017 4.72705 9.38889C4.64891 9.5634 4.62098 9.78563 4.42323 9.86985L4.40819 9.87592C4.22533 9.95113 4.03487 9.81906 3.8773 9.73897C2.84179 9.21259 1.16532 7.97425 0.919376 6.75472C0.878866 6.55386 0.942736 6.4738 1.06521 6.33411L1.84218 5.28828C2.5439 4.21063 3.02118 2.83757 4.15832 2.12657C4.58415 1.86029 5.06366 1.73406 5.53815 1.58664L7.57733 0.919441C7.792 0.845754 8.01819 0.75416 8.24038 0.709582C8.49918 0.688394 8.5937 0.947097 8.70749 1.13003C9.82164 2.92128 11.7877 3.17253 13.1009 1.39382L13.2909 1.11156C13.6207 0.573363 13.582 0.674285 14.1992 0.860355L16.039 1.43099C17.6389 1.90956 18.2055 2.04634 19.1658 3.61056L19.9621 4.95062C20.2284 5.38403 20.5078 5.83993 20.8486 6.2207C21.0235 6.41612 21.1459 6.51432 21.0622 6.80415C20.7728 7.80592 19.813 8.66607 18.9683 9.24636C18.7383 9.40438 17.8823 9.94225 17.6259 9.88778C17.218 9.8011 17.2406 8.83264 16.3386 8.42996L16.3039 9.2161C16.2771 9.41675 16.2968 9.64215 16.2966 9.8454L16.2891 11.077C16.2871 11.2299 16.251 11.3727 16.2441 11.5234L16.2367 12.679C16.2372 12.9988 16.2248 13.3276 16.2512 13.6462L16.3167 14.2274C16.3283 14.3312 16.3293 14.4379 16.3442 14.541C16.4325 15.1535 16.6373 15.7484 16.7449 16.3584L16.906 17.513C16.9406 17.831 16.9307 18.1598 16.931 18.4796L16.9311 18.7844C16.9311 18.8498 16.9369 18.9083 16.9134 18.9712L16.9067 18.9883C16.796 19.2809 16.604 19.2814 16.3463 19.2818L15.6933 19.281ZM8.06985 1.48632L5.28123 2.40299C4.15813 2.78987 3.8728 3.22208 3.28084 4.21869L2.77701 5.10446C2.5116 5.55634 2.22592 5.99535 1.90586 6.41054C3.05833 6.86282 3.73804 7.54771 4.37648 8.56196C4.75035 8.04596 5.30003 7.6768 5.9346 7.56929C6.40234 7.49005 6.34644 7.99789 6.34708 8.26937L6.34848 9.13932C6.34888 9.37855 6.33676 9.62371 6.38183 9.85946L6.76642 9.62256C7.67254 9.07574 8.8675 9.01264 9.87569 9.26985C10.1027 9.32776 10.3195 9.39817 10.5525 9.43393C11.0641 9.5125 11.7958 9.4059 12.2323 9.15268L13.9032 8.31676L14.4952 8.08426C15.8384 7.5426 16.531 7.29899 17.621 8.61231C17.9823 7.76593 19.0348 6.85389 19.8536 6.52382L20.1117 6.41884C19.5786 5.71979 19.1457 4.94825 18.7039 4.19026C18.0546 3.07646 17.7163 2.68218 16.5195 2.31118L13.8887 1.49078C13.8651 1.50078 13.8416 1.55989 13.8276 1.58403C13.3997 2.32555 12.4444 3.02232 11.6328 3.25065C10.4818 3.57444 9.24969 2.89147 8.5108 2.03926C8.42985 1.94589 8.12666 1.48096 8.06985 1.48632ZM1.83653 7.13603C2.14129 7.66787 2.67969 8.09741 3.1623 8.45577L3.74418 8.86928C3.41017 8.2581 2.81659 7.67432 2.22606 7.32568C2.09807 7.25014 1.96785 7.2013 1.83653 7.13603ZM20.1094 7.1582C19.4411 7.45283 18.617 8.16517 18.3183 8.8171L18.3301 8.82939C18.9284 8.45994 19.7698 7.76783 20.1257 7.16992L20.1094 7.1582ZM15.6093 8.42382L13.5682 9.23253C13.0621 9.4621 12.6064 9.80781 12.0853 9.99507C11.4749 10.2145 10.6957 10.2314 10.0758 10.0702C9.4258 9.90116 8.81971 9.71687 8.12889 9.89544L7.81834 9.96812C7.52671 10.051 6.5961 10.4674 6.40705 10.7215L6.41521 11.7068C6.41521 11.871 6.39372 12.061 6.42822 12.2207C6.4794 12.2224 6.82487 11.9977 6.89643 11.9603C7.18199 11.811 7.49378 11.6841 7.8089 11.6113L8.29281 11.5236C8.4048 11.4987 8.53755 11.5094 8.65201 11.5092C9.24937 11.5083 9.5331 11.5764 10.1217 11.7373C10.3682 11.8046 10.5404 11.8367 10.7996 11.8384C11.3921 11.8422 11.9861 11.7862 12.5351 11.5458C12.7856 11.4362 13.0218 11.2993 13.2775 11.2005C14.1452 10.865 14.6332 10.8779 15.3825 10.2406C15.6535 10.01 15.5936 10.1004 15.5948 9.74256L15.5966 9.07766C15.5968 9.00477 15.6348 8.45399 15.6151 8.42631L15.6093 8.42382ZM15.543 11.0019C15.0643 11.4484 14.1196 11.6439 13.5195 11.8779L12.5825 12.2852C11.8477 12.566 10.8581 12.669 10.0829 12.4607L9.51426 12.2925C8.75786 12.1067 7.8561 12.2375 7.18251 12.6107C7.08974 12.6621 6.47783 13.0374 6.43537 13.0893L6.35655 14.3301L6.37178 14.345C7.39438 13.9226 8.3184 13.7132 9.44429 13.9071C9.82546 13.9728 10.1959 14.0938 10.5832 14.1235C12.2631 14.2524 14.0933 13.4112 15.4101 12.4079C15.4577 12.3716 15.5158 12.3456 15.5508 12.2972L15.543 11.0019ZM15.5365 13.1872C15.1291 13.5138 14.6656 13.7562 14.1992 13.9849L13.5261 14.2838C12.4562 14.7373 11.382 14.947 10.2108 14.8157C10.0199 14.7943 9.83132 14.7393 9.64419 14.6977C8.60153 14.4655 7.56294 14.5685 6.59537 15.0269L6.39395 15.1243C6.23467 15.2003 6.27761 15.1868 6.24088 15.3529L6.01499 16.3809C6.00001 16.4618 5.9718 16.549 5.97754 16.6322L6.10164 16.5881C6.32158 16.4894 6.54869 16.4033 6.78123 16.3391L7.14306 16.2568C7.52819 16.1601 8.45617 16.1603 8.89316 16.1991C9.39646 16.2438 9.87126 16.3926 10.3672 16.4684C12.1937 16.7476 14.3078 15.6823 15.6413 14.5245L15.5365 13.1872ZM15.7757 15.2988L15.5361 15.507C14.2965 16.508 12.5519 17.2108 10.9449 17.2098C10.2689 17.2093 9.91926 17.0774 9.30409 16.9763C8.34672 16.8189 7.22411 16.8742 6.33116 17.2476L5.84875 17.4743L5.7858 18.3703C5.78209 18.5529 5.7287 18.6738 5.98729 18.611L16.243 18.6118L16.2058 17.5689C16.1427 16.8334 15.9989 16.0091 15.7757 15.2988Z" fill="black"/>
</svg>
