<svg width="24" height="24" viewBox="0 0 24 24" fill="none" xmlns="http://www.w3.org/2000/svg">
<path d="M22.1188 10.7709L23.4243 11.1922L24 9.40828L11.1598 5.2647L10.5841 7.04859L12.7464 7.74637V13.1119H9.72872L1.55989 5.85071L0.314584 7.25174L3.89019 10.4301L2.2811 13.1119H0V15.9236C0 17.474 1.26134 18.7353 2.81171 18.7353H21.1816C22.732 18.7353 23.9933 17.474 23.9933 15.9236V13.1119H22.1188V10.7709ZM20.2443 13.1119H18.3699V9.5611L20.2443 10.166V13.1119ZM14.6209 8.35126L16.4954 8.95615V13.1119H14.6209V8.35126ZM5.31583 11.6973L6.90726 13.1119H4.46702L5.31583 11.6973ZM22.1188 15.9236C22.1188 16.4404 21.6984 16.8609 21.1816 16.8609H2.81171C2.29492 16.8609 1.87448 16.4404 1.87448 15.9236V14.9864H22.1188V15.9236Z" fill="black"/>
</svg>
