<svg width="24" height="24" viewBox="0 0 24 24" fill="none" xmlns="http://www.w3.org/2000/svg">
<path d="M21.6052 14.9679C19.5983 14.6591 17.8681 13.6905 16.4442 12.0832L17.9233 10.9984L16.8144 9.48647L15.3175 10.5844L14.2764 9.02273L15.8238 7.88798L14.715 6.37598L13.2353 7.46109L10.4582 3.2955L8.0963 5.65744C6.85683 6.89691 5.2088 7.57955 3.45591 7.57955H0V20.7045H7.5V17.0393C9.06787 17.3263 10.419 18.3263 11.151 19.7904L11.6081 20.7045H24V17.7365C24 16.3458 22.9928 15.1815 21.6052 14.9679ZM5.625 18.8295H1.875V16.9545H5.625V18.8295ZM22.125 18.8295H12.7654C12.1827 17.7189 11.3138 16.786 10.2453 16.1257C9.13791 15.4412 7.86441 15.0795 6.5625 15.0795H1.875V9.4545H3.45591C5.70966 9.4545 7.82845 8.57686 9.42211 6.9832L10.1668 6.2385L11.7218 8.57095L9.75811 10.011L10.8669 11.523L12.7629 10.1325L13.804 11.6943L11.9755 13.0353L13.0844 14.5473L14.9258 13.1967C16.6603 15.2164 18.8046 16.434 21.32 16.8211C21.7864 16.8929 22.125 17.2778 22.125 17.7365V18.8295Z" fill="black"/>
</svg>
