<svg width="20" height="24" viewBox="0 0 20 24" fill="none" xmlns="http://www.w3.org/2000/svg">
<path d="M8.95801 18.4594L8.96328 19.207C8.96961 19.3347 8.99914 19.4607 9.00214 19.5879L9.01932 20.74C9.0227 20.8382 9.04128 20.9346 9.04656 21.0325L9.05553 21.4784C9.05856 21.5795 9.07663 21.7127 9.04562 21.8082L9.03913 21.8262C8.96263 22.0415 8.70045 22.2008 8.51448 22.316L8.2359 22.4865C7.17845 23.0894 6.16639 23.2046 4.99398 23.2036L4.55371 23.199C4.36972 23.1937 4.17838 23.1637 3.99678 23.1326C3.64023 23.0716 2.84647 22.9873 2.68159 22.6065C2.63762 22.505 2.64503 22.3848 2.63085 22.2758L2.22135 19.7072C2.08909 19.0076 1.94661 18.2984 1.75618 17.6121L1.15815 15.53C0.958369 14.6884 0.829275 13.8483 0.750525 12.9875L0.689494 12.1584C0.627384 9.86646 1.15925 7.37278 1.9257 5.2316C2.13892 4.63599 2.36378 4.02099 2.71091 3.48738C2.78295 3.37664 2.88242 3.31805 2.88292 3.18068L2.88416 2.03392C2.88442 1.80626 2.85852 1.6173 2.957 1.40625C3.28206 0.709685 3.8076 0.808725 4.39253 0.889919L6.94121 1.12327L8.85254 1.2175L11.6343 1.20788C11.7241 1.20441 11.8121 1.18747 11.9009 1.1832L14.6874 0.983526L16.0378 0.813208C16.5453 0.692212 17.105 1.21763 17.1135 1.76233L17.1152 3.18288C17.117 3.2588 17.1251 3.26489 17.1803 3.32227C17.541 3.69748 18.0888 5.20542 18.239 5.71875L18.4294 6.32388C18.4339 6.34196 18.4382 6.35883 18.4448 6.37634L18.6171 6.9818C18.6451 7.12404 18.688 7.2641 18.719 7.40625L19.0729 9.10252L19.2871 10.7988L19.3027 12.344L19.2407 13.064C19.1829 13.649 19.1168 14.2238 18.9997 14.8008L18.6326 16.3147C18.5969 16.4756 18.5322 16.6345 18.4854 16.793L18.2504 17.5664L17.839 19.3694L17.362 22.3392C17.3494 22.4304 17.3546 22.5283 17.3192 22.6146L17.3131 22.6289C17.088 23.1658 15.414 23.2053 14.9363 23.2044C13.8227 23.2022 12.73 23.0177 11.746 22.4716C11.5399 22.3573 10.9662 22.0421 10.9323 21.7745C10.917 21.6541 10.9331 21.5173 10.934 21.3948L10.9412 20.559C10.9449 20.4738 10.9654 20.3918 10.9703 20.3069L11.0341 18.8997L11.0375 16.6709L10.9929 16.1526C10.9321 15.1987 10.7118 13.7125 10.0004 13.0868C9.23558 13.8559 9.12221 14.9059 9.01928 15.9492L8.99481 16.4473C8.98696 16.5592 8.96635 16.6686 8.96214 16.782L8.95801 18.4594ZM3.78289 1.45477C3.65394 1.50099 3.49688 1.60204 3.4926 1.75523L3.49719 3.08958C3.49501 3.32128 3.42552 3.35412 3.62928 3.38963L4.56245 3.55913L7.42182 3.93635L8.59677 4.03362L11.3374 4.03292L13.473 3.83442L15.9901 3.46036L16.5082 3.35874L16.5102 1.91752C16.5064 1.49889 16.3286 1.41851 15.9125 1.48067L14.2268 1.67477L11.8541 1.83587L10.6873 1.84388C10.6013 1.84541 10.5167 1.85951 10.4309 1.86235L8.31245 1.83845C8.24748 1.8365 8.18378 1.82527 8.11909 1.821L6.93603 1.76707L4.02338 1.47919C3.94459 1.46774 3.8627 1.44995 3.78289 1.45477ZM3.17753 3.91566C2.76341 4.66653 2.4853 5.48445 2.23131 6.30021L1.6205 8.70947L1.39719 10.2745C1.37007 10.5241 1.32594 10.7756 1.31349 11.0266L1.35355 12.8773C1.36358 12.9963 1.36447 13.1181 1.3797 13.2363L1.59547 14.6536C1.61661 14.7699 1.63299 14.9008 1.66602 15.0133L1.99056 16.2828C2.02178 16.3942 2.05456 16.5214 2.09717 16.6281L2.37863 17.5407L2.6582 18.7277C2.67556 18.7854 2.68044 18.8427 2.69331 18.9007L2.75825 19.1953C2.76657 19.2428 2.76885 19.2868 2.78347 19.3333C4.07171 19.7908 5.86956 19.8023 7.18923 19.5868C7.58225 19.5227 7.96192 19.4139 8.34667 19.3144L8.34317 19.2924C8.31922 19.135 8.32595 18.9718 8.32553 18.8129L8.32606 17.2969L8.36994 16.2305C8.37404 16.1626 8.38916 16.0991 8.39532 16.0333L8.45174 15.4863C8.55385 14.6299 8.86468 12.9414 9.75385 12.5035L9.77326 12.4937C10.485 12.1426 11.1181 13.5105 11.2715 14.0797C11.2781 14.1045 11.274 14.0906 11.2826 14.1133L11.4303 14.7129C11.5754 15.4061 11.6215 16.1047 11.6495 16.8105L11.6735 17.1504L11.6436 19.3115C11.7075 19.3504 11.7588 19.3507 11.8277 19.3686L12.2499 19.473C13.0533 19.6575 13.8621 19.7527 14.6874 19.7322L16.0292 19.6061C16.1667 19.5854 16.3044 19.5662 16.4398 19.5324L17.2098 19.3276C17.2437 19.2603 17.2664 19.0216 17.2851 18.9316L17.5496 17.7612C17.6927 17.1833 17.9079 16.6202 18.0698 16.0466L18.4412 14.4344L18.6804 12.3321L18.682 11.0756C18.6692 10.7722 18.6235 10.4624 18.5899 10.1602C18.3845 8.3137 17.8195 5.97776 17.0061 4.26931C16.9532 4.15828 16.9037 4.03273 16.842 3.92747L16.8305 3.91184C16.409 4.0373 15.9705 4.11528 15.5371 4.18678L13.4459 4.46939C13.446 4.64628 13.4747 4.81533 13.4945 4.9901L13.6408 5.95151C13.6866 6.2066 13.7347 6.46985 13.822 6.71485L14.0022 7.27807C14.1629 7.74246 14.2667 8.25422 14.338 8.73806L14.3813 9.08691C14.3942 9.22404 14.4069 9.35918 14.4152 9.49646L14.4303 9.97202C14.4278 10.4756 13.8509 10.3778 13.8139 10.0315C13.7983 9.88519 13.8104 9.73481 13.8013 9.58763C13.7762 9.17967 13.7322 8.75499 13.6467 8.35474C13.46 7.48132 13.1086 6.66056 12.9677 5.7731L12.9012 5.22797C12.8708 5.00651 12.8329 4.78038 12.82 4.55747L11.2051 4.68317L8.84729 4.68303L7.16741 4.54205C7.07544 5.15135 7.07621 5.68151 6.92138 6.31641C6.65971 7.38938 6.26509 8.32477 6.20007 9.45703L6.18992 9.87521C6.18906 9.94376 6.19571 10.0229 6.1797 10.0895C6.11429 10.3617 5.77152 10.3922 5.63131 10.1685C5.53388 10.0131 5.57856 9.80625 5.58507 9.63354L5.60089 9.20463C5.6406 8.70492 5.73894 8.19565 5.86335 7.71026L6.19274 6.64737C6.27547 6.35295 6.60177 4.76684 6.53825 4.46597C6.31412 4.42697 6.08267 4.41813 5.85681 4.38867L4.34584 4.16569C3.95377 4.1006 3.5574 4.03526 3.17753 3.91566ZM11.5964 19.965L11.5827 20.4821C11.5817 20.8102 11.564 21.2533 11.5366 21.5715C12.5462 22.396 14.2404 22.6774 15.5313 22.5493L16.1503 22.4625C16.3534 22.4296 16.5592 22.3921 16.748 22.3074L16.7877 22.0025L17.0719 20.0406C15.3539 20.5474 13.2973 20.4695 11.5964 19.965ZM8.33288 19.9863C7.73164 20.1448 7.10877 20.2733 6.48945 20.3327L6.15034 20.3511C5.05147 20.4189 3.98982 20.324 2.92302 20.0315L3.21688 22.0298L3.24683 22.3015C3.44785 22.3936 3.66859 22.4318 3.88478 22.4707C4.97003 22.6661 6.34869 22.5694 7.36981 22.1886C7.68957 22.0694 7.98078 21.896 8.27183 21.7206C8.38944 21.6497 8.41576 21.6653 8.41538 21.5251L8.41482 21.27C8.41438 21.0879 8.43493 20.0965 8.38023 19.9783L8.33288 19.9863Z" fill="black"/>
</svg>
