<svg width="24" height="24" viewBox="0 0 24 24" fill="none" xmlns="http://www.w3.org/2000/svg">
<path d="M13 18.5122C14.4873 18.5122 15.4238 20.2143 15.8736 21.3325C15.9759 21.5978 16.1456 21.8042 16.3514 21.9137C16.5571 22.0233 16.7852 22.0287 16.9937 21.9289L22.3966 19.2763C22.5966 19.1775 22.7649 18.9878 22.873 18.7397C22.981 18.4915 23.0219 18.2003 22.9888 17.9158L21.2628 3.04375C21.2276 2.74976 21.1156 2.48266 20.947 2.2911C20.7785 2.09954 20.5648 1.99627 20.3447 2.0001H5.65528C5.43523 1.99627 5.22147 2.09954 5.05296 2.2911C4.88445 2.48266 4.77239 2.74976 4.73719 3.04375L3.01118 17.8909C2.97807 18.1754 3.01902 18.4667 3.12704 18.7148C3.23505 18.963 3.40342 19.1527 3.60335 19.2514L9.00631 21.9289C9.21692 22.0268 9.44665 22.0177 9.65271 21.9034C9.85877 21.7892 10.0271 21.5774 10.1264 21.3076C10.5762 20.2143 11.5127 18.5122 13 18.5122Z" stroke="black" stroke-width="1.5" stroke-linecap="round" stroke-linejoin="round"/>
<path d="M16.1014 9.10521C16.1014 9.10521 17.8229 18.5105 13.0029 18.5105C8.18291 18.5105 9.90433 9.10521 9.90433 9.10521" stroke="black" stroke-width="1.5" stroke-linecap="round" stroke-linejoin="round"/>
<path d="M21.4258 4.44606H4.57422" stroke="black" stroke-width="1.5" stroke-linecap="round" stroke-linejoin="round"/>
</svg>
