<svg width="24" height="24" viewBox="0 0 24 24" fill="none" xmlns="http://www.w3.org/2000/svg">
<g clip-path="url(#clip0_1_724)">
<path d="M22.8314 11.2227C22.0668 10.1195 20.9985 9.28725 19.7417 8.81597L7.125 4.08469V5.4375C7.125 6.98831 5.86331 8.25 4.3125 8.25H2.8125C2.29556 8.25 1.875 7.82944 1.875 7.3125V6.375H0V17.625H24V14.9606C24 13.6184 23.5959 12.3259 22.8314 11.2227ZM14.891 8.99944L11.9979 15.75H9.95798L13.1335 8.34037L14.891 8.99944ZM1.875 9.96436C2.16834 10.0684 2.48395 10.125 2.8125 10.125H4.3125C6.45155 10.125 8.26059 8.68472 8.8208 6.72309L11.376 7.68131L7.91803 15.75H1.875V9.96436ZM22.125 15.75H14.0378L16.6485 9.6585L19.0834 10.5716C20.9027 11.2538 22.125 13.0176 22.125 14.9606V15.75Z" fill="black"/>
<path d="M3.5625 12H5.4375V13.875H3.5625V12Z" fill="black"/>
</g>
<defs>
<clipPath id="clip0_1_724">
<rect width="24" height="24" fill="white"/>
</clipPath>
</defs>
</svg>
