<svg width="24" height="24" viewBox="0 0 24 24" fill="none" xmlns="http://www.w3.org/2000/svg">
<path d="M5.47117 4.69875H10.3874C10.4869 4.69875 10.5823 4.73826 10.6526 4.80858C10.7229 4.87891 10.7624 4.97429 10.7624 5.07375V12.24C10.7625 12.7363 10.9594 13.2124 11.3099 13.5638L14.9249 17.1788C15.4431 17.6977 15.7342 18.401 15.7342 19.1344C15.7342 19.8677 15.4431 20.5711 14.9249 21.09C14.4562 21.5595 13.8342 21.8448 13.1726 21.8937C12.5109 21.9426 11.8538 21.7518 11.3212 21.3563L5.85742 17.2988C5.62455 17.1241 5.43555 16.8976 5.30537 16.6373C5.17519 16.3769 5.10742 16.0898 5.10742 15.7988V5.07375C5.10738 4.97621 5.14534 4.8825 5.21325 4.81248C5.28116 4.74247 5.37368 4.70168 5.47117 4.69875Z" stroke="black" stroke-width="1.3" stroke-linecap="round" stroke-linejoin="round"/>
<path d="M5.09619 13.3013L5.31744 13.395C5.73452 13.5735 6.10806 13.8401 6.41246 14.1765C6.71686 14.5128 6.94491 14.9111 7.08098 15.3439C7.21705 15.7766 7.25791 16.2337 7.20077 16.6838C7.14363 17.1338 6.98984 17.5662 6.74994 17.9512" stroke="black" stroke-width="1.3" stroke-linecap="round" stroke-linejoin="round"/>
<path d="M15.375 17.9513C14.5059 17.9132 13.6557 18.2121 13.0017 18.7858C12.3478 19.3594 11.9405 20.1634 11.865 21.03L11.8125 21.6413" stroke="black" stroke-width="1.3" stroke-linecap="round" stroke-linejoin="round"/>
<path d="M15.7275 19.2713C15.8642 19.2907 16.002 19.3008 16.14 19.3013C16.6865 19.3 17.2203 19.137 17.6743 18.8328C18.1282 18.5287 18.482 18.0969 18.6909 17.592C18.8999 17.0871 18.9547 16.5316 18.8484 15.9956C18.7421 15.4596 18.4796 14.967 18.0938 14.58L14.4825 10.965C14.1307 10.6142 13.9324 10.1381 13.9313 9.64125V2.475C13.9313 2.37554 13.8918 2.28016 13.8215 2.20984C13.7511 2.13951 13.6558 2.1 13.5563 2.1H8.6438C8.54434 2.1 8.44896 2.13951 8.37863 2.20984C8.30831 2.28016 8.2688 2.37554 8.2688 2.475V4.69875" stroke="black" stroke-width="1.3" stroke-linecap="round" stroke-linejoin="round"/>
<path d="M18.5362 15.3525C17.824 15.323 17.1208 15.5197 16.5273 15.9145C15.9338 16.3092 15.4805 16.8818 15.2324 17.55" stroke="black" stroke-width="1.3" stroke-linecap="round" stroke-linejoin="round"/>
</svg>
