<svg width="24" height="18" viewBox="0 0 24 18" fill="none" xmlns="http://www.w3.org/2000/svg">
<path d="M12.7175 16.6L12.1177 15.7645C11.7935 16.0498 11.486 16.3667 11.186 16.6772C10.5839 17.3005 10.5394 17.3813 9.56895 17.3795C8.71632 17.3779 7.88361 17.225 7.15432 16.7645C6.45544 16.3232 6.8119 15.4962 6.92391 14.8531L7.39948 12.367C7.44924 12.0423 7.45057 11.7236 7.47279 11.3971L7.51777 10.643C7.52534 10.5339 7.54592 10.4267 7.55018 10.3171L7.55682 9.70312C7.57147 9.13291 7.58286 8.95713 7.46827 8.37626L4.82935 14.4492C4.55921 15.0759 4.43883 15.5055 3.64479 15.684L3.47129 15.709C2.82265 15.7664 2.09105 15.5011 1.5113 15.2335C0.575676 14.8016 0.774852 14.4387 1.16778 13.5767L5.59573 3.39382C5.84529 2.78906 6.02496 2.20568 6.82925 2.14162C7.01197 2.12707 7.1959 2.14284 7.37886 2.13422C8.27344 2.0921 9.04036 1.57017 9.66268 0.963866C10.0048 0.630538 9.87132 0.614085 10.4359 0.603514L13.529 0.6026C14.124 0.601452 13.9638 0.612209 14.3959 1.01714C15.0004 1.58365 15.7118 2.08345 16.5644 2.12613C16.8674 2.14127 17.1853 2.09076 17.4727 2.20249C17.9639 2.39346 18.1541 2.76764 18.3356 3.22523L22.5533 12.9438C22.6441 13.1216 22.7096 13.318 22.7898 13.5014L23.0201 14.0237C23.1046 14.2307 23.1776 14.4468 23.1154 14.6728C22.937 15.3213 21.1508 15.7335 20.5786 15.7065C20.4979 15.7027 20.4115 15.7034 20.3334 15.6806L20.2383 15.654C19.5028 15.4229 19.3356 14.8809 19.063 14.2395L16.6299 8.60156C16.6013 8.53399 16.5775 8.46169 16.5436 8.39672C16.3735 8.90365 16.4222 9.38648 16.4416 9.90234L16.4598 10.5234C16.4654 10.6068 16.4827 10.689 16.487 10.7729L16.4987 11.3555C16.5082 11.5394 16.528 11.8514 16.5505 12.0267L16.9422 14.1944C16.9863 14.4069 17.0158 14.6245 17.0628 14.8359L17.2085 15.6035C17.2418 15.7734 17.307 15.9866 17.2686 16.1602L17.2656 16.1733C17.0681 17.1649 15.1832 17.3787 14.3985 17.3797C13.5371 17.3809 13.238 17.2486 12.7175 16.6ZM12.617 1.32239L10.6312 1.34245C10.7004 1.48837 10.7437 1.6669 10.7914 1.82226L10.9285 2.24707C10.9666 2.36053 10.9978 2.47849 11.0401 2.58984L11.504 3.99541C11.5367 4.07927 11.5598 4.16866 11.59 4.2539L11.7896 4.83398C11.8048 4.87507 11.8128 4.92009 11.8302 4.95996L11.8834 5.13281C11.9897 5.418 11.9578 5.59512 12.0885 5.19562L12.9498 2.57226C13.0864 2.16152 13.1974 1.72125 13.3849 1.33116C13.1342 1.30329 12.8692 1.32136 12.617 1.32239ZM14.0117 1.64648L13.0787 4.43555L12.3147 7.00781L11.9994 8.31445C11.8392 8.99829 11.8477 9.25155 11.8474 9.95107L11.8478 12.5243C11.8481 12.9777 11.8658 13.4749 12.0195 13.9083L12.3903 14.8447C12.6398 15.369 13.0436 15.8783 13.4327 16.3041C13.8179 16.7256 13.9477 16.6522 14.5301 16.6483C14.7769 16.6467 15.026 16.6291 15.2696 16.5861C15.6528 16.5185 16.2881 16.3587 16.5655 16.052C16.5588 15.8905 16.511 15.7377 16.4798 15.5801L15.8588 12.2418C15.8262 12.0352 15.8096 11.8073 15.8059 11.5976L15.7163 9.9734L15.71 9.39058C15.7093 8.70014 15.7818 8.36716 15.9961 7.68996L16.115 7.34032C16.1718 7.17951 16.2331 6.98285 16.4285 6.94994L16.4562 6.94554C16.7288 6.90438 16.813 7.18083 16.8872 7.38281L17.0065 7.67257L17.9674 9.88854C17.9944 9.95081 18.0277 10.0124 18.0493 10.0767L19.9804 14.5552C20.0324 14.68 20.1308 14.7884 20.2442 14.8602L20.2606 14.871C20.7436 15.1849 21.9678 14.722 22.4187 14.4479C22.3549 14.252 22.2638 14.0643 22.1811 13.8758L17.739 3.64509C17.5362 3.1568 17.5386 2.86064 16.9337 2.86176L16.5583 2.86097C15.9184 2.84287 15.2227 2.55283 14.7038 2.1993C14.6151 2.13886 14.0353 1.65068 14.0117 1.64648ZM9.97967 1.65354C9.13111 2.41432 8.25957 2.87674 7.11143 2.86575C6.86361 2.86336 6.64498 2.85656 6.49318 3.09961L3.70524 9.48335L1.69146 14.1592C1.65534 14.2424 1.59632 14.3419 1.57987 14.4289C1.94189 14.7163 2.97425 15.0416 3.3795 14.9946L3.56 14.9547C3.98696 14.8487 4.10689 14.3283 4.25686 13.982L7.0129 7.61412L7.1611 7.26605C7.24282 7.06826 7.36709 6.83775 7.64492 6.96806C7.74762 7.01622 7.78967 7.09887 7.82454 7.20082L8.17479 8.30735C8.25851 8.56458 8.27895 8.8762 8.28575 9.14648L8.27876 9.9795L8.19418 11.2078C8.17826 11.5623 8.17763 11.9169 8.13197 12.2695C8.06126 12.816 7.93953 13.3558 7.83242 13.8958L7.48104 15.7171C7.4472 15.8983 7.37466 16.0354 7.54672 16.1531C8.12832 16.5508 8.86561 16.6481 9.55339 16.6494C10.2104 16.6507 10.1721 16.6881 10.5946 16.2524L11.299 15.5364C11.434 15.4015 11.5723 15.2415 11.7324 15.1371C11.2753 14.1829 11.1304 13.4641 11.1299 12.434L11.1302 10.0847C11.1305 9.55216 11.1262 9.04448 11.2204 8.51962L11.5914 6.93164C11.6498 6.69443 11.6675 6.64631 11.5845 6.42342L10.0876 1.98433C10.0502 1.87441 10.0212 1.76194 9.97967 1.65354Z" fill="black"/>
</svg>
