<svg width="22" height="18" viewBox="0 0 22 18" fill="none" xmlns="http://www.w3.org/2000/svg">
<path d="M7.84467 16.7229L6.43617 16.5442C5.77134 16.4348 5.07527 16.2466 4.45823 15.9668L4.35063 16.5645C4.23738 17.1777 4.16596 17.5929 3.37584 17.4857L1.80691 17.2256C1.44414 17.158 1.08812 17.1216 0.939043 16.7247L0.914796 16.6598C0.742845 16.1777 1.23094 13.0995 1.32877 12.5449L2.45015 7.41024L3.44132 4.0163C3.52924 3.71077 3.59538 3.38426 3.73366 3.09724C4.49526 1.5165 6.41081 0.529925 8.11117 0.47719C8.42882 0.467346 8.48749 0.515182 8.73965 0.702776C9.72271 1.43405 12.2108 1.42723 13.2147 0.738659C13.3596 0.639284 13.4815 0.518581 13.6498 0.459799C13.8586 0.451338 14.0635 0.485206 14.2694 0.515393C15.5994 0.710393 17.0967 1.38047 17.9217 2.49214C18.0075 2.60771 18.0996 2.73389 18.1613 2.86418L18.2718 3.09999C18.3699 3.29794 18.4379 3.55245 18.4905 3.76758L19.1006 5.82406C19.1053 5.84625 19.1095 5.86573 19.117 5.88722L19.2879 6.49219C19.293 6.51427 19.2964 6.53299 19.3041 6.55444L19.3375 6.67001C19.3595 6.78293 19.4073 6.89023 19.4294 7.00568L19.5719 7.54367C19.5823 7.59971 19.6056 7.65223 19.6169 7.70883L20.2258 10.2535C20.2455 10.3743 20.2869 10.4949 20.3096 10.6158L20.8255 13.4538L21.074 15.5977C21.094 15.8408 21.1119 16.089 21.112 16.3327C21.1122 16.9568 20.8601 17.1045 20.257 17.2059L18.6246 17.4902C18.3311 17.5448 18.0889 17.5462 17.8878 17.2808L17.8754 17.2641C17.6792 17.0051 17.6348 16.3344 17.5322 15.9742C16.3593 16.3696 15.4219 16.5892 14.1933 16.7189L13.1916 16.8124C13.0444 16.8229 12.895 16.8174 12.7483 16.8328L11.5676 16.9876C11.0555 17.0358 10.5542 17.0017 10.0474 16.9285L9.33738 16.8332C9.17303 16.8128 9.0032 16.8207 8.83759 16.808L7.84467 16.7229ZM13.8029 1.16328C12.9303 1.82752 12.0946 1.92558 11.0103 1.92417C10.1635 1.92307 9.14613 1.84842 8.43932 1.34384C8.33078 1.26635 8.2807 1.17214 8.14082 1.17197C6.94363 1.17059 5.13243 2.00253 4.5115 3.08684C5.17778 3.41585 6.15653 3.64249 6.877 3.74574L7.55737 3.82629C7.7106 3.85409 7.87014 3.85111 8.02509 3.86693C8.81561 3.94756 9.6112 3.94831 10.4057 3.94941L12.8808 3.94507C12.9569 3.94322 13.0341 3.93122 13.1105 3.92698L14.0728 3.85664C15.1626 3.7628 16.3159 3.58418 17.3261 3.13997C17.3789 3.11679 17.4392 3.0976 17.487 3.06572C16.9551 2.10753 15.3009 1.36486 14.2819 1.20982L13.8029 1.16328ZM17.7407 3.73242C16.2798 4.31007 15.2079 4.48505 13.6172 4.59771C13.4988 4.6061 13.3815 4.62926 13.263 4.63435L12.3828 4.64175C12.2554 4.64607 12.1315 4.66955 12.0039 4.67285L9.98934 4.67292L8.87727 4.63139C8.78495 4.62614 8.69549 4.6065 8.6042 4.60099L8.07156 4.57873C7.10962 4.50856 6.12693 4.3827 5.20413 4.09031L4.22943 3.73587L3.45888 6.32979L2.61796 9.56834L2.21261 11.5009C2.18399 11.6429 2.14959 11.791 2.13004 11.934L4.3304 12.3831L4.62461 10.3066L5.17996 5.94999C5.19067 5.84201 5.18367 5.71254 5.21842 5.61021L5.22407 5.59294C5.26481 5.47303 5.33308 5.4162 5.44185 5.36175C5.62736 5.31298 5.76213 5.37685 5.84385 5.54883L5.85121 5.56357C5.9156 5.6967 5.86427 5.94031 5.84568 6.0851L5.72338 7.13335L16.2631 7.13525L16.1568 6.06818C16.1403 5.92381 16.0865 5.74036 16.1421 5.60157L16.1489 5.58345C16.2168 5.40642 16.4097 5.30628 16.5894 5.38477C16.8197 5.48539 16.7968 5.76429 16.8202 5.97059L17.1459 8.66759L17.3516 10.1426C17.3682 10.2426 17.3702 10.3437 17.3935 10.4432L17.6733 12.3953L19.7371 11.956C19.7786 11.9473 19.8317 11.943 19.8689 11.9223L19.7098 11.0811L18.278 5.45508L17.789 3.81375C17.7805 3.78499 17.7785 3.75516 17.7669 3.72762L17.7407 3.73242ZM5.62 7.86511L5.34278 10.1426L16.3817 10.1406L16.6583 10.1385L16.4 8.19898C16.3894 8.09281 16.3901 7.9661 16.3663 7.86345L5.62 7.86511ZM5.22496 10.8606L4.56988 15.2671C5.25173 15.5641 5.97728 15.7678 6.71083 15.8867L9.68226 16.1892C9.96881 16.2249 10.2499 16.2772 10.5385 16.2987C11.1397 16.3435 11.7139 16.2569 12.31 16.1945L13.8919 16.0473C14.4464 15.992 15.6537 15.8768 16.1637 15.6803L16.1785 15.6745L17.4538 15.2816L16.7658 10.8613L5.22496 10.8606ZM2.00676 12.6178L1.68911 14.7846L3.89894 15.2019L4.21666 13.0357L2.00676 12.6178ZM19.9562 12.627L17.7948 13.0581C17.8113 13.3454 17.89 13.829 17.9433 14.1196L18.0548 14.7949C18.0721 14.9163 18.0749 15.0386 18.1031 15.1582L18.1073 15.185C18.1306 15.1961 18.1189 15.1952 18.1425 15.1895L20.3089 14.8041L20.0028 12.627C19.9821 12.6222 19.9783 12.6222 19.9562 12.627ZM1.60682 15.4802C1.55676 15.8011 1.56098 16.1334 1.5573 16.4576L3.58886 16.8344L3.62336 16.7024L3.78735 15.8601L1.85812 15.5281C1.77618 15.5138 1.68639 15.5036 1.60682 15.4802ZM20.3701 15.5098L18.2224 15.8764L18.3967 16.7669L18.412 16.8244C18.488 16.8231 18.565 16.8015 18.6404 16.7903L19.9647 16.5589C20.1284 16.5328 20.2986 16.5125 20.4564 16.4593L20.434 16.0665C20.4256 15.8837 20.4261 15.6928 20.3963 15.512L20.3701 15.5098Z" fill="black"/>
</svg>
