<svg width="24" height="24" viewBox="0 0 24 24" fill="none" xmlns="http://www.w3.org/2000/svg">
<path d="M17.4037 8.56125V18C17.4037 18.2984 17.2852 18.5845 17.0742 18.7955C16.8632 19.0065 16.5771 19.125 16.2787 19.125H7.72119C7.42282 19.125 7.13667 19.0065 6.9257 18.7955C6.71472 18.5845 6.59619 18.2984 6.59619 18V8.56125" stroke="black" stroke-linecap="round" stroke-linejoin="round"/>
<path d="M16.5487 19.125V19.875C16.5487 20.0739 16.4697 20.2647 16.329 20.4053C16.1883 20.546 15.9976 20.625 15.7987 20.625H8.20117C8.00226 20.625 7.81149 20.546 7.67084 20.4053C7.53019 20.2647 7.45117 20.0739 7.45117 19.875V19.125" stroke="black" stroke-linecap="round" stroke-linejoin="round"/>
<path d="M17.4037 17.1862L18.0824 20.25H19.8524C20.7749 16.7475 19.7737 10.4475 19.2149 7.51875C19.1198 7.02406 18.926 6.55361 18.6451 6.13546C18.3642 5.71732 18.0019 5.36005 17.5799 5.085L15.0187 3.3975L13.7774 3.8025C12.6221 4.17759 11.3777 4.17759 10.2224 3.8025L8.9999 3.3975L6.43865 5.06625C6.01315 5.33946 5.6473 5.6959 5.3631 6.11415C5.07891 6.53239 4.88223 7.00379 4.7849 7.5C4.22615 10.4287 3.2249 16.7287 4.1474 20.25H5.9174L6.59615 17.205" stroke="black" stroke-linecap="round" stroke-linejoin="round"/>
<path d="M14.5799 3.54375C14.5799 3.54375 13.9349 6.95625 11.9999 8.0175C10.0649 6.95625 9.41992 3.54375 9.41992 3.54375" stroke="black" stroke-linecap="round" stroke-linejoin="round"/>
<path d="M16.0123 4.05C16.0123 4.05 15.1198 8.4675 11.9998 9.91875C8.87981 8.4675 7.9873 4.05 7.9873 4.05" stroke="black" stroke-linecap="round" stroke-linejoin="round"/>
</svg>
