<svg width="24" height="24" viewBox="0 0 24 24" fill="none" xmlns="http://www.w3.org/2000/svg">
<path d="M12 16.47L13.5 22.095H18L16.6763 12.8325V9C16.6732 8.50574 16.4751 8.03269 16.125 7.68375L14.8463 6.405H9.14625L7.875 7.68375C7.52219 8.03147 7.32132 8.50467 7.31625 9V12.8175L6 22.08H10.5L12 16.47Z" stroke="black" stroke-width="1.2" stroke-linecap="round" stroke-linejoin="round"/>
<path d="M7.31616 12.8175H16.6837" stroke="black" stroke-width="1.2" stroke-linecap="round" stroke-linejoin="round"/>
<path d="M9.14624 8.86875H14.7712C14.7712 10.1475 13.5825 11.1862 12.1125 11.1862H11.8125C10.3462 11.1862 9.15749 10.1475 9.15749 8.86875H9.14624Z" stroke="black" stroke-width="1.2" stroke-linecap="round" stroke-linejoin="round"/>
<path d="M9.14624 6.405V1.92H10.6012V6.405" stroke="black" stroke-width="1.2" stroke-linecap="round" stroke-linejoin="round"/>
<path d="M13.3049 6.405V1.92H14.7599V6.405" stroke="black" stroke-width="1.2" stroke-linecap="round" stroke-linejoin="round"/>
<path d="M6.2063 20.5762H10.8638" stroke="black" stroke-width="1.2" stroke-linecap="round" stroke-linejoin="round"/>
<path d="M13.0986 20.5762H17.7936" stroke="black" stroke-width="1.2" stroke-linecap="round" stroke-linejoin="round"/>
<path d="M11.0774 12.8175V15C11.3221 14.9995 11.5642 14.9505 11.7898 14.8557C12.0154 14.761 12.22 14.6223 12.3916 14.4479C12.5632 14.2735 12.6985 14.0668 12.7896 13.8397C12.8807 13.6126 12.9259 13.3697 12.9224 13.125V12.8025" stroke="black" stroke-width="1.2" stroke-linecap="round" stroke-linejoin="round"/>
</svg>
