<svg width="16" height="23" viewBox="0 0 16 23" fill="none" xmlns="http://www.w3.org/2000/svg">
<path d="M14.5977 22H1V10.5439C1 6.78903 4.04394 3.74509 7.79884 3.74509C11.5537 3.74509 14.5977 6.78903 14.5977 10.5439V22Z" stroke="black" stroke-width="1.2" stroke-linecap="round"/>
<path d="M5.11816 3.95098V3.60298C5.11816 2.1654 6.28356 1 7.72115 1V1C9.15874 1 10.3241 2.1654 10.3241 3.60298V3.95098" stroke="black" stroke-width="1.2" stroke-linecap="round"/>
<path d="M3.21582 11.6767H11.6766" stroke="black" stroke-width="1.2" stroke-linecap="round"/>
<path d="M10.2711 13.6912C10.2711 14.0225 10.5397 14.2912 10.8711 14.2912C11.2025 14.2912 11.4711 14.0225 11.4711 13.6912H10.2711ZM10.2711 11.6767V13.6912H11.4711V11.6767H10.2711Z" fill="black"/>
</svg>
