<svg width="24" height="24" viewBox="0 0 24 24" fill="none" xmlns="http://www.w3.org/2000/svg">
<path d="M20.7899 1.62375H3.48364V22.2675H20.7899V1.62375Z" stroke="black" stroke-width="1.3" stroke-linecap="round" stroke-linejoin="round"/>
<path d="M20.79 7.4175H22.3163V9.6375H20.79" stroke="black" stroke-width="1.3" stroke-linecap="round" stroke-linejoin="round"/>
<path d="M20.79 17.8387H22.3163V20.055H20.79" stroke="black" stroke-width="1.3" stroke-linecap="round" stroke-linejoin="round"/>
<path d="M11.2463 5.00625H16.0463" stroke="black" stroke-width="1.3" stroke-linecap="round" stroke-linejoin="round"/>
<path d="M17.6512 20.0062C17.6532 19.448 17.545 18.8949 17.3327 18.3786C17.1204 17.8623 16.8083 17.393 16.4143 16.9975C16.0203 16.6021 15.5521 16.2884 15.0365 16.0743C14.521 15.8602 13.9682 15.75 13.41 15.75C12.8517 15.75 12.299 15.8602 11.7834 16.0743C11.2679 16.2884 10.7997 16.6021 10.4056 16.9975C10.0116 17.393 9.69952 17.8623 9.48726 18.3786C9.275 18.8949 9.16675 19.448 9.16873 20.0062H17.6512Z" stroke="black" stroke-width="1.3" stroke-linecap="round" stroke-linejoin="round"/>
<path d="M15.1576 12.75C15.1576 13.0956 15.0551 13.4335 14.8631 13.7209C14.6711 14.0082 14.3982 14.2322 14.0788 14.3645C13.7595 14.4967 13.4082 14.5314 13.0692 14.4639C12.7302 14.3965 12.4188 14.2301 12.1744 13.9857C11.93 13.7413 11.7636 13.4299 11.6962 13.0909C11.6287 12.7519 11.6634 12.4006 11.7956 12.0813C11.9279 11.7619 12.1519 11.489 12.4392 11.297C12.7266 11.105 13.0645 11.0025 13.4101 11.0025C13.8736 11.0025 14.318 11.1866 14.6458 11.5143C14.9735 11.8421 15.1576 12.2865 15.1576 12.75Z" stroke="black" stroke-width="1.3" stroke-linecap="round" stroke-linejoin="round"/>
<path d="M9.83618 7.4175H17.6512" stroke="black" stroke-width="1.3" stroke-linecap="round" stroke-linejoin="round"/>
<path d="M5.56867 4.9425C5.56867 4.9425 3.48367 3.53625 2.10742 4.9425" stroke="black" stroke-width="1.3" stroke-linecap="round" stroke-linejoin="round"/>
<path d="M5.56867 8.415C5.56867 8.415 3.48367 7.00875 2.10742 8.415" stroke="black" stroke-width="1.3" stroke-linecap="round" stroke-linejoin="round"/>
<path d="M5.56867 11.8913C5.56867 11.8913 3.48367 10.4813 2.10742 11.8913" stroke="black" stroke-width="1.3" stroke-linecap="round" stroke-linejoin="round"/>
<path d="M5.56867 15.375C5.56867 15.375 3.48367 13.9687 2.10742 15.375" stroke="black" stroke-width="1.3" stroke-linecap="round" stroke-linejoin="round"/>
<path d="M5.56867 18.8363C5.56867 18.8363 3.48367 17.43 2.10742 18.8363" stroke="black" stroke-width="1.3" stroke-linecap="round" stroke-linejoin="round"/>
<path d="M6.65991 4.9425C6.65991 5.09083 6.61593 5.23584 6.53351 5.35917C6.4511 5.48251 6.33397 5.57864 6.19693 5.63541C6.05988 5.69217 5.90908 5.70702 5.76359 5.67809C5.61811 5.64915 5.48447 5.57772 5.37958 5.47283C5.27469 5.36794 5.20326 5.2343 5.17432 5.08881C5.14538 4.94333 5.16024 4.79253 5.217 4.65548C5.27377 4.51844 5.3699 4.40131 5.49323 4.3189C5.61657 4.23648 5.76158 4.1925 5.90991 4.1925C6.10882 4.1925 6.29959 4.27151 6.44024 4.41217C6.58089 4.55282 6.65991 4.74358 6.65991 4.9425Z" stroke="black" stroke-width="1.3" stroke-linecap="round" stroke-linejoin="round"/>
<path d="M6.65991 8.415C6.65991 8.56334 6.61593 8.70834 6.53351 8.83168C6.4511 8.95502 6.33397 9.05114 6.19693 9.10791C6.05988 9.16468 5.90908 9.17953 5.76359 9.15059C5.61811 9.12165 5.48447 9.05022 5.37958 8.94533C5.27469 8.84044 5.20326 8.7068 5.17432 8.56132C5.14538 8.41583 5.16024 8.26503 5.217 8.12799C5.27377 7.99094 5.3699 7.87381 5.49323 7.7914C5.61657 7.70899 5.76158 7.665 5.90991 7.665C6.10882 7.665 6.29959 7.74402 6.44024 7.88467C6.58089 8.02532 6.65991 8.21609 6.65991 8.415Z" stroke="black" stroke-width="1.3" stroke-linecap="round" stroke-linejoin="round"/>
<path d="M6.65991 11.8913C6.65991 12.0396 6.61593 12.1846 6.53351 12.3079C6.4511 12.4313 6.33397 12.5274 6.19693 12.5842C6.05988 12.6409 5.90908 12.6558 5.76359 12.6268C5.61811 12.5979 5.48447 12.5265 5.37958 12.4216C5.27469 12.3167 5.20326 12.1831 5.17432 12.0376C5.14538 11.8921 5.16024 11.7413 5.217 11.6042C5.27377 11.4672 5.3699 11.3501 5.49323 11.2676C5.61657 11.1852 5.76158 11.1413 5.90991 11.1413C6.10882 11.1413 6.29959 11.2203 6.44024 11.3609C6.58089 11.5016 6.65991 11.6923 6.65991 11.8913Z" stroke="black" stroke-width="1.3" stroke-linecap="round" stroke-linejoin="round"/>
<path d="M6.65991 15.375C6.65991 15.5233 6.61593 15.6683 6.53351 15.7917C6.4511 15.915 6.33397 16.0111 6.19693 16.0679C6.05988 16.1247 5.90908 16.1395 5.76359 16.1106C5.61811 16.0817 5.48447 16.0102 5.37958 15.9053C5.27469 15.8004 5.20326 15.6668 5.17432 15.5213C5.14538 15.3758 5.16024 15.225 5.217 15.088C5.27377 14.9509 5.3699 14.8338 5.49323 14.7514C5.61657 14.669 5.76158 14.625 5.90991 14.625C6.10882 14.625 6.29959 14.704 6.44024 14.8447C6.58089 14.9853 6.65991 15.1761 6.65991 15.375Z" stroke="black" stroke-width="1.3" stroke-linecap="round" stroke-linejoin="round"/>
<path d="M6.65991 18.8363C6.65991 18.9846 6.61593 19.1296 6.53351 19.2529C6.4511 19.3763 6.33397 19.4724 6.19693 19.5292C6.05988 19.5859 5.90908 19.6008 5.76359 19.5718C5.61811 19.5429 5.48447 19.4715 5.37958 19.3666C5.27469 19.2617 5.20326 19.1281 5.17432 18.9826C5.14538 18.8371 5.16024 18.6863 5.217 18.5492C5.27377 18.4122 5.3699 18.2951 5.49323 18.2126C5.61657 18.1302 5.76158 18.0863 5.90991 18.0863C6.10882 18.0863 6.29959 18.1653 6.44024 18.3059C6.58089 18.4466 6.65991 18.6373 6.65991 18.8363Z" stroke="black" stroke-width="1.3" stroke-linecap="round" stroke-linejoin="round"/>
</svg>
