<svg width="24" height="24" viewBox="0 0 24 24" fill="none" xmlns="http://www.w3.org/2000/svg">
<g clip-path="url(#clip0_191_166)">
<path d="M11.0017 13.9929L12.0002 12.9944L12.9987 13.9929L13.9931 12.9985L12.9946 12L13.9931 11.0015L12.9987 10.0071L12.0002 11.0056L11.0017 10.0071L10.0073 11.0015L11.0059 12L10.0073 12.9985L11.0017 13.9929Z" fill="black"/>
<path d="M4.46924 9.88477C3.30289 9.88477 2.354 10.8337 2.354 12C2.354 13.1663 3.30289 14.1152 4.46924 14.1152C5.63558 14.1152 6.58447 13.1663 6.58447 12C6.58447 10.8337 5.63558 9.88477 4.46924 9.88477ZM4.46924 12.709C4.0783 12.709 3.76025 12.3909 3.76025 12C3.76025 11.6091 4.0783 11.291 4.46924 11.291C4.86018 11.291 5.17822 11.6091 5.17822 12C5.17822 12.3909 4.86018 12.709 4.46924 12.709Z" fill="black"/>
<path d="M19.5308 14.1152C20.6971 14.1152 21.646 13.1663 21.646 12C21.646 10.8337 20.6971 9.88477 19.5308 9.88477C18.3644 9.88477 17.4155 10.8337 17.4155 12C17.4155 13.1663 18.3644 14.1152 19.5308 14.1152ZM19.5308 11.291C19.9217 11.291 20.2397 11.6091 20.2397 12C20.2397 12.3909 19.9217 12.709 19.5308 12.709C19.1398 12.709 18.8218 12.3909 18.8218 12C18.8218 11.6091 19.1398 11.291 19.5308 11.291Z" fill="black"/>
<path d="M10.0073 5.46791L11.0017 6.46227L12.0002 5.46378L12.9987 6.46227L13.9931 5.46791L12.9946 4.46942L13.9931 3.47089L12.9987 2.47653L12.0002 3.47506L11.0017 2.47653L10.0073 3.47089L11.0059 4.46942L10.0073 5.46791Z" fill="black"/>
<path d="M4.46924 2.35422C3.30289 2.35422 2.354 3.30311 2.354 4.46945C2.354 5.6358 3.30289 6.58469 4.46924 6.58469C5.63558 6.58469 6.58447 5.6358 6.58447 4.46945C6.58447 3.30311 5.63558 2.35422 4.46924 2.35422ZM4.46924 5.17844C4.0783 5.17844 3.76025 4.86039 3.76025 4.46945C3.76025 4.07851 4.0783 3.76047 4.46924 3.76047C4.86018 3.76047 5.17822 4.07851 5.17822 4.46945C5.17822 4.86039 4.86018 5.17844 4.46924 5.17844Z" fill="black"/>
<path d="M0 0V24H24V0H0ZM15.0611 15.0611H8.93888V8.93888H15.0611V15.0611ZM15.0611 1.40625V7.53056H8.93888V1.40625H15.0611ZM1.40625 1.40625H7.53056V7.53056H1.40625V1.40625ZM1.40625 8.93888H7.53056V15.0611H1.40625V8.93888ZM1.40625 22.5938V16.4694H7.53056V22.5938H1.40625ZM8.93888 22.5938V16.4694H15.0611V22.5938H8.93888ZM22.5938 22.5938H16.4694V16.4694H22.5938V22.5938ZM22.5938 15.0611H16.4694V8.93888H22.5938V15.0611ZM16.4694 7.53056V1.40625H22.5938V7.53056H16.4694Z" fill="black"/>
<path d="M19.5308 2.35422C18.3644 2.35422 17.4155 3.30311 17.4155 4.46945C17.4155 5.6358 18.3644 6.58469 19.5308 6.58469C20.6971 6.58469 21.646 5.6358 21.646 4.46945C21.646 3.30311 20.6971 2.35422 19.5308 2.35422ZM19.5308 5.17844C19.1398 5.17844 18.8218 4.86039 18.8218 4.46945C18.8218 4.07851 19.1398 3.76047 19.5308 3.76047C19.9217 3.76047 20.2397 4.07851 20.2397 4.46945C20.2397 4.86039 19.9217 5.17844 19.5308 5.17844Z" fill="black"/>
<path d="M12 17.4153C10.8337 17.4153 9.88477 18.3642 9.88477 19.5306C9.88477 20.6969 10.8337 21.6458 12 21.6458C13.1663 21.6458 14.1152 20.6969 14.1152 19.5306C14.1152 18.3642 13.1663 17.4153 12 17.4153ZM12 20.2396C11.6091 20.2396 11.291 19.9215 11.291 19.5306C11.291 19.1396 11.6091 18.8216 12 18.8216C12.3909 18.8216 12.709 19.1396 12.709 19.5306C12.709 19.9215 12.3909 20.2396 12 20.2396Z" fill="black"/>
<path d="M6.46234 18.5321L5.46794 17.5377L4.46945 18.5362L3.47092 17.5377L2.47656 18.5321L3.47509 19.5306L2.47656 20.5291L3.47092 21.5235L4.46945 20.5249L5.46794 21.5235L6.46234 20.5291L5.46381 19.5306L6.46234 18.5321Z" fill="black"/>
<path d="M18.532 21.5235L19.5305 20.5249L20.529 21.5235L21.5234 20.5291L20.5248 19.5306L21.5234 18.5321L20.529 17.5377L19.5305 18.5362L18.532 17.5377L17.5376 18.5321L18.5361 19.5306L17.5376 20.5291L18.532 21.5235Z" fill="black"/>
</g>
<defs>
<clipPath id="clip0_191_166">
<rect width="24" height="24" fill="white"/>
</clipPath>
</defs>
</svg>
