<svg width="20" height="20" viewBox="0 0 20 20" fill="none" xmlns="http://www.w3.org/2000/svg">
<path d="M14.5374 6.08499V16.7687C12.9662 18.34 9.9999 18.3812 9.9999 18.3812C9.9999 18.3812 7.03365 18.34 5.4624 16.7687V6.08499" stroke="black" stroke-width="1.3" stroke-linecap="round" stroke-linejoin="round"/>
<path d="M14.5376 9.43749L15.8989 11.1887L18.4114 9.43749L16.2476 4.43499C16.0632 4.00985 15.7695 3.64111 15.3964 3.36624L13.0264 1.61874C13.0264 1.61874 11.9651 3.49374 10.0001 3.49374C8.03512 3.49374 6.97387 1.61874 6.97387 1.61874L4.60387 3.36624C4.23075 3.64111 3.93705 4.00985 3.75262 4.43499L1.58887 9.43749L4.10137 11.1887L5.46262 9.43749" stroke="black" stroke-width="1.3" stroke-linecap="round" stroke-linejoin="round"/>
</svg>
