<svg width="24" height="24" viewBox="0 0 24 24" fill="none" xmlns="http://www.w3.org/2000/svg">
<g clip-path="url(#clip0_183_135)">
<path d="M22.0308 13.6574L22.0303 8.6025H21.3272C20.6288 8.6025 20.0606 8.03433 20.0606 7.33594C20.0606 6.63755 20.6288 6.06937 21.3277 6.06937H22.0308V1.96922H19.029C18.7193 0.835734 17.6804 0 16.4503 0C15.22 0 14.181 0.835734 13.8711 1.96922L8.81672 1.96969V2.67281C8.81672 3.3712 8.24836 3.93938 7.54969 3.93938C6.8513 3.93938 6.28312 3.3712 6.28312 2.67234V1.96922H1.96922V4.7572C0.835734 5.06695 0 6.10589 0 7.33594C0 8.56641 0.835734 9.60539 1.96922 9.91491L1.96969 14.9696H2.67281C3.3712 14.9696 3.93938 15.5378 3.93938 16.2361C3.93938 16.9348 3.3712 17.5032 2.67234 17.5032H1.96922V22.0308H4.97095C5.2807 23.1643 6.31964 24 7.54969 24C8.77997 24 9.81905 23.1643 10.1289 22.0308L15.1833 22.0304V21.3272C15.1833 20.6288 15.7516 20.0607 16.4503 20.0607C17.1487 20.0607 17.7169 20.6288 17.7169 21.3277V22.0308H22.0308V18.8151C23.1643 18.5055 24 17.4666 24 16.2361C24 15.006 23.1643 13.9671 22.0308 13.6574ZM12.7031 6.06937V3.37547H15.183L15.1833 2.67262C15.1836 1.97433 15.752 1.40625 16.4503 1.40625C17.1484 1.40625 17.7166 1.97433 17.7169 2.67262L17.7172 3.37547H20.6245V4.75683C19.4905 5.06611 18.6544 6.10519 18.6544 7.33594C18.6544 8.56659 19.4903 9.60563 20.6245 9.915V11.2969H19.0293C18.7199 10.1631 17.6809 9.32719 16.4503 9.32719C15.2198 9.32719 14.1808 10.1631 13.8713 11.2969H12.7031V8.6025H12C11.3016 8.6025 10.7334 8.03433 10.7334 7.33594C10.7334 6.63755 11.3016 6.06937 12 6.06937H12.7031ZM1.40625 7.33594C1.40625 6.63783 1.97433 6.06966 2.67262 6.06937L3.37547 6.06909V3.37547H4.97058C5.27986 4.50952 6.31894 5.34563 7.54969 5.34563C8.78053 5.34563 9.81975 4.5097 10.1292 3.37547H11.2969V4.75697C10.1631 5.06639 9.32719 6.10537 9.32719 7.33594C9.32719 8.5665 10.1631 9.60548 11.2969 9.91491V11.2969H8.877L8.80908 11.9243C8.73947 12.5677 8.19802 13.0528 7.54969 13.0528C6.90164 13.0528 6.36042 12.5677 6.29077 11.9243L6.2228 11.2969H3.37547V8.6025H2.67234C1.97423 8.6025 1.40625 8.03433 1.40625 7.33594ZM11.2969 17.5031V20.6245H8.817L8.81672 21.3274C8.81639 22.0256 8.24803 22.5938 7.54969 22.5938C6.85158 22.5938 6.28341 22.0256 6.28312 21.3273L6.28284 20.6245H3.37547V18.8156C4.50952 18.5063 5.34563 17.467 5.34563 16.236C5.34563 15.0054 4.5097 13.9664 3.37547 13.657V12.7031H5.03794C5.4135 13.7378 6.40228 14.4591 7.54969 14.4591C8.69733 14.4591 9.68634 13.7378 10.0619 12.7031H11.2969V14.9695H12C12.6984 14.9695 13.2666 15.5377 13.2666 16.2361C13.2666 16.9347 12.6984 17.5031 12 17.5031H11.2969ZM21.3277 17.5027H20.6245V20.6245H19.0294C18.7201 19.4905 17.6811 18.6544 16.4503 18.6544C15.2195 18.6544 14.1803 19.4903 13.8708 20.6245H12.7031V18.8155C13.8369 18.506 14.6728 17.4669 14.6728 16.2361C14.6728 15.0055 13.8369 13.9665 12.7031 13.6571V12.7031H15.1838V12C15.1838 11.3016 15.7519 10.7334 16.4503 10.7334C17.1487 10.7334 17.7169 11.3016 17.7169 12V12.7031H20.6245V14.9692L21.3274 14.9695C22.0257 14.9698 22.5938 15.538 22.5938 16.2361C22.5938 16.9345 22.0258 17.5027 21.3277 17.5027Z" fill="black"/>
</g>
<defs>
<clipPath id="clip0_183_135">
<rect width="24" height="24" fill="white"/>
</clipPath>
</defs>
</svg>
