<svg width="24" height="22" viewBox="0 0 24 22" fill="none" xmlns="http://www.w3.org/2000/svg">
<path d="M11.2969 10.8597H12.7034V12.2663H11.2969V10.8597Z" fill="black"/>
<path d="M16.9465 13.4926H18.3531V12.2663H19.5794V10.8597H18.3531V9.63342H16.9465V10.8597H15.7202V12.2663H16.9465V13.4926Z" fill="black"/>
<path d="M5.64722 13.4926H7.05376V12.2663H8.28013V10.8597H7.05376V9.63342H5.64722V10.8597H4.4209V12.2663H5.64722V13.4926Z" fill="black"/>
<path d="M23.8411 15.5958L22.4825 10.5366C22.0087 8.30334 20.0218 6.62256 17.6496 6.62256C16.3547 6.62256 15.1119 7.13361 14.1916 8.03497H14.1156V5.21016H12.7032V0.9729H11.2966V5.21011H9.88427V8.03492H9.80832C8.88802 7.13356 7.64524 6.62252 6.35033 6.62252C3.97806 6.62252 1.99117 8.30334 1.5174 10.5365L0.158866 15.5958C-0.205663 16.8841 0.0656594 18.2945 0.885112 19.3697C2.82366 21.8987 6.58166 21.3992 7.97006 18.7818L9.1931 16.4799C9.29596 16.4953 9.40117 16.5035 9.5083 16.5035C10.4284 16.5035 11.2128 15.9129 11.5033 15.0911H12.4963C12.7869 15.9129 13.5712 16.5035 14.4914 16.5035C14.5986 16.5035 14.7039 16.4953 14.8068 16.4799L16.0301 18.7821C17.5332 21.5746 21.3304 21.743 23.1148 19.3697C23.9343 18.2945 24.2056 16.884 23.8411 15.5958ZM11.2908 6.61666H12.7091V8.03492H11.2908V6.61666ZM6.35033 8.02906C7.44158 8.01322 8.51003 8.58127 9.19394 9.44147H14.8059C15.4739 8.59098 16.5427 8.01964 17.6495 8.02906C19.5981 8.02906 21.1835 9.61438 21.1835 11.563C21.1835 13.5116 19.5981 15.0969 17.6495 15.0969C17.2688 15.0969 16.8948 15.034 16.5401 14.9163C16.5837 14.7473 16.6069 14.5702 16.6069 14.3878C16.6069 13.2212 15.6578 12.2721 14.4912 12.2721C13.5712 12.2721 12.7868 12.8627 12.4962 13.6845H11.5032C11.2126 12.8627 10.4283 12.2721 9.50816 12.2721C8.34158 12.2721 7.39249 13.2212 7.39249 14.3878C7.39249 14.5705 7.41579 14.7477 7.45949 14.9169C7.10494 15.0346 6.7308 15.0969 6.35019 15.0969C4.40157 15.0969 2.81625 13.5116 2.81625 11.563C2.81625 9.61438 4.40175 8.02906 6.35033 8.02906ZM6.72818 18.1214C5.74003 19.9792 3.18167 20.0951 2.00378 18.5171C1.4422 17.7803 1.26338 16.8539 1.51318 15.9755L2.04701 13.9875C2.89586 15.4882 4.50664 16.5034 6.35029 16.5034C6.80605 16.5034 7.25516 16.4395 7.68617 16.3182L6.72818 18.1214ZM9.5083 15.0969C9.11729 15.0969 8.79917 14.7788 8.79917 14.3878C8.79917 13.9968 9.11729 13.6787 9.5083 13.6787C9.89932 13.6787 10.2174 13.9968 10.2174 14.3878C10.2174 14.7788 9.89932 15.0969 9.5083 15.0969ZM13.7822 14.3878C13.7822 13.9968 14.1003 13.6787 14.4913 13.6787C14.8823 13.6787 15.2004 13.9968 15.2004 14.3878C15.2004 14.7788 14.8823 15.0969 14.4913 15.0969C14.1003 15.0969 13.7822 14.7788 13.7822 14.3878ZM21.9961 18.5171C20.7005 20.2142 18.1847 19.8482 17.2719 18.1218L16.3138 16.3186C16.7447 16.4399 17.1938 16.5034 17.6495 16.5034C19.4932 16.5034 21.1039 15.4882 21.9527 13.9875L22.4839 15.9654L22.4867 15.9754C22.7365 16.8539 22.5577 17.7803 21.9961 18.5171Z" fill="black"/>
</svg>
    