<svg width="24" height="24" viewBox="0 0 24 24" fill="none" xmlns="http://www.w3.org/2000/svg">
<g clip-path="url(#clip0_9_185)">
<path d="M15.6921 17.6237C14.7117 16.6433 13.1247 16.6431 12.1441 17.6237L11.9248 17.843C11.6507 18.1171 11.6507 18.5614 11.9248 18.8354C12.1988 19.1095 12.6431 19.1095 12.9172 18.8354L13.1365 18.6162C13.5684 18.1842 14.2676 18.1841 14.6997 18.6162L14.919 18.8355C15.193 19.1095 15.6373 19.1096 15.9114 18.8355C16.1855 18.5614 16.1855 18.1171 15.9114 17.843L15.6921 17.6237Z" fill="black"/>
<path d="M13.2912 14.0095C13.0173 13.7354 12.5729 13.7355 12.2988 14.0095C11.9533 14.355 11.3911 14.355 11.0456 14.0095C10.7716 13.7355 10.3273 13.7355 10.0532 14.0095C9.77914 14.2836 9.77914 14.7279 10.0532 15.0019C10.9459 15.8946 12.3985 15.8946 13.2912 15.0019C13.5653 14.7279 13.5653 14.2836 13.2912 14.0095Z" fill="black"/>
<path d="M17.7824 14.0095C17.5085 13.7354 17.0641 13.7355 16.79 14.0095C16.4445 14.355 15.8823 14.355 15.5368 14.0095C15.2628 13.7355 14.8185 13.7355 14.5444 14.0095C14.2704 14.2836 14.2704 14.7279 14.5444 15.0019C15.4371 15.8946 16.8897 15.8946 17.7824 15.0019C18.0566 14.7279 18.0566 14.2836 17.7824 14.0095Z" fill="black"/>
<path d="M22.8363 12.5041C22.8591 12.4021 22.8536 12.3725 22.8536 11.9766C22.8536 8.15963 20.4822 4.98807 17.2707 3.68922C17.4585 1.70573 15.8962 0 13.9179 0C11.9465 0 10.3737 1.7004 10.5656 3.69408C7.29482 5.02274 4.98226 8.23443 4.98226 11.9766V12.5223C4.54319 12.99 4.26497 13.6101 4.23662 14.2938C2.04237 14.7847 0.397461 16.7476 0.397461 19.0877C0.397461 21.7964 2.60111 24 5.30974 24C7.02389 24 8.53547 23.1172 9.41463 21.7827L10.1947 22.5006C12.2877 24.4258 15.5246 24.4483 17.6413 22.5004L18.8334 21.4034C19.9612 20.3654 20.608 18.8909 20.608 17.3581V17.1696H20.8419C22.3639 17.1696 23.6021 15.9314 23.6021 14.4094C23.6021 13.671 23.3102 13 22.8363 12.5041ZM21.4452 11.7164C21.0577 11.6296 20.8217 11.6491 20.1702 11.6491C19.1842 9.81095 17.4378 8.5106 15.4304 8.0705C16.2563 7.0829 16.3268 5.7025 15.6981 4.65535C18.9267 5.4342 21.3297 8.29418 21.4452 11.7164ZM13.9179 1.40351C14.9635 1.40351 15.8208 2.22456 15.8794 3.25572C14.6055 2.97179 13.2566 2.96594 11.9562 3.25839C12.0136 2.22597 12.8714 1.40351 13.9179 1.40351ZM13.6332 4.45039L14.2572 5.07439C14.8657 5.6829 14.8658 6.66793 14.2572 7.27654L13.6204 7.91326C11.1158 8.01764 8.85126 9.43579 7.66544 11.6491C6.98623 11.6491 6.76911 11.6316 6.39077 11.7163C6.52523 7.77778 9.69781 4.59743 13.6332 4.45039ZM5.65561 14.1878C5.76172 13.5447 6.32134 13.0526 6.99395 13.0526H7.22787V14.5655C6.73907 14.3574 6.20986 14.2265 5.65561 14.1878ZM6.0115 22.5259V21.7076C6.0115 21.5215 5.93758 21.343 5.80593 21.2114L5.05739 20.4629C4.78338 20.1888 4.33903 20.1888 4.06497 20.4629C3.79091 20.7369 3.79091 21.1812 4.06497 21.4553L4.60799 21.9983V22.5258C2.39971 22.0758 1.18516 19.6762 2.11676 17.6357L2.94216 18.4611C3.21617 18.7352 3.66053 18.7352 3.93458 18.4611C4.20864 18.187 4.20864 17.7427 3.93458 17.4687L2.95479 16.4889C4.24644 15.3174 6.19531 15.2723 7.53842 16.3796L6.78375 17.6374H5.68401C5.29645 17.6374 4.98226 17.9516 4.98226 18.3392C4.98226 18.7267 5.29645 19.0409 5.68401 19.0409H6.10506V19.8363C6.10506 20.2238 6.41926 20.538 6.80682 20.538C7.19437 20.538 7.50857 20.2238 7.50857 19.8363V18.9594C7.6201 18.9005 7.71578 18.812 7.78282 18.7003L8.46749 17.5592C9.46221 19.6058 8.25528 22.0686 6.0115 22.5259ZM17.8829 20.3707L17.2975 20.9094L17.1655 20.6452C16.9922 20.2986 16.5707 20.158 16.224 20.3314C15.8773 20.5047 15.7368 20.9263 15.9102 21.2729L16.2005 21.8537C14.9143 22.719 13.2447 22.7851 11.8876 22.0103L11.9861 21.961C12.2239 21.8422 12.3741 21.5992 12.3741 21.3333V20.5848C12.3741 20.1972 12.0599 19.883 11.6723 19.883C11.2848 19.883 10.9706 20.1972 10.9706 20.5848V20.8996L10.6836 21.0431L10.0317 20.4432C10.5315 18.7047 10.0425 16.7695 8.63138 15.4721V12.8772L8.73636 12.6465C9.66038 10.6143 11.6844 9.30994 13.9179 9.30994C16.1446 9.30994 18.1784 10.6196 19.0995 12.6466L19.2045 12.8773V16.8889H18.4092C18.223 16.8889 18.0445 16.9629 17.913 17.0945L17.1644 17.843C16.8904 18.1171 16.8904 18.5614 17.1644 18.8354C17.4384 19.1095 17.8828 19.1095 18.1569 18.8354L18.6998 18.2924H19.0957C18.9094 19.084 18.4897 19.8122 17.8829 20.3707ZM20.8419 15.7661H20.608V13.0526H20.8419C21.59 13.0526 22.1986 13.6612 22.1986 14.4094C22.1986 15.1575 21.59 15.7661 20.8419 15.7661Z" fill="black"/>
</g>
<defs>
<clipPath id="clip0_9_185">
<rect width="24" height="24" fill="white"/>
</clipPath>
</defs>
</svg>
