<svg width="17" height="22" viewBox="0 0 17 22" fill="none" xmlns="http://www.w3.org/2000/svg">
<path d="M12.7966 15.0576C12.7966 17.6462 10.3845 20.4112 7.91355 20.4112C5.44262 20.4112 3.08936 17.6462 3.08936 15.0576C3.08936 12.469 7.20757 9.82153 7.91355 9.82153C8.61953 9.82153 12.7966 12.469 12.7966 15.0576Z" stroke="black" stroke-width="1.5" stroke-linecap="round" stroke-linejoin="round"/>
<path d="M3.08958 15.0576C3.08958 15.0576 -0.73448 10.5275 1.50112 7.93892C3.73673 5.35033 9.03158 4.05603 9.03158 4.05603" stroke="black" stroke-width="1.5" stroke-linecap="round" stroke-linejoin="round"/>
<path d="M1.14795 8.46839C1.14795 8.46839 1.85393 1.11443 7.20762 1.40859C9.91387 1.58508 10.8552 2.87938 11.2082 4.11485C11.3335 4.72677 11.3021 5.36043 11.117 5.95699C10.9318 6.55354 10.5989 7.09363 10.1492 7.52708L7.9136 9.82152" stroke="black" stroke-width="1.5" stroke-linecap="round" stroke-linejoin="round"/>
<path d="M11.2671 4.409C11.2671 4.409 15.7971 5.87979 15.7971 9.35086C15.7383 11.763 12.7967 15.0575 12.7967 15.0575" stroke="black" stroke-width="1.5" stroke-linecap="round" stroke-linejoin="round"/>
</svg>
