<svg width="24" height="24" viewBox="0 0 24 24" fill="none" xmlns="http://www.w3.org/2000/svg">
<path d="M17.5729 13.7679V4.57257C17.5723 4.12137 17.3928 3.68881 17.0738 3.36979C16.7547 3.05076 16.3221 2.87132 15.8709 2.87082H8.1287C7.6775 2.87132 7.24492 3.05076 6.92586 3.36979C6.6068 3.68881 6.4273 4.12137 6.42676 4.57257V13.7679C6.4273 14.2191 6.6068 14.6517 6.92586 14.9707C7.24492 15.2898 7.6775 15.4692 8.1287 15.4697H10.086L9.82482 18.777C9.80117 19.0769 9.83983 19.3785 9.93836 19.6628C10.0369 19.9471 10.1932 20.2079 10.3974 20.4288C10.6016 20.6498 10.8493 20.8261 11.125 20.9466C11.4006 21.0672 11.6982 21.1295 11.9991 21.1295C12.2999 21.1295 12.5975 21.0672 12.8732 20.9466C13.1488 20.8261 13.3965 20.6498 13.6007 20.4288C13.805 20.2079 13.9612 19.9471 14.0598 19.6628C14.1583 19.3785 14.197 19.0769 14.1733 18.777L13.9129 15.4695H15.8709C16.3221 15.469 16.7547 15.2896 17.0737 14.9706C17.3928 14.6516 17.5723 14.2191 17.5729 13.7679ZM7.55176 6.00544H16.4479V12.3221H7.55176V6.00544ZM8.1287 3.99619H15.8709C16.0239 3.99634 16.1705 4.05715 16.2787 4.16527C16.3868 4.2734 16.4477 4.42001 16.4479 4.57294V4.88044H7.55176V4.57294C7.55186 4.41994 7.61267 4.27324 7.72084 4.16503C7.82901 4.05683 7.9757 3.99597 8.1287 3.99582V3.99619ZM13.305 14.3447C13.2274 14.3447 13.1507 14.3608 13.0796 14.3919C13.0085 14.423 12.9447 14.4685 12.892 14.5255C12.8393 14.5824 12.7991 14.6497 12.7736 14.723C12.7482 14.7963 12.7383 14.8741 12.7444 14.9514L13.0524 18.8655C13.0637 19.0106 13.0449 19.1565 12.9971 19.294C12.9494 19.4315 12.8737 19.5576 12.7748 19.6645C12.676 19.7713 12.5561 19.8566 12.4227 19.9149C12.2894 19.9732 12.1454 20.0033 11.9998 20.0033C11.8543 20.0033 11.7103 19.9732 11.5769 19.9149C11.4435 19.8566 11.3237 19.7713 11.2248 19.6645C11.126 19.5576 11.0503 19.4315 11.0025 19.294C10.9547 19.1565 10.9359 19.0106 10.9472 18.8655L11.2553 14.9516C11.2614 14.8743 11.2514 14.7965 11.226 14.7232C11.2006 14.6499 11.1603 14.5826 11.1076 14.5256C11.055 14.4687 10.9911 14.4232 10.92 14.3921C10.849 14.361 10.7722 14.3449 10.6946 14.3449H8.1287C7.97576 14.3447 7.82913 14.2839 7.72097 14.1758C7.61281 14.0677 7.55196 13.9211 7.55176 13.7681V13.4471H16.4479V13.7679C16.4477 13.9209 16.3868 14.0675 16.2787 14.1756C16.1705 14.2837 16.0239 14.3445 15.8709 14.3447H13.305Z" fill="black"/>
<path d="M14.2609 7.86919C14.2086 7.81695 14.1466 7.77551 14.0784 7.74723C14.0101 7.71896 13.937 7.70441 13.8631 7.70441C13.7892 7.70441 13.7161 7.71896 13.6478 7.74723C13.5796 7.77551 13.5176 7.81695 13.4653 7.86919L11.0278 10.3067C10.9749 10.3588 10.9328 10.4208 10.904 10.4893C10.8752 10.5577 10.8602 10.6311 10.8599 10.7054C10.8596 10.7796 10.874 10.8532 10.9023 10.9219C10.9306 10.9905 10.9722 11.0529 11.0247 11.1054C11.0772 11.1579 11.1396 11.1995 11.2082 11.2278C11.2769 11.256 11.3505 11.2704 11.4247 11.2701C11.499 11.2698 11.5724 11.2548 11.6409 11.226C11.7093 11.1971 11.7713 11.155 11.8234 11.1021L14.2609 8.66457C14.3663 8.55908 14.4256 8.41604 14.4256 8.26688C14.4256 8.11773 14.3663 7.97468 14.2609 7.86919Z" fill="black"/>
<path d="M12.0073 8.02014C12.0611 7.96826 12.1039 7.9062 12.1334 7.83758C12.1629 7.76896 12.1785 7.69516 12.1791 7.62047C12.1798 7.54578 12.1656 7.47171 12.1373 7.40257C12.109 7.33344 12.0673 7.27062 12.0145 7.21779C11.9617 7.16497 11.8989 7.12318 11.8298 7.09489C11.7606 7.06659 11.6866 7.05234 11.6119 7.05297C11.5372 7.0536 11.4634 7.0691 11.3948 7.09856C11.3261 7.12803 11.264 7.17086 11.2121 7.22458L10.4319 8.00458C10.3264 8.11005 10.2671 8.25312 10.2671 8.40232C10.2671 8.55152 10.3263 8.69462 10.4318 8.80014C10.5372 8.90566 10.6803 8.96496 10.8295 8.965C10.9787 8.96503 11.1218 8.9058 11.2273 8.80033L12.0073 8.02014Z" fill="black"/>
<path d="M11.9999 18.4688C11.9005 18.4688 11.8033 18.4982 11.7206 18.5535C11.6379 18.6088 11.5734 18.6873 11.5353 18.7792C11.4973 18.8711 11.4873 18.9722 11.5067 19.0697C11.5261 19.1673 11.574 19.2569 11.6444 19.3272C11.7147 19.3975 11.8043 19.4454 11.9018 19.4648C11.9994 19.4842 12.1005 19.4743 12.1924 19.4362C12.2843 19.3982 12.3628 19.3337 12.4181 19.251C12.4733 19.1683 12.5028 19.0711 12.5028 18.9716C12.5028 18.8383 12.4498 18.7103 12.3555 18.616C12.2612 18.5217 12.1333 18.4688 11.9999 18.4688Z" fill="black"/>
</svg>
