<svg width="24" height="24" viewBox="0 0 24 24" fill="none" xmlns="http://www.w3.org/2000/svg">
<path d="M18.7663 5.60943L18.2646 5.10768L17.3211 4.16418C17.199 4.04133 17.0537 3.94393 16.8937 3.87762C16.7336 3.81132 16.562 3.77744 16.3888 3.77793C16.2762 3.77834 16.164 3.79308 16.0551 3.82181L15.0268 2.79374C14.9206 2.69228 14.7788 2.63641 14.6319 2.6381C14.485 2.63978 14.3446 2.69889 14.2406 2.80277C14.1367 2.90665 14.0776 3.04706 14.0759 3.19397C14.0742 3.34089 14.13 3.48265 14.2314 3.58893L15.1314 4.48893L14.6627 4.95768L13.7627 4.05768C13.7106 4.00476 13.6486 3.96267 13.5801 3.93384C13.5117 3.90501 13.4382 3.89002 13.364 3.88973C13.2897 3.88944 13.2162 3.90385 13.1475 3.93213C13.0788 3.96041 13.0165 4.00201 12.964 4.05452C12.9115 4.10704 12.8699 4.16942 12.8416 4.23808C12.8134 4.30675 12.799 4.38033 12.7993 4.45458C12.7996 4.52883 12.8146 4.60229 12.8434 4.67071C12.8723 4.73914 12.9144 4.80117 12.9673 4.85324L13.8673 5.75324L13.3986 6.22199L12.4986 5.32199C12.3925 5.21953 12.2504 5.16283 12.1029 5.16411C11.9554 5.1654 11.8143 5.22455 11.71 5.32885C11.6058 5.43314 11.5466 5.57422 11.5453 5.72171C11.544 5.86919 11.6007 6.01128 11.7032 6.11737L12.6032 7.01737L12.1344 7.48612L11.2344 6.58612C11.1284 6.48366 10.9863 6.42696 10.8388 6.42824C10.6913 6.42952 10.5502 6.48868 10.4459 6.59297C10.3416 6.69726 10.2825 6.83835 10.2812 6.98583C10.2799 7.13332 10.3366 7.27541 10.4391 7.38149L11.3391 8.28149L10.8703 8.75024L9.97031 7.85024C9.86423 7.74778 9.72214 7.69108 9.57465 7.69237C9.42717 7.69365 9.28608 7.7528 9.18179 7.8571C9.0775 7.96139 9.01834 8.10247 9.01706 8.24996C9.01578 8.39744 9.07248 8.53953 9.17494 8.64562L10.0749 9.54562L9.60619 10.0144L8.70619 9.11437C8.65412 9.06143 8.59208 9.01933 8.52366 8.99049C8.45524 8.96164 8.38178 8.94663 8.30753 8.94632C8.23327 8.94601 8.15969 8.9604 8.09103 8.98867C8.02237 9.01694 7.95998 9.05852 7.90747 9.11102C7.85496 9.16352 7.81336 9.2259 7.78508 9.29455C7.75679 9.36321 7.74238 9.43679 7.74267 9.51104C7.74297 9.58529 7.75796 9.65875 7.78679 9.72719C7.81561 9.79562 7.8577 9.85766 7.91063 9.90974L8.93906 10.9384C8.91033 11.0472 8.89559 11.1593 8.89519 11.2719C8.89469 11.4451 8.92858 11.6167 8.99488 11.7768C9.06118 11.9368 9.15858 12.0821 9.28144 12.2042L9.82744 12.75L4.962 17.6149C4.54926 18.0276 4.31738 18.5874 4.31738 19.1711C4.31738 19.7548 4.54926 20.3146 4.962 20.7274C5.37475 21.1401 5.93455 21.372 6.51825 21.372C7.10196 21.372 7.66176 21.1401 8.0745 20.7274L18.7667 10.0352C19.3528 9.44784 19.6819 8.65197 19.6818 7.82223C19.6818 6.99249 19.3525 6.19667 18.7663 5.60943ZM10.077 11.4082C10.0407 11.3719 10.0204 11.3227 10.0204 11.2714C10.0204 11.22 10.0407 11.1708 10.077 11.1345L16.2521 4.95956C16.2884 4.9233 16.3376 4.90293 16.3889 4.90293C16.4402 4.90293 16.4894 4.9233 16.5257 4.95956L17.0715 5.50537L10.6228 11.9541L10.077 11.4082ZM8.30644 18.9043L6.78469 17.3831L7.59638 16.5712L9.11757 18.0924L8.30644 18.9043ZM5.75756 19.9312C5.55613 19.7294 5.443 19.4558 5.443 19.1707C5.443 18.8855 5.55613 18.6119 5.75756 18.4101L5.98913 18.1783L7.51032 19.6995L7.27857 19.9312C7.0767 20.1326 6.8032 20.2457 6.51807 20.2457C6.23293 20.2457 5.95943 20.1326 5.75756 19.9312ZM17.9709 9.23906L9.91313 17.2969L8.39194 15.7757L17.8669 6.29999L17.9709 6.40387C18.3465 6.78003 18.5575 7.28988 18.5575 7.82146C18.5575 8.35304 18.3465 8.8629 17.9709 9.23906Z" fill="black"/>
</svg>
