<svg width="15" height="23" viewBox="0 0 15 23" fill="none" xmlns="http://www.w3.org/2000/svg">
<path d="M5.00528 7.01172H2.37104C2.05719 7.01208 1.7563 7.13691 1.53437 7.35884C1.31245 7.58077 1.18761 7.88166 1.18725 8.19551V9.38473C1.0159 9.39611 0.855268 9.47213 0.737837 9.59742C0.620406 9.72272 0.554942 9.88794 0.554688 10.0597V20.7403C0.555227 21.1798 0.730064 21.6011 1.04084 21.9118C1.35162 22.2225 1.77297 22.3973 2.21245 22.3978H5.1641C5.6035 22.3972 6.02473 22.2224 6.33541 21.9116C6.64609 21.6009 6.82087 21.1797 6.82141 20.7403V10.0597C6.82115 9.88794 6.75569 9.72272 6.63826 9.59742C6.52083 9.47213 6.36019 9.39611 6.18884 9.38473V8.19551C6.18848 7.8817 6.06368 7.58084 5.8418 7.35892C5.61993 7.137 5.31909 7.01214 5.00528 7.01172ZM5.46203 10.7394V15.8696H1.91406V10.7394H5.46203ZM1.91406 17.229H5.46203V18.375H1.91406V17.229ZM4.82992 8.37041V9.3793H2.54662V8.37109L4.82992 8.37041ZM5.1641 21.0375H2.21245C2.13337 21.0375 2.05754 21.006 2.0016 20.9501C1.94567 20.8942 1.91418 20.8184 1.91406 20.7394V19.7334H5.46203V20.7394C5.46191 20.8184 5.43049 20.8941 5.37465 20.95C5.31881 21.0059 5.2431 21.0373 5.1641 21.0375Z" fill="black"/>
<path d="M8.85938 12.2588C8.67911 12.2588 8.50623 12.3304 8.37876 12.4578C8.2513 12.5853 8.17969 12.7582 8.17969 12.9384V20.7399C8.18023 21.1794 8.35506 21.6007 8.66584 21.9114C8.97662 22.2222 9.39797 22.397 9.83745 22.3974H12.7886C13.2281 22.397 13.6495 22.2222 13.9603 21.9114C14.271 21.6007 14.4459 21.1794 14.4464 20.7399V12.9384C14.4464 12.7582 14.3748 12.5853 14.2473 12.4578C14.1199 12.3304 13.947 12.2588 13.7667 12.2588H11.9925V8.24113C12.3438 8.1041 12.6456 7.86432 12.8586 7.5531C13.0715 7.24188 13.1856 6.87369 13.186 6.4966V1.2809C13.186 1.1581 13.1526 1.0376 13.0896 0.932223C13.0265 0.826844 12.9361 0.740521 12.8279 0.682426C12.7197 0.62433 12.5978 0.596635 12.4751 0.602282C12.3524 0.607929 12.2336 0.646707 12.1312 0.714497L9.74433 2.29273C9.65076 2.35467 9.57399 2.43881 9.52086 2.53765C9.46772 2.63648 9.43988 2.74693 9.43983 2.85914V6.4975C9.4402 6.87457 9.55428 7.24276 9.76717 7.55399C9.98005 7.86521 10.2818 8.105 10.6331 8.24204V12.2588H8.85938ZM10.7992 3.22481L11.8267 2.54512V6.4975C11.8281 6.56588 11.8159 6.63385 11.7907 6.69743C11.7655 6.76102 11.7279 6.81894 11.6801 6.8678C11.6322 6.91666 11.5751 6.95548 11.5121 6.98199C11.449 7.00849 11.3813 7.02214 11.3129 7.02214C11.2445 7.02214 11.1768 7.00849 11.1138 6.98199C11.0508 6.95548 10.9936 6.91666 10.9458 6.8678C10.8979 6.81894 10.8603 6.76102 10.8352 6.69743C10.81 6.63385 10.7978 6.56588 10.7992 6.4975V3.22481ZM12.7886 21.0372H9.83699C9.75815 21.037 9.68258 21.0056 9.62676 20.9499C9.57095 20.8942 9.53942 20.8187 9.53906 20.7399V19.734H13.087V20.7399C13.0867 20.8188 13.0551 20.8944 12.9992 20.9501C12.9433 21.0058 12.8676 21.0371 12.7886 21.0372ZM13.087 18.3746H9.53906V13.6181H13.087V18.3746Z" fill="black"/>
</svg>
