<svg width="24" height="24" viewBox="0 0 24 24" fill="none" xmlns="http://www.w3.org/2000/svg">
<g clip-path="url(#clip0_1_145)">
<path d="M8.25 9.04688C4.14033 9.04688 0.796875 12.3903 0.796875 16.5C0.796875 20.6355 4.14033 24 8.25 24C12.3597 24 15.7031 20.6355 15.7031 16.5C15.7031 12.3903 12.3596 9.04688 8.25 9.04688ZM8.25 22.5938C4.91573 22.5938 2.20312 19.8601 2.20312 16.5C2.20312 13.1657 4.91573 10.4531 8.25 10.4531C11.5843 10.4531 14.2969 13.1657 14.2969 16.5C14.2969 19.8601 11.5842 22.5938 8.25 22.5938Z" fill="black"/>
<path d="M8.25 11.6719C5.58778 11.6719 3.42188 13.8378 3.42188 16.5C3.42188 19.1622 5.58778 21.3281 8.25 21.3281C10.9122 21.3281 13.0781 19.1622 13.0781 16.5C13.0781 13.8378 10.9122 11.6719 8.25 11.6719ZM8.25 19.9219C6.36319 19.9219 4.82812 18.3868 4.82812 16.5C4.82812 14.6132 6.36319 13.0781 8.25 13.0781C10.1368 13.0781 11.6719 14.6132 11.6719 16.5C11.6719 18.3868 10.1368 19.9219 8.25 19.9219Z" fill="black"/>
<path d="M22.9013 1.29769C21.6627 0.436594 20.3921 0 19.125 0C17.8579 0 16.5873 0.436594 15.3487 1.29769C15.0989 1.47127 14.9891 1.78575 15.0765 2.07708L16.1719 5.72817V7.875C16.1719 7.92131 16.1765 7.96748 16.1855 8.01291L16.9219 11.6947V21.7969C16.9219 23.0117 17.9102 24 19.125 24C20.3398 24 21.3281 23.0117 21.3281 21.7969V11.6947L22.0645 8.01291C22.0735 7.96748 22.0781 7.92131 22.0781 7.875V5.72817L23.1735 2.07703C23.2608 1.78575 23.1511 1.47127 22.9013 1.29769ZM18.4219 1.46719V2.25C18.4219 2.63831 18.7367 2.95312 19.125 2.95312C19.5133 2.95312 19.8281 2.63831 19.8281 2.25V1.46719C20.4386 1.57106 21.0564 1.80839 21.6749 2.17833L20.8518 4.92188H17.3981L16.575 2.17833C17.1937 1.80839 17.8114 1.57111 18.4219 1.46719ZM20.6719 7.80539L20.0486 10.9219H18.2014L17.5781 7.80539V6.32812H20.6719V7.80539ZM19.9219 21.7969C19.9219 22.2363 19.5644 22.5938 19.125 22.5938C18.6856 22.5938 18.3281 22.2363 18.3281 21.7969V12.3281H19.9219V21.7969Z" fill="black"/>
<path d="M5.25 2.95312H5.67188V3.375C5.67188 3.76331 5.98669 4.07812 6.375 4.07812C6.76331 4.07812 7.07812 3.76331 7.07812 3.375V2.95312H7.5C7.88831 2.95312 8.20312 2.63831 8.20312 2.25C8.20312 1.86169 7.88831 1.54688 7.5 1.54688H7.07812V1.125C7.07812 0.736687 6.76331 0.421875 6.375 0.421875C5.98669 0.421875 5.67188 0.736687 5.67188 1.125V1.54688H5.25C4.86169 1.54688 4.54688 1.86169 4.54688 2.25C4.54688 2.63831 4.86164 2.95312 5.25 2.95312Z" fill="black"/>
<path d="M11.25 7.07812H11.6719V7.5C11.6719 7.88831 11.9867 8.20312 12.375 8.20312C12.7633 8.20312 13.0781 7.88831 13.0781 7.5V7.07812H13.5C13.8883 7.07812 14.2031 6.76331 14.2031 6.375C14.2031 5.98669 13.8883 5.67188 13.5 5.67188H13.0781V5.25C13.0781 4.86169 12.7633 4.54688 12.375 4.54688C11.9867 4.54688 11.6719 4.86169 11.6719 5.25V5.67188H11.25C10.8617 5.67188 10.5469 5.98669 10.5469 6.375C10.5469 6.76331 10.8616 7.07812 11.25 7.07812Z" fill="black"/>
</g>
<defs>
<clipPath id="clip0_1_145">
<rect width="24" height="24" fill="white"/>
</clipPath>
</defs>
</svg>
