<svg width="24" height="24" viewBox="0 0 24 24" fill="none" xmlns="http://www.w3.org/2000/svg">
<path d="M20.4564 8.66081H15.5241V4.96331C15.5233 4.43775 15.3141 3.93395 14.9424 3.56239C14.5707 3.19083 14.0668 2.98184 13.5413 2.98125H3.54395C3.39476 2.98125 3.25169 3.04051 3.1462 3.146C3.04071 3.25149 2.98145 3.39456 2.98145 3.54375V14.7767C2.98145 14.9259 3.04071 15.0689 3.1462 15.1744C3.25169 15.2799 3.39476 15.3392 3.54395 15.3392H7.53957V19.0371C7.54017 19.5627 7.74921 20.0666 8.12086 20.4383C8.4925 20.8099 8.9964 21.019 9.52201 21.0197H20.4564C20.6056 21.0197 20.7487 20.9604 20.8542 20.8549C20.9597 20.7494 21.0189 20.6064 21.0189 20.4572V9.22331C21.0189 9.07412 20.9597 8.93105 20.8542 8.82556C20.7487 8.72007 20.6056 8.66081 20.4564 8.66081ZM14.3983 4.96331V14.412C14.1311 14.2821 13.838 14.2145 13.5409 14.2142H7.39445V4.10625H13.5413C13.7685 4.10654 13.9864 4.19691 14.1472 4.35756C14.308 4.5182 14.3986 4.73602 14.3991 4.96331H14.3983ZM4.10645 4.10625H6.27019V14.2142H4.10645V4.10625ZM13.5416 15.3392C13.7691 15.3392 13.9872 15.4295 14.1481 15.5904C14.3089 15.7512 14.3993 15.9694 14.3993 16.1968C14.3993 16.4243 14.3089 16.6424 14.1481 16.8032C13.9872 16.9641 13.7691 17.0544 13.5416 17.0544H9.52126C9.22417 17.0548 8.93102 17.1224 8.66382 17.2522V15.3397L13.5416 15.3392ZM8.66382 19.0371C8.66402 18.8097 8.75441 18.5917 8.91517 18.4309C9.07592 18.2701 9.29389 18.1797 9.52126 18.1794H13.5416C14.0673 18.1788 14.5712 17.9697 14.9428 17.5979C15.3145 17.2262 15.5235 16.7223 15.5241 16.1966V9.78581H16.6059V19.8947H9.52126C9.29391 19.8944 9.07596 19.8039 8.91522 19.6432C8.75448 19.4824 8.66407 19.2644 8.66382 19.0371ZM19.8951 19.8947H17.7309V9.78581H19.8939L19.8951 19.8947Z" fill="black"/>
<path d="M13.0396 8.47331C13.1887 8.47331 13.3318 8.41405 13.4373 8.30856C13.5428 8.20307 13.6021 8.06 13.6021 7.91081V5.92781C13.6021 5.77863 13.5428 5.63555 13.4373 5.53006C13.3318 5.42457 13.1887 5.36531 13.0396 5.36531C12.8904 5.36531 12.7473 5.42457 12.6418 5.53006C12.5363 5.63555 12.4771 5.77863 12.4771 5.92781V7.91081C12.4771 8.06 12.5363 8.20307 12.6418 8.30856C12.7473 8.41405 12.8904 8.47331 13.0396 8.47331Z" fill="black"/>
</svg>
