<svg width="20" height="20" viewBox="0 0 20 20" fill="none" xmlns="http://www.w3.org/2000/svg">
<path d="M18.4564 6.66081H13.5241V2.96331C13.5233 2.43775 13.3141 1.93395 12.9424 1.56239C12.5707 1.19083 12.0668 0.981842 11.5413 0.981247H1.54395C1.39476 0.981247 1.25169 1.04051 1.1462 1.146C1.04071 1.25149 0.981445 1.39456 0.981445 1.54375V12.7767C0.981445 12.9259 1.04071 13.0689 1.1462 13.1744C1.25169 13.2799 1.39476 13.3392 1.54395 13.3392H5.53957V17.0371C5.54017 17.5627 5.74921 18.0666 6.12086 18.4383C6.4925 18.8099 6.9964 19.019 7.52201 19.0197H18.4564C18.6056 19.0197 18.7487 18.9604 18.8542 18.8549C18.9597 18.7494 19.0189 18.6064 19.0189 18.4572V7.22331C19.0189 7.07412 18.9597 6.93105 18.8542 6.82556C18.7487 6.72007 18.6056 6.66081 18.4564 6.66081ZM12.3983 2.96331V12.412C12.1311 12.2821 11.838 12.2145 11.5409 12.2142H5.39445V2.10625H11.5413C11.7685 2.10654 11.9864 2.19691 12.1472 2.35756C12.308 2.5182 12.3986 2.73602 12.3991 2.96331H12.3983ZM2.10645 2.10625H4.27019V12.2142H2.10645V2.10625ZM11.5416 13.3392C11.7691 13.3392 11.9872 13.4295 12.1481 13.5904C12.3089 13.7512 12.3993 13.9694 12.3993 14.1968C12.3993 14.4243 12.3089 14.6424 12.1481 14.8032C11.9872 14.9641 11.7691 15.0544 11.5416 15.0544H7.52126C7.22417 15.0548 6.93102 15.1224 6.66382 15.2522V13.3397L11.5416 13.3392ZM6.66382 17.0371C6.66402 16.8097 6.75441 16.5917 6.91517 16.4309C7.07592 16.2701 7.29389 16.1797 7.52126 16.1794H11.5416C12.0673 16.1788 12.5712 15.9697 12.9428 15.5979C13.3145 15.2262 13.5235 14.7223 13.5241 14.1966V7.78581H14.6059V17.8947H7.52126C7.29391 17.8944 7.07596 17.8039 6.91522 17.6432C6.75448 17.4824 6.66407 17.2644 6.66382 17.0371ZM17.8951 17.8947H15.7309V7.78581H17.8939L17.8951 17.8947Z" fill="black"/>
<path d="M11.0396 6.47331C11.1887 6.47331 11.3318 6.41405 11.4373 6.30856C11.5428 6.20307 11.6021 6.06 11.6021 5.91081V3.92781C11.6021 3.77863 11.5428 3.63555 11.4373 3.53006C11.3318 3.42457 11.1887 3.36531 11.0396 3.36531C10.8904 3.36531 10.7473 3.42457 10.6418 3.53006C10.5363 3.63555 10.4771 3.77863 10.4771 3.92781V5.91081C10.4771 6.06 10.5363 6.20307 10.6418 6.30856C10.7473 6.41405 10.8904 6.47331 11.0396 6.47331Z" fill="black"/>
</svg>
