<svg width="24" height="24" viewBox="0 0 24 24" fill="none" xmlns="http://www.w3.org/2000/svg">
<path d="M17.25 10.0364C16.9531 10.0364 16.6607 10.0565 16.3738 10.0951C16.0569 8.23942 15.1519 6.54095 13.7876 5.2624C13.5144 5.0064 13.2265 4.77139 12.9265 4.55758H15.75C16.1383 4.55758 16.4531 4.23195 16.4531 3.8303C16.4531 1.71825 14.7919 0 12.75 0H3.70312C1.6612 0 0 1.71825 0 3.8303C0 4.23195 0.314812 4.55758 0.703125 4.55758H3.57966C1.41919 6.09789 0 8.67447 0 11.5879C0 16.2932 3.70092 20.1212 8.25 20.1212C9.19453 20.1212 10.1149 19.9582 10.9933 19.6373C11.997 22.193 14.4231 24 17.25 24C20.972 24 24 20.868 24 17.0182C24 13.1684 20.972 10.0364 17.25 10.0364ZM19.1348 11.8463L12.2498 18.9677C12.028 18.3611 11.9062 17.7041 11.9062 17.0182C11.9062 13.9704 14.3034 11.4909 17.25 11.4909C17.9131 11.4909 18.5483 11.6169 19.1348 11.8463ZM12.3813 12.1874C11.6496 12.976 11.095 13.9416 10.7836 15.0149C10.0517 15.5957 9.17756 15.903 8.25 15.903C5.94961 15.903 4.07812 13.9673 4.07812 11.5879C4.07812 9.20848 5.94961 7.27273 8.25 7.27273C10.5504 7.27273 12.4219 9.20848 12.4219 11.5879C12.4219 11.7889 12.4079 11.9903 12.3813 12.1874ZM1.51631 3.10303C1.81397 2.14764 2.68177 1.45455 3.70312 1.45455H12.75C13.7714 1.45455 14.6392 2.14764 14.9368 3.10303H1.51631ZM8.25 18.6667C4.47633 18.6667 1.40625 15.4912 1.40625 11.5879C1.40625 7.96412 4.05253 4.96815 7.45116 4.55758H9.05756C12.0744 4.92189 14.5109 7.304 15.0031 10.4346C14.5817 10.5889 14.1795 10.7853 13.801 11.0189C13.5238 8.10356 11.1402 5.81818 8.25 5.81818C5.1742 5.81818 2.67188 8.40645 2.67188 11.5879C2.67188 14.7693 5.1742 17.3576 8.25 17.3576C9.03952 17.3576 9.80039 17.1911 10.5018 16.8698C10.5008 16.9191 10.5 16.9685 10.5 17.0182C10.5 17.4339 10.5355 17.8413 10.6032 18.2373C9.85177 18.5223 9.06188 18.6667 8.25 18.6667ZM12.9518 20.2985L20.4214 12.5724C20.8505 12.9008 21.2306 13.294 21.5481 13.7378L14.0786 21.4639C13.6494 21.1355 13.2694 20.7424 12.9518 20.2985ZM17.25 22.5455C16.5869 22.5455 15.9517 22.4195 15.3652 22.1901L22.2502 15.0687C22.472 15.6753 22.5938 16.3323 22.5938 17.0182C22.5938 20.0659 20.1966 22.5455 17.25 22.5455Z" fill="black"/>
</svg>
