<svg id="Layer_1" data-name="Layer 1" xmlns="http://www.w3.org/2000/svg" viewBox="0 0 24 24"><path d="M20,2.5H4A2.50294,2.50294,0,0,0,1.5,5V21a.5.5,0,0,0,.85352.35352L6.207,17.5H20A2.50294,2.50294,0,0,0,22.5,15V5A2.50294,2.50294,0,0,0,20,2.5ZM21.5,15A1.50164,1.50164,0,0,1,20,16.5H6a.49965.49965,0,0,0-.35352.14648L2.5,19.793V5A1.50164,1.50164,0,0,1,4,3.5H20A1.50164,1.50164,0,0,1,21.5,5Zm-3-8a.49971.49971,0,0,1-.5.5H6a.5.5,0,0,1,0-1H18A.49971.49971,0,0,1,18.5,7Zm0,3a.49971.49971,0,0,1-.5.5H6a.5.5,0,0,1,0-1H18A.49971.49971,0,0,1,18.5,10Zm0,3a.49971.49971,0,0,1-.5.5H6a.5.5,0,0,1,0-1H18A.49971.49971,0,0,1,18.5,13Z"/></svg>