<svg width="20" height="20" viewBox="0 0 20 20" fill="none" xmlns="http://www.w3.org/2000/svg">
<path fill-rule="evenodd" clip-rule="evenodd" d="M9.99992 0C15.5228 0 20 4.47702 20 9.99976C20 15.5227 15.5228 19.9997 9.99992 19.9997C4.47718 19.9998 0 15.5227 0 9.99976C0 4.47702 4.47718 0 9.99992 0ZM5.55106 11.0152L5.54862 11.0129C5.42085 10.8961 5.35217 10.7387 5.34419 10.5785C5.33622 10.4187 5.38895 10.2555 5.50435 10.1265C5.50598 10.1248 5.50744 10.1231 5.50907 10.1215C5.62577 9.9939 5.78316 9.92505 5.94331 9.91708C6.10428 9.9091 6.2685 9.96265 6.39773 10.0795L8.50644 11.9916L13.5665 6.69233C13.6869 6.56603 13.8469 6.50027 14.009 6.49637C14.1705 6.4923 14.3335 6.54991 14.46 6.67003C14.5865 6.79031 14.6521 6.95079 14.6561 7.11257C14.6602 7.27419 14.6024 7.4376 14.4823 7.5639L8.99716 13.3086C8.99342 13.3126 8.98935 13.3163 8.98528 13.3196C8.86891 13.4359 8.71689 13.4978 8.56243 13.5035C8.4039 13.5095 8.24293 13.4558 8.11582 13.3407L5.55301 11.0168L5.55106 11.0152Z" fill="#AB28B2"/>
</svg>
