<svg width="24" height="24" viewBox="0 0 24 24" fill="none" xmlns="http://www.w3.org/2000/svg">
<path d="M16.5002 18.84L15.4202 18.54L15.7202 19.62C14.6402 20.58 13.3802 21.18 12.0002 21.18C10.6802 21.18 9.42019 20.58 8.28019 19.62L8.58019 18.54L7.5002 18.84C5.5202 16.68 4.2002 13.32 4.2002 10.74C4.2002 9.18 4.6802 7.68 5.5202 6.42L7.44019 6.95999L6.9002 4.92C8.2802 3.72 10.0802 3 12.0602 3C14.0402 3 15.8402 3.72 17.2202 4.92L16.6802 6.95999L18.6002 6.42C19.4402 7.68 19.9202 9.12 19.9202 10.74C19.8002 13.32 18.5402 16.62 16.5002 18.84Z" stroke="black" stroke-width="1.2" stroke-miterlimit="10" stroke-linecap="round" stroke-linejoin="round"/>
<path d="M8.76028 13.02C9.85381 13.02 10.7403 12.4827 10.7403 11.82C10.7403 11.1573 9.85381 10.62 8.76028 10.62C7.66676 10.62 6.78027 11.1573 6.78027 11.82C6.78027 12.4827 7.66676 13.02 8.76028 13.02Z" stroke="black" stroke-width="1.2" stroke-miterlimit="10" stroke-linecap="round" stroke-linejoin="round"/>
<path d="M15.3003 13.02C16.3938 13.02 17.2803 12.4827 17.2803 11.82C17.2803 11.1573 16.3938 10.62 15.3003 10.62C14.2068 10.62 13.3203 11.1573 13.3203 11.82C13.3203 12.4827 14.2068 13.02 15.3003 13.02Z" stroke="black" stroke-width="1.2" stroke-miterlimit="10" stroke-linecap="round" stroke-linejoin="round"/>
<path d="M12.0002 17.76C12.9943 17.76 13.8002 17.4108 13.8002 16.98C13.8002 16.5492 12.9943 16.2 12.0002 16.2C11.0061 16.2 10.2002 16.5492 10.2002 16.98C10.2002 17.4108 11.0061 17.76 12.0002 17.76Z" stroke="black" stroke-width="1.2" stroke-miterlimit="10" stroke-linecap="round" stroke-linejoin="round"/>
</svg>
