<svg width="20" height="20" viewBox="0 0 20 20" fill="none" xmlns="http://www.w3.org/2000/svg">
<path fill-rule="evenodd" clip-rule="evenodd" d="M10 0C15.5225 0 20 4.47754 20 10C20 15.5225 15.5225 20 10 20C4.47754 20 0 15.5225 0 10C0 4.47754 4.47754 0 10 0ZM8.82487 6.12793C8.82487 4.5931 11.1637 4.59147 11.1637 6.13118V10.3223L13.8053 11.7204C13.8184 11.7269 13.8314 11.735 13.8428 11.7448L13.8656 11.7611C15.0928 12.5651 13.9518 14.4971 12.64 13.7386L12.6351 13.7354L9.43848 12.0231C9.06413 11.8229 8.82162 11.4258 8.82162 10.9993H8.82324L8.82487 6.12793Z" fill="#AB28B2"/>
</svg>
