<svg width="24" height="24" viewBox="0 0 24 24" fill="none" xmlns="http://www.w3.org/2000/svg">
<path d="M8.31086 21.0197H15.6894C15.9519 21.0196 16.2118 20.9669 16.4537 20.8648C16.6956 20.7626 16.9145 20.6131 17.0977 20.4249C17.9882 19.5222 18.623 18.399 18.9372 17.1705C19.2513 15.9419 19.2336 14.6519 18.8857 13.4325C18.5377 12.213 17.8722 11.1078 16.9571 10.2299C16.042 9.35207 14.9101 8.73298 13.6773 8.436V7.63125H13.7615C14.031 7.6309 14.2894 7.52367 14.4799 7.33309C14.6704 7.1425 14.7776 6.88412 14.7779 6.61462V3.99693C14.7774 3.7276 14.6701 3.46945 14.4796 3.27907C14.289 3.08869 14.0308 2.98159 13.7615 2.98125H10.2389C9.96939 2.98154 9.71098 3.08875 9.52039 3.27934C9.3298 3.46993 9.2226 3.72834 9.2223 3.99787V6.615C9.2227 6.88447 9.32995 7.14278 9.52052 7.33329C9.7111 7.5238 9.96946 7.63095 10.2389 7.63125H10.3227V8.43562C9.08993 8.73266 7.95812 9.35177 7.04305 10.2297C6.12798 11.1075 5.46247 12.2127 5.11457 13.4321C4.76667 14.6516 4.74887 15.9415 5.06299 17.1701C5.3771 18.3986 6.01186 19.5218 6.90236 20.4246C7.08552 20.6128 7.30451 20.7624 7.54641 20.8646C7.78832 20.9668 8.04825 21.0195 8.31086 21.0197ZM10.3473 4.10625H13.6529V6.50625H10.3473V4.10625ZM12.5523 7.63125V8.3625H11.4477V7.63125H12.5523ZM10.7696 9.4875H13.2305C14.2925 9.70864 15.2753 10.212 16.0755 10.9445C16.8756 11.677 17.4636 12.6117 17.7774 13.6501C18.0912 14.6886 18.1193 15.7924 17.8588 16.8455C17.5982 17.8985 17.0587 18.8619 16.2969 19.6342C16.2181 19.7159 16.1237 19.781 16.0194 19.8256C15.9151 19.8703 15.8028 19.8935 15.6894 19.8941H8.31086C8.19738 19.8936 8.08516 19.8703 7.98083 19.8256C7.87649 19.781 7.78215 19.7159 7.70336 19.6342C6.94155 18.8619 6.40198 17.8986 6.14144 16.8455C5.88089 15.7924 5.90899 14.6886 6.22279 13.6502C6.53659 12.6118 7.12448 11.6771 7.92461 10.9445C8.72474 10.212 9.70752 9.70867 10.7696 9.4875Z" fill="black"/>
<path d="M8.22644 14.3781C8.37097 13.8419 8.63285 13.3446 8.99313 12.9221C9.09009 12.8087 9.13802 12.6613 9.12637 12.5126C9.11471 12.3638 9.04442 12.2257 8.93097 12.1287C8.81751 12.0318 8.67018 11.9838 8.52139 11.9955C8.3726 12.0071 8.23453 12.0774 8.13756 12.1909C7.66855 12.7411 7.3277 13.3886 7.13969 14.0867C7.1206 14.1581 7.11577 14.2326 7.12547 14.3058C7.13517 14.3791 7.1592 14.4498 7.1962 14.5137C7.2332 14.5777 7.28243 14.6338 7.3411 14.6788C7.39977 14.7237 7.46672 14.7567 7.53812 14.7758C7.60953 14.7948 7.684 14.7997 7.75727 14.79C7.83054 14.7803 7.90119 14.7562 7.96518 14.7192C8.02916 14.6822 8.08523 14.633 8.13019 14.5743C8.17514 14.5157 8.2081 14.4487 8.22719 14.3773L8.22644 14.3781Z" fill="black"/>
<path d="M11.8344 18.4219C12.4428 18.4219 13.0376 18.2415 13.5434 17.9035C14.0493 17.5654 14.4436 17.085 14.6764 16.5229C14.9092 15.9608 14.9701 15.3423 14.8514 14.7456C14.7328 14.1489 14.4398 13.6008 14.0096 13.1706C13.5794 12.7404 13.0313 12.4474 12.4345 12.3287C11.8378 12.21 11.2193 12.271 10.6572 12.5038C10.0952 12.7366 9.61473 13.1309 9.27672 13.6367C8.93871 14.1426 8.7583 14.7373 8.7583 15.3457C8.75919 16.1613 9.08357 16.9432 9.66026 17.5199C10.237 18.0966 11.0189 18.421 11.8344 18.4219ZM11.8344 13.3948C12.2203 13.3948 12.5976 13.5092 12.9184 13.7236C13.2393 13.938 13.4894 14.2428 13.637 14.5993C13.7847 14.9559 13.8233 15.3482 13.748 15.7267C13.6727 16.1051 13.4869 16.4528 13.214 16.7257C12.9411 16.9985 12.5935 17.1843 12.215 17.2596C11.8365 17.3349 11.4442 17.2962 11.0876 17.1485C10.7311 17.0008 10.4264 16.7507 10.212 16.4298C9.99766 16.1089 9.88326 15.7317 9.8833 15.3457C9.8839 14.8285 10.0897 14.3326 10.4554 13.9668C10.8212 13.6011 11.3172 13.3954 11.8344 13.3948Z" fill="black"/>
</svg>
