<svg width="24" height="24" viewBox="0 0 24 24" fill="none" xmlns="http://www.w3.org/2000/svg">
<path d="M18.4038 10.0285C18.3083 9.89719 18.2069 9.76242 18.0982 9.62348C17.4699 8.81977 16.8497 8.18217 16.8236 8.15541C16.6787 8.00681 16.4718 7.92192 16.2548 7.92192C16.0377 7.92192 15.8309 8.00686 15.6859 8.15541C15.6598 8.18217 15.0396 8.81977 14.4113 9.62348C14.3018 9.76355 14.1995 9.89939 14.1034 10.0317C14.0816 10.0358 14.0598 10.0404 14.0381 10.0463C13.0435 10.3192 12.1128 10.7821 11.3121 11.3922V6C11.3121 5.61169 10.9699 5.29688 10.5478 5.29688H10.0892V0.703125C10.0892 0.314812 9.74696 0 9.32484 0H1.98726C1.56515 0 1.22293 0.314812 1.22293 0.703125V5.29688H0.764331C0.342217 5.29688 0 5.61169 0 6V21.8906C0 23.0537 1.02864 24 2.29299 24H9.01911C10.1239 24 11.0486 23.2775 11.2644 22.3193C12.6133 23.3672 14.3551 24 16.2548 24C20.5255 24 24 20.8037 24 16.875C24 13.7064 21.7033 10.9034 18.4038 10.0285ZM16.255 9.71142C17.1411 10.7236 17.9363 11.8789 17.9363 12.375C17.9363 13.2279 17.182 13.9219 16.2548 13.9219C15.3276 13.9219 14.5732 13.2279 14.5732 12.375C14.5732 11.8801 15.3688 10.7244 16.255 9.71142ZM1.52866 6.70312H1.98726H9.32484H9.78344V9.42188H7.83862C7.06222 9.42188 6.28469 9.25303 5.59022 8.93363C4.68464 8.51705 3.67073 8.29688 2.65819 8.29688H1.52866V6.70312ZM2.65819 9.70312C3.4346 9.70312 4.21213 9.87197 4.9066 10.1914C5.81218 10.608 6.82609 10.8281 7.83862 10.8281H9.78344V12.9588C9.24127 13.7139 8.86604 14.5455 8.66966 15.4219H1.52866V9.70312H2.65819ZM1.52866 16.8281H8.51006C8.50996 16.8437 8.50955 16.8593 8.50955 16.875C8.50955 17.6783 8.65498 18.4509 8.9226 19.1719H1.52866V16.8281ZM6.11465 1.40625V2.29688H5.19745V1.40625H6.11465ZM2.75159 1.40625H3.66879V3C3.66879 3.38831 4.01101 3.70312 4.43312 3.70312H6.87898C7.3011 3.70312 7.64331 3.38831 7.64331 3V1.40625H8.56051V5.29688H2.75159V1.40625ZM9.01911 22.5938H2.29299C1.87154 22.5938 1.52866 22.2783 1.52866 21.8906V20.5781H9.64015C9.68657 20.648 9.73452 20.7169 9.78344 20.7851V21.8906C9.78344 22.2783 9.44056 22.5938 9.01911 22.5938ZM16.2548 22.5938C12.827 22.5938 10.0382 20.0283 10.0382 16.875C10.0382 14.8345 11.2435 12.9636 13.0974 11.9497C13.0626 12.1004 13.0446 12.2422 13.0446 12.375C13.0446 12.7258 13.1117 13.0623 13.2343 13.3748C13.194 13.3997 13.1557 13.4283 13.1201 13.461L12.5436 13.9913C12.2451 14.2658 12.2451 14.7111 12.5436 14.9857C12.6928 15.123 12.8885 15.1916 13.084 15.1916C13.2796 15.1916 13.4753 15.123 13.6245 14.9857L14.0921 14.5554C14.6632 15.0351 15.4224 15.3281 16.2548 15.3281C17.0871 15.3281 17.8464 15.0351 18.4174 14.5554L18.885 14.9857C19.0343 15.123 19.2299 15.1916 19.4255 15.1916C19.621 15.1916 19.8167 15.123 19.9659 14.9857C20.2644 14.7111 20.2644 14.2659 19.9659 13.9913L19.3895 13.461C19.3538 13.4282 19.3155 13.3996 19.2752 13.3748C19.3978 13.0623 19.4649 12.7258 19.4649 12.375C19.4649 12.2419 19.4469 12.0998 19.4119 11.9488C21.2689 12.9595 22.4713 14.8212 22.4713 16.875C22.4713 20.0283 19.6826 22.5938 16.2548 22.5938Z" fill="black"/>
<path d="M12.9427 17.25V16.5C12.9427 16.1117 12.6005 15.7969 12.1784 15.7969C11.7563 15.7969 11.4141 16.1117 11.4141 16.5V17.25C11.4141 17.6383 11.7563 17.9531 12.1784 17.9531C12.6005 17.9531 12.9427 17.6383 12.9427 17.25Z" fill="black"/>
<path d="M13.6251 18.7644C13.3267 18.4898 12.8427 18.4898 12.5442 18.7644C12.2457 19.0389 12.2457 19.4841 12.5442 19.7587L13.1206 20.289C13.2699 20.4263 13.4655 20.495 13.6611 20.495C13.8566 20.495 14.0523 20.4263 14.2015 20.289C14.5 20.0145 14.5 19.5693 14.2015 19.2947L13.6251 18.7644Z" fill="black"/>
<path d="M16.6616 19.9219H15.8464C15.4242 19.9219 15.082 20.2367 15.082 20.625C15.082 21.0133 15.4242 21.3281 15.8464 21.3281H16.6616C17.0838 21.3281 17.426 21.0133 17.426 20.625C17.426 20.2367 17.0838 19.9219 16.6616 19.9219Z" fill="black"/>
<path d="M18.8863 18.7644L18.3098 19.2947C18.0113 19.5693 18.0113 20.0145 18.3098 20.2891C18.4591 20.4264 18.6547 20.495 18.8502 20.495C19.0458 20.495 19.2415 20.4264 19.3907 20.2891L19.9671 19.7588C20.2656 19.4842 20.2656 19.039 19.9671 18.7644C19.6687 18.4898 19.1848 18.4898 18.8863 18.7644Z" fill="black"/>
<path d="M20.3307 15.7969C19.9086 15.7969 19.5664 16.1117 19.5664 16.5V17.25C19.5664 17.6383 19.9086 17.9531 20.3307 17.9531C20.7529 17.9531 21.0951 17.6383 21.0951 17.25V16.5C21.0951 16.1117 20.7529 15.7969 20.3307 15.7969Z" fill="black"/>
</svg>
