<svg width="24" height="24" viewBox="0 0 24 24" fill="none" xmlns="http://www.w3.org/2000/svg">
<g clip-path="url(#clip0_9_206)">
<path d="M16.5001 14.6719C15.5356 14.6719 14.6183 14.877 13.7888 15.2453L14.195 10.6248C14.2719 9.75628 13.8153 8.95223 13.0783 8.55342V6C13.0783 5.62988 12.7882 5.29688 12.3566 5.29688C12.6022 2.44088 10.3455 0 7.50013 0C4.65645 0 2.39788 2.43895 2.64364 5.29688C2.21333 5.29688 1.922 5.62884 1.922 6V8.55342C1.18653 8.95139 0.72861 9.75394 0.805204 10.6244L1.81189 22.0754C1.90841 23.1726 2.81174 24 3.9132 24H22.5001C22.8884 24 23.2033 23.6852 23.2033 23.2969V21.375C23.2033 17.6789 20.1963 14.6719 16.5001 14.6719ZM10.3129 18.7969H2.93539L2.79528 17.2031H11.2575C10.8733 17.685 10.5539 18.2206 10.3129 18.7969ZM3.32825 6.70312H11.672V8.29688H3.32825V6.70312ZM12.3379 15.7969H2.67163L2.20325 10.437C2.20325 10.0323 2.53245 9.70312 2.93708 9.70312H12.0631C12.4915 9.70312 12.8318 10.071 12.7941 10.5012L12.3379 15.7969ZM7.50013 1.40625C9.56492 1.40625 11.1953 3.21455 10.9434 5.29688H4.05692C3.80492 3.21398 5.43575 1.40625 7.50013 1.40625ZM3.21275 21.9522L3.059 20.2031H9.8997C9.76916 20.9405 9.797 21.3969 9.797 22.5938H3.9132C3.54603 22.5938 3.24491 22.3179 3.21275 21.9522ZM21.797 22.5938H11.2033V21.375C11.2033 18.4543 13.5794 16.0781 16.5001 16.0781C19.4209 16.0781 21.797 18.4543 21.797 21.375V22.5938Z" fill="black"/>
</g>
<defs>
<clipPath id="clip0_9_206">
<rect width="24" height="24" fill="white"/>
</clipPath>
</defs>
</svg>
