<svg width="24" height="24" viewBox="0 0 24 24" fill="none" xmlns="http://www.w3.org/2000/svg">
<path d="M6.49351 21.3319H17.5069C18.4383 21.3308 19.3312 20.9604 19.9898 20.3018C20.6484 19.6432 21.0188 18.7503 21.0199 17.8189V11.061C21.0199 10.9118 20.9606 10.7687 20.8551 10.6632C20.7496 10.5578 20.6066 10.4985 20.4574 10.4985H19.8002V7.16587C19.8002 7.01669 19.7409 6.87361 19.6354 6.76812C19.53 6.66264 19.3869 6.60337 19.2377 6.60337H18.8689C18.5724 3.86587 16.1314 2.83368 14.8001 2.67225C14.6792 2.65755 14.5568 2.68251 14.4512 2.74337C14.3457 2.80423 14.2628 2.89771 14.2149 3.00975C13.5499 4.566 9.43369 4.566 6.97426 4.566C5.97001 4.566 5.15007 5.47162 5.10563 6.60318H4.7627C4.61351 6.60318 4.47044 6.66245 4.36495 6.76794C4.25946 6.87343 4.2002 7.0165 4.2002 7.16568V10.4985H3.54395C3.39476 10.4985 3.25169 10.5578 3.1462 10.6632C3.04071 10.7687 2.98145 10.9118 2.98145 11.061V17.8189C2.98249 18.7501 3.35281 19.6429 4.0112 20.3015C4.66959 20.96 5.56228 21.3306 6.49351 21.3319ZM5.3252 7.72837H18.6752V8.55093H5.3252V7.72837ZM6.9752 5.69118C10.5602 5.69118 13.8675 5.54306 15.0253 3.86081C15.7791 4.04831 17.4572 4.68018 17.7343 6.60337H6.23026C6.26738 6.09993 6.59288 5.69118 6.9752 5.69118ZM5.3252 9.67593H18.6752V10.4985H5.3252V9.67593ZM4.10645 11.6235H19.8958V17.8189C19.8951 18.4522 19.6432 19.0593 19.1953 19.507C18.7474 19.9547 18.1402 20.2064 17.5069 20.2069H6.49351C5.86055 20.2059 5.25379 19.954 4.80631 19.5063C4.35883 19.0587 4.10714 18.4518 4.10645 17.8189V11.6235Z" fill="black"/>
<path d="M8.57459 17.9046H15.4258C15.7366 17.9042 16.0346 17.7806 16.2544 17.5608C16.4741 17.3411 16.5977 17.0431 16.5981 16.7323V14.3481C16.5977 14.0373 16.4741 13.7393 16.2543 13.5196C16.0346 13.2998 15.7366 13.1762 15.4258 13.1758H8.57459C8.26382 13.1762 7.96588 13.2998 7.74613 13.5196C7.52637 13.7393 7.40274 14.0373 7.40234 14.3481V16.7323C7.40269 17.0431 7.52631 17.3411 7.74607 17.5608C7.96584 17.7806 8.2638 17.9042 8.57459 17.9046ZM8.52734 14.3481C8.52734 14.3355 8.53232 14.3235 8.54118 14.3147C8.55004 14.3058 8.56206 14.3008 8.57459 14.3008H15.4258C15.4384 14.3008 15.4504 14.3058 15.4593 14.3147C15.4681 14.3235 15.4731 14.3355 15.4731 14.3481V16.7323C15.4731 16.7448 15.4681 16.7569 15.4593 16.7657C15.4504 16.7746 15.4384 16.7796 15.4258 16.7796H8.57459C8.56206 16.7796 8.55004 16.7746 8.54118 16.7657C8.53232 16.7569 8.52734 16.7448 8.52734 16.7323V14.3481Z" fill="black"/>
</svg>
