<svg width="24" height="24" viewBox="0 0 24 24" fill="none" xmlns="http://www.w3.org/2000/svg">
<g clip-path="url(#clip0_9_361)">
<path d="M13.6546 6.86377L16.1562 6.5302C17.3944 6.36511 18.3281 5.29861 18.3281 4.04948C18.3281 2.85459 17.4862 1.8532 16.3644 1.60594C16.095 0.679359 15.2389 0 14.2266 0H9.77344C8.76108 0 7.905 0.679359 7.63556 1.60594C6.51384 1.8532 5.67188 2.85459 5.67188 4.04953C5.67188 5.29866 6.60558 6.36511 7.84373 6.5302L10.3454 6.86377C10.7472 6.91734 11.0754 7.18791 11.2187 7.54688H10.125C9.73669 7.54688 9.42188 7.86169 9.42188 8.25V15.75C9.42188 16.1383 9.73669 16.4531 10.125 16.4531H11.2322C11.0994 16.8297 10.7721 17.1168 10.3576 17.1859L8.91117 17.427C7.68605 17.6312 6.79688 18.6808 6.79688 19.9229C6.79688 21.1226 7.6365 22.1293 8.75883 22.388C9.02625 23.3176 9.88387 24 10.8984 24H13.1016C14.1161 24 14.9737 23.3176 15.2412 22.388C16.3635 22.1293 17.2031 21.1226 17.2031 19.9229C17.2031 18.6809 16.314 17.6312 15.0888 17.427L13.6424 17.1859C13.2279 17.1168 12.9007 16.8297 12.7678 16.4531H13.875C14.2633 16.4531 14.5781 16.1383 14.5781 15.75V8.25C14.5781 7.86169 14.2633 7.54688 13.875 7.54688H12.7812C12.9246 7.18786 13.2528 6.9173 13.6546 6.86377ZM9.77344 1.40625H14.2266C14.6789 1.40625 15.0469 1.77427 15.0469 2.22656C15.0469 2.67886 14.6789 3.04688 14.2266 3.04688H9.77344C9.32114 3.04688 8.95312 2.67886 8.95312 2.22656C8.95312 1.77427 9.32114 1.40625 9.77344 1.40625ZM10.5313 5.4698L8.02964 5.13623C7.4872 5.06395 7.07812 4.5967 7.07812 4.04948C7.07812 3.61158 7.33627 3.23297 7.70831 3.05742C8.03836 3.87469 8.83936 4.45312 9.77344 4.45312H14.2266C15.1606 4.45312 15.9616 3.87469 16.2917 3.05747C16.6637 3.23297 16.9219 3.61158 16.9219 4.04953C16.9219 4.59675 16.5128 5.06395 15.9704 5.13628L13.4688 5.46984C12.8918 5.54677 12.3811 5.81953 12 6.2152C11.6189 5.81953 11.1082 5.54677 10.5313 5.4698ZM13.1016 22.5938H10.8984C10.4461 22.5938 10.0781 22.2257 10.0781 21.7734C10.0781 21.3211 10.4461 20.9531 10.8984 20.9531H13.1016C13.5539 20.9531 13.9219 21.3211 13.9219 21.7734C13.9219 22.2257 13.5539 22.5938 13.1016 22.5938ZM13.4112 18.573L14.8576 18.8141C15.4019 18.9048 15.7969 19.3711 15.7969 19.9229C15.7969 20.3669 15.538 20.7516 15.1633 20.934C14.8312 20.1213 14.0324 19.5469 13.1016 19.5469H10.8984C9.96759 19.5469 9.1688 20.1213 8.83669 20.934C8.46197 20.7515 8.20312 20.3669 8.20312 19.9229C8.20312 19.3711 8.59814 18.9048 9.14236 18.8141L10.5888 18.573C11.1463 18.4801 11.6338 18.2117 12 17.8303C12.3662 18.2117 12.8537 18.4801 13.4112 18.573ZM13.1719 15.0469H10.8281V8.95312H13.1719V15.0469Z" fill="black"/>
</g>
<defs>
<clipPath id="clip0_9_361">
<rect width="24" height="24" fill="white"/>
</clipPath>
</defs>
</svg>
