<svg width="16" height="16" viewBox="0 0 16 16" fill="none" xmlns="http://www.w3.org/2000/svg">
<path d="M0.727273 0.800026V0C0.534388 0 0.349403 0.0842881 0.213013 0.234322C0.0766231 0.384356 0 0.587846 0 0.800026H0.727273ZM8.72727 0.800026H9.45455C9.45455 0.587846 9.37792 0.384356 9.24153 0.234322C9.10514 0.0842881 8.92016 0 8.72727 0V0.800026ZM8.72727 5.60018V4.80015C8.53439 4.80015 8.3494 4.88444 8.21301 5.03448C8.07662 5.18451 8 5.388 8 5.60018H8.72727ZM0.727273 1.60005H8.72727V0H0.727273V1.60005ZM8 0.800026V13.6004H9.45455V0.800026H8ZM1.45455 12.0004V0.800026H0V12.0004H1.45455ZM8.72727 6.40021H12.3636V4.80015H8.72727V6.40021ZM14.5455 8.80028V12.0004H16V8.80028H14.5455ZM9.45455 13.6004V5.60018H8V13.6004H9.45455ZM12.8778 14.1661C12.7414 14.316 12.5565 14.4003 12.3636 14.4003C12.1708 14.4003 11.9858 14.316 11.8495 14.1661L10.8211 15.2973C11.2302 15.7472 11.7851 16 12.3636 16C12.9422 16 13.497 15.7472 13.9062 15.2973L12.8778 14.1661ZM11.8495 13.0348C11.9858 12.8848 12.1708 12.8006 12.3636 12.8006C12.5565 12.8006 12.7414 12.8848 12.8778 13.0348L13.9062 11.9036C13.497 11.4536 12.9422 11.2009 12.3636 11.2009C11.7851 11.2009 11.2302 11.4536 10.8211 11.9036L11.8495 13.0348ZM4.15055 14.1661C4.01416 14.316 3.82921 14.4003 3.63636 14.4003C3.44352 14.4003 3.25857 14.316 3.12218 14.1661L2.09382 15.2973C2.50297 15.7472 3.05782 16 3.63636 16C4.2149 16 4.76976 15.7472 5.17891 15.2973L4.15055 14.1661ZM3.12218 13.0348C3.25857 12.8848 3.44352 12.8006 3.63636 12.8006C3.82921 12.8006 4.01416 12.8848 4.15055 13.0348L5.17891 11.9036C4.76976 11.4536 4.2149 11.2009 3.63636 11.2009C3.05782 11.2009 2.50297 11.4536 2.09382 11.9036L3.12218 13.0348ZM12.8778 13.0348C13.0204 13.1908 13.0909 13.3948 13.0909 13.6004H14.5455C14.5455 12.9876 14.3324 12.3716 13.9062 11.9036L12.8778 13.0348ZM13.0909 13.6004C13.0909 13.8126 13.0142 14.0161 12.8778 14.1661L13.9062 15.2973C14.3154 14.8473 14.5453 14.2369 14.5455 13.6004H13.0909ZM10.9091 12.8004H8.72727V14.4005H10.9091V12.8004ZM11.8495 14.1661C11.7131 14.0161 11.6364 13.8126 11.6364 13.6004H10.1818C10.1818 14.2133 10.3949 14.8293 10.8211 15.2973L11.8495 14.1661ZM11.6364 13.6004C11.6364 13.3883 11.7131 13.1848 11.8495 13.0348L10.8211 11.9036C10.4119 12.3536 10.1819 12.9639 10.1818 13.6004H11.6364ZM3.12218 14.1661C2.98578 14.0161 2.90913 13.8126 2.90909 13.6004H1.45455C1.45455 14.2133 1.66764 14.8293 2.09382 15.2973L3.12218 14.1661ZM2.90909 13.6004C2.90913 13.3883 2.98578 13.1848 3.12218 13.0348L2.09382 11.9036C1.68462 12.3536 1.45467 12.9639 1.45455 13.6004H2.90909ZM8.72727 12.8004H5.09091V14.4005H8.72727V12.8004ZM4.15055 13.0348C4.29309 13.1908 4.36364 13.3948 4.36364 13.6004H5.81818C5.81818 12.9876 5.60509 12.3716 5.17891 11.9036L4.15055 13.0348ZM4.36364 13.6004C4.3636 13.8126 4.28694 14.0161 4.15055 14.1661L5.17891 15.2973C5.58811 14.8473 5.81806 14.2369 5.81818 13.6004H4.36364ZM14.5455 12.0004C14.5455 12.2126 14.4688 12.4161 14.3324 12.5661C14.1961 12.7161 14.0111 12.8004 13.8182 12.8004V14.4005C14.3968 14.4005 14.9518 14.1476 15.361 13.6975C15.7701 13.2474 16 12.6369 16 12.0004H14.5455ZM12.3636 6.40021C12.9423 6.40021 13.4972 6.65307 13.9064 7.10317C14.3156 7.55327 14.5455 8.16374 14.5455 8.80028H16C16 8.27498 15.9059 7.75482 15.7232 7.2695C15.5405 6.78418 15.2726 6.34321 14.9349 5.97176C14.5973 5.60032 14.1964 5.30567 13.7552 5.10465C13.314 4.90362 12.8412 4.80015 12.3636 4.80015V6.40021ZM0 12.0004C0 12.6369 0.229869 13.2474 0.63904 13.6975C1.04821 14.1476 1.60316 14.4005 2.18182 14.4005V12.8004C1.98893 12.8004 1.80395 12.7161 1.66756 12.5661C1.53117 12.4161 1.45455 12.2126 1.45455 12.0004H0Z" fill="#008000"/>
</svg>
