<svg width="18" height="24" viewBox="0 0 18 24" fill="none" xmlns="http://www.w3.org/2000/svg">
<path d="M17.25 0.75H0.75V21.75H3V23.25H4.5V21.75H13.5V23.25H15V21.75H17.25V0.75ZM15.75 20.25H2.25V2.25H15.75V20.25Z" fill="black"/>
<path d="M9 19.5C11.688 19.5 13.875 17.313 13.875 14.625C13.875 11.937 11.688 9.75 9 9.75C6.312 9.75 4.125 11.937 4.125 14.625C4.125 17.313 6.312 19.5 9 19.5ZM9 11.25C10.8607 11.25 12.375 12.7643 12.375 14.625C12.375 16.4857 10.8607 18 9 18C7.13925 18 5.625 16.4857 5.625 14.625C5.625 12.7643 7.13925 11.25 9 11.25Z" fill="black"/>
<path d="M9 9C10.6545 9 12 7.6545 12 6C12 4.3455 10.6545 3 9 3C7.3455 3 6 4.3455 6 6C6 7.6545 7.3455 9 9 9ZM9 4.5C9.82725 4.5 10.5 5.17275 10.5 6C10.5 6.82725 9.82725 7.5 9 7.5C8.17275 7.5 7.5 6.82725 7.5 6C7.5 5.17275 8.17275 4.5 9 4.5Z" fill="black"/>
</svg>
