<svg width="24" height="24" viewBox="0 0 24 24" fill="none" xmlns="http://www.w3.org/2000/svg">
<path d="M17.1152 5.6625C17.2867 5.38198 17.3423 5.04578 17.2704 4.72498C17.1985 4.40419 17.0046 4.12394 16.7297 3.9435C15.595 3.19245 14.264 2.79254 12.9033 2.79375H10.1166C9.87051 2.79395 9.63451 2.89171 9.46036 3.06562C9.28621 3.23953 9.18811 3.47539 9.18756 3.7215V4.90931C9.18786 5.15547 9.28578 5.39147 9.45984 5.56553C9.63391 5.73959 9.8699 5.83751 10.1161 5.83781H11.1115V6.55781H10.1476C9.89308 6.55801 9.64907 6.65917 9.46909 6.83908C9.28911 7.01899 9.18786 7.26295 9.18756 7.51744V8.64581C8.37078 9.09369 7.68912 9.75249 7.21366 10.5535C6.73819 11.3546 6.48635 12.2685 6.48438 13.2V19.2832C6.48497 19.7932 6.6878 20.282 7.04838 20.6426C7.40895 21.0032 7.89782 21.206 8.40775 21.2066H14.9414C15.4513 21.206 15.9402 21.0032 16.3007 20.6426C16.6613 20.282 16.8642 19.7932 16.8647 19.2832V13.2C16.8629 12.2683 16.611 11.3542 16.1354 10.5531C15.6598 9.75192 14.978 9.09307 14.161 8.64525V7.51744C14.1607 7.26305 14.0595 7.01917 13.8797 6.83927C13.6998 6.65938 13.4559 6.55816 13.2016 6.55781H12.2371V5.83781H13.2055C14.0255 5.87334 14.8367 6.0216 15.6162 6.27844C15.8866 6.36273 16.1774 6.35398 16.4423 6.25358C16.7071 6.15318 16.9306 5.96692 17.0772 5.72456L17.1152 5.6625ZM15.7397 17.5556H7.60938V14.0634H15.7397V17.5556ZM14.9414 20.0822H8.40775C8.19608 20.0819 7.99316 19.9977 7.84349 19.8481C7.69382 19.6984 7.60962 19.4955 7.60938 19.2838V18.6806H15.7397V19.2838C15.7395 19.4955 15.6553 19.6984 15.5056 19.8481C15.356 19.9977 15.153 20.0819 14.9414 20.0822ZM15.7302 12.9384H7.61894C7.66676 12.2255 7.90111 11.5376 8.2985 10.9437C8.69589 10.3498 9.24237 9.8708 9.88319 9.55462H13.4659C14.1068 9.87077 14.6533 10.3498 15.0507 10.9437C15.4481 11.5376 15.6824 12.2255 15.7302 12.9384ZM13.036 8.42962H10.3126V7.68281H13.036V8.42962ZM16.1536 5.07787L16.1161 5.1405C16.0997 5.16802 16.0745 5.18926 16.0447 5.20082C16.0148 5.21237 15.9819 5.21358 15.9513 5.20425C15.0641 4.91097 14.1397 4.7455 13.2059 4.71281H10.3126V3.91875H12.9033C14.0435 3.91781 15.1587 4.25296 16.1095 4.88231C16.1407 4.90289 16.1627 4.93475 16.1709 4.97122C16.1791 5.00768 16.1729 5.0459 16.1536 5.07787Z" fill="black"/>
<path d="M16.0901 7.17919C15.8993 7.46044 15.6489 7.90162 15.6514 8.28637C15.6514 8.45903 15.72 8.62461 15.8421 8.7467C15.9641 8.86879 16.1297 8.93737 16.3024 8.93737C16.475 8.93737 16.6406 8.86879 16.7627 8.7467C16.8848 8.62461 16.9534 8.45903 16.9534 8.28637C16.9556 7.90162 16.7055 7.45987 16.5146 7.17919C16.4912 7.14438 16.4596 7.11586 16.4226 7.09615C16.3856 7.07643 16.3443 7.06612 16.3024 7.06612C16.2604 7.06612 16.2192 7.07643 16.1821 7.09615C16.1451 7.11586 16.1135 7.14438 16.0901 7.17919Z" fill="black"/>
</svg>
