<svg width="24" height="24" viewBox="0 0 24 24" fill="none" xmlns="http://www.w3.org/2000/svg">
<g clip-path="url(#clip0_9_180)">
<path d="M9.12218 15.8722C9.39677 15.5976 9.39677 15.1524 9.12218 14.8778C8.84763 14.6032 8.40241 14.6032 8.12782 14.8778C7.78165 15.224 7.21835 15.224 6.87218 14.8778C6.59763 14.6032 6.15241 14.6032 5.87782 14.8778C5.60323 15.1523 5.60323 15.5976 5.87782 15.8722C6.32505 16.3194 6.91249 16.543 7.49998 16.543C8.08746 16.543 8.67495 16.3194 9.12218 15.8722Z" fill="black"/>
<path d="M12 16.543C12.5875 16.543 13.1749 16.3194 13.6222 15.8722C13.8968 15.5976 13.8968 15.1524 13.6222 14.8778C13.3476 14.6032 12.9024 14.6032 12.6278 14.8778C12.2816 15.224 11.7184 15.224 11.3722 14.8778C11.0976 14.6032 10.6524 14.6032 10.3778 14.8778C10.1032 15.1523 10.1032 15.5976 10.3778 15.8722C10.8251 16.3194 11.4125 16.543 12 16.543Z" fill="black"/>
<path d="M23.2969 18.0469C22.9086 18.0469 22.5938 18.3617 22.5938 18.75V19.9219H20.9531V18.75C20.9531 18.3617 20.6383 18.0469 20.25 18.0469H16.4133C16.4392 17.83 16.4531 17.6115 16.4531 17.392V17.2031H16.6875C18.2124 17.2031 19.4531 15.9624 19.4531 14.4375C19.4531 13.7067 19.1677 13.0417 18.7031 12.5468V12C18.7031 9.60863 17.7719 7.36031 16.0808 5.6692C15.2174 4.80577 14.2084 4.14094 13.1095 3.69652C13.1196 3.58978 13.125 3.48248 13.125 3.375C13.125 1.51402 11.611 0 9.75 0C7.88902 0 6.375 1.51402 6.375 3.375C6.375 3.48422 6.38039 3.59316 6.3908 3.70144C3.11377 5.03283 0.796875 8.2507 0.796875 12V12.4976C0.304547 12.9972 0 13.6824 0 14.4375C0 15.9624 1.24069 17.2031 2.76562 17.2031H3.04688V17.392C3.04688 18.9279 3.69492 20.4052 4.82494 21.4452L6.0195 22.5445C6.52575 23.0102 7.10719 23.3731 7.74816 23.6235C8.38945 23.8733 9.06295 24 9.75 24C10.9146 24 12.0361 23.6348 12.97 22.9611C13.0989 23.1091 13.2883 23.2031 13.5 23.2031H20.25C20.6383 23.2031 20.9531 22.8883 20.9531 22.5V21.3281H22.5938V22.5C22.5938 22.8883 22.9086 23.2031 23.2969 23.2031C23.6852 23.2031 24 22.8883 24 22.5V18.75C24 18.3617 23.6852 18.0469 23.2969 18.0469ZM16.6875 15.7969H16.4531V13.0781H16.6875C17.437 13.0781 18.0469 13.688 18.0469 14.4375C18.0469 15.187 17.437 15.7969 16.6875 15.7969ZM17.292 11.7392C17.0972 11.6956 16.8952 11.6719 16.6875 11.6719H16.0145C15.0265 9.83011 13.2768 8.52722 11.2655 8.08631C11.7105 7.55409 11.9531 6.88964 11.9531 6.1875C11.9531 5.64248 11.8071 5.11997 11.5337 4.66444C12.8676 4.98619 14.0915 5.66864 15.0864 6.66356C16.4502 8.02739 17.2272 9.8213 17.292 11.7392ZM9.75 1.40625C10.7977 1.40625 11.6565 2.22886 11.7153 3.26208C11.0775 3.11995 10.4196 3.04688 9.75033 3.04688C9.75009 3.04688 9.74991 3.04688 9.74967 3.04688C9.07472 3.04688 8.41716 3.12248 7.78448 3.26475C7.84191 2.23027 8.70141 1.40625 9.75 1.40625ZM9.46472 4.45903L10.0899 5.0842C10.3846 5.37895 10.5469 5.77073 10.5469 6.1875C10.5469 6.60427 10.3846 6.99605 10.0899 7.29075L9.45192 7.92867C8.18911 7.98131 6.96717 8.36719 5.90095 9.05386C4.88222 9.70997 4.05459 10.6093 3.4853 11.6719H2.76562C2.57484 11.6719 2.38856 11.6913 2.20852 11.7283C2.34881 7.78711 5.5253 4.60627 9.46472 4.45903ZM2.76562 15.7969C2.01609 15.7969 1.40625 15.187 1.40625 14.4375C1.40625 13.688 2.01609 13.0781 2.76562 13.0781H3.04688V15.7969H2.76562ZM9.75 22.5938C9.23831 22.5938 8.73656 22.4993 8.25923 22.3133C7.782 22.127 7.34873 21.8565 6.97162 21.5097L5.77725 20.4105C4.93575 19.6359 4.45312 18.5358 4.45312 17.392V16.5V12.9025L4.55836 12.6712C5.01258 11.6722 5.74017 10.8301 6.66244 10.2361C7.58484 9.64209 8.65247 9.32812 9.75 9.32812C11.981 9.32812 14.0188 10.6403 14.9417 12.6713L15.0469 12.9024V16.5V17.392C15.0469 17.6121 15.0286 17.831 14.9936 18.0469H13.5C13.1117 18.0469 12.7969 18.3617 12.7969 18.75V19.9219H12.1888L12.21 19.89C12.4254 19.5669 12.3381 19.1303 12.015 18.915C11.6919 18.6996 11.2553 18.7868 11.04 19.11L10.914 19.2989C10.6539 19.689 10.2188 19.9219 9.75 19.9219C9.28116 19.9219 8.84606 19.689 8.586 19.299L8.46 19.11C8.24456 18.7869 7.80806 18.6996 7.48495 18.915C7.1618 19.1304 7.07452 19.5669 7.28995 19.89L7.41591 20.079C7.93734 20.8612 8.80988 21.3281 9.75 21.3281H12.7256L12.5284 21.5096C11.7687 22.2087 10.782 22.5938 9.75 22.5938ZM19.5469 21.7969H14.2031V19.4531H19.5469V21.7969Z" fill="black"/>
</g>
<defs>
<clipPath id="clip0_9_180">
<rect width="24" height="24" fill="white"/>
</clipPath>
</defs>
</svg>
