<svg width="24" height="24" viewBox="0 0 24 24" fill="none" xmlns="http://www.w3.org/2000/svg">
<path d="M19.0299 10.6192C18.787 9.99715 18.4717 9.40807 18.0908 8.85997C20.9537 8.411 22.2733 6.48247 22.3349 6.38999C22.6456 5.92386 22.3112 5.29686 21.7499 5.29686C20.1897 5.29686 18.8776 4.17013 16.7818 3.20024C16.8376 2.7599 16.8281 2.59359 16.8281 1.5C16.8281 1.11169 16.5133 0.796873 16.1249 0.796873C15.7366 0.796873 15.4218 1.11169 15.4218 1.5C15.4218 2.49454 15.4235 2.50879 15.4179 2.64876C14.7184 2.4081 13.9424 2.20692 13.067 2.07764C13.0817 1.83562 13.0781 1.79287 13.0781 0.703124C13.0781 0.314812 12.7633 0 12.375 0C11.9867 0 11.6718 0.314812 11.6718 0.703124C11.6718 1.8045 11.6738 1.7887 11.6661 1.94189C8.00479 1.76104 4.60797 2.81118 2.17161 5.53082C0.570178 7.31848 0.048322 9.10714 0.0269003 9.18242C-0.0514743 9.45776 0.0449002 9.75312 0.270508 9.92923L2.0442 11.3136C4.10828 16.255 10.6354 18.6335 15.6913 15.236C17.2307 14.2016 18.3851 12.782 19.0299 11.1307C19.0941 10.9662 19.0941 10.7837 19.0299 10.6192ZM16.4245 4.58666C17.8716 5.28547 19.0029 6.08619 20.2833 6.47544C19.6045 6.98178 18.5187 7.52427 16.9699 7.54578C16.4841 7.07689 15.9454 6.66031 15.3549 6.2983C15.8143 5.79271 16.175 5.21333 16.4245 4.58666ZM12.8095 3.46106C13.6809 3.58574 14.4426 3.78988 15.1288 4.03766C14.8947 4.63785 14.5255 5.18141 14.0409 5.62771C13.3874 5.35672 12.7073 5.16182 12.0115 5.04641C12.3597 4.56247 12.6289 4.0281 12.8095 3.46106ZM1.53809 9.1347C1.775 8.55608 2.29906 7.48227 3.26008 6.4236C5.35937 4.11102 8.20035 3.23418 11.3594 3.3366C11.1158 3.93899 10.7354 4.48279 10.2381 4.92594C6.84009 5.02194 3.80941 6.99725 2.35587 9.77299L1.53809 9.1347ZM10.5 15.4218C7.44895 15.4218 4.56508 13.5652 3.3859 10.875C4.56503 8.18478 7.44895 6.32811 10.5 6.32811C13.5296 6.32811 16.4266 8.1658 17.6141 10.875C16.4349 13.5652 13.551 15.4218 10.5 15.4218Z" fill="black"/>
<path d="M23.2969 16.9219H21.7032V9.37503C21.7032 8.98672 21.3884 8.67191 21.0001 8.67191C20.6118 8.67191 20.297 8.98672 20.297 9.37503V16.9219H18.7501C18.3259 16.9219 17.9973 17.2955 18.0531 17.7172L18.8031 23.389C18.8493 23.7387 19.1474 24 19.5001 24H22.5001C22.8506 24 23.1475 23.7418 23.1963 23.3947L23.9932 17.7228C24.0526 17.2996 23.7235 16.9219 23.2969 16.9219ZM21.8888 22.5938H20.1164L19.949 21.3281H22.0667L21.8888 22.5938ZM22.2642 19.9219H19.763L19.5523 18.3281H22.4881L22.2642 19.9219Z" fill="black"/>
<path d="M10.5 7.1719C9.67067 7.1719 8.87178 7.44903 8.22285 7.95551C7.08838 7.73613 6.04688 8.60993 6.04688 9.75002C6.04688 10.3629 6.35034 10.9059 6.81459 11.2378C6.99726 13.1261 8.57984 14.5781 10.5 14.5781C12.5419 14.5781 14.2031 12.9169 14.2031 10.875C14.2031 8.8331 12.5418 7.1719 10.5 7.1719ZM7.87499 9.32815C8.10763 9.32815 8.29686 9.51743 8.29686 9.75002C8.29686 9.98261 8.10763 10.1719 7.87499 10.1719C7.64235 10.1719 7.45312 9.98261 7.45312 9.75002C7.45312 9.51743 7.64235 9.32815 7.87499 9.32815ZM10.5 13.1719C9.45879 13.1719 8.57764 12.4838 8.29677 11.5285C9.49006 11.2455 10.0709 9.8854 9.45392 8.83029C10.9765 8.05137 12.7969 9.16005 12.7969 10.8751C12.7968 12.1415 11.7664 13.1719 10.5 13.1719Z" fill="black"/>
</svg>
