<svg width="24" height="24" viewBox="0 0 24 24" fill="none" xmlns="http://www.w3.org/2000/svg">
<g clip-path="url(#clip0_9_367)">
<path d="M23.9996 12.3755C23.9996 8.44688 20.8034 5.25074 16.8748 5.25074C15.6355 5.25074 14.4693 5.5691 13.4531 6.12783V0.704041C13.4531 0.119954 12.7786 -0.210455 12.3172 0.15L11.3175 0.930907L10.6323 0.217122C10.3557 -0.0710072 9.89452 -0.0710072 9.61788 0.217122L9.00014 0.860597L8.3824 0.217122C8.10575 -0.0710072 7.64461 -0.0710072 7.36797 0.217122L6.75023 0.860597L6.13248 0.217122C5.85584 -0.0710072 5.3947 -0.0710072 5.11805 0.217122L4.50031 0.860597L3.88257 0.217122C3.60593 -0.0710072 3.14479 -0.0710072 2.86814 0.217122L2.17639 0.937703L1.12816 0.143625C0.666322 -0.206377 0.000488281 0.12347 0.000488281 0.704041V21.8907C0.000488281 23.0538 0.946717 24 2.10978 24H11.3438C12.1189 24 12.7972 23.5795 13.1638 22.955C14.2453 23.6176 15.5162 24 16.8748 24C20.8034 24 23.9996 20.8039 23.9996 16.8753C23.9996 16.0899 23.8715 15.334 23.6357 14.6268C23.877 13.9029 23.9996 13.1469 23.9996 12.3755ZM22.588 12.623C19.7296 8.79243 14.0177 8.79557 11.1616 12.623C11.023 9.35458 13.6424 6.65693 16.8748 6.65693C20.1079 6.65693 22.7266 9.35524 22.588 12.623ZM1.40668 13.0786H2.85272C3.10368 13.0786 3.33561 12.9448 3.46128 12.7276C4.13897 11.5563 5.39925 10.8286 6.75023 10.8286C7.92205 10.8286 9.03337 11.3764 9.75105 12.3002C9.74261 13.1055 9.86607 13.8832 10.1139 14.6269C9.86715 15.367 9.74266 16.1449 9.75109 16.9508C9.03389 17.8737 7.91934 18.4221 6.75023 18.4221C5.39925 18.4221 4.13901 17.6945 3.46128 16.5232C3.33561 16.306 3.10368 16.1722 2.85272 16.1722H1.40668V13.0786ZM9.98644 10.554C7.59197 8.65471 4.15645 9.22741 2.46649 11.6724H1.40668V5.57885H12.0469V7.14099C11.0652 8.0471 10.3382 9.22493 9.98644 10.554ZM1.82582 2.43629C2.11016 2.65167 2.51059 2.62003 2.75762 2.36279L3.37536 1.71927L3.9931 2.36279C4.26974 2.65092 4.73088 2.65092 5.00753 2.36279L5.62527 1.71927L6.24301 2.36279C6.51966 2.65092 6.98079 2.65092 7.25744 2.36279L7.87518 1.71927L8.49292 2.36279C8.76957 2.65092 9.23071 2.65092 9.50735 2.36279L10.1251 1.71927L10.7428 2.36279C10.9926 2.62298 11.3986 2.652 11.6829 2.42996L12.0469 2.14563V4.17266H1.40668V2.11872L1.82582 2.43629ZM11.3438 22.5938H2.10978C1.72209 22.5938 1.40668 22.2784 1.40668 21.8907V17.5784H2.46649C4.15397 20.0198 7.5863 20.5984 9.9864 18.6966C10.3348 20.0132 11.0515 21.1813 12.0192 22.084C11.935 22.3779 11.6644 22.5938 11.3438 22.5938ZM16.8748 22.5938C13.7216 22.5938 11.1563 20.0285 11.1563 16.8753C11.1563 13.7221 13.7216 11.1568 16.8748 11.1568C20.028 11.1568 22.5934 13.7221 22.5934 16.8753C22.5934 20.0285 20.028 22.5938 16.8748 22.5938Z" fill="black"/>
<path d="M17.2499 12.4223H16.5C16.1117 12.4223 15.7969 12.7371 15.7969 13.1254C15.7969 13.5137 16.1117 13.8285 16.5 13.8285H17.2499C17.6382 13.8285 17.953 13.5137 17.953 13.1254C17.953 12.7371 17.6382 12.4223 17.2499 12.4223Z" fill="black"/>
<path d="M13.9911 13.4614L13.4608 13.9917C13.1862 14.2662 13.1862 14.7114 13.4608 14.986C13.7354 15.2607 14.1806 15.2606 14.4551 14.986L14.9854 14.4558C15.26 14.1812 15.26 13.736 14.9854 13.4614C14.7109 13.1868 14.2657 13.1868 13.9911 13.4614Z" fill="black"/>
<path d="M13.8281 17.2503V16.5003C13.8281 16.112 13.5133 15.7972 13.125 15.7972C12.7367 15.7972 12.4219 16.112 12.4219 16.5003V17.2503C12.4219 17.6386 12.7367 17.9534 13.125 17.9534C13.5133 17.9534 13.8281 17.6386 13.8281 17.2503Z" fill="black"/>
<path d="M14.4551 18.7645C14.1806 18.49 13.7354 18.49 13.4608 18.7645C13.1862 19.039 13.1862 19.4842 13.4608 19.7588L13.9911 20.2891C14.2657 20.5637 14.7108 20.5637 14.9854 20.2891C15.26 20.0146 15.26 19.5694 14.9854 19.2948L14.4551 18.7645Z" fill="black"/>
<path d="M17.2499 19.922H16.5C16.1117 19.922 15.7969 20.2368 15.7969 20.6251C15.7969 21.0134 16.1117 21.3282 16.5 21.3282H17.2499C17.6382 21.3282 17.953 21.0134 17.953 20.6251C17.953 20.2368 17.6382 19.922 17.2499 19.922Z" fill="black"/>
<path d="M19.2943 18.7645L18.764 19.2948C18.4895 19.5693 18.4895 20.0145 18.764 20.2891C19.0386 20.5637 19.4838 20.5637 19.7584 20.2891L20.2886 19.7588C20.5632 19.4843 20.5632 19.0391 20.2886 18.7645C20.0141 18.49 19.5689 18.49 19.2943 18.7645Z" fill="black"/>
<path d="M19.9214 16.5003V17.2503C19.9214 17.6386 20.2362 17.9534 20.6245 17.9534C21.0128 17.9534 21.3276 17.6386 21.3276 17.2503V16.5003C21.3276 16.112 21.0128 15.7972 20.6245 15.7972C20.2362 15.7972 19.9214 16.112 19.9214 16.5003Z" fill="black"/>
<path d="M19.2943 14.986C19.5689 15.2607 20.0141 15.2606 20.2886 14.986C20.5632 14.7115 20.5632 14.2663 20.2886 13.9917L19.7584 13.4614C19.4838 13.1869 19.0386 13.1869 18.764 13.4614C18.4895 13.736 18.4895 14.1812 18.764 14.4557L19.2943 14.986Z" fill="black"/>
</g>
<defs>
<clipPath id="clip0_9_367">
<rect width="24" height="24" fill="white"/>
</clipPath>
</defs>
</svg>
