<svg width="24" height="24" viewBox="0 0 24 24" fill="none" xmlns="http://www.w3.org/2000/svg">
<g clip-path="url(#clip0_9_173)">
<path d="M12.0002 -3.8147e-06C6.03051 -3.8147e-06 1.17383 4.70951 1.17383 10.4983C1.17383 10.9913 1.20654 11.505 1.27103 12.025C1.30117 12.2679 1.45531 12.4776 1.67812 12.5786L2.65329 13.0214L1.93538 13.9531C1.79674 14.133 1.75358 14.3687 1.81943 14.5861C2.1639 15.7225 2.62901 16.8241 3.20192 17.8605C3.3189 18.0721 3.53637 18.2087 3.77773 18.2223L4.85939 18.2831L4.71996 19.7975C4.70266 19.9851 4.76148 20.1719 4.8831 20.3158C9.0513 25.2461 14.9794 25.2101 19.1173 20.3158C19.2389 20.1719 19.2977 19.9851 19.2804 19.7975L19.141 18.2831L20.2226 18.2223C20.464 18.2087 20.6814 18.0721 20.7984 17.8605C21.3713 16.8241 21.8365 15.7225 22.1809 14.5861C22.2468 14.3687 22.2036 14.133 22.065 13.9531L21.3472 13.0215L22.3221 12.5792C22.5482 12.4766 22.7016 12.2631 22.7299 12.0203C22.794 11.5018 22.8265 10.9898 22.8265 10.4982C22.8266 4.70951 17.9699 -3.8147e-06 12.0002 -3.8147e-06ZM21.3757 11.4647L19.9584 12.1077C19.5466 12.2946 19.4151 12.8177 19.692 13.177L20.7273 14.5205C20.4649 15.3191 20.1374 16.0967 19.7502 16.8407L18.3347 16.9202C17.9376 16.9425 17.6376 17.2902 17.6741 17.6866L17.8529 19.6282C14.3436 23.5813 9.65987 23.5848 6.14744 19.6282L6.3262 17.6866C6.36275 17.2906 6.06304 16.9426 5.6656 16.9202L4.25011 16.8407C3.86289 16.0967 3.53543 15.3191 3.27302 14.5205L4.30832 13.177C4.58474 12.8183 4.45431 12.295 4.04207 12.1078L2.62475 11.4643C2.59489 11.135 2.57985 10.8115 2.57985 10.4983C2.57985 5.48479 6.80579 1.40602 12.0002 1.40602C17.1946 1.40602 21.4205 5.48479 21.4205 10.4983C21.4205 10.8116 21.4055 11.1353 21.3757 11.4647Z" fill="black"/>
<path d="M9.76535 7.10088C8.49604 6.19428 6.5069 6.19343 5.23642 7.10088C3.82458 8.10933 3.81469 9.88073 5.23642 10.8962C6.50572 11.8028 8.49487 11.8036 9.76535 10.8962C11.1772 9.8878 11.1871 8.11636 9.76535 7.10088ZM7.50091 10.1702C6.3685 10.1702 5.57934 9.5527 5.57934 8.99854C5.57934 8.44438 6.3685 7.82686 7.50091 7.82686C8.63332 7.82686 9.42247 8.44438 9.42247 8.99854C9.42247 9.5527 8.63332 10.1702 7.50091 10.1702Z" fill="black"/>
<path d="M14.235 7.10088C12.8231 8.10933 12.8132 9.88073 14.235 10.8962C15.5043 11.8028 17.4934 11.8036 18.7639 10.8962C20.1757 9.88776 20.1856 8.11636 18.7639 7.10088C17.4946 6.19423 15.5054 6.19343 14.235 7.10088ZM16.4994 10.1702C15.367 10.1702 14.5779 9.5527 14.5779 8.99854C14.5779 8.44438 15.367 7.82686 16.4994 7.82686C17.6319 7.82686 18.421 8.44438 18.421 8.99854C18.421 9.5527 17.6319 10.1702 16.4994 10.1702Z" fill="black"/>
<path d="M9.40857 12.8454C9.17564 13.0783 9.04736 13.388 9.04736 13.7174C9.04736 14.3974 9.60063 14.9507 10.2806 14.9507H13.7194C14.3994 14.9507 14.9526 14.3974 14.9526 13.7174C14.9526 13.388 14.8243 13.0783 14.5914 12.8454L13.7772 12.0312C12.795 11.049 11.2051 11.0488 10.2228 12.0312L9.40857 12.8454ZM11.217 13.0254C11.6499 12.5926 12.3502 12.5927 12.783 13.0254L13.3023 13.5447H10.6977L11.217 13.0254Z" fill="black"/>
<path d="M7.54785 18.372C7.54785 21.307 16.4527 21.3088 16.4527 18.372C16.4527 15.437 7.54785 15.4353 7.54785 18.372ZM14.2291 18.8399C12.97 19.2781 11.0321 19.2787 9.77133 18.8399C9.23147 18.652 9.01644 18.4539 8.96278 18.372C9.01644 18.2901 9.23147 18.092 9.77133 17.9041C11.0304 17.4659 12.9683 17.4653 14.2291 17.9041C14.769 18.092 14.984 18.2901 15.0377 18.372C14.9841 18.4539 14.769 18.6521 14.2291 18.8399Z" fill="black"/>
</g>
<defs>
<clipPath id="clip0_9_173">
<rect width="24" height="24" fill="white"/>
</clipPath>
</defs>
</svg>
