<svg width="24" height="14" viewBox="0 0 24 14" fill="none" xmlns="http://www.w3.org/2000/svg">
<path fill-rule="evenodd" clip-rule="evenodd" d="M18.1067 3.22839L16.5599 3.21863V1.12691C16.5599 0.816376 16.433 0.535136 16.2279 0.330066C16.0228 0.126948 15.7416 0 15.4311 0H5.14629C4.83576 0 4.55452 0.126948 4.34945 0.332019C4.14633 0.535136 4.01743 0.818329 4.01743 1.12886C4.01743 1.29878 4.15414 1.43354 4.3221 1.43354C4.49202 1.43354 4.62873 1.29683 4.62873 1.12886C4.62873 0.986291 4.68732 0.85739 4.78107 0.763643C4.87482 0.669897 5.00372 0.611305 5.14629 0.611305H15.4311C15.5717 0.611305 15.7025 0.669897 15.7963 0.763643C15.89 0.85739 15.9486 0.986291 15.9486 1.12886V10.6988H14.2241C14.0542 10.6988 13.9174 10.8355 13.9174 11.0054C13.9174 11.1754 14.0542 11.3121 14.2241 11.3121H16.2533C16.4232 11.3121 16.5599 11.1754 16.5599 11.0054V10.6578H17.7943C17.9349 7.47628 22.5031 7.03684 22.9679 10.6578H23.9718C24.2296 7.55636 22.6984 6.34937 20.3684 6.0779C20.2004 5.34941 19.8821 4.67365 19.5208 4.00571C19.0891 3.21082 18.9895 3.24207 18.1067 3.22839ZM5.77127 6.03688H6.14821C6.39234 6.03688 6.55444 6.0486 6.63842 6.07008C6.7224 6.09157 6.78295 6.12868 6.82201 6.17945C6.86107 6.23023 6.88255 6.28687 6.88451 6.34937C6.88841 6.41187 6.87865 6.53491 6.85716 6.7185L6.77709 7.40207C6.75561 7.57589 6.73412 7.69307 6.71069 7.75166C6.68725 7.81025 6.65405 7.85713 6.60913 7.89033C6.56421 7.92353 6.51147 7.94697 6.44898 7.96064C6.38843 7.97431 6.29664 7.98017 6.17555 7.98017H5.53885L5.77127 6.03688ZM6.08571 7.64229V7.6462C6.12086 7.6462 6.15211 7.64229 6.1736 7.63448C6.24391 7.62667 6.3064 7.6169 6.31617 7.60128C6.3357 7.57198 6.35328 7.49191 6.3689 7.363L6.45874 6.60717C6.46851 6.51929 6.47241 6.46265 6.47046 6.43726C6.46851 6.41187 6.45679 6.39429 6.43921 6.38257C6.42749 6.37476 6.34546 6.37085 6.26734 6.36695H6.26539H6.26344H6.26148H6.25953H6.25758H6.25562C6.20875 6.36499 6.16383 6.365 6.1443 6.365L5.99196 7.6462C6.01149 7.6462 6.04665 7.6462 6.08571 7.64229ZM7.21848 6.03688H8.06024L8.01337 6.42359H7.67745L7.63253 6.79467H7.94697L7.90205 7.16184H7.5876L7.53683 7.58956H7.90791L7.86103 7.97626H6.98607L7.21848 6.03688ZM8.8317 6.03688L8.64616 7.58956H8.95084L8.90396 7.97626H8.09345L8.32586 6.03493H8.8317V6.03688ZM9.8551 6.03688L9.62269 7.97822H9.11684L9.34926 6.03688H9.8551ZM11.3453 6.03688L10.857 7.97822H10.0934L10.0328 6.03688H10.566C10.5621 6.57202 10.5523 7.02513 10.5348 7.39425C10.607 7.01927 10.6734 6.68725 10.7379 6.3982L10.814 6.03688H11.3453ZM11.5211 6.03688H12.3628L12.3159 6.42359H11.98L11.9351 6.79467H12.2495L12.2066 7.16184H11.8921L11.8414 7.58956H12.2124L12.1656 7.97626H11.2886L11.5211 6.03688ZM12.6304 6.03688H12.9878C13.2261 6.03688 13.3862 6.04665 13.4682 6.06422C13.5503 6.0818 13.6128 6.12868 13.6577 6.20484C13.7026 6.28101 13.7143 6.40015 13.6948 6.56616C13.6772 6.71654 13.646 6.8181 13.6011 6.87084C13.5581 6.92357 13.48 6.95286 13.3686 6.96458C13.4663 6.98997 13.5288 7.02317 13.5581 7.06419C13.5874 7.1052 13.605 7.14426 13.6089 7.17942C13.6128 7.21457 13.605 7.31027 13.5874 7.46652L13.5268 7.97822H13.0581L13.1362 7.33176C13.1479 7.22824 13.1479 7.16379 13.1343 7.1384C13.1206 7.11301 13.0796 7.1013 13.0112 7.1013L12.9058 7.97626H12.3999L12.6304 6.03688ZM13.0444 6.79662V6.79857C13.0737 6.79857 13.0991 6.79662 13.1186 6.79271C13.1792 6.78881 13.2397 6.78295 13.2515 6.77318C13.2983 6.74193 13.3413 6.43921 13.2964 6.39429C13.2847 6.38062 13.2026 6.37281 13.1323 6.3689C13.1245 6.3689 13.1147 6.36695 13.1069 6.36695C13.0835 6.36499 13.062 6.365 13.0483 6.365L12.9976 6.79662C13.0093 6.79857 13.0249 6.79857 13.0444 6.79662ZM15.1166 6.03688L14.601 7.27512L14.517 7.97822H14.0503L14.1342 7.27512L13.9272 6.03688H14.3901C14.4155 6.41577 14.4272 6.67162 14.4213 6.80248C14.476 6.59546 14.5522 6.33961 14.6537 6.03688H15.1166ZM1.26167 4.8299C1.07223 4.8299 0.917934 4.69318 0.917934 4.52522C0.917934 4.35726 1.07223 4.21859 1.26167 4.21859H4.59748C4.78693 4.21859 4.94122 4.3553 4.94122 4.52522C4.94122 4.69514 4.78693 4.8299 4.59748 4.8299H1.26167ZM0.316394 6.48413C-0.105465 6.48413 -0.105465 5.86892 0.316394 5.86892H4.13852C4.39241 5.86892 4.59553 6.00759 4.59553 6.17555C4.59553 6.34546 4.39046 6.48218 4.13852 6.48218H0.316394V6.48413ZM7.92744 10.6969C8.09735 10.6969 8.23407 10.8336 8.23407 11.0015C8.23407 11.1715 8.09735 11.3082 7.92744 11.3082H5.14629C4.83771 11.3082 4.55647 11.1734 4.34945 10.9605C4.14633 10.7476 4.01743 10.4586 4.01743 10.15V7.904C4.01743 7.73408 4.15414 7.59737 4.3221 7.59737C4.49202 7.59737 4.62873 7.73408 4.62873 7.904V10.15C4.62873 10.2965 4.68928 10.4371 4.78693 10.5387C4.88068 10.6363 5.00567 10.6969 5.14238 10.6969H7.92744ZM11.0347 9.00357C9.89221 9.00357 8.96451 9.93127 8.96451 11.0738C8.96451 12.2163 9.89221 13.144 11.0347 13.144C12.1773 13.144 13.105 12.2163 13.105 11.0738C13.105 9.93127 12.1792 9.00357 11.0347 9.00357ZM11.0347 10.2789C10.5953 10.2789 10.2379 10.6344 10.2379 11.0758C10.2379 11.5152 10.5934 11.8726 11.0347 11.8726C11.4742 11.8726 11.8316 11.5171 11.8316 11.0758C11.8296 10.6344 11.4742 10.2789 11.0347 10.2789ZM20.3742 8.69889C19.2317 8.69889 18.304 9.62659 18.304 10.7691C18.304 11.9117 19.2317 12.8394 20.3742 12.8394C21.5168 12.8394 22.4445 11.9117 22.4445 10.7691C22.4445 9.62659 21.5187 8.69889 20.3742 8.69889ZM19.5793 10.7711C19.5793 11.2105 19.9348 11.5679 20.3762 11.5679C20.8156 11.5679 21.173 11.2125 21.173 10.7711C21.173 10.3297 20.8176 9.97423 20.3762 9.97423C19.9348 9.97423 19.5793 10.3316 19.5793 10.7711ZM18.2552 4.11313L17.3216 4.09555V6.07985H19.2981C19.054 5.37089 18.6946 4.72248 18.2552 4.11313Z" fill="#AB28B2"/>
<path fill-rule="evenodd" clip-rule="evenodd" d="M2.15422 3.1737C1.96477 3.1737 1.81048 3.03699 1.81048 2.86903C1.81048 2.69911 1.96477 2.5624 2.15422 2.5624H5.05059C5.24004 2.5624 5.39433 2.69911 5.39433 2.86903C5.39433 3.03894 5.24004 3.1737 5.05059 3.1737H2.15422ZM6.56616 1.92375H8.01923L7.94111 2.58388H7.34738L7.27121 3.21472H7.79658L7.72237 3.84165H7.197L7.03099 5.22636H6.16969L6.56616 1.92375ZM9.73792 1.92375L9.83362 5.22831H8.9567L8.98013 4.63458H8.6696L8.55242 5.22831H7.66378L8.49578 1.92375H9.73792ZM9.02701 4.04867C9.03091 3.67368 9.04263 3.21081 9.06412 2.65614C8.90396 3.29089 8.79459 3.75376 8.736 4.04867H9.02701ZM12.1831 2.92566H11.3863L11.4156 2.68153C11.4293 2.56826 11.4273 2.49404 11.4117 2.46279C11.3961 2.43154 11.3629 2.41592 11.316 2.41592C11.2652 2.41592 11.2222 2.4374 11.191 2.47842C11.1597 2.51943 11.1383 2.58388 11.1285 2.66981C11.1148 2.77919 11.1207 2.86317 11.1441 2.91785C11.1676 2.97254 11.2398 3.04089 11.3629 3.11902C11.7164 3.34752 11.9351 3.53306 12.0152 3.67954C12.0972 3.82602 12.1187 4.06039 12.0796 4.38264C12.0523 4.61896 12.0035 4.79083 11.9351 4.90411C11.8667 5.01543 11.7496 5.10918 11.5836 5.18339C11.4175 5.25956 11.23 5.29667 11.0191 5.29667C10.7887 5.29667 10.5992 5.2537 10.4469 5.16581C10.2945 5.07793 10.2027 4.96856 10.1676 4.8338C10.1344 4.69904 10.1324 4.50764 10.1617 4.2596L10.1871 4.04281H10.984L10.9371 4.44709C10.9215 4.57013 10.9234 4.65021 10.941 4.68536C10.9586 4.72052 10.9957 4.7381 11.0543 4.7381C11.1109 4.7381 11.1558 4.71661 11.189 4.66974C11.2222 4.62482 11.2437 4.55842 11.2554 4.47053C11.2789 4.27718 11.2672 4.14828 11.2222 4.08968C11.1754 4.02914 11.0523 3.92953 10.857 3.78891C10.6617 3.64829 10.5328 3.54478 10.4703 3.48033C10.4098 3.41588 10.3609 3.32799 10.3297 3.21472C10.2984 3.10144 10.2926 2.95691 10.3141 2.78309C10.3434 2.53115 10.3981 2.34561 10.4781 2.22843C10.5562 2.11124 10.6715 2.01945 10.8238 1.955C10.9762 1.88859 11.1539 1.85539 11.357 1.85539C11.5796 1.85539 11.7652 1.8925 11.9136 1.96281C12.062 2.03507 12.1538 2.12491 12.1929 2.23624C12.23 2.34561 12.2339 2.53115 12.2027 2.79286L12.1831 2.92566ZM14.4858 1.92375L14.4077 2.58388H13.9018L13.5854 5.22831H12.7241L13.0405 2.58388H12.5308L12.6089 1.92375H14.4858Z" fill="#AB28B2"/>
</svg>
