<svg width="24" height="24" viewBox="0 0 24 24" fill="none" xmlns="http://www.w3.org/2000/svg">
<path d="M16.2188 0H7.78125C6.61814 0 5.67188 0.946266 5.67188 2.10938V23.2969C5.67188 23.6852 5.98669 24 6.375 24H17.625C18.0133 24 18.3281 23.6852 18.3281 23.2969C18.3281 22.7343 18.3281 2.7405 18.3281 2.10938C18.3281 0.946266 17.3819 0 16.2188 0ZM7.07812 2.10938C7.07812 1.72167 7.39355 1.40625 7.78125 1.40625H16.2188C16.6065 1.40625 16.9219 1.72167 16.9219 2.10938V11.6719H15.7031V7.5C15.7031 7.11169 15.3883 6.79688 15 6.79688H14.9531V5.95312H15.375C15.7633 5.95312 16.0781 5.63831 16.0781 5.25V3.375C16.0781 2.98669 15.7633 2.67188 15.375 2.67188H9.75C9.36169 2.67188 9.04688 2.98669 9.04688 3.375V6.79688H9C8.61169 6.79688 8.29688 7.11169 8.29688 7.5V11.6719H7.07812V2.10938ZM14.6719 4.54688H14.25C13.8617 4.54688 13.5469 4.86169 13.5469 5.25V6.79688H10.4531V4.07812H14.6719V4.54688ZM9.70312 8.20312H14.2969V11.6719H9.70312V8.20312ZM16.9219 22.5938H7.07812V13.0781H16.9219V22.5938Z" fill="black"/>
<path d="M12 16.9219C10.7852 16.9219 9.79688 17.9102 9.79688 19.125C9.79688 20.3398 10.7852 21.3281 12 21.3281C13.2148 21.3281 14.2031 20.3398 14.2031 19.125C14.2031 17.9102 13.2148 16.9219 12 16.9219ZM12 19.9219C11.5606 19.9219 11.2031 19.5644 11.2031 19.125C11.2031 18.6856 11.5606 18.3281 12 18.3281C12.4394 18.3281 12.7969 18.6856 12.7969 19.125C12.7969 19.5644 12.4394 19.9219 12 19.9219Z" fill="black"/>
<path d="M14.25 14.2969H9.75C9.36169 14.2969 9.04688 14.6117 9.04688 15C9.04688 15.3883 9.36169 15.7031 9.75 15.7031H14.25C14.6383 15.7031 14.9531 15.3883 14.9531 15C14.9531 14.6117 14.6383 14.2969 14.25 14.2969Z" fill="black"/>
</svg>
