<svg width="24" height="24" viewBox="0 0 24 24" fill="none" xmlns="http://www.w3.org/2000/svg">
<path d="M20.55 13.8135C20.6992 13.8135 20.8422 13.7542 20.9477 13.6487C21.0532 13.5432 21.1125 13.4002 21.1125 13.251C21.1125 13.1018 21.0532 12.9587 20.9477 12.8532C20.8422 12.7478 20.6992 12.6885 20.55 12.6885H19.9447V11.6989C19.9447 11.5497 19.8855 11.4066 19.78 11.3011C19.6745 11.1956 19.5314 11.1364 19.3822 11.1364H17.4358C17.2866 11.1364 17.1435 11.1956 17.038 11.3011C16.9325 11.4066 16.8733 11.5497 16.8733 11.6989V11.988H16.3781C15.8801 11.9843 15.3948 12.1449 14.9974 12.4449C14.5999 12.7449 14.3123 13.1675 14.1793 13.6474C13.6432 13.6884 13.1422 13.9301 12.7765 14.3242C12.4108 14.7184 12.2071 15.2359 12.2062 15.7736V18.8486C12.2059 19.1162 12.0995 19.3728 11.9103 19.562C11.7211 19.7513 11.4645 19.8578 11.1969 19.8581H9.3836C9.19572 19.8575 9.01176 19.8043 8.8525 19.7047C8.69323 19.605 8.565 19.4628 8.48229 19.2941C8.85426 19.1595 9.1758 18.9136 9.40329 18.59C9.63077 18.2663 9.75318 17.8805 9.75391 17.4849V14.7439H9.90691C10.0561 14.7439 10.1992 14.6846 10.3047 14.5791C10.4101 14.4736 10.4694 14.3306 10.4694 14.1814V12.1526C10.4694 12.0034 10.4101 11.8604 10.3047 11.7549C10.1992 11.6494 10.0561 11.5901 9.90691 11.5901H9.75391V10.7758L11.238 10.9779C11.8893 11.0669 12.5508 11.0472 13.1957 10.9198L15.0043 10.5636C15.1321 10.5383 15.2472 10.4695 15.3299 10.3689C15.4126 10.2682 15.4578 10.142 15.4578 10.0117V4.03818C15.4579 3.90788 15.4127 3.7816 15.33 3.68093C15.2472 3.58025 15.1321 3.51141 15.0043 3.48618L13.1957 3.12899C12.5508 3.00165 11.8893 2.98201 11.238 3.07087L4.38916 4.00387C3.97413 4.06202 3.59399 4.26787 3.31846 4.58365C3.04294 4.89943 2.89052 5.30397 2.88916 5.72305V8.32499C2.89047 8.7441 3.04288 9.14869 3.3184 9.46451C3.59393 9.78033 3.9741 9.98621 4.38916 10.0444L4.76885 10.0961C5.32629 10.9316 5.90172 11.6636 5.90172 13.0447V17.4847C5.90243 17.9046 6.04015 18.3127 6.29396 18.6471C6.54777 18.9816 6.90381 19.224 7.30797 19.3376C7.41863 19.8053 7.68364 20.222 8.06024 20.5205C8.43683 20.819 8.90304 20.9819 9.3836 20.9829H11.1977C11.7632 20.9819 12.3053 20.7567 12.7052 20.3568C13.1051 19.9569 13.3302 19.4147 13.3312 18.8492V15.7742C13.3319 15.5341 13.4182 15.3021 13.5745 15.12C13.7309 14.9378 13.9471 14.8174 14.1843 14.7804C14.3115 15.2497 14.5897 15.6641 14.9758 15.9597C15.3619 16.2552 15.8345 16.4155 16.3207 16.4158H16.8725V16.7047C16.8725 16.8539 16.9318 16.997 17.0373 17.1025C17.1428 17.208 17.2859 17.2672 17.435 17.2672H19.3807C19.5299 17.2672 19.673 17.208 19.7785 17.1025C19.884 16.997 19.9432 16.8539 19.9432 16.7047V15.7146H20.55C20.6992 15.7146 20.8422 15.6553 20.9477 15.5498C21.0532 15.4443 21.1125 15.3012 21.1125 15.1521C21.1125 15.0029 21.0532 14.8598 20.9477 14.7543C20.8422 14.6488 20.6992 14.5896 20.55 14.5896H19.9447V13.8135H20.55ZM14.3328 4.49999V9.54843C12.7693 9.85724 13.0391 9.80718 12.7672 9.84843V4.19662C12.932 4.22155 12.8985 4.21724 14.3328 4.49999ZM11.6422 4.15949V9.88705C11.3402 9.86193 11.6132 9.89362 6.39916 9.18337V4.86543C11.639 4.15162 11.3897 4.18124 11.6422 4.15987V4.15949ZM4.01247 8.32499V5.72305C4.01303 5.57553 4.06683 5.43316 4.16398 5.32214C4.26112 5.21111 4.39508 5.13889 4.54122 5.11874L5.27416 5.0188V9.0313L4.54104 8.93137C4.39456 8.91117 4.26034 8.83864 4.16318 8.72718C4.06602 8.61571 4.01249 8.47285 4.01247 8.32499ZM6.24691 10.2981L8.62816 10.6226V17.4851C8.62979 17.5913 8.61027 17.6968 8.57074 17.7955C8.53121 17.8941 8.47246 17.9838 8.39791 18.0595C8.32336 18.1352 8.2345 18.1954 8.1365 18.2364C8.0385 18.2774 7.93331 18.2986 7.82707 18.2986C7.72082 18.2986 7.61564 18.2774 7.51764 18.2364C7.41964 18.1954 7.33077 18.1352 7.25622 18.0595C7.18167 17.9838 7.12293 17.8941 7.0834 17.7955C7.04387 17.6968 7.02435 17.5913 7.02597 17.4851V13.0455C7.02602 12.0752 6.75629 11.1239 6.24691 10.2981ZM18.819 16.1417H17.996C17.9797 15.9107 17.8765 15.6944 17.7071 15.5365C17.5378 15.3785 17.3149 15.2905 17.0833 15.2902H16.3215C16.1722 15.2904 16.0246 15.2599 15.8876 15.2005C15.7507 15.1411 15.6275 15.0542 15.5256 14.9452C15.4237 14.8362 15.3453 14.7073 15.2954 14.5667C15.2455 14.426 15.225 14.2766 15.2353 14.1277C15.2619 13.8453 15.3946 13.5835 15.6067 13.3951C15.8188 13.2067 16.0945 13.1057 16.3781 13.1126H17.0833C17.3149 13.1123 17.5378 13.0243 17.7072 12.8663C17.8765 12.7083 17.9797 12.492 17.996 12.261H18.819V16.1417Z" fill="black"/>
<path d="M16.3212 13.7529C16.2325 13.7529 16.1458 13.7792 16.072 13.8285C15.9982 13.8779 15.9407 13.9479 15.9067 14.0299C15.8728 14.1119 15.8639 14.2021 15.8812 14.2892C15.8985 14.3762 15.9412 14.4561 16.004 14.5189C16.0667 14.5816 16.1467 14.6244 16.2337 14.6417C16.3207 14.659 16.411 14.6501 16.493 14.6162C16.5749 14.5822 16.645 14.5247 16.6943 14.4509C16.7436 14.3771 16.7699 14.2904 16.7699 14.2016C16.7699 14.0826 16.7227 13.9685 16.6385 13.8843C16.5544 13.8002 16.4402 13.7529 16.3212 13.7529Z" fill="black"/>
</svg>
