<svg width="24" height="24" viewBox="0 0 24 24" fill="none" xmlns="http://www.w3.org/2000/svg">
<path d="M4.95353 14.8125V16.821C4.95447 17.431 5.16739 18.0216 5.55585 18.4919C5.94431 18.9622 6.48415 19.2828 7.08297 19.3989C7.19784 19.8611 7.46387 20.2716 7.83879 20.5653C8.2137 20.8589 8.67599 21.0189 9.15222 21.0197H10.9663C11.5321 21.0189 12.0746 20.7937 12.4747 20.3936C12.8748 19.9935 13.1 19.451 13.1008 18.8852V13.572C13.1016 13.3212 13.1959 13.0798 13.3652 12.8949C13.5346 12.7099 13.7668 12.5948 14.0165 12.572C14.11 12.9244 14.2897 13.248 14.5395 13.5135C14.7469 13.7341 14.9971 13.9099 15.2749 14.0303C15.5527 14.1507 15.8522 14.2131 16.155 14.2136H16.706V14.5027C16.706 14.6519 16.7653 14.795 16.8708 14.9005C16.9763 15.006 17.1193 15.0652 17.2685 15.0652H19.2148C19.364 15.0652 19.507 15.006 19.6125 14.9005C19.718 14.795 19.7773 14.6519 19.7773 14.5027V13.5129H20.3825C20.5317 13.5129 20.6748 13.4537 20.7803 13.3482C20.8858 13.2427 20.945 13.0996 20.945 12.9504C20.945 12.8012 20.8858 12.6582 20.7803 12.5527C20.6748 12.4472 20.5317 12.3879 20.3825 12.3879H19.7773V11.612H20.3825C20.5317 11.612 20.6748 11.5528 20.7803 11.4473C20.8858 11.3418 20.945 11.1987 20.945 11.0495C20.945 10.9004 20.8858 10.7573 20.7803 10.6518C20.6748 10.5463 20.5317 10.487 20.3825 10.487H19.7773V9.49724C19.7773 9.34805 19.718 9.20498 19.6125 9.09949C19.507 8.994 19.364 8.93474 19.2148 8.93474H17.2685C17.1193 8.93474 16.9763 8.994 16.8708 9.09949C16.7653 9.20498 16.706 9.34805 16.706 9.49724V9.78636H16.2114C15.714 9.78273 15.2293 9.94293 14.8321 10.2422C14.4348 10.5415 14.1472 10.9633 14.0135 11.4424C13.4653 11.4675 12.9477 11.7027 12.5683 12.0992C12.1889 12.4958 11.9767 13.0232 11.9758 13.572V18.8852C11.9755 19.1528 11.869 19.4094 11.6798 19.5987C11.4905 19.7879 11.2339 19.8944 10.9663 19.8947H9.15222C8.96898 19.894 8.78941 19.8433 8.63286 19.7481C8.47631 19.6528 8.34872 19.5167 8.26384 19.3543C8.82082 19.2037 9.3128 18.8742 9.66394 18.4164C10.0151 17.9585 10.2059 17.3979 10.2069 16.821V14.8125L12.0705 5.31355C12.1196 5.0642 12.1178 4.80749 12.0651 4.55887C12.0124 4.31024 11.91 4.07484 11.764 3.86682C11.618 3.6588 11.4315 3.48246 11.2156 3.34841C10.9996 3.21436 10.7589 3.12537 10.5077 3.0868L9.86603 2.98686C9.72255 2.96478 9.57609 2.99903 9.45728 3.08245C9.33847 3.16586 9.25651 3.29198 9.22853 3.43442L7.58041 11.8344L5.93247 3.43442C5.90449 3.29198 5.82253 3.16586 5.70372 3.08245C5.58491 2.99903 5.43845 2.96478 5.29497 2.98686L4.65316 3.08586C4.40199 3.12448 4.16124 3.2135 3.94537 3.34757C3.7295 3.48164 3.54298 3.65799 3.39702 3.866C3.25106 4.07402 3.14869 4.3094 3.09605 4.55801C3.04341 4.80661 3.0416 5.06329 3.09072 5.31261L4.95353 14.8125ZM15.0686 11.9265C15.0953 11.6441 15.228 11.3823 15.4401 11.1939C15.6522 11.0055 15.9278 10.9046 16.2114 10.9114H16.917C17.1486 10.911 17.3715 10.823 17.5408 10.665C17.7101 10.507 17.8134 10.2908 17.8297 10.0597H18.6523V13.941H17.8297C17.8134 13.71 17.7101 13.4937 17.5408 13.3357C17.3715 13.1777 17.1486 13.0897 16.917 13.0894H16.155C16.0058 13.0894 15.8582 13.0587 15.7213 12.9993C15.5845 12.9399 15.4613 12.853 15.3594 12.744C15.2575 12.635 15.1791 12.5062 15.1291 12.3656C15.0791 12.2251 15.0585 12.0757 15.0686 11.9269V11.9265ZM9.08191 16.8202C9.08191 17.2185 8.92369 17.6005 8.64207 17.8821C8.36045 18.1637 7.97849 18.3219 7.58022 18.3219C7.18195 18.3219 6.79999 18.1637 6.51837 17.8821C6.23674 17.6005 6.07853 17.2185 6.07853 16.8202V15.3187H9.08191V16.8202ZM10.2283 4.18124L10.3361 4.19792C10.4374 4.21349 10.5346 4.24939 10.6217 4.30347C10.7088 4.35755 10.784 4.42869 10.8429 4.51261C10.9018 4.59653 10.9431 4.6915 10.9643 4.7918C10.9856 4.89209 10.9863 4.99565 10.9665 5.09624L9.18147 14.1937H8.26384L10.2283 4.18124ZM4.82434 4.19792L4.93234 4.18124L6.89678 14.1937H5.97897L4.19416 5.09605C4.17433 4.99548 4.17505 4.89193 4.19627 4.79165C4.21749 4.69136 4.25878 4.5964 4.31765 4.51248C4.37652 4.42856 4.45176 4.35742 4.53884 4.30333C4.62591 4.24924 4.72303 4.21351 4.82434 4.19792Z" fill="black"/>
<path d="M7.58015 16.1876C7.45488 16.1876 7.33243 16.2248 7.22827 16.2944C7.12411 16.364 7.04293 16.4629 6.99499 16.5786C6.94705 16.6943 6.93451 16.8217 6.95895 16.9446C6.98339 17.0674 7.04371 17.1803 7.13229 17.2689C7.22087 17.3574 7.33372 17.4178 7.45659 17.4422C7.57945 17.4666 7.7068 17.4541 7.82254 17.4062C7.93827 17.3582 8.03719 17.277 8.10679 17.1729C8.17638 17.0687 8.21353 16.9463 8.21353 16.821C8.21355 16.7378 8.19719 16.6554 8.16537 16.5786C8.13354 16.5017 8.08689 16.4319 8.02807 16.3731C7.96925 16.3143 7.89942 16.2676 7.82256 16.2358C7.74571 16.204 7.66334 16.1876 7.58015 16.1876Z" fill="black"/>
<path d="M16.1547 12.4487C16.2435 12.4487 16.3302 12.4224 16.404 12.3731C16.4778 12.3238 16.5353 12.2537 16.5693 12.1717C16.6032 12.0897 16.6121 11.9995 16.5948 11.9125C16.5775 11.8254 16.5348 11.7455 16.472 11.6827C16.4093 11.62 16.3293 11.5772 16.2423 11.5599C16.1552 11.5426 16.065 11.5515 15.983 11.5855C15.9011 11.6194 15.831 11.6769 15.7817 11.7507C15.7324 11.8245 15.7061 11.9112 15.7061 12C15.7061 12.119 15.7533 12.2331 15.8375 12.3173C15.9216 12.4014 16.0357 12.4487 16.1547 12.4487Z" fill="black"/>
</svg>
