<svg width="24" height="24" viewBox="0 0 24 24" fill="none" xmlns="http://www.w3.org/2000/svg">
<g clip-path="url(#clip0_9_263)">
<path d="M24 3.38545C24 1.5187 22.4813 0 20.6145 0C19.7205 0 18.846 0.363375 18.2154 0.996797C5.2095 14.0548 9.02339 10.243 0.999047 18.2148C0.364172 18.8457 0 19.7207 0 20.6157C0 22.4818 1.51819 24 3.38428 24C4.27931 24 5.15438 23.6358 5.78517 23.0009C13.0784 15.6598 11.7793 16.965 13.1719 15.5725V16.4163C13.1719 17.2498 12.8473 18.0333 12.258 18.6226C11.5738 19.3068 11.5136 20.3926 12.1182 21.1482C12.8238 22.0302 14.1413 22.1031 14.9399 21.3045C16.3994 19.845 17.2031 17.9046 17.2031 15.8405V11.5412L22.8375 5.90681C22.8969 5.87512 22.9529 5.83458 23.003 5.78466C23.6366 5.15395 24 4.27945 24 3.38545ZM19.212 1.98905C19.5807 1.61869 20.0919 1.40625 20.6145 1.40625C21.7059 1.40625 22.5938 2.29411 22.5938 3.38545C22.5938 3.80766 22.455 4.22231 22.2065 4.56047L19.3384 4.54922C18.7585 4.54922 18.2218 4.78387 17.8386 5.16703L12.3226 10.683C11.9281 10.4277 11.4914 10.2641 11.0425 10.1912L19.212 1.98905ZM4.78753 22.0098C4.41886 22.3809 3.90736 22.5938 3.38428 22.5938C2.29359 22.5938 1.40625 21.7064 1.40625 20.6157C1.40625 20.0926 1.61911 19.5811 1.99022 19.2124L5.616 15.6103L8.38964 18.384L4.78753 22.0098ZM9.38072 17.3864L6.61359 14.6192L7.87336 13.3677L10.6322 16.1266L9.38072 17.3864ZM16.0028 10.7528C15.8709 10.8847 15.7969 11.0635 15.7969 11.25V15.8405C15.7969 17.529 15.1394 19.1163 13.9455 20.3101C13.8107 20.4449 13.6534 20.4575 13.5719 20.4529C13.1528 20.4298 12.951 19.9183 13.2524 19.617C14.1073 18.7621 14.5781 17.6254 14.5781 16.4163V13.875C14.5781 13.4856 14.2618 13.1719 13.8751 13.1719C13.6922 13.1719 13.5123 13.2433 13.3778 13.3778L11.625 15.1306C11.0597 14.5653 9.41813 12.9238 8.86936 12.375L9.12216 12.1222C9.88186 11.3625 11.1181 11.3625 11.8778 12.1222C12.1523 12.3967 12.5976 12.3968 12.8722 12.1222L18.833 6.16139C18.9601 6.03422 19.1388 5.95542 19.3329 5.95542L20.7945 5.96119L16.0028 10.7528Z" fill="black"/>
<path d="M3.37572 19.9219C2.98347 19.9219 2.67236 20.24 2.67236 20.625C2.67236 21.0133 2.98741 21.3281 3.37572 21.3281C3.76408 21.3281 4.07885 21.0133 4.07885 20.625C4.07885 20.2367 3.76408 19.9219 3.37572 19.9219Z" fill="black"/>
</g>
<defs>
<clipPath id="clip0_9_263">
<rect width="24" height="24" fill="white"/>
</clipPath>
</defs>
</svg>
