<svg width="24" height="24" viewBox="0 0 24 24" fill="none" xmlns="http://www.w3.org/2000/svg">
<path d="M22.128 17.7113L20.2195 16.7018C21.1182 16.0793 21.9099 15.2926 22.5467 14.3663L22.9487 13.7815C22.9487 13.7815 22.9488 13.7815 22.9488 13.7814C23.1458 13.4948 23.2499 13.1595 23.2499 12.8117C23.2499 12.3086 23.0301 11.8332 22.6468 11.5074C22.2634 11.1816 21.7588 11.0413 21.2623 11.1223L20.8944 11.1823L20.5335 6.31069C20.4298 4.90931 19.8055 3.61092 18.7758 2.65467C17.7462 1.69847 16.4052 1.17188 15 1.17188C13.5948 1.17188 12.2538 1.69847 11.2241 2.65472C10.1944 3.61097 9.57019 4.90941 9.46636 6.31073L9.1057 11.1798L8.79009 11.1272C8.2927 11.0442 7.78692 11.1836 7.40222 11.5096C7.01752 11.8355 6.79688 12.3115 6.79688 12.8196C6.79688 13.1587 6.89634 13.4871 7.08436 13.7691L7.41037 14.2582C8.05875 15.2308 8.87414 16.0532 9.80442 16.6991L7.90777 17.7105C6.75989 18.323 6.04688 19.5116 6.04688 20.8125V22.125C6.04688 22.5133 6.36169 22.8281 6.75 22.8281H23.2969C23.6852 22.8281 24 22.5133 24 22.125V20.8191C24 19.5129 23.2827 18.3221 22.128 17.7113ZM8.58047 13.4781L8.25436 12.989C8.2208 12.9387 8.20308 12.8801 8.20308 12.8157C8.20308 12.6925 8.27077 12.6167 8.31113 12.5825C8.34544 12.5535 8.41261 12.5099 8.50659 12.5099C8.52319 12.5099 8.54063 12.5112 8.55886 12.5143L9.63436 12.6935C9.82931 12.7259 10.0289 12.675 10.1843 12.5529C10.3397 12.4308 10.4365 12.249 10.4512 12.0519L10.8687 6.41456C11.0281 4.26333 12.8428 2.57812 15 2.57812C17.1572 2.57812 18.9719 4.26333 19.1312 6.41466L19.5488 12.052C19.5634 12.2486 19.6598 12.4301 19.8147 12.5522C19.9696 12.6743 20.1687 12.7259 20.3633 12.6939L21.489 12.5101C21.6104 12.4906 21.6959 12.5447 21.7361 12.5789C21.7763 12.6131 21.8438 12.6888 21.8438 12.8117C21.8438 12.8738 21.8251 12.9338 21.7899 12.9849L21.3879 13.5696C19.9448 15.6687 17.5625 16.9219 15.0152 16.9219C12.4235 16.9219 10.018 15.6345 8.58047 13.4781ZM22.5938 21.4219H7.45312V20.8125C7.45312 20.0319 7.88095 19.3187 8.56959 18.9513L11.2536 17.52C12.4175 18.0451 13.6957 18.3281 15.0151 18.3281C16.3275 18.3281 17.6029 18.0465 18.7654 17.5234L21.4704 18.9543C22.1633 19.3209 22.5938 20.0354 22.5938 20.8191V21.4219Z" fill="black"/>
<path d="M5.25 7.54688H5.20312V4.875C5.20312 4.48669 4.88831 4.17188 4.5 4.17188H1.5C1.11169 4.17188 0.796875 4.48669 0.796875 4.875V7.54688H0.703125C0.314812 7.54688 0 7.86169 0 8.25V16.5C0 16.8883 0.314812 17.2031 0.703125 17.2031H5.25C5.63831 17.2031 5.95312 16.8883 5.95312 16.5V8.25C5.95312 7.86169 5.63831 7.54688 5.25 7.54688ZM1.40625 8.95312H1.5H4.5H4.54688V10.5469H1.40625V8.95312ZM2.20312 5.57812H3.79688V7.54688H2.20312V5.57812ZM1.40625 15.7969V11.9531H4.54688V15.7969H1.40625Z" fill="black"/>
<path d="M7.12575 5.57827C7.23141 5.57827 7.33871 5.55436 7.43963 5.50388L8.18963 5.12888C8.53697 4.95525 8.67774 4.53286 8.50407 4.18556C8.33039 3.83822 7.908 3.69731 7.56071 3.87113L6.81071 4.24613C6.46336 4.41975 6.3226 4.84214 6.49627 5.18944C6.6195 5.43586 6.8678 5.57827 7.12575 5.57827Z" fill="black"/>
<path d="M6.81074 7.75387L7.56074 8.12887C7.66167 8.17936 7.76896 8.20327 7.87462 8.20327C8.13252 8.20327 8.38087 8.06081 8.50406 7.81444C8.67773 7.46714 8.53691 7.04475 8.18962 6.87112L7.43962 6.49612C7.09232 6.32241 6.66993 6.46327 6.49626 6.81056C6.32259 7.15786 6.4634 7.58025 6.81074 7.75387Z" fill="black"/>
<path d="M13.8146 4.24612C13.4673 4.07245 13.0449 4.21322 12.8713 4.56056C12.3321 5.63902 12.0471 6.84633 12.0471 8.05205V9.57291C12.0471 10.5615 11.8134 11.5514 11.3713 12.4355C11.1976 12.7828 11.3384 13.2052 11.6857 13.3788C11.7866 13.4293 11.8939 13.4532 11.9996 13.4532C12.2575 13.4532 12.5058 13.3108 12.629 13.0644C13.1683 11.986 13.4533 10.7787 13.4533 9.57295V8.05209C13.4533 7.06355 13.687 6.07364 14.1291 5.18948C14.3027 4.84214 14.162 4.41975 13.8146 4.24612Z" fill="black"/>
<path d="M16.5939 8.05205V9.57291C16.5939 10.7787 16.8789 11.986 17.4181 13.0644C17.5413 13.3108 17.7896 13.4532 18.0475 13.4532C18.1532 13.4532 18.2605 13.4293 18.3614 13.3788C18.7088 13.2052 18.8495 12.7828 18.6758 12.4355C18.2338 11.5514 18.0001 10.5615 18.0001 9.57295V8.05209C18.0001 6.84633 17.7151 5.63902 17.1759 4.56061C17.0023 4.21327 16.5799 4.07241 16.2326 4.24617C15.8852 4.4198 15.7445 4.84219 15.9181 5.18948C16.3602 6.07359 16.5939 7.0635 16.5939 8.05205Z" fill="black"/>
<path d="M15.7031 15V12.75C15.7031 12.3617 15.3883 12.0469 15 12.0469C14.6117 12.0469 14.2969 12.3617 14.2969 12.75V15C14.2969 15.3883 14.6117 15.7031 15 15.7031C15.3883 15.7031 15.7031 15.3883 15.7031 15Z" fill="black"/>
</svg>
