<svg width="24" height="24" viewBox="0 0 24 24" fill="none" xmlns="http://www.w3.org/2000/svg">
<path d="M10.3201 9.05998C10.3201 9.05998 10.9801 13.5 15.0601 14.1C19.1401 14.7 18.6601 18.06 18.6601 18.06C18.6601 18.06 24.0001 10.68 17.2801 5.93999C17.2801 5.93999 16.0801 2.39999 12.5401 2.39999C9.00009 2.39999 7.2601 5.93999 7.2601 5.93999C7.2601 5.93999 3.6001 6.23999 3.6001 10.2C3.6001 14.16 6.84009 14.64 6.84009 14.64C6.84009 14.64 6.18011 10.14 10.3201 9.05998Z" stroke="black" stroke-width="1.2" stroke-miterlimit="10" stroke-linecap="round" stroke-linejoin="round"/>
<path d="M17.6401 15.84C17.6401 15.84 15.1801 21.54 12.1201 21.54C9.74578 21.54 7.89764 18.1952 7.22998 16.8" stroke="black" stroke-width="1.2" stroke-miterlimit="10" stroke-linecap="round" stroke-linejoin="round"/>
</svg>
