<svg width="24" height="24" viewBox="0 0 24 24" fill="none" xmlns="http://www.w3.org/2000/svg">
<path d="M23.0375 2.34706L19.4154 3.778C17.1642 3.44065 15.0492 2.58335 13.2931 1.29476C10.2079 -0.969339 5.90489 -0.188811 3.77518 3.04786H2.10928C0.946221 3.04786 0 3.99408 0 5.15714V8.34449C0 9.50755 0.946221 10.4538 2.10928 10.4538H3.79037C4.08557 10.8958 4.42967 11.2989 4.82771 11.6672L6.05901 18.1318C6.12215 18.4635 6.41211 18.7034 6.74968 18.7034H7.17154V18.844C7.17154 19.2317 6.85613 19.5471 6.46845 19.5471H4.52323C3.29558 19.5471 2.29677 20.5459 2.29677 21.7735C2.29677 23.0012 3.29558 24 4.52323 24H16.4992C16.8875 24 17.2023 23.6852 17.2023 23.2969C17.2023 22.9086 16.8875 22.5938 16.4992 22.5938H4.52323C4.07095 22.5938 3.70295 22.2258 3.70295 21.7735C3.70295 21.3213 4.07095 20.9533 4.52323 20.9533H6.46845C7.6315 20.9533 8.57772 20.007 8.57772 18.844V18.7034H9.37456C9.76285 18.7034 10.0777 18.3886 10.0777 18.0003V15.7035H10.5933C11.7563 15.7035 12.7025 14.7573 12.7025 13.5942V12.569C12.882 12.466 13.0579 12.3554 13.2287 12.2352C15.1114 10.9098 17.2493 10.0422 19.4149 9.7234L23.0375 11.1545C23.4987 11.3367 23.9989 10.9957 23.9989 10.5006V3.00094C23.9989 2.50479 23.4979 2.1651 23.0375 2.34706ZM2.10928 9.04759C1.72159 9.04759 1.40618 8.73218 1.40618 8.34449V5.15714C1.40618 4.76945 1.72159 4.45404 2.10928 4.45404H3.07036C2.54046 5.92201 2.53455 7.56664 3.07607 9.04759H2.10928ZM8.67147 17.2972H7.33152L6.47328 12.7913C7.16174 13.124 7.9036 13.3358 8.67147 13.4165V17.2972ZM11.2963 13.5943C11.2963 13.9819 10.9809 14.2974 10.5933 14.2974H10.0777V13.416C10.4927 13.3728 10.9002 13.2915 11.2963 13.1732V13.5943ZM12.4192 11.0853C11.5269 11.7135 10.4731 12.0474 9.37592 12.0474C6.55451 12.0474 4.1834 9.76784 4.0815 6.94759C4.02848 5.47981 4.56204 4.08797 5.584 3.0284C7.4254 1.11927 10.3302 0.864564 12.4612 2.42843C14.2928 3.77251 16.4734 4.69136 18.796 5.10192V8.39891C16.5566 8.79462 14.3614 9.71815 12.4192 11.0853ZM22.5927 9.46687L20.2022 8.52247V4.97907L22.5927 4.03467V9.46687Z" fill="black"/>
</svg>
