<svg width="24" height="24" viewBox="0 0 24 24" fill="none" xmlns="http://www.w3.org/2000/svg">
<path d="M17.8125 12.0469H14.9062C14.5185 12.0469 14.2031 11.7315 14.2031 11.3438V7.40292C15.1367 6.63956 15.7031 5.4188 15.7031 4.125C15.7031 1.85048 14.0419 0 12 0C9.95808 0 8.29688 1.85048 8.29688 4.125C8.29688 5.4188 8.86327 6.63956 9.79688 7.40292V11.3438C9.79688 11.7315 9.48145 12.0469 9.09375 12.0469H6.1875C4.24898 12.0469 2.67188 13.624 2.67188 15.5625V21.1875C2.67188 22.7383 3.93356 24 5.48438 24H6C6.38831 24 6.70312 23.6852 6.70312 23.2969V18.3281H8.29688V23.2969C8.29688 23.6852 8.61169 24 9 24C9.38831 24 9.70312 23.6852 9.70312 23.2969V18.3281H11.2969V23.2969C11.2969 23.6852 11.6117 24 12 24C12.3883 24 12.7031 23.6852 12.7031 23.2969V18.3281H14.2969V23.2969C14.2969 23.6852 14.6117 24 15 24C15.3883 24 15.7031 23.6852 15.7031 23.2969V18.3281H17.2969V23.2969C17.2969 23.6852 17.6117 24 18 24H18.5156C20.0664 24 21.3281 22.7383 21.3281 21.1875V15.5625C21.3281 13.624 19.751 12.0469 17.8125 12.0469ZM19.9219 21.1875C19.9219 21.8994 19.3902 22.4894 18.7031 22.5813V17.625C18.7031 17.2367 18.3883 16.9219 18 16.9219H6C5.61169 16.9219 5.29688 17.2367 5.29688 17.625V22.5813C4.60978 22.4894 4.07812 21.8994 4.07812 21.1875V15.5625C4.07812 14.3994 5.02439 13.4531 6.1875 13.4531H9.09375C10.2569 13.4531 11.2031 12.5069 11.2031 11.3438V7.04737C11.2031 6.80958 11.0829 6.58786 10.8837 6.45816C10.1555 5.98402 9.70312 5.09002 9.70312 4.125C9.70312 2.6513 10.755 1.40625 12 1.40625C13.245 1.40625 14.2969 2.6513 14.2969 4.125C14.2969 5.09002 13.8445 5.98402 13.1163 6.45811C12.9171 6.58786 12.7969 6.80953 12.7969 7.04733V11.3438C12.7969 12.5069 13.7431 13.4531 14.9062 13.4531H17.8125C18.9756 13.4531 19.9219 14.3994 19.9219 15.5625V21.1875Z" fill="black"/>
<path d="M12 3.04688C11.6117 3.04688 11.2969 3.36169 11.2969 3.75V4.5C11.2969 4.88831 11.6117 5.20312 12 5.20312C12.3883 5.20312 12.7031 4.88831 12.7031 4.5V3.75C12.7031 3.36169 12.3883 3.04688 12 3.04688Z" fill="black"/>
</svg>
