<svg width="24" height="24" viewBox="0 0 24 24" fill="none" xmlns="http://www.w3.org/2000/svg">
<path d="M8.33899 18.0399C10.7464 18.0399 12.698 16.0883 12.698 13.6809C12.698 11.2734 10.7464 9.32185 8.33899 9.32185C5.93158 9.32185 3.97998 11.2734 3.97998 13.6809C3.97998 16.0883 5.93158 18.0399 8.33899 18.0399Z" stroke="black" stroke-miterlimit="10" stroke-linecap="round" stroke-linejoin="round"/>
<path d="M8.33905 19.62C11.6192 19.62 14.2782 16.961 14.2782 13.6809C14.2782 10.4008 11.6192 7.7417 8.33905 7.7417C5.05895 7.7417 2.3999 10.4008 2.3999 13.6809C2.3999 16.961 5.05895 19.62 8.33905 19.62Z" stroke="black" stroke-miterlimit="10" stroke-linecap="round" stroke-linejoin="round"/>
<path d="M8.33887 10.684V11.4469" stroke="black" stroke-miterlimit="10" stroke-linecap="round" stroke-linejoin="round"/>
<path d="M8.33887 15.6424V16.4052" stroke="black" stroke-miterlimit="10" stroke-linecap="round" stroke-linejoin="round"/>
<path d="M11.1722 13.5174H10.4639" stroke="black" stroke-miterlimit="10" stroke-linecap="round" stroke-linejoin="round"/>
<path d="M6.214 13.5174H5.45117" stroke="black" stroke-miterlimit="10" stroke-linecap="round" stroke-linejoin="round"/>
<path d="M10.3549 15.5879L9.81006 15.0431" stroke="black" stroke-miterlimit="10" stroke-linecap="round" stroke-linejoin="round"/>
<path d="M6.81315 12.0462L6.32275 11.5014" stroke="black" stroke-miterlimit="10" stroke-linecap="round" stroke-linejoin="round"/>
<path d="M10.3549 11.5014L9.81006 12.0462" stroke="black" stroke-miterlimit="10" stroke-linecap="round" stroke-linejoin="round"/>
<path d="M6.81315 15.0431L6.32275 15.5879" stroke="black" stroke-miterlimit="10" stroke-linecap="round" stroke-linejoin="round"/>
<path d="M15.8038 14.4437C18.2013 14.4437 20.1628 12.4821 20.1628 10.0847C20.1628 7.6872 18.2013 5.72565 15.8038 5.72565C14.4416 5.72565 13.1884 6.3795 12.3711 7.36028" stroke="black" stroke-miterlimit="10" stroke-linecap="round" stroke-linejoin="round"/>
<path d="M11.0088 6.65194C12.0985 5.18077 13.8421 4.2 15.8037 4.2C19.073 4.2 21.7428 6.8699 21.7428 10.1392C21.7428 13.4084 19.073 16.0783 15.8037 16.0783" stroke="black" stroke-miterlimit="10" stroke-linecap="round" stroke-linejoin="round"/>
<path d="M15.8037 7.14233V7.85067" stroke="black" stroke-miterlimit="10" stroke-linecap="round" stroke-linejoin="round"/>
<path d="M18.6371 9.97569H17.9287" stroke="black" stroke-miterlimit="10" stroke-linecap="round" stroke-linejoin="round"/>
<path d="M17.8198 11.9917L17.2749 11.5014" stroke="black" stroke-miterlimit="10" stroke-linecap="round" stroke-linejoin="round"/>
<path d="M14.278 8.50453L13.7876 7.95966" stroke="black" stroke-miterlimit="10" stroke-linecap="round" stroke-linejoin="round"/>
<path d="M17.8198 7.95966L17.2749 8.50453" stroke="black" stroke-miterlimit="10" stroke-linecap="round" stroke-linejoin="round"/>
</svg>
