<svg width="24" height="24" viewBox="0 0 24 24" fill="none" xmlns="http://www.w3.org/2000/svg">
<path d="M11.3721 15.6278C11.0975 15.3532 10.6523 15.3533 10.3778 15.6278C10.2866 15.7189 10.1803 15.7325 10.125 15.7325C10.0697 15.7325 9.9633 15.7189 9.87218 15.6278C9.59759 15.3532 9.15241 15.3532 8.87782 15.6278C8.60323 15.9024 8.60323 16.3475 8.87782 16.6222C9.21096 16.9553 9.65388 17.1388 10.125 17.1388C10.5962 17.1388 11.0391 16.9553 11.3722 16.6222C11.6467 16.3475 11.6467 15.9024 11.3721 15.6278Z" fill="black"/>
<path d="M14.1278 15.6279C14.0366 15.719 13.9303 15.7326 13.875 15.7326C13.8197 15.7326 13.7133 15.719 13.6222 15.6279C13.3476 15.3533 12.9024 15.3533 12.6278 15.6279C12.3532 15.9024 12.3532 16.3476 12.6278 16.6222C12.961 16.9554 13.4039 17.1388 13.875 17.1388C14.3462 17.1388 14.7891 16.9554 15.1222 16.6222C15.3968 16.3476 15.3968 15.9024 15.1222 15.6279C14.8475 15.3532 14.4023 15.3533 14.1278 15.6279Z" fill="black"/>
<path d="M12.735 19.3243C12.2885 19.622 11.7116 19.622 11.2651 19.3243C10.942 19.1089 10.5054 19.1962 10.29 19.5193C10.0746 19.8424 10.162 20.279 10.4851 20.4944C10.9452 20.8012 11.4727 20.9546 12.0001 20.9546C12.5275 20.9546 13.0549 20.8012 13.5151 20.4944C13.8382 20.279 13.9255 19.8424 13.7101 19.5193C13.4946 19.1962 13.058 19.1088 12.735 19.3243Z" fill="black"/>
<path d="M23.8039 0.215953C23.6713 0.078 23.4882 0 23.2969 0H18.75C18.5596 0 18.3773 0.0772031 18.2449 0.213984C18.1125 0.350719 18.0412 0.535359 18.0473 0.725672L18.2963 8.47528C18.0655 8.1622 17.8115 7.86572 17.5354 7.58972C16.9832 7.0373 16.3628 6.57769 15.6933 6.21853C15.6996 6.13027 15.7031 6.04172 15.7031 5.95312C15.7031 3.9112 14.0419 2.25 12 2.25C9.95808 2.25 8.29688 3.9112 8.29688 5.95312C8.29688 6.04303 8.30048 6.1328 8.30695 6.22223C7.77895 6.50475 7.28133 6.84877 6.82542 7.25058C6.40631 7.62005 6.03122 8.03048 5.70384 8.47317L5.95275 0.725672C5.95884 0.535359 5.88755 0.350719 5.75508 0.213984C5.62266 0.0772031 5.44041 0 5.25 0H0.703124C0.51178 0 0.328687 0.078 0.196124 0.215953C0.0635147 0.354 -0.00707907 0.540047 0.000561559 0.73125L0.422437 11.2781C0.423374 11.302 0.42553 11.3258 0.428952 11.3494L1.17895 16.5994C1.19644 16.7217 1.2458 16.8373 1.32211 16.9344L5.44711 22.1844C5.58042 22.3541 5.78423 22.4531 6 22.4531C6.6248 22.4531 7.1963 22.1812 7.58742 21.7029L8.31258 22.446C9.26189 23.4186 10.5804 24 12 24C13.38 24 14.7241 23.4335 15.6875 22.446L16.4126 21.7029C16.8037 22.1812 17.3752 22.4531 18 22.4531C18.2158 22.4531 18.4196 22.3541 18.5529 22.1844L22.6779 16.9344C22.7542 16.8373 22.8036 16.7218 22.821 16.5995L23.571 11.3495C23.5744 11.3258 23.5766 11.302 23.5776 11.2782L23.9994 0.731297C24.0071 0.540047 23.9365 0.354 23.8039 0.215953ZM18.3374 12.0869L17.5637 12.6671C16.9197 11.9457 16.1329 11.3481 15.2645 10.9249C14.7119 10.6556 14.1239 10.4563 13.5206 10.3303C13.9624 9.79917 14.2031 9.13692 14.2031 8.4375C14.2031 7.91077 14.066 7.40527 13.8099 6.96075C14.8402 7.26164 15.7747 7.81748 16.541 8.58413C17.5033 9.546 18.1216 10.7548 18.3374 12.0869ZM12 3.65625C13.157 3.65625 14.1164 4.51627 14.2738 5.63044C13.5461 5.41073 12.782 5.29688 12.0003 5.29688C12.0001 5.29688 11.9999 5.29688 11.9997 5.29688C11.2225 5.29692 10.4569 5.41219 9.72581 5.63395C9.88167 4.51805 10.8419 3.65625 12 3.65625ZM11.7152 6.70959L12.3399 7.33425C12.6346 7.62895 12.7969 8.02073 12.7969 8.4375C12.7969 8.85427 12.6346 9.24605 12.3399 9.54075L11.7019 10.1787C10.6515 10.2214 9.6082 10.4883 8.66663 10.9587C7.82616 11.3791 7.06317 11.9651 6.43631 12.6671L5.66166 12.0861C6.14751 9.09844 8.69494 6.84366 11.7152 6.70959ZM6.52594 20.7777C6.46275 20.8653 6.38156 20.9339 6.28908 20.9798L2.54437 16.2139L1.82611 11.1861L1.43494 1.40625H4.52391L4.17225 12.3525C4.16489 12.5816 4.2697 12.7999 4.45312 12.9375L5.70384 13.8756C6.22514 14.2665 6.46537 14.8968 6.37439 15.5051L5.74716 14.8778C5.47261 14.6033 5.02739 14.6033 4.7528 14.8778C4.4782 15.1524 4.4782 15.5976 4.7528 15.8722L5.38542 16.5048L6.615 20.1936C6.6817 20.3936 6.64927 20.6065 6.52594 20.7777ZM14.6809 21.4639C13.9805 22.182 13.0033 22.5938 12 22.5938C11.0179 22.5938 10.0442 22.2068 9.31898 21.4638L8.14322 20.259C8.10769 20.2225 8.07337 20.1852 8.03958 20.1477C8.02256 20.014 7.99298 19.8806 7.94911 19.7489L7.07414 17.124C7.18612 17.066 7.28362 16.9772 7.35291 16.8618C7.95164 15.8638 7.93537 14.6626 7.39331 13.7092C7.91864 13.0921 8.57175 12.5785 9.29545 12.2165C10.1316 11.7989 11.0668 11.5781 12 11.5781C13.7901 11.5781 15.4553 12.3519 16.6068 13.709C16.0646 14.6625 16.0483 15.8638 16.647 16.8618C16.7163 16.9772 16.8138 17.0659 16.9258 17.124L16.0508 19.7489C16.0069 19.8806 15.9774 20.0141 15.9604 20.1478C15.9268 20.1851 15.8926 20.2221 15.8575 20.2582L14.6809 21.4639ZM22.1738 11.1861L21.4556 16.2139L17.7109 20.9798C17.6184 20.9339 17.5373 20.8654 17.4741 20.7777C17.3507 20.6066 17.3183 20.3937 17.385 20.1936L18.6145 16.5048L19.2472 15.8722C19.5217 15.5977 19.5217 15.1525 19.2472 14.8779C18.9726 14.6033 18.5274 14.6033 18.2528 14.8779L17.6256 15.5051C17.5346 14.8969 17.7748 14.2665 18.2961 13.8756L19.5469 12.9375C19.7303 12.7999 19.8351 12.5816 19.8278 12.3525L19.4761 1.40625H22.5651L22.1738 11.1861Z" fill="black"/>
</svg>
