<svg id="Layer_1" data-name="Layer 1" xmlns="http://www.w3.org/2000/svg" viewBox="0 0 122.88 66.32"><title>voucher</title><path d="M31.74,27.23a2.86,2.86,0,0,0,5.68.44,3.25,3.25,0,0,0,0-.44V21.52a2.86,2.86,0,0,0-5.68-.44,3.25,3.25,0,0,0,0,.44v5.71ZM5.76,0H117.12a5.77,5.77,0,0,1,5.76,5.76V12a2.36,2.36,0,0,1-2.35,2.36l-.34,0h0a6.27,6.27,0,0,0-4.46,1.87,6.48,6.48,0,0,0-1.9,4.52v.16a6.37,6.37,0,0,0,1.92,4.55l.11.11a6.67,6.67,0,0,0,4.55,1.73h.11a2.34,2.34,0,0,1,2.35,2.33h0v7.9a2.35,2.35,0,0,1-2.35,2.35h-.12a6.65,6.65,0,0,0-4.64,1.84h0a6.38,6.38,0,0,0-1.93,4.53v.16a6.53,6.53,0,0,0,1.9,4.53,6.29,6.29,0,0,0,4.46,1.87h.31a2.34,2.34,0,0,1,2.37,2.31v0h0v5.35a5.74,5.74,0,0,1-1.69,4.07l-.17.15a5.71,5.71,0,0,1-3.9,1.55H5.76A5.77,5.77,0,0,1,1.7,64.63h0A5.78,5.78,0,0,1,0,60.55V55.2a2.35,2.35,0,0,1,2.35-2.35h.33A6.31,6.31,0,0,0,7.15,51a6.52,6.52,0,0,0,1.9-4.52v-.08H9a6.45,6.45,0,0,0-6.46-6.47A2.35,2.35,0,0,1,.23,37.57L0,29.74a2.34,2.34,0,0,1,2.28-2.41h.18a6.65,6.65,0,0,0,4.66-1.83l.11-.1a6.36,6.36,0,0,0,1.81-4.45v-.17a6.34,6.34,0,0,0-1.92-4.54L7,16.12A6.66,6.66,0,0,0,2.47,14.4l-.25,0A2.33,2.33,0,0,1,0,12.05H0V5.76A5.77,5.77,0,0,1,1.69,1.7h0A5.77,5.77,0,0,1,5.76,0ZM70.17,47.15a3.84,3.84,0,0,1-1.51,1.48,7.05,7.05,0,0,1-3.19.53c-1.49,0-2.24-.4-2.24-1.19a1.47,1.47,0,0,1,.09-.36L79.48,19a8.24,8.24,0,0,1,.75-1.12,3.76,3.76,0,0,1,1.26-.77,5.83,5.83,0,0,1,2.28-.39c1.89,0,2.83.41,2.83,1.23a.88.88,0,0,1-.09.41L70.17,47.15Zm-7.39-13a15,15,0,0,1-3.5-.36,8.08,8.08,0,0,1-2.76-1.28q-2.6-1.87-2.6-7.26t2.74-7a11.14,11.14,0,0,1,6.12-1.5,11.54,11.54,0,0,1,6.16,1.5c1.82,1.19,2.74,3.53,2.74,7s-.87,6-2.61,7.26a10.89,10.89,0,0,1-6.29,1.64Zm0-4.43a.74.74,0,0,0,.59-.27c.39-.43.59-1.51.59-3.24a23.31,23.31,0,0,0-.18-3.58,2.66,2.66,0,0,0-.41-1.21.77.77,0,0,0-.59-.23c-.8,0-1.19,1.42-1.19,4.27s.39,4.26,1.19,4.26Zm24,19.9a15,15,0,0,1-3.49-.36A7.89,7.89,0,0,1,80.53,48q-2.59-1.87-2.6-7.26c0-3.5.91-5.82,2.74-7a10.87,10.87,0,0,1,6.11-1.55A11.29,11.29,0,0,1,93,33.73c1.82,1.16,2.73,3.48,2.73,7s-.86,6-2.6,7.26a10.83,10.83,0,0,1-6.3,1.64Zm0-4.42a.83.83,0,0,0,.6-.23c.39-.46.59-1.55.59-3.29a23.4,23.4,0,0,0-.18-3.58,2.71,2.71,0,0,0-.41-1.21.83.83,0,0,0-.6-.23c-.79,0-1.18,1.42-1.18,4.27s.39,4.27,1.18,4.27ZM117.12,4.71H37.45v5.38a3,3,0,0,1,0,.43,2.86,2.86,0,0,1-5.68-.43V4.71h-26A1,1,0,0,0,5,5H5a1,1,0,0,0-.3.74V9.9a11.34,11.34,0,0,1,5.53,2.82l.15.13a11,11,0,0,1,3.35,7.88V21a11,11,0,0,1-3.21,7.72l-.14.15A11.21,11.21,0,0,1,4.76,31.8l.11,3.65a11.16,11.16,0,0,1,5.61,3,11.13,11.13,0,0,1,3.27,7.9s0,.09,0,.12a11.19,11.19,0,0,1-3.26,7.79,11.06,11.06,0,0,1-5.77,3.07v3.18a1,1,0,0,0,.3.75H5a1.06,1.06,0,0,0,.74.3h26v-5.8a3,3,0,0,1,0-.43,2.86,2.86,0,0,1,5.68.43v5.8h79.67a1,1,0,0,0,.67-.24l.07-.07a1.07,1.07,0,0,0,.31-.75V57.36a11,11,0,0,1-5.77-3.06,11.16,11.16,0,0,1-3.26-7.78v-.27a11,11,0,0,1,3.37-7.87,11.3,11.3,0,0,1,5.66-3V31.8a11.19,11.19,0,0,1-5.53-2.8l-.15-.13A11,11,0,0,1,109.14,21v-.28A11.18,11.18,0,0,1,112.4,13a11,11,0,0,1,5.77-3.08V5.76a1.06,1.06,0,0,0-1-1ZM31.74,44.38a2.86,2.86,0,0,0,5.68.44,3.25,3.25,0,0,0,0-.44V38.67a2.86,2.86,0,0,0-5.68-.44,3.15,3.15,0,0,0,0,.44v5.71Z"/></svg>