<svg width="24" height="24" viewBox="0 0 24 24" fill="none" xmlns="http://www.w3.org/2000/svg">
<g clip-path="url(#clip0_1_184)">
<path d="M23.5943 3.48835L18.1386 0.93979C16.0951 -0.0149956 13.6577 0.367875 12.0008 1.95186C10.3579 0.372047 7.91408 -0.0186049 5.86135 0.93979L0.405637 3.48835C0.0785002 3.64116 -0.0797011 4.01696 0.0396413 4.35778C1.47447 8.45437 5.03013 11.7001 9.79689 12.5004V13.1721H9.75001C9.3617 13.1721 9.0469 13.487 9.0469 13.8753V18.4221H8.62502C8.23672 18.4221 7.92191 18.7369 7.92191 19.1252V22.8752C7.92191 23.2635 8.23672 23.5783 8.62502 23.5783H15.3749C15.7633 23.5783 16.0781 23.2635 16.0781 22.8752V19.1252C16.0781 18.7369 15.7633 18.4221 15.3749 18.4221H14.9531V13.8753C14.9531 13.487 14.6383 13.1721 14.25 13.1721H14.2031V12.5006C18.9627 11.7014 22.5247 8.45672 23.9603 4.35778C24.0797 4.01696 23.9215 3.64116 23.5943 3.48835ZM6.45638 2.21388C8.13073 1.43225 10.1792 1.84986 11.3942 3.36915L11.4524 3.44134C11.7334 3.79032 12.2661 3.79088 12.5476 3.44134L12.6073 3.36714C13.7772 1.90358 15.8151 1.40643 17.5434 2.21379L21.9944 4.293C20.7554 5.21849 19.3185 5.86831 17.8025 6.1842C13.9523 6.98627 10.0477 6.98627 6.19749 6.1842C4.67937 5.86789 3.24487 5.21882 2.0057 4.29295L6.45638 2.21388ZM14.6718 22.172H9.32814V19.8283H14.6718V22.172ZM10.4531 18.4221V14.5784H13.5468V18.4221H10.4531ZM11.2031 13.1721V10.8284H12.7969V13.1721H11.2031ZM14.2031 11.0724V10.1253C14.2031 9.73695 13.8883 9.42214 13.5 9.42214H10.5C10.1117 9.42214 9.79689 9.73695 9.79689 10.1253V11.0723C6.68419 10.4853 4.17631 8.73431 2.58188 6.33115C3.6216 6.90119 4.74429 7.31786 5.91062 7.56081C9.95045 8.40244 14.0483 8.40272 18.0892 7.56081C19.2541 7.31814 20.3777 6.90138 21.418 6.3312C19.7815 8.79782 17.244 10.4991 14.2031 11.0724Z" fill="black"/>
</g>
<defs>
<clipPath id="clip0_1_184">
<rect width="24" height="24" fill="white"/>
</clipPath>
</defs>
</svg>
