<svg width="24" height="24" viewBox="0 0 24 24" fill="none" xmlns="http://www.w3.org/2000/svg">
<path d="M10.3933 15.0469H6.32636V5.57822H6.42678C7.25734 5.57822 7.93306 4.94738 7.93306 4.17198V0.703254C7.93306 0.275898 7.52762 -0.0525062 7.07503 0.00697773L6.4547 0.0884459C5.5557 0.206476 4.73257 0.623754 4.13699 1.26345C3.54141 1.9031 3.21339 2.72219 3.21339 3.56973V4.17193C3.21339 4.94733 3.88911 5.57817 4.71967 5.57817H4.82008V15.0468H0.753138C0.337205 15.0468 0 15.3617 0 15.75V21.8905C0 23.0536 1.01357 23.9999 2.25941 23.9999H8.88703C10.1329 23.9999 11.1464 23.0536 11.1464 21.8905V15.75C11.1464 15.3617 10.8092 15.0469 10.3933 15.0469ZM4.71967 3.56973C4.71967 2.6006 5.43836 1.75803 6.42678 1.52445V4.17193H4.71967V3.56973ZM1.50628 21.8906V16.4531H3.21339V22.5937H2.25941C1.84413 22.5937 1.50628 22.2783 1.50628 21.8906ZM4.71967 22.5937V16.4531H6.42678V22.5937H4.71967ZM9.64017 21.8906C9.64017 22.2783 9.30231 22.5937 8.88703 22.5937H7.93306V16.4531H9.64017V21.8906Z" fill="black"/>
<path d="M23.2488 8.297H22.3952V6.00014C22.3952 5.61183 22.058 5.29702 21.6421 5.29702H21.1902V4.07828H21.6421C22.058 4.07828 22.3952 3.76347 22.3952 3.37516C22.3952 2.98685 22.058 2.67204 21.6421 2.67204H21.1902V0.703303C21.1902 0.314993 20.853 0.000183105 20.4371 0.000183105H16.4203C16.0044 0.000183105 15.6672 0.314993 15.6672 0.703303V2.67204H15.2153C14.7994 2.67204 14.4622 2.98685 14.4622 3.37516C14.4622 3.76347 14.7994 4.07828 15.2153 4.07828H15.6672V5.29702H15.2153C14.7994 5.29702 14.4622 5.61183 14.4622 6.00014V8.297H13.6086C13.1927 8.297 12.8555 8.6118 12.8555 9.00011V23.2969C12.8555 23.6852 13.1927 24 13.6086 24H23.2488C23.6647 24 24.0019 23.6852 24.0019 23.2969V9.00011C24.0019 8.61176 23.6647 8.297 23.2488 8.297ZM17.1735 1.40642H19.6839V2.67204H17.1735V1.40642ZM17.1735 4.07828H19.6839V5.29702H17.1735V4.07828ZM15.9684 6.70326H20.8889V8.297H15.9684V6.70326ZM15.2153 9.70323H21.6421H22.4956V19.5469H14.3617V9.70323H15.2153ZM22.4956 22.5938H14.3617V20.9531H22.4956V22.5938Z" fill="black"/>
</svg>
