<svg width="24" height="24" viewBox="0 0 24 24" fill="none" xmlns="http://www.w3.org/2000/svg">
<g clip-path="url(#clip0_1_180)">
<path d="M10.5 15.7969H10.2804L9.67608 13.6818C9.58983 13.38 9.31392 13.1719 9 13.1719H8.95312V6.375C8.95312 5.98669 8.63831 5.67188 8.25 5.67188H8.20312V2.25C8.20312 1.96523 8.03137 1.70859 7.76813 1.59998L4.01813 0.0531093C3.80123 -0.036375 3.55397 -0.0117657 3.35897 0.118781C3.16392 0.249281 3.04688 0.468469 3.04688 0.703125V5.67188H3C2.61169 5.67188 2.29688 5.98669 2.29688 6.375V13.1719H2.25C1.93608 13.1719 1.66017 13.38 1.57392 13.6818L0.969656 15.7969H0.703125C0.314812 15.7969 0 16.1117 0 16.5V21.8906C0 23.0537 0.946266 24 2.10938 24H9.09375C10.2569 24 11.2031 23.0537 11.2031 21.8906V16.5C11.2031 16.1117 10.8883 15.7969 10.5 15.7969ZM4.45312 1.75378L6.79688 2.72058V5.67188H4.45312V1.75378ZM3.70312 7.07812H3.75H7.5H7.54688V13.1719H3.70312V7.07812ZM2.78039 14.5781H3H8.25H8.46966L8.81789 15.7969H2.43216L2.78039 14.5781ZM9.79688 21.8906C9.79688 22.2783 9.48145 22.5938 9.09375 22.5938H2.10938C1.72167 22.5938 1.40625 22.2783 1.40625 21.8906V17.2031H1.5H9.75H9.79688V21.8906Z" fill="black"/>
<path d="M21.8906 0H14.9062C13.7431 0 12.7969 0.946266 12.7969 2.10938V23.2969C12.7969 23.6852 13.1117 24 13.5 24H23.2969C23.6852 24 24 23.6852 24 23.2969V2.10938C24 0.946266 23.0537 0 21.8906 0ZM14.9062 1.40625H21.8906C22.2783 1.40625 22.5938 1.72167 22.5938 2.10938V16.1719H14.2031V2.10938C14.2031 1.72167 14.5185 1.40625 14.9062 1.40625ZM22.5938 19.1719H14.2031V17.5781H22.5938V19.1719ZM14.2031 22.5938V20.5781H22.5938V22.5938H14.2031Z" fill="black"/>
</g>
<defs>
<clipPath id="clip0_1_180">
<rect width="24" height="24" fill="white"/>
</clipPath>
</defs>
</svg>
