<svg width="24" height="24" viewBox="0 0 24 24" fill="none" xmlns="http://www.w3.org/2000/svg">
<path d="M12.0003 8.32031C11.519 8.32031 11.0485 8.46303 10.6484 8.73041C10.2482 8.99779 9.9363 9.37783 9.75213 9.82248C9.56795 10.2671 9.51976 10.7564 9.61365 11.2284C9.70754 11.7004 9.9393 12.134 10.2796 12.4743C10.6199 12.8147 11.0535 13.0464 11.5255 13.1403C11.9976 13.2342 12.4868 13.186 12.9315 13.0018C13.3761 12.8177 13.7562 12.5058 14.0235 12.1056C14.2909 11.7054 14.4336 11.235 14.4336 10.7537C14.433 10.1085 14.1764 9.48999 13.7202 9.0338C13.264 8.5776 12.6454 8.32101 12.0003 8.32031ZM12.0003 12.0621C11.7415 12.0621 11.4885 11.9853 11.2734 11.8416C11.0582 11.6978 10.8905 11.4935 10.7915 11.2544C10.6925 11.0153 10.6666 10.7522 10.717 10.4984C10.7675 10.2446 10.8921 10.0115 11.0751 9.82853C11.2581 9.64555 11.4912 9.52094 11.745 9.47045C11.9988 9.41997 12.2619 9.44588 12.501 9.54491C12.74 9.64393 12.9444 9.81163 13.0881 10.0268C13.2319 10.242 13.3086 10.4949 13.3086 10.7537C13.3082 11.1006 13.1703 11.4331 12.925 11.6784C12.6797 11.9237 12.3472 12.0617 12.0003 12.0621Z" fill="black"/>
<path d="M17.3846 5.04544V2.745C17.3846 2.59581 17.3253 2.45274 17.2198 2.34725C17.1144 2.24176 16.9713 2.1825 16.8221 2.1825H7.17822C7.02904 2.1825 6.88596 2.24176 6.78047 2.34725C6.67499 2.45274 6.61572 2.59581 6.61572 2.745V5.04544C6.61572 5.06081 6.61722 5.08856 6.61872 5.10319L7.85622 17.0882V20.6494C7.85657 20.9591 7.97975 21.256 8.19874 21.475C8.41773 21.694 8.71465 21.8172 9.02435 21.8175H14.9765C15.2862 21.8172 15.5831 21.694 15.8021 21.475C16.0211 21.256 16.1443 20.9591 16.1447 20.6494V17.0882L17.3822 5.10319C17.3831 5.08856 17.3846 5.06081 17.3846 5.04544ZM15.0189 18.8955L13.7083 18.9L13.6241 18.7472C13.5278 18.5725 13.3863 18.4268 13.2146 18.3254C13.0428 18.2239 12.8469 18.1704 12.6474 18.1704H11.3522C11.1527 18.1704 10.9568 18.2239 10.785 18.3254C10.6132 18.4268 10.4718 18.5725 10.3755 18.7472L10.3005 18.8951H8.98141V17.6213H15.0189V18.8955ZM15.0738 16.4955H8.92516L7.80185 5.60794H16.1985L15.0738 16.4955ZM7.74072 3.3075H16.2596V4.48294H7.74072V3.3075ZM14.9765 20.6925H9.02378C9.01236 20.6924 9.00142 20.6879 8.99335 20.6798C8.98527 20.6717 8.98071 20.6608 8.98066 20.6494V20.0201H10.2997C10.4992 20.0201 10.695 19.9667 10.8668 19.8653C11.0385 19.7639 11.18 19.6184 11.2764 19.4437L11.3514 19.2958L12.639 19.2907L12.7232 19.4437C12.8195 19.6184 12.961 19.7641 13.1327 19.8655C13.3045 19.9669 13.5004 20.0205 13.6998 20.0205H15.0189V20.6497C15.0188 20.661 15.0143 20.6717 15.0064 20.6797C14.9985 20.6877 14.9878 20.6923 14.9765 20.6925Z" fill="black"/>
</svg>
