<svg width="24" height="24" viewBox="0 0 24 24" fill="none" xmlns="http://www.w3.org/2000/svg">
<path d="M23.2969 9.04686H21.7031V3.74998C21.7031 3.36167 21.3883 3.04685 21 3.04685H17.25C16.8617 3.04685 16.5469 3.36167 16.5469 3.74998V9.04686H14.5781V6.14919L16.0175 2.91054C16.104 2.71592 16.0976 2.49246 16.0001 2.30309C14.418 -0.769336 9.58031 -0.766055 7.99988 2.30309C7.90233 2.49251 7.89595 2.71592 7.98248 2.91054L9.42188 6.14919V9.04686H7.45312V6.37498C7.45312 6.10526 7.30106 5.87126 7.07812 5.75333V3.74998C7.07812 3.42734 6.85852 3.14609 6.54553 3.06785L3.54553 2.31785C3.1013 2.20676 2.67188 2.54365 2.67188 2.99998V5.75333C2.44894 5.87126 2.29688 6.10522 2.29688 6.37498V9.04686H0.703125C0.314812 9.04686 0 9.36167 0 9.74999V20.4844C0 22.4229 1.57711 24 3.51562 24H20.4844C22.4229 24 24 22.4229 24 20.4844V9.74999C24 9.36167 23.6852 9.04686 23.2969 9.04686ZM20.2969 4.45311V5.29686H17.9531V4.45311H20.2969ZM17.9531 6.70311H20.2969V9.04686H17.9531V6.70311ZM14.5852 2.67082L13.4181 5.29686H10.5819L9.4148 2.67082C10.5696 0.982806 13.4321 0.985337 14.5852 2.67082ZM10.8281 6.70311H13.1719V9.04686H10.8281V6.70311ZM4.07812 3.90054L5.67188 4.29898V5.67186H4.07812V3.90054ZM3.70312 7.07811H6.04688V9.04686H3.70312V7.07811ZM22.5938 10.4531V12.0469H1.40625V10.4531H22.5938ZM20.4844 22.5937H3.51562C2.35252 22.5937 1.40625 21.6475 1.40625 20.4844V13.4531H22.5938V20.4844C22.5938 21.6475 21.6475 22.5937 20.4844 22.5937Z" fill="black"/>
<path d="M15 16.1719H9C8.61169 16.1719 8.29688 16.4867 8.29688 16.875V19.875C8.29688 20.2633 8.61169 20.5781 9 20.5781H15C15.3883 20.5781 15.7031 20.2633 15.7031 19.875V16.875C15.7031 16.4867 15.3883 16.1719 15 16.1719ZM14.2969 19.1719H9.70312V17.5781H14.2969V19.1719Z" fill="black"/>
</svg>
