<svg width="24" height="24" viewBox="0 0 24 24" fill="none" xmlns="http://www.w3.org/2000/svg">
<g clip-path="url(#clip0_9_139)">
<path d="M17.25 0C16.3452 0 15.4662 0.176484 14.6373 0.524531C14.4254 0.613547 14.2702 0.800625 14.2221 1.02548L13.231 5.64966L11.6903 7.19034C11.64 7.24064 11.5977 7.29825 11.5647 7.36125L9.55237 11.2029L0.685266 20.0259C0.24975 20.4592 0 21.06 0 21.6744C0 22.9568 1.04325 24 2.32556 24C2.93991 24 3.5408 23.7502 3.97406 23.3147L12.7971 14.4476L16.6388 12.4353C16.7017 12.4023 16.7594 12.36 16.8097 12.3097L18.3503 10.769L22.9745 9.77798C23.1994 9.7298 23.3865 9.57469 23.4755 9.36267C23.8235 8.53378 24 7.65478 24 6.75C24 3.02803 20.972 0 17.25 0ZM2.97727 22.3229C2.12283 23.1816 0.813328 21.8823 1.67714 21.0227L10.1238 12.6181L11.3819 13.8762L2.97727 22.3229ZM15.8912 11.2395L12.5067 13.0123L10.9877 11.4934L12.7606 8.10881L13.875 6.99436L17.0056 10.125L15.8912 11.2395ZM22.3067 8.48292L18.2267 9.35733L14.6427 5.77331L15.5171 1.69331C16.1406 1.47942 16.7967 1.38384 17.4695 1.41112L16.7528 2.12784C16.4782 2.40244 16.4782 2.84761 16.7528 3.1222C17.0273 3.3968 17.4726 3.39684 17.7472 3.1222L19.1237 1.74563C19.6207 1.93228 20.0826 2.19094 20.4968 2.50884L19.0028 4.00284C18.7282 4.27744 18.7282 4.72261 19.0028 4.9972C19.2773 5.2718 19.7226 5.27184 19.9972 4.9972L21.4912 3.5032C21.8091 3.91748 22.0677 4.37934 22.2544 4.87627L20.8778 6.25284C20.6032 6.52744 20.6032 6.97261 20.8778 7.2472C21.1523 7.5218 21.5976 7.52184 21.8722 7.2472L22.5889 6.53048C22.6161 7.20234 22.5209 7.85855 22.3067 8.48292Z" fill="black"/>
</g>
<defs>
<clipPath id="clip0_9_139">
<rect width="24" height="24" fill="white"/>
</clipPath>
</defs>
</svg>
