<svg width="24" height="24" viewBox="0 0 24 24" fill="none" xmlns="http://www.w3.org/2000/svg">
<g clip-path="url(#clip0_9_267)">
<path d="M23.6266 4.25411C23.2838 4.072 22.858 4.20232 22.6758 4.5452L22.3997 5.0649C22.039 5.74393 21.1243 5.8801 20.5811 5.33701L20.0466 4.80245C20.2443 4.07032 20.4059 3.40863 20.5353 2.84098C20.867 1.38524 19.7593 0.000137329 18.2673 0.000137329C17.1455 0.000137329 16.1838 0.799726 15.9807 1.90133C15.9177 2.24276 15.8398 2.6277 15.7449 3.04699H0.703121C0.314811 3.04699 0 3.3618 0 3.75012V4.50011C0 6.95555 1.99766 8.95321 4.4531 8.95321H10.4999C11.7315 8.95321 12.9573 8.4389 13.8326 7.45322H14.39C12.7252 11.6734 9.60454 16.6405 3.81668 19.167C2.89344 19.57 2.29686 20.4778 2.29686 21.4798C2.29686 22.8694 3.42739 24 4.81699 24C5.84804 24 6.87699 23.7671 7.79255 23.3266C14.3814 20.1567 17.9044 11.9543 19.604 6.34768C20.8225 7.54434 22.8445 7.22494 23.6416 5.72462L23.9177 5.20492C24.0999 4.86194 23.9696 4.43627 23.6266 4.25411ZM13.4999 6.04693C13.2787 6.04693 13.0704 6.15104 12.9376 6.32794C12.3709 7.08295 11.4733 7.54692 10.4999 7.54692H4.4531C2.8347 7.54692 1.40624 6.26002 1.40624 4.45319H15.3912C15.2516 4.95761 15.0901 5.49142 14.9032 6.04693H13.4999ZM17.3636 2.15633C17.5058 1.38538 18.4959 1.13737 18.9868 1.75278C19.1619 1.9723 19.2266 2.255 19.1642 2.52842C18.4087 5.84242 16.5204 12.4899 12.7339 17.3646L11.0207 15.6515C14.3826 11.9378 16.4887 6.90042 17.3636 2.15633ZM7.18289 22.0594C6.45634 22.4089 5.63823 22.5937 4.81694 22.5937C4.20279 22.5937 3.7031 22.094 3.7031 21.4798C3.7031 21.037 3.96851 20.635 4.37927 20.4557C6.48282 19.5375 8.37412 18.2683 10.0421 16.6615L11.8309 18.4503C10.4988 19.9428 8.95846 21.2052 7.18289 22.0594Z" fill="black"/>
</g>
<defs>
<clipPath id="clip0_9_267">
<rect width="24" height="24" fill="white"/>
</clipPath>
</defs>
</svg>
