<svg width="24" height="24" viewBox="0 0 24 24" fill="none" xmlns="http://www.w3.org/2000/svg">
<path d="M10.9688 0H4.03125C2.86814 0 1.92188 0.946266 1.92188 2.10938V23.2969C1.92188 23.6852 2.23669 24 2.625 24H12.375C12.7633 24 13.0781 23.6852 13.0781 23.2969V2.10938C13.0781 0.946266 12.1319 0 10.9688 0ZM4.03125 1.40625H10.9688C11.3565 1.40625 11.6719 1.72167 11.6719 2.10938V16.5469H3.32812V2.10938C3.32812 1.72167 3.64355 1.40625 4.03125 1.40625ZM11.6719 19.5469H3.32812V17.9531H11.6719V19.5469ZM3.32812 22.5938V20.9531H11.6719V22.5938H3.32812Z" fill="black"/>
<path d="M4.665 9.015C4.88035 9.33811 5.31699 9.42544 5.64005 9.21C6.76993 8.45677 8.23013 8.45672 9.36 9.21C9.47986 9.28992 9.61533 9.32817 9.7494 9.32817C9.9766 9.32817 10.1996 9.2182 10.3351 9.015C10.5505 8.69189 10.4632 8.25534 10.1401 8.03995C10.1247 8.02973 10.109 8.02022 10.0936 8.01019L10.3789 7.43944C10.5526 7.09209 10.4118 6.6698 10.0645 6.49608C9.71719 6.32241 9.29485 6.46322 9.12113 6.81052L8.81415 7.42453C8.61286 7.36645 8.40886 7.32159 8.20318 7.29075V6.75C8.20318 6.36169 7.88836 6.04688 7.50005 6.04688C7.11174 6.04688 6.79693 6.36169 6.79693 6.75V7.2908C6.59124 7.32164 6.38724 7.3665 6.18596 7.42458L5.87897 6.81056C5.7053 6.46322 5.28291 6.32241 4.93561 6.49612C4.58827 6.6698 4.4475 7.09214 4.62118 7.43948L4.90655 8.01023C4.89108 8.02027 4.87543 8.02973 4.86005 8.04C4.5369 8.25539 4.44957 8.69194 4.665 9.015Z" fill="black"/>
<path d="M9.375 10.9219H5.625C5.23669 10.9219 4.92188 11.2367 4.92188 11.625C4.92188 12.0133 5.23669 12.3281 5.625 12.3281H9.375C9.76331 12.3281 10.0781 12.0133 10.0781 11.625C10.0781 11.2367 9.76331 10.9219 9.375 10.9219Z" fill="black"/>
<path d="M21.375 13.5469H19.0781V7.82812H19.875C20.2633 7.82812 20.5781 7.51331 20.5781 7.125C20.5781 6.73669 20.2633 6.42188 19.875 6.42188H19.0781V5.20312H21C21.3883 5.20312 21.7031 4.88831 21.7031 4.5C21.7031 4.11169 21.3883 3.79688 21 3.79688H19.0781V2.57812H19.875C20.2633 2.57812 20.5781 2.26331 20.5781 1.875C20.5781 1.48669 20.2633 1.17188 19.875 1.17188H19.0781V0.703125C19.0781 0.314812 18.7633 0 18.375 0C17.9867 0 17.6719 0.314812 17.6719 0.703125V1.17188H16.875C16.4867 1.17188 16.1719 1.48669 16.1719 1.875C16.1719 2.26331 16.4867 2.57812 16.875 2.57812H17.6719V3.79688H15.75C15.3617 3.79688 15.0469 4.11169 15.0469 4.5C15.0469 4.88831 15.3617 5.20312 15.75 5.20312H17.6719V6.42188H16.875C16.4867 6.42188 16.1719 6.73669 16.1719 7.125C16.1719 7.51331 16.4867 7.82812 16.875 7.82812H17.6719V13.5469H15.375C14.9867 13.5469 14.6719 13.8617 14.6719 14.25V21.8906C14.6719 23.0537 15.6181 24 16.7812 24H19.9688C21.1319 24 22.0781 23.0537 22.0781 21.8906V14.25C22.0781 13.8617 21.7633 13.5469 21.375 13.5469ZM20.6719 14.9531V16.5469H16.0781V14.9531H20.6719ZM20.6719 19.5469H16.0781V17.9531H20.6719V19.5469ZM19.9688 22.5938H16.7812C16.3935 22.5938 16.0781 22.2783 16.0781 21.8906V20.9531H20.6719V21.8906C20.6719 22.2783 20.3565 22.5938 19.9688 22.5938Z" fill="black"/>
</svg>
