<svg width="24" height="24" viewBox="0 0 24 24" fill="none" xmlns="http://www.w3.org/2000/svg">
<path d="M4.875 17.2969H3.375C2.98669 17.2969 2.67188 17.6117 2.67188 18C2.67188 18.3883 2.98669 18.7031 3.375 18.7031H4.875C5.26331 18.7031 5.57812 18.3883 5.57812 18C5.57812 17.6117 5.26331 17.2969 4.875 17.2969Z" fill="black"/>
<path d="M23.2969 12.7969H21.1875C20.292 12.7969 19.447 13.0166 18.7031 13.4046V11.1562C18.7031 9.99314 17.7569 9.04688 16.5938 9.04688H16.4531V7.45312H16.875C17.2633 7.45312 17.5781 7.13831 17.5781 6.75V3.75C17.5781 3.36169 17.2633 3.04688 16.875 3.04688H1.875C1.48669 3.04688 1.17188 3.36169 1.17188 3.75V6.75C1.17188 7.13831 1.48669 7.45312 1.875 7.45312H2.29688V9.04688H2.10938C0.946266 9.04688 0 9.99314 0 11.1562V18.8438C0 20.0069 0.946266 20.9531 2.10938 20.9531H18.6094C21.5818 20.9531 24 18.5349 24 15.5625V13.5C24 13.1117 23.6852 12.7969 23.2969 12.7969ZM1.40625 13.0781H17.2969V14.2969H1.40625V13.0781ZM2.57812 4.45312H16.1719V6.04688H2.57812V4.45312ZM3.70312 7.45312H15.0469V9.04688H3.70312V7.45312ZM2.10938 10.4531H16.5938C16.9815 10.4531 17.2969 10.7685 17.2969 11.1562V11.6719H1.40625V11.1562C1.40625 10.7685 1.72167 10.4531 2.10938 10.4531ZM1.40625 18.8438V15.7031H16.4046C16.0166 16.447 15.7969 17.292 15.7969 18.1875V19.5469H2.10938C1.72167 19.5469 1.40625 19.2315 1.40625 18.8438ZM22.5938 15.5625C22.5938 17.7595 20.8064 19.5469 18.6094 19.5469H18.1975L19.6339 18.1104C19.9085 17.8359 19.9085 17.3907 19.6339 17.1161C19.3594 16.8415 18.9142 16.8415 18.6396 17.1161L17.2031 18.5525V18.1875C17.2031 15.9905 18.9905 14.2031 21.1875 14.2031H22.5938V15.5625Z" fill="black"/>
</svg>
