<svg width="15" height="23" viewBox="0 0 15 23" fill="none" xmlns="http://www.w3.org/2000/svg">
<path d="M4.17963 20.14C5.04119 20.14 5.73963 19.4416 5.73963 18.58C5.73963 17.7185 5.04119 17.02 4.17963 17.02C3.31806 17.02 2.61963 17.7185 2.61963 18.58C2.61963 19.4416 3.31806 20.14 4.17963 20.14Z" stroke="black" stroke-linecap="round" stroke-linejoin="round"/>
<path d="M7.23943 18.58C7.25128 19.202 7.0769 19.8134 6.73869 20.3356C6.40047 20.8578 5.91386 21.2669 5.34137 21.5104C4.76888 21.754 4.13666 21.8208 3.5259 21.7024C2.91514 21.5839 2.35374 21.2855 1.91382 20.8456C1.4739 20.4057 1.17555 19.8443 1.05709 19.2335C0.938621 18.6228 1.00545 17.9906 1.249 17.4181C1.49255 16.8456 1.90168 16.359 2.42386 16.0208C2.94604 15.6825 3.5574 15.5082 4.17943 15.52C4.55344 15.5125 4.92379 15.5948 5.25943 15.76C5.72362 15.9045 6.13888 16.1745 6.45943 16.54C6.96151 17.1009 7.23922 17.8272 7.23943 18.58Z" stroke="black" stroke-linecap="round" stroke-linejoin="round"/>
<path d="M11.1396 20.14C12.0012 20.14 12.6996 19.4416 12.6996 18.58C12.6996 17.7184 12.0012 17.02 11.1396 17.02C10.278 17.02 9.57959 17.7184 9.57959 18.58C9.57959 19.4416 10.278 20.14 11.1396 20.14Z" stroke="black" stroke-linecap="round" stroke-linejoin="round"/>
<path d="M11.1396 21.64C12.8296 21.64 14.1996 20.27 14.1996 18.58C14.1996 16.89 12.8296 15.52 11.1396 15.52C9.4496 15.52 8.07959 16.89 8.07959 18.58C8.07959 20.27 9.4496 21.64 11.1396 21.64Z" stroke="black" stroke-linecap="round" stroke-linejoin="round"/>
<path d="M11.2593 3.45999C11.2482 3.68428 11.2078 3.90616 11.1393 4.12L8.61928 10.78L7.65928 13.42L6.45928 16.54C6.13873 16.1745 5.72347 15.9045 5.25928 15.76L6.63928 10.78L7.65928 7.24L9.39927 1C9.93797 1.14615 10.4129 1.46701 10.7495 1.91224C11.0862 2.35747 11.2655 2.90186 11.2593 3.45999Z" stroke="black" stroke-linecap="round" stroke-linejoin="round"/>
<path d="M8.85967 16.54L7.65967 13.36" stroke="black" stroke-linecap="round" stroke-linejoin="round"/>
<path d="M6.63961 10.78L4.11961 4.12C4.01067 3.79713 3.97173 3.45475 4.00539 3.11566C4.03904 2.77657 4.14453 2.44854 4.31481 2.15338C4.48509 1.85822 4.71627 1.60271 4.99298 1.40384C5.26968 1.20497 5.58557 1.06731 5.91961 1L7.65961 7.24" stroke="black" stroke-linecap="round" stroke-linejoin="round"/>
<path d="M9.99963 15.76L8.61963 10.78" stroke="black" stroke-linecap="round" stroke-linejoin="round"/>
</svg>
