<svg width="24" height="24" viewBox="0 0 24 24" fill="none" xmlns="http://www.w3.org/2000/svg">
<g clip-path="url(#clip0_9_237)">
<path d="M16.3466 3.51211L16.3972 2.19005C16.4429 0.995391 15.4893 0 14.2893 0H9.71158C8.51608 0 7.55782 0.990938 7.60375 2.19005L7.65433 3.51173C6.3933 4.54078 5.67236 6.05555 5.67236 7.6875V23.2969C5.67236 23.6852 5.98718 24 6.37549 24H17.6255C18.0138 24 18.3286 23.6852 18.3286 23.2969V7.6875C18.3286 6.06469 17.5941 4.53164 16.3466 3.51211ZM14.992 2.13628L14.9585 3.00919C14.1014 2.85464 13.4144 2.23153 13.1726 1.40625H14.2893C14.6887 1.40625 15.0072 1.73733 14.992 2.13628ZM9.71158 1.40625H11.7304C12.0084 2.96592 13.276 4.21631 14.9044 4.42252L14.8019 7.10063C14.7773 7.7453 14.5389 8.32997 14.1568 8.78911C13.7899 6.49153 11.3796 5.0588 9.15405 5.92627L9.00897 2.13633C8.99369 1.73728 9.3123 1.40625 9.71158 1.40625ZM12.7754 9.68873C11.1537 10.1503 9.50796 9.105 9.23585 7.45697C9.61033 7.20858 10.0436 7.07812 10.5005 7.07812C11.8765 7.07812 12.9654 8.29214 12.7754 9.68873ZM16.9224 22.5938H7.07861V7.6875C7.07861 6.89541 7.30872 6.14072 7.73046 5.50036L7.79374 7.15434C7.88032 9.41522 9.73615 11.2031 12.0005 11.2031C14.2631 11.2031 16.1206 9.41691 16.2072 7.15434L16.2703 5.50533C16.6895 6.14592 16.9223 6.90248 16.9223 7.6875V22.5938H16.9224Z" fill="black"/>
<path d="M14.3482 12.8537C12.856 13.4933 11.1444 13.4933 9.65215 12.8537C9.29524 12.7007 8.88185 12.8662 8.7289 13.223C8.57595 13.5799 8.74127 13.9933 9.09818 14.1463C10.9425 14.9367 13.0579 14.9367 14.9021 14.1463C15.2591 13.9933 15.4244 13.5799 15.2714 13.223C15.1185 12.8662 14.7052 12.7008 14.3482 12.8537Z" fill="black"/>
<path d="M14.3482 16.2287C12.856 16.8683 11.1444 16.8683 9.65215 16.2287C9.29524 16.0757 8.88185 16.2412 8.7289 16.598C8.57595 16.9549 8.74127 17.3683 9.09818 17.5213C10.9425 18.3117 13.0579 18.3117 14.9021 17.5213C15.2591 17.3683 15.4244 16.9549 15.2714 16.598C15.1185 16.2412 14.7052 16.0758 14.3482 16.2287Z" fill="black"/>
<path d="M10.8762 4.45312C11.2645 4.45312 11.5793 4.13831 11.5793 3.75C11.5793 3.36169 11.2645 3.04688 10.8762 3.04688C10.4834 3.04688 10.1729 3.36548 10.1729 3.75C10.1729 4.13831 10.4879 4.45312 10.8762 4.45312Z" fill="black"/>
<path d="M23.6037 3.11728C22.7578 2.70666 22.158 1.98356 21.889 1.16011L21.6685 0.484875C21.5741 0.195656 21.3044 0 21.0001 0C20.6959 0 20.4262 0.195703 20.3317 0.484875L20.1023 1.18753C19.8294 2.02317 19.222 2.72794 18.4357 3.12112C17.9253 3.37631 17.9049 4.11352 18.4486 4.38534C19.2396 4.78088 19.8292 5.46066 20.1088 6.29962L20.3331 6.97237C20.4288 7.25948 20.6975 7.45317 21.0001 7.45317C21.3027 7.45317 21.5714 7.25948 21.6671 6.97237L21.8823 6.32691C22.1565 5.50397 22.7544 4.79527 23.6042 4.38248C24.1304 4.12687 24.1324 3.3735 23.6037 3.11728ZM21.0058 4.90477C20.7416 4.46602 20.4085 4.07527 20.0174 3.74541C20.4063 3.41208 20.7403 3.01655 21.0038 2.57719C21.2726 3.01903 21.6129 3.41531 22.0087 3.74784C21.6148 4.07644 21.2752 4.46803 21.0058 4.90477Z" fill="black"/>
<path d="M3.92439 6.67969C3.48161 6.23691 3.14195 5.70108 2.91737 5.02758C2.82165 4.74047 2.55297 4.54683 2.25034 4.54688C1.94772 4.54692 1.67903 4.74056 1.58336 5.02767C1.37397 5.65589 1.01073 6.23039 0.532982 6.68902L0.216576 6.99277C-0.0715176 7.26928 -0.0715645 7.73058 0.216576 8.00719L0.532982 8.31098C1.01069 8.76956 1.37392 9.34406 1.58331 9.97228C1.67903 10.2594 1.94767 10.453 2.25029 10.4531C2.55358 10.4531 2.82184 10.2589 2.91733 9.97237C3.2665 8.92631 3.78259 8.46206 4.2475 7.99716C4.52195 7.72266 4.52205 7.2773 4.2475 7.0027L3.92439 6.67969ZM2.24204 8.16647C2.08154 7.93106 1.90295 7.70798 1.7079 7.5C1.90295 7.29202 2.08154 7.06894 2.24204 6.83353C2.39856 7.06861 2.57308 7.29173 2.76353 7.5C2.57303 7.70822 2.39861 7.93134 2.24204 8.16647Z" fill="black"/>
</g>
<defs>
<clipPath id="clip0_9_237">
<rect width="24" height="24" fill="white"/>
</clipPath>
</defs>
</svg>
