<svg width="24" height="24" viewBox="0 0 24 24" fill="none" xmlns="http://www.w3.org/2000/svg">
<g clip-path="url(#clip0_9_259)">
<path d="M22.2084 1.74792L18.4809 1.17989C18.056 1.11487 17.6719 1.44455 17.6719 1.875V1.92188H15.75C15.3617 1.92188 15.0469 2.23669 15.0469 2.625V4.54688H11.2031V4.5C11.2031 4.1895 10.9995 3.91575 10.702 3.82655L9.47695 3.45905L9.51131 3.04519C9.64748 1.40728 8.35186 0 6.70875 0H4.54125C2.898 0 1.60252 1.40747 1.73864 3.04495L1.78144 3.5617C0.658406 4.40025 0 5.70225 0 7.125V23.2969C0 23.6852 0.314812 24 0.703125 24H10.5C10.8883 24 11.2031 23.6852 11.2031 23.2969V7.125C11.2031 6.85181 11.1782 6.5798 11.129 6.31331C11.1941 6.18272 11.2031 6.08025 11.2031 5.95312H15.0469V7.875C15.0469 8.26331 15.3617 8.57812 15.75 8.57812H17.6719V8.625C17.6719 9.0128 17.9865 9.32812 18.375 9.32812C18.4509 9.32812 18.1158 9.37575 22.2084 8.75208C23.2465 8.59392 24 7.71694 24 6.6668V3.8332C24 2.78306 23.2465 1.90608 22.2084 1.74792ZM9.79688 5.47683L7.45312 6.17995V4.32005L9.79688 5.02317V5.47683ZM4.54125 1.40625H6.70875C7.52714 1.40625 8.17852 2.10366 8.10989 2.9287L8.10014 3.04598L6.95203 2.70155C6.50161 2.56631 6.04688 2.90409 6.04688 3.375V7.125C6.04688 7.59544 6.50114 7.93388 6.95203 7.79845L7.65919 7.5863C7.36823 8.43638 6.55608 9.04688 5.625 9.04688C4.51608 9.04688 3.57548 8.18105 3.4837 7.07583L3.14006 2.92861C3.07228 2.11313 3.71334 1.40625 4.54125 1.40625ZM9.79688 22.5938H1.40625V7.125C1.40625 6.49659 1.59431 5.90269 1.9343 5.40609L2.08228 7.19213C2.23528 9.03384 3.77414 10.4531 5.625 10.4531C7.40442 10.4531 9.00736 9.12609 9.17269 7.13227L9.79163 6.94659L9.79688 22.5938ZM16.4531 7.17188V3.32812H17.6719V7.17188H16.4531ZM22.5938 6.6668C22.5938 7.01686 22.3426 7.30917 21.9965 7.36191L19.0781 7.80661V2.69339L21.9966 3.13809C22.3426 3.19083 22.5938 3.48314 22.5938 3.8332V6.6668Z" fill="black"/>
<path d="M20.2032 16.2253V13.875C20.2032 13.4869 19.8882 13.1719 19.5001 13.1719H15.7501C15.362 13.1719 15.047 13.4869 15.047 13.875V16.2253C13.749 16.5042 12.9179 17.8083 13.2414 19.1166L14.0532 22.3973C14.2867 23.3409 15.1286 24 16.1007 24H19.1495C20.1217 24 20.9636 23.3409 21.197 22.3973L22.0089 19.1166C22.3323 17.8083 21.5012 16.5042 20.2032 16.2253ZM16.4532 14.5781H18.797V16.1719H16.4532V14.5781ZM20.6439 18.7791L19.832 22.0594C19.7542 22.3739 19.4734 22.5938 19.1495 22.5938H16.1007C15.7768 22.5938 15.4961 22.3739 15.4182 22.0594L14.6064 18.7791C14.4559 18.1687 14.919 17.5781 15.5462 17.5781H19.704C20.3312 17.5781 20.7943 18.1687 20.6439 18.7791Z" fill="black"/>
</g>
<defs>
<clipPath id="clip0_9_259">
<rect width="24" height="24" fill="white"/>
</clipPath>
</defs>
</svg>
