<svg width="24" height="24" viewBox="0 0 24 24" fill="none" xmlns="http://www.w3.org/2000/svg">
<path d="M9.44266 21.0197H14.5556C14.9618 21.0208 15.3553 20.878 15.6661 20.6164C15.9769 20.3549 16.185 19.9917 16.2534 19.5913C16.8508 16.1062 17.1056 12.7009 17.1056 8.205V4.467C17.1049 4.07292 16.948 3.69519 16.6693 3.41666C16.3905 3.13813 16.0126 2.98154 15.6185 2.98125H8.38103C7.98689 2.98169 7.60903 3.13848 7.33034 3.41719C7.05166 3.69591 6.89493 4.07379 6.89453 4.46793V8.205C6.89453 12.9889 7.11747 15.9694 7.74634 19.5949C7.8155 19.9943 8.02372 20.3565 8.33415 20.6172C8.64459 20.878 9.03724 21.0205 9.44266 21.0197ZM15.1443 19.4012C15.1204 19.5398 15.0482 19.6654 14.9404 19.7558C14.8326 19.8461 14.6962 19.8954 14.5556 19.8947H9.44266C9.30229 19.8953 9.16624 19.8462 9.05859 19.7561C8.95094 19.666 8.87864 19.5408 8.85447 19.4025C8.26272 15.9922 8.03791 13.1526 8.02066 8.7675H15.9787C15.9588 12.966 15.7132 16.0839 15.1443 19.4012ZM15.9806 7.6425H8.01897V6.01612H10.0104C10.0427 6.01616 10.0742 6.02618 10.1007 6.04481C10.1271 6.06343 10.1471 6.08976 10.158 6.12018L10.1942 6.222C10.2831 6.47106 10.4469 6.68658 10.663 6.83908C10.8791 6.99157 11.137 7.07362 11.4015 7.074H12.5981C12.8626 7.07362 13.1205 6.99157 13.3366 6.83908C13.5527 6.68658 13.7164 6.47106 13.8054 6.222L13.8416 6.12018C13.8525 6.08976 13.8725 6.06343 13.8989 6.04481C13.9253 6.02618 13.9568 6.01616 13.9892 6.01612H15.9806V7.6425ZM8.38103 4.10625H15.6185C15.7144 4.1064 15.8063 4.14456 15.8741 4.21236C15.9418 4.28016 15.9799 4.37207 15.98 4.46793V4.89206H13.9892C13.7247 4.89245 13.4668 4.97448 13.2507 5.12694C13.0346 5.2794 12.8709 5.49485 12.7818 5.74387L12.7457 5.84568C12.7348 5.87612 12.7147 5.90245 12.6883 5.92111C12.6619 5.93976 12.6304 5.94983 12.5981 5.94993H11.4015C11.3691 5.94983 11.3376 5.93976 11.3112 5.92111C11.2848 5.90245 11.2648 5.87612 11.2539 5.84568L11.2177 5.74387C11.1287 5.49485 10.9649 5.2794 10.7488 5.12694C10.5328 4.97448 10.2749 4.89245 10.0104 4.89206H8.01897V4.467C8.01932 4.3712 8.05762 4.27944 8.12548 4.21183C8.19334 4.14421 8.28523 4.10625 8.38103 4.10625Z" fill="black"/>
<path d="M11.9998 11.6974C11.479 11.6974 10.9698 11.8518 10.5367 12.1412C10.1036 12.4306 9.76602 12.8419 9.56669 13.3232C9.36735 13.8044 9.3152 14.3339 9.41682 14.8448C9.51844 15.3557 9.76926 15.8249 10.1376 16.1933C10.5059 16.5616 10.9752 16.8124 11.486 16.914C11.9969 17.0156 12.5264 16.9635 13.0077 16.7641C13.4889 16.5648 13.9002 16.2273 14.1896 15.7942C14.479 15.3611 14.6335 14.8519 14.6335 14.331C14.6327 13.6328 14.3549 12.9633 13.8612 12.4696C13.3675 11.9759 12.6981 11.6982 11.9998 11.6974ZM11.9998 15.8396C11.7015 15.8396 11.4098 15.7511 11.1617 15.5854C10.9136 15.4196 10.7202 15.184 10.606 14.9083C10.4919 14.6327 10.462 14.3293 10.5202 14.0367C10.5784 13.744 10.7221 13.4752 10.9331 13.2642C11.1441 13.0533 11.4129 12.9096 11.7055 12.8514C11.9982 12.7931 12.3015 12.823 12.5772 12.9372C12.8528 13.0514 13.0884 13.2448 13.2542 13.4929C13.42 13.7409 13.5085 14.0326 13.5085 14.331C13.508 14.731 13.3489 15.1144 13.0661 15.3973C12.7833 15.6801 12.3998 15.8392 11.9998 15.8396Z" fill="black"/>
</svg>
