<svg width="24" height="24" viewBox="0 0 24 24" fill="none" xmlns="http://www.w3.org/2000/svg">
<path d="M23.7913 4.59292L19.4087 0.206121C19.1341 -0.068707 18.6889 -0.068707 18.4143 0.206121C18.1397 0.480949 18.1397 0.92659 18.4143 1.20142L19.0394 1.82711L16.0128 4.85654L14.0062 2.84804C13.7316 2.57321 13.2864 2.57321 13.0118 2.84804C12.7372 3.12287 12.7372 3.56851 13.0118 3.84334L13.7847 4.61701L4.91585 13.4943C4.74401 13.6662 4.67309 13.9148 4.72826 14.1517L5.06374 15.5924L4.66643 15.9901C3.9198 16.7374 3.77937 17.8652 4.24498 18.7558L0.205945 22.7986C-0.0686484 23.0734 -0.0686484 23.5191 0.205945 23.7939C0.480492 24.0687 0.925711 24.0687 1.2003 23.7939L5.23934 19.7511C6.14327 20.2221 7.26129 20.0697 8.00248 19.3292L8.39402 18.9374L9.84237 19.2681C10.0781 19.322 10.3249 19.2508 10.4959 19.0796L19.3649 10.2024L20.1379 10.9761C20.4124 11.2509 20.8576 11.2509 21.1322 10.9761C21.4068 10.7013 21.4068 10.2557 21.1322 9.98082L19.1256 7.97228L22.1522 4.94279L22.797 5.58826C23.0716 5.86309 23.5168 5.86309 23.7914 5.58826C24.0659 5.31339 24.0659 4.86775 23.7913 4.59292ZM14.7791 5.61231L16.0729 6.90728L14.2787 8.70315L12.985 7.40818L14.7791 5.61231ZM7.00812 18.3339C6.63663 18.7056 6.03227 18.7057 5.66084 18.3339C5.2894 17.9621 5.2894 17.3571 5.66084 16.9854L5.83568 16.8104L7.17879 18.1631L7.00812 18.3339ZM9.77632 17.8093L8.52663 17.5239L6.47665 15.4592L6.18649 14.2131L6.57415 13.825L6.90073 14.1519C7.17532 14.4267 7.62049 14.4267 7.89509 14.1519C8.16968 13.8771 8.16968 13.4314 7.89509 13.1566L7.56851 12.8297L8.21491 12.1827L8.54149 12.5096C8.81609 12.7845 9.26126 12.7844 9.53585 12.5096C9.8104 12.2347 9.8104 11.7891 9.53585 11.5143L9.20927 11.1874L9.94821 10.4478L10.2748 10.7747C10.5494 11.0495 10.9946 11.0495 11.2691 10.7747C11.5437 10.4998 11.5437 10.0542 11.2691 9.77936L10.9426 9.4525L11.9906 8.40343L15.582 11.9981L9.77632 17.8093ZM16.5763 11.0029L15.273 9.69845L17.0673 7.90257L18.3705 9.20706L16.5763 11.0029ZM18.1312 6.97693L17.0072 5.85189L20.0338 2.82245L21.1578 3.9475L18.1312 6.97693Z" fill="black"/>
</svg>
