<svg width="24" height="24" viewBox="0 0 24 24" fill="none" xmlns="http://www.w3.org/2000/svg">
<g clip-path="url(#clip0_9_156)">
<path d="M9.84375 9.79688H9.70312V7.5C9.70312 7.11169 9.38831 6.79688 9 6.79688H3.75C3.36169 6.79688 3.04688 7.11169 3.04688 7.5V9.79688H2.90625C1.74314 9.79688 0.796875 10.7431 0.796875 11.9062V21.8906C0.796875 23.0537 1.74314 24 2.90625 24H9.84375C11.0069 24 11.9531 23.0537 11.9531 21.8906V11.9062C11.9531 10.7431 11.0069 9.79688 9.84375 9.79688ZM2.20312 16.4531H4.28761C4.5818 17.3241 5.40605 17.9531 6.375 17.9531C7.34395 17.9531 8.1682 17.3241 8.46239 16.4531H10.5469V19.5469H2.20312V16.4531ZM6.375 14.5153C6.82247 15.0254 7.16906 15.547 7.17188 15.7501C7.17183 16.1895 6.81436 16.5469 6.375 16.5469C5.93559 16.5469 5.57812 16.1894 5.57812 15.7501C5.58094 15.547 5.92758 15.0253 6.375 14.5153ZM4.45312 8.20312H8.29688V9.79688H4.45312V8.20312ZM2.90625 11.2031H9.84375C10.2315 11.2031 10.5469 11.5185 10.5469 11.9062V15.0469H8.41758C8.05425 14.1733 7.17534 13.2898 6.85866 12.9896C6.58744 12.7327 6.16252 12.7327 5.8913 12.9896C5.57466 13.2897 4.6957 14.1732 4.33238 15.0469H2.20312V11.9062C2.20312 11.5185 2.51855 11.2031 2.90625 11.2031ZM9.84375 22.5938H2.90625C2.51855 22.5938 2.20312 22.2783 2.20312 21.8906V20.9531H10.5469V21.8906C10.5469 22.2783 10.2315 22.5938 9.84375 22.5938Z" fill="black"/>
<path d="M22.5 6.04688H22.0593C21.5862 5.48325 21.3281 4.77858 21.3281 4.03402V2.95312C21.3281 1.32478 20.0033 0 18.375 0C16.7467 0 15.4219 1.32478 15.4219 2.95312V4.03402C15.4219 4.77863 15.1638 5.48325 14.6907 6.04688H14.25C13.8617 6.04688 13.5469 6.36169 13.5469 6.75V10.5C13.5469 10.8883 13.8617 11.2031 14.25 11.2031H16.1719V20.25C16.1719 21.219 16.8009 22.0432 17.6719 22.3374V23.2969C17.6719 23.6852 17.9867 24 18.375 24C18.7633 24 19.0781 23.6852 19.0781 23.2969V22.3374C19.9491 22.0432 20.5781 21.219 20.5781 20.25V11.2031H22.5C22.8883 11.2031 23.2031 10.8883 23.2031 10.5V6.75C23.2031 6.36169 22.8883 6.04688 22.5 6.04688ZM16.8281 4.03402V2.95312C16.8281 2.10019 17.5221 1.40625 18.375 1.40625C19.2279 1.40625 19.9219 2.10019 19.9219 2.95312V4.03402C19.9219 4.74384 20.0835 5.42883 20.3894 6.04688H16.3606C16.6665 5.42878 16.8281 4.7438 16.8281 4.03402ZM19.1719 20.25C19.1719 20.6894 18.8144 21.0469 18.375 21.0469C17.9356 21.0469 17.5781 20.6894 17.5781 20.25V11.2031H19.1719V20.25ZM21.7969 9.79688H14.9531V7.45312H21.7969V9.79688Z" fill="black"/>
</g>
<defs>
<clipPath id="clip0_9_156">
<rect width="24" height="24" fill="white"/>
</clipPath>
</defs>
</svg>
