<svg width="24" height="24" viewBox="0 0 24 24" fill="none" xmlns="http://www.w3.org/2000/svg">
<path d="M16.2192 8.2969H14.5785V6.00003C14.5785 5.61172 14.2637 5.29691 13.8754 5.29691H13.4535V0.703167C13.4535 0.314855 13.1387 4.29153e-05 12.7504 4.29153e-05H7.50046C7.11215 4.29153e-05 6.79734 0.314855 6.79734 0.703167V5.29691H6.37546C5.98715 5.29691 5.67234 5.61172 5.67234 6.00003V8.2969H4.03173C2.86862 8.2969 1.92236 9.24317 1.92236 10.4063V21.8906C1.92236 23.0537 2.86862 24 4.03173 24H16.2192C17.3823 24 18.3285 23.0538 18.3285 21.8906V10.4063C18.3285 9.24317 17.3823 8.2969 16.2192 8.2969ZM3.3286 12.7031H8.36572C8.94589 12.7031 9.51316 12.8124 10.0518 13.0278C10.7572 13.3101 11.5002 13.4531 12.2601 13.4531H16.9222V18.1406C16.9222 18.916 16.2914 19.5469 15.516 19.5469H4.7348C3.9594 19.5469 3.32856 18.916 3.32856 18.1406L3.3286 12.7031ZM16.9223 10.4063V12.0469H12.2602C11.7705 12.0469 11.2903 11.9681 10.8286 11.8144V9.70315H16.2192C16.6069 9.70315 16.9223 10.0186 16.9223 10.4063ZM8.20358 1.40629H12.0473V2.67191H11.2504C10.8621 2.67191 10.5473 2.98673 10.5473 3.37504C10.5473 3.76335 10.8621 4.07816 11.2504 4.07816H12.0473V5.29691H8.20358V1.40629ZM7.07858 6.70316H13.1723V8.2969H7.07858V6.70316ZM4.03173 9.70315H9.42232V11.3915C9.07526 11.3289 8.72239 11.2969 8.36572 11.2969H3.3286V10.4063C3.3286 10.0186 3.64402 9.70315 4.03173 9.70315ZM16.2192 22.5938H4.03173C3.64402 22.5938 3.3286 22.2783 3.3286 21.8906V20.5748C3.74265 20.8149 4.22274 20.9531 4.73485 20.9531H15.516C16.0281 20.9531 16.5082 20.8149 16.9223 20.5748V21.8906C16.9223 22.2784 16.6069 22.5938 16.2192 22.5938Z" fill="black"/>
<path d="M17.2815 2.0738L18.4065 1.27692C18.7234 1.05248 18.7983 0.613639 18.5738 0.296763C18.3493 -0.0201602 17.9104 -0.0950198 17.5937 0.129419L16.4687 0.926297C16.1517 1.15074 16.0768 1.58958 16.3013 1.90646C16.525 2.22235 16.9638 2.29894 17.2815 2.0738Z" fill="black"/>
<path d="M18.3901 5.41505L17.2651 4.66504C16.942 4.4496 16.5054 4.53689 16.2901 4.86004C16.0746 5.18315 16.1619 5.6197 16.4851 5.83509L17.6101 6.5851C17.9327 6.80016 18.3693 6.71382 18.5851 6.3901C18.8005 6.06699 18.7132 5.63039 18.3901 5.41505Z" fill="black"/>
<path d="M20.2031 3.37505C20.2031 2.98673 19.8883 2.67192 19.5 2.67192H18.375C17.9867 2.67192 17.6719 2.98673 17.6719 3.37505C17.6719 3.76336 17.9867 4.07818 18.375 4.07818H19.5C19.8883 4.07818 20.2031 3.76336 20.2031 3.37505Z" fill="black"/>
<path d="M23.7838 15.9928L23.4673 15.689C22.9896 15.2305 22.6264 14.656 22.417 14.0277C22.3213 13.7406 22.0526 13.5469 21.7499 13.5469C21.4472 13.547 21.1785 13.7407 21.0829 14.0279C20.7341 15.0733 20.2183 15.5374 19.7528 16.0029C19.4782 16.2775 19.4782 16.7227 19.7528 16.9973C20.2099 17.4544 20.7332 17.9223 21.0829 18.9723C21.1785 19.2595 21.4472 19.4532 21.7499 19.4533C22.0521 19.4533 22.3211 19.2601 22.417 18.9725C22.6264 18.3442 22.9896 17.7697 23.4674 17.3111L23.7838 17.0074C24.0718 16.7308 24.0719 16.2694 23.7838 15.9928ZM21.7583 17.1665C21.6017 16.9314 21.4272 16.7083 21.2367 16.5C21.4272 16.2919 21.6017 16.0686 21.7583 15.8335C21.9188 16.069 22.0973 16.292 22.2924 16.5C22.0973 16.7081 21.9188 16.9311 21.7583 17.1665Z" fill="black"/>
<path d="M2.62526 6.7032C2.91279 6.7032 3.17131 6.52816 3.27809 6.26121L3.53506 5.61869C3.79822 4.96084 4.24526 4.39005 4.89026 3.96006C5.3067 3.68251 5.30806 3.06845 4.89026 2.79001C4.25858 2.36888 3.80215 1.78491 3.5405 1.11436L3.28029 0.44756C3.17497 0.1777 2.91495 4.29153e-05 2.62526 4.29153e-05C2.33562 4.29153e-05 2.07556 0.1777 1.97023 0.44756L1.72606 1.07334C1.44959 1.78177 0.964904 2.37291 0.324357 2.78288C-0.0857525 3.04534 -0.135768 3.67154 0.341138 3.97811C0.972497 4.38212 1.45334 4.96352 1.73173 5.65952L1.97239 6.26121C2.07922 6.52816 2.33773 6.7032 2.62526 6.7032ZM1.84081 3.37253C2.14029 3.08677 2.40176 2.76549 2.62081 2.41407C2.83465 2.76446 3.09054 3.08588 3.38393 3.37262C3.09134 3.65607 2.83536 3.97393 2.62086 4.32044C2.40106 3.97276 2.1395 3.65495 1.84081 3.37253Z" fill="black"/>
</svg>
