<svg width="24" height="24" viewBox="0 0 24 24" fill="none" xmlns="http://www.w3.org/2000/svg">
<path d="M11.7032 19.71H6.48326L6.00325 10.41C5.94325 9.44999 6.72326 8.66998 7.62326 8.66998H10.5633C11.5233 8.66998 12.2433 9.44999 12.1833 10.41L11.7032 19.71Z" stroke="black" stroke-width="1.3" stroke-miterlimit="10" stroke-linecap="round" stroke-linejoin="round"/>
<path d="M10.8033 6.32999H7.3833V8.72999H10.8033V6.32999Z" stroke="black" stroke-width="1.3" stroke-miterlimit="10" stroke-linecap="round" stroke-linejoin="round"/>
<path d="M10.2034 17.19H8.10342L7.50342 11.43H10.7434L10.2034 17.19Z" stroke="black" stroke-width="1.3" stroke-miterlimit="10" stroke-linecap="round" stroke-linejoin="round"/>
<path d="M11.7632 18.69H17.7632V9.93C17.7632 9.03 17.0432 8.31 16.1432 8.31H13.5632C12.8432 8.31 12.1832 8.79 12.0032 9.51" stroke="black" stroke-width="1.3" stroke-miterlimit="10" stroke-linecap="round" stroke-linejoin="round"/>
<path d="M16.6833 8.30999H12.9033V5.06999C14.1633 4.70999 15.4233 4.70999 16.6833 5.06999V8.30999Z" stroke="black" stroke-width="1.3" stroke-miterlimit="10" stroke-linecap="round" stroke-linejoin="round"/>
</svg>
