<svg width="24" height="24" viewBox="0 0 24 24" fill="none" xmlns="http://www.w3.org/2000/svg">
<path d="M18.75 4.5H12.75V1.5C12.75 1.086 12.414 0.75 12 0.75H1.5C1.086 0.75 0.75 1.086 0.75 1.5V22.5C0.75 22.914 1.086 23.25 1.5 23.25H12C12.414 23.25 12.75 22.914 12.75 22.5V9H18.75C19.164 9 19.5 8.664 19.5 8.25V5.25C19.5 4.836 19.164 4.5 18.75 4.5ZM11.25 21.75H2.25V2.25H11.25V4.5H8.7225C8.1765 4.02 7.4745 3.75 6.75 3.75C5.0955 3.75 3.75 5.0955 3.75 6.75C3.75 8.4045 5.0955 9.75 6.75 9.75C7.4745 9.75 8.1765 9.48 8.7225 9H11.25V21.75ZM18 7.5H8.4165C8.20425 7.5 8.00175 7.59 7.85925 7.74825C7.5675 8.07225 7.173 8.25 6.75 8.25C5.92275 8.25 5.25 7.57725 5.25 6.75C5.25 5.92275 5.92275 5.25 6.75 5.25C7.173 5.25 7.5675 5.4285 7.85925 5.75175C8.001 5.90925 8.2035 6 8.4165 6H18V7.5Z" fill="black"/>
<path d="M4.5 15C4.91421 15 5.25 14.6642 5.25 14.25C5.25 13.8358 4.91421 13.5 4.5 13.5C4.08579 13.5 3.75 13.8358 3.75 14.25C3.75 14.6642 4.08579 15 4.5 15Z" fill="black"/>
<path d="M6.75 15C7.16421 15 7.5 14.6642 7.5 14.25C7.5 13.8358 7.16421 13.5 6.75 13.5C6.33579 13.5 6 13.8358 6 14.25C6 14.6642 6.33579 15 6.75 15Z" fill="black"/>
<path d="M9 15C9.41421 15 9.75 14.6642 9.75 14.25C9.75 13.8358 9.41421 13.5 9 13.5C8.58579 13.5 8.25 13.8358 8.25 14.25C8.25 14.6642 8.58579 15 9 15Z" fill="black"/>
<path d="M4.5 17.25C4.91421 17.25 5.25 16.9142 5.25 16.5C5.25 16.0858 4.91421 15.75 4.5 15.75C4.08579 15.75 3.75 16.0858 3.75 16.5C3.75 16.9142 4.08579 17.25 4.5 17.25Z" fill="black"/>
<path d="M6.75 17.25C7.16421 17.25 7.5 16.9142 7.5 16.5C7.5 16.0858 7.16421 15.75 6.75 15.75C6.33579 15.75 6 16.0858 6 16.5C6 16.9142 6.33579 17.25 6.75 17.25Z" fill="black"/>
<path d="M9 17.25C9.41421 17.25 9.75 16.9142 9.75 16.5C9.75 16.0858 9.41421 15.75 9 15.75C8.58579 15.75 8.25 16.0858 8.25 16.5C8.25 16.9142 8.58579 17.25 9 17.25Z" fill="black"/>
<path d="M4.5 19.5C4.91421 19.5 5.25 19.1642 5.25 18.75C5.25 18.3358 4.91421 18 4.5 18C4.08579 18 3.75 18.3358 3.75 18.75C3.75 19.1642 4.08579 19.5 4.5 19.5Z" fill="black"/>
<path d="M6.75 19.5C7.16421 19.5 7.5 19.1642 7.5 18.75C7.5 18.3358 7.16421 18 6.75 18C6.33579 18 6 18.3358 6 18.75C6 19.1642 6.33579 19.5 6.75 19.5Z" fill="black"/>
<path d="M9 19.5C9.41421 19.5 9.75 19.1642 9.75 18.75C9.75 18.3358 9.41421 18 9 18C8.58579 18 8.25 18.3358 8.25 18.75C8.25 19.1642 8.58579 19.5 9 19.5Z" fill="black"/>
</svg>
