<svg width="24" height="24" viewBox="0 0 24 24" fill="none" xmlns="http://www.w3.org/2000/svg">
<path d="M17.6195 1.96945C17.0911 1.23689 16.0768 1.06477 15.3162 1.53942L13.6648 2.5718C13.7826 2.29552 13.8102 2.0648 13.8102 1.80164C13.8102 0.808219 13.002 0 12.0085 0C11.584 0 11.1714 0.150797 10.8467 0.424641L7.3832 3.34702C6.76497 3.86869 6.40112 4.63172 6.385 5.4405L6.06644 21.4099C6.03803 22.8333 7.18187 24 8.60542 24C10.0309 24 11.1752 22.8304 11.1444 21.4054L11.1177 20.1745C11.1398 20.1274 13.9495 7.25077 13.9495 7.25077L17.3788 4.18641C18.0032 3.62798 18.1264 2.67417 17.6195 1.96945ZM9.59992 15.0469H7.59995L7.63173 13.4531H9.56537L9.59992 15.0469ZM7.57187 16.4531H9.63039L9.66494 18.0469H7.54005L7.57187 16.4531ZM8.29009 4.42177L11.7536 1.49944C12.1695 1.14858 12.5952 1.76414 12.3173 2.11167L9.55801 5.56078C9.45498 5.6895 9.40051 5.85042 9.40408 6.01523L9.53486 12.0469H7.65976L7.79101 5.46848C7.79908 5.06409 7.981 4.68258 8.29009 4.42177ZM9.41542 22.2531C8.97105 22.7072 8.24139 22.708 7.79617 22.2538C7.5813 22.0346 7.46631 21.7448 7.47245 21.4379L7.51201 19.4531H9.69545L9.73844 21.4359C9.74509 21.7432 9.63034 22.0334 9.41542 22.2531ZM16.4415 3.13805L12.8425 6.35414C12.732 6.45286 12.6555 6.58402 12.624 6.72886L10.989 14.2401L10.8156 6.23991L11.1813 5.78269L16.0612 2.73211C16.1971 2.64731 16.3875 2.66527 16.4785 2.79136C16.5583 2.90241 16.5385 3.05123 16.4415 3.13805Z" fill="black"/>
</svg>
