<svg width="24" height="24" viewBox="0 0 24 24" fill="none" xmlns="http://www.w3.org/2000/svg">
<path d="M19.5 0H4.5C4.11169 0 3.79688 0.314812 3.79688 0.703125V3.375C3.79688 3.76331 4.11169 4.07812 4.5 4.07812H5.00831L6.79688 17.6712V21.8906C6.79688 23.0537 7.74314 24 8.90625 24H15.0938C16.2569 24 17.2031 23.0537 17.2031 21.8906V17.6712L18.9916 4.07812H19.5C19.8883 4.07812 20.2031 3.76331 20.2031 3.375V0.703125C20.2031 0.314812 19.8883 0 19.5 0ZM16.6217 11.3101C15.6562 10.2562 14.2554 9.78755 12.905 9.97003C13.111 8.44528 12.4861 6.92611 11.2575 5.99719C11.8981 5.50861 12.3949 4.8435 12.6784 4.07817H14.1604C13.7746 4.62145 13.5469 5.28441 13.5469 6C13.5469 7.83511 15.0399 9.32812 16.875 9.32812C16.8862 9.32812 16.9029 9.17311 16.6217 11.3101ZM17.0689 7.9118C15.9236 8.02692 14.9531 7.12331 14.9531 6C14.9531 4.65783 16.3024 3.72656 17.5569 4.20258L17.0689 7.9118ZM5.20312 1.40625H18.7969V2.67188H5.20312V1.40625ZM11.1291 4.07812C10.7772 4.66809 10.2209 5.11387 9.53822 5.3295C9.24572 5.42194 9.04692 5.6933 9.04692 6.00005C9.04692 6.30675 9.24577 6.57811 9.53827 6.6705C11.2433 7.209 12.0301 9.14269 11.2131 10.7138C11.0715 10.986 11.1228 11.3184 11.3397 11.5353C11.5566 11.7522 11.8891 11.8035 12.1613 11.662C12.5745 11.4471 13.017 11.3381 13.4761 11.3381C14.7306 11.3381 15.6138 12.231 16.2045 13.3368C16.3253 13.5629 16.2045 13.3368 16.3253 13.5629L15.8834 16.9219H8.11664L6.4267 4.07812H11.1291ZM11.2031 22.5938V21.3281H12.7969V22.5938H11.2031ZM15.7969 21.8906C15.7969 22.2783 15.4815 22.5938 15.0938 22.5938H14.2031V20.625C14.2031 20.2367 13.8883 19.9219 13.5 19.9219H10.5C10.1117 19.9219 9.79688 20.2367 9.79688 20.625V22.5938H8.90625C8.51855 22.5938 8.20312 22.2783 8.20312 21.8906V18.3281H15.7969V21.8906Z" fill="black"/>
<path d="M11.25 15.7031H12.75C13.1383 15.7031 13.4531 15.3883 13.4531 15C13.4531 14.6117 13.1383 14.2969 12.75 14.2969H11.25C10.8617 14.2969 10.5469 14.6117 10.5469 15C10.5469 15.3883 10.8617 15.7031 11.25 15.7031Z" fill="black"/>
</svg>
