<svg width="24" height="24" viewBox="0 0 24 24" fill="none" xmlns="http://www.w3.org/2000/svg">
<path d="M19.125 0H4.875C4.48669 0 4.17188 0.314812 4.17188 0.703125V3.375C4.17188 3.76331 4.48669 4.07812 4.875 4.07812H5.37928L7.02333 17.2304C7.15003 18.2439 8.00419 19.0781 9.14592 19.0781L9.80494 23.4028C9.85725 23.7463 10.1526 24 10.5 24H13.5C13.8474 24 14.1428 23.7463 14.1951 23.4028L14.8541 19.0781C15.9939 19.0781 16.8497 18.2456 16.9767 17.2304L18.6207 4.07812H19.125C19.5133 4.07812 19.8281 3.76331 19.8281 3.375V0.703125C19.8281 0.314812 19.5133 0 19.125 0ZM5.57812 1.40625H18.4219V2.67188H5.57812V1.40625ZM12.8959 22.5938H11.1041L10.5683 19.0781H13.4316L12.8959 22.5938ZM15.5813 17.0559C15.5374 17.4071 15.2374 17.6719 14.8836 17.6719H9.11639C8.76253 17.6719 8.46258 17.4071 8.4187 17.056L7.1715 7.07812H16.8285L15.5813 17.0559ZM17.0043 5.67188H6.99572L6.7965 4.07812H17.2035L17.0043 5.67188Z" fill="black"/>
<path d="M12 8.29688C10.7407 8.29688 9.68911 8.98987 9.11494 10.1982C9.02419 10.3892 9.02419 10.6108 9.11494 10.8018C9.68911 12.0101 10.7407 12.7031 12 12.7031C13.2593 12.7031 14.3109 12.0101 14.8851 10.8018C14.9759 10.6108 14.9759 10.3892 14.8851 10.1982C14.3109 8.98987 13.2593 8.29688 12 8.29688ZM12 11.2969C11.2589 11.2969 10.8105 10.8788 10.5563 10.5C10.8105 10.1213 11.2589 9.70312 12 9.70312C12.7412 9.70312 13.1895 10.1213 13.4437 10.5C13.1895 10.8788 12.7412 11.2969 12 11.2969Z" fill="black"/>
<path d="M13.125 13.9219H10.875C10.4867 13.9219 10.1719 14.2367 10.1719 14.625C10.1719 15.0133 10.4867 15.3281 10.875 15.3281H13.125C13.5133 15.3281 13.8281 15.0133 13.8281 14.625C13.8281 14.2367 13.5133 13.9219 13.125 13.9219Z" fill="black"/>
</svg>
