<svg width="100" height="110" viewBox="0 0 100 110" fill="none" xmlns="http://www.w3.org/2000/svg">
<g clip-path="url(#clip0_363_1614)">
<path fill-rule="evenodd" clip-rule="evenodd" d="M49.8274 0C68.4751 11.8147 85.3162 17.4135 99.7782 16.0898C102.3 67.1586 83.4469 97.3169 50.0242 109.901C17.7462 98.1218 -1.33975 69.2604 0.0733621 15.3117C17.0486 16.2061 33.6929 12.5302 49.8274 0Z" fill="#AB28B2"/>
<path fill-rule="evenodd" clip-rule="evenodd" d="M49.8423 6.30469C66.3435 16.7689 81.2617 21.7148 94.0513 20.5431C96.2872 65.7448 79.5892 92.4419 50.0123 103.586C21.446 93.1574 4.55122 67.614 5.80335 19.8634C20.8288 20.6505 35.5681 17.4039 49.8423 6.30469Z" fill="white"/>
<path fill-rule="evenodd" clip-rule="evenodd" d="M50.305 17.4766C63.023 25.5349 74.5067 29.3449 84.3627 28.4505C86.0799 63.2775 73.2278 83.8391 50.4302 92.4251C50.2871 92.3715 50.144 92.3178 50.0009 92.2641C49.8578 92.3178 49.7147 92.3715 49.5716 92.4251C26.7829 83.8391 13.9218 63.2775 15.639 28.4505C25.495 29.3539 36.9877 25.5349 49.6968 17.4766L49.9919 17.7002L50.305 17.4766Z" fill="#AB28B2"/>
<path d="M31.699 52.1241L38.38 52.0347L38.8809 52.1599C40.2314 52.938 41.5014 53.8234 42.6909 54.8341C43.5495 55.5585 44.3634 56.3456 45.1415 57.2042C47.5384 53.3494 50.0963 49.7987 52.7973 46.5432C55.7577 42.9747 57.6091 41.016 60.9004 38.0556L61.5533 37.8052H68.8514L67.3756 39.4329C62.8591 44.4504 60.0328 48.3677 56.3301 53.7161C52.6185 59.0823 49.3093 64.6096 46.3578 70.2978L45.4366 72.0687L44.5959 70.262C43.0397 66.926 41.1794 63.8672 38.9614 61.1305C36.7433 58.3937 34.1586 55.961 31.1445 53.895L31.699 52.1241Z" fill="white"/>
</g>
<defs>
<clipPath id="clip0_363_1614">
<rect width="100" height="109.901" fill="white"/>
</clipPath>
</defs>
</svg>
