<svg width="22" height="24" viewBox="0 0 22 24" fill="none" xmlns="http://www.w3.org/2000/svg">
<path d="M20.785 21.6994C20.3036 20.3349 19.1884 19.2733 17.8018 18.8597L13.7373 17.6472L13.3997 16.4695C15.0626 15.7915 16.3938 14.4254 17.0005 12.6744C17.9304 12.5277 18.7911 11.5953 18.7632 10.5879C18.7632 10.0398 18.5536 9.53984 18.2105 9.16372C18.5677 8.78304 18.7632 8.29039 18.7632 7.7637C18.7632 3.48276 15.2804 0 10.9995 0C6.71864 0 3.23589 3.48276 3.23589 7.76366C3.23589 8.29039 3.43145 8.783 3.78868 9.16367C3.44635 9.5389 3.23687 10.0374 3.23589 10.5839C3.20785 11.5596 4.00388 12.5002 4.99787 12.6724C5.60429 14.4244 6.93586 15.7912 8.59936 16.4695L8.26177 17.6472L4.19724 18.8597C2.81068 19.2733 1.69548 20.3349 1.21408 21.6994L0.402344 24H21.5967L20.785 21.6994ZM10.9995 1.40625C14.505 1.40625 17.357 4.25816 17.357 7.76366C17.3486 7.92275 17.2822 8.15806 17.0789 8.29259C16.4136 6.84041 14.5897 5.97932 13.0104 6.46419C11.695 6.83628 10.3043 6.83628 8.9887 6.46419C7.44966 5.99197 5.60597 6.79986 4.92019 8.29259C4.78285 8.19819 4.64944 8.00895 4.64213 7.7637C4.64213 4.25816 7.49405 1.40625 10.9995 1.40625ZM6.06075 11.2451L5.46469 11.2998C5.09804 11.3119 4.67626 11.1111 4.64209 10.5879C4.64209 10.1969 4.96013 9.87889 5.35107 9.87889H5.90954C6.0863 8.35156 7.29319 7.46783 8.60588 7.81733C10.1719 8.2603 11.8273 8.26025 13.3931 7.81733C14.9457 7.43258 15.917 8.56569 16.0894 9.87889H16.6479C17.0388 9.87889 17.3569 10.1969 17.3569 10.5902C17.3223 11.0596 16.9946 11.299 16.5405 11.3004L15.9396 11.2399C15.4674 13.7771 13.5241 15.5026 10.9994 15.5332C8.47791 15.5028 6.5333 13.7796 6.06075 11.2451ZM10.9995 16.9394C11.3551 16.9394 11.7049 16.9093 12.0466 16.8525L12.4161 18.1415C12.1198 18.6456 11.6052 18.9405 10.9995 18.9405C10.3939 18.9405 9.87933 18.6456 9.58294 18.1415L9.95245 16.8525C10.2942 16.9093 10.644 16.9394 10.9995 16.9394ZM2.38975 22.5938C2.68792 21.4783 3.48085 20.5308 4.59924 20.2073L8.49277 19.0457C9.05573 19.8606 9.96998 20.3467 10.9995 20.3467C12.0291 20.3467 12.9434 19.8607 13.5063 19.0457L17.3998 20.2073C18.509 20.5136 19.3146 21.4938 19.6093 22.5938H2.38975Z" fill="black"/>
</svg>
