<svg width="19" height="23" viewBox="0 0 19 23" fill="none" xmlns="http://www.w3.org/2000/svg">
<path d="M18 3.75H12V0.75C12 0.336 11.664 0 11.25 0H0.75C0.336 0 0 0.336 0 0.75V21.75C0 22.164 0.336 22.5 0.75 22.5H11.25C11.664 22.5 12 22.164 12 21.75V8.25H18C18.414 8.25 18.75 7.914 18.75 7.5V4.5C18.75 4.086 18.414 3.75 18 3.75ZM10.5 21H1.5V1.5H10.5V3.75H7.9725C7.4265 3.27 6.7245 3 6 3C4.3455 3 3 4.3455 3 6C3 7.6545 4.3455 9 6 9C6.7245 9 7.4265 8.73 7.9725 8.25H10.5V21ZM17.25 6.75H7.6665C7.45425 6.75 7.25175 6.84 7.10925 6.99825C6.8175 7.32225 6.423 7.5 6 7.5C5.17275 7.5 4.5 6.82725 4.5 6C4.5 5.17275 5.17275 4.5 6 4.5C6.423 4.5 6.8175 4.6785 7.10925 5.00175C7.251 5.15925 7.4535 5.25 7.6665 5.25H17.25V6.75Z" fill="black"/>
</svg>
