<svg width="22" height="24" viewBox="0 0 22 24" fill="none" xmlns="http://www.w3.org/2000/svg">
<path d="M17.2433 19.7527L15.234 19.3027C15.4027 19.223 15.6735 19.175 16.0105 19.1265C16.524 19.0517 17.1059 18.9668 17.5802 18.5882C18.0449 18.217 18.2462 17.683 18.4237 17.2118C18.6041 16.6601 18.7917 16.3786 19.3501 16.0502C19.7717 15.7719 20.2497 15.4565 20.5097 14.9174C20.7657 14.3867 20.716 13.8209 20.6722 13.3218C20.5985 12.7507 20.6357 12.4116 20.9968 11.8765C21.2575 11.4397 21.5532 10.9446 21.5532 10.3368C21.5532 9.72895 21.2576 9.23395 20.9968 8.79716C20.6741 8.31251 20.5858 7.99193 20.6722 7.35187C20.716 6.85269 20.7657 6.28691 20.5097 5.75621C20.2497 5.21718 19.7717 4.90176 19.3501 4.62348C18.8506 4.32572 18.6214 4.07892 18.4237 3.46189C18.2462 2.99068 18.0449 2.45666 17.5801 2.0855C17.1172 1.71588 16.5531 1.63799 16.0554 1.56927C15.4797 1.51475 15.1611 1.39798 14.7182 0.927096C14.3514 0.576452 13.9357 0.179061 13.3474 0.0452855C12.7784 -0.0840399 12.2413 0.0894557 11.7675 0.242435C11.2136 0.450405 10.8483 0.478228 10.2309 0.242435C9.75697 0.0894089 9.21981 -0.0840399 8.65103 0.0452855C8.06268 0.179014 7.64702 0.576452 7.28026 0.927049C6.87931 1.34824 6.58735 1.51203 5.94307 1.56923C5.44535 1.63794 4.88121 1.71584 4.41838 2.08545C3.95354 2.45661 3.75231 2.99068 3.57474 3.46185C3.39436 4.01362 3.20677 4.29508 2.64843 4.62348C2.22678 4.90176 1.74878 5.21718 1.48877 5.75617C1.23269 6.28686 1.28244 6.85269 1.32628 7.35191C1.40001 7.92303 1.36272 8.26201 1.00173 8.79716C0.74092 9.23395 0.445312 9.729 0.445312 10.3368C0.445312 10.9447 0.740967 11.4397 1.00173 11.8765C1.32441 12.3612 1.4127 12.6817 1.32628 13.3218C1.28239 13.821 1.23269 14.3868 1.48872 14.9175C1.74878 15.4565 2.22669 15.7719 2.64839 16.0502C3.14784 16.348 3.37703 16.5948 3.5747 17.2118C3.75222 17.683 3.95345 18.217 4.41829 18.5882C4.88345 18.9596 5.45111 19.039 5.95197 19.1091C6.20922 19.1489 6.54037 19.1853 6.75963 19.3038L4.75507 19.7528C2.42201 20.3191 1.37008 21.9746 0.865234 24H21.1332C20.5762 21.7155 19.3677 20.2784 17.2433 19.7527ZM10.9992 16.8837C8.47941 16.8533 6.5363 15.1314 6.0641 12.5987L5.46849 12.6535C5.10248 12.6656 4.68045 12.4648 4.64649 11.9421C4.64649 11.5514 4.9643 11.2336 5.35495 11.2336H5.90475L6.40374 9.21924C7.34176 9.38126 8.49426 9.09366 9.25536 8.45181C10.2781 9.02626 11.6717 9.05441 12.743 8.45181C13.5199 9.08195 14.5602 9.37962 15.5947 9.21924L16.0936 11.2336H16.6434C17.034 11.2336 17.3519 11.5514 17.3519 11.9444C17.3172 12.4134 16.99 12.6527 16.5361 12.6541L15.9356 12.5935C15.4638 15.1289 13.5219 16.853 10.9992 16.8837ZM9.95286 18.202C10.2944 18.2588 10.6439 18.2889 10.9992 18.2889C11.3545 18.2889 11.704 18.2588 12.0455 18.202L12.4147 19.4901C12.1186 19.9938 11.6043 20.2884 10.9992 20.2884C10.394 20.2884 9.87979 19.9938 9.58362 19.4901L9.95286 18.202ZM6.14668 17.7175C5.80878 17.6702 5.4594 17.6213 5.29508 17.4901C5.13213 17.36 5.00885 17.0328 4.88959 16.7163C4.70031 16.023 4.11842 15.2426 3.42233 14.8773C3.13899 14.6903 2.84601 14.497 2.75425 14.3069C2.66628 14.1245 2.69663 13.7789 2.726 13.4447C2.85331 12.7425 2.67738 11.786 2.20809 11.156C2.03225 10.8615 1.85037 10.557 1.85037 10.3367C1.85037 10.1166 2.03221 9.81205 2.20809 9.51756C2.63546 8.93707 2.86952 7.99709 2.726 7.22882C2.69663 6.89461 2.66628 6.54907 2.75429 6.36668C2.84601 6.17651 3.13899 5.9832 3.42233 5.79621C4.05795 5.45817 4.68687 4.71613 4.88964 3.95723C5.00889 3.64077 5.13218 3.31355 5.29513 3.18343C5.45607 3.0549 5.80133 3.00722 6.13521 2.96113C6.85046 2.92932 7.74112 2.53966 8.2513 1.94264C8.49791 1.70684 8.75291 1.46304 8.96252 1.4154C9.15531 1.37151 9.48259 1.47728 9.79913 1.57953C10.4684 1.8683 11.4694 1.89903 12.1993 1.57953C12.5159 1.47728 12.8437 1.37161 13.0359 1.4154C13.2455 1.46304 13.5005 1.70684 13.7471 1.94264C14.2178 2.48724 15.0806 2.93049 15.8632 2.96113C16.1971 3.00722 16.5424 3.0549 16.7034 3.18343C16.8663 3.3135 16.9895 3.64077 17.1088 3.95723C17.298 4.65051 17.88 5.43091 18.5761 5.79617C18.8594 5.98315 19.1524 6.17651 19.2441 6.36663C19.3321 6.54903 19.3017 6.89457 19.2724 7.22872C19.1451 7.93095 19.321 8.88747 19.7903 9.51747C19.9662 9.81195 20.148 10.1165 20.148 10.3367C20.148 10.5568 19.9662 10.8614 19.7903 11.1559C19.3629 11.7364 19.1289 12.6764 19.2724 13.4446C19.3018 13.7788 19.3321 14.1244 19.2441 14.3068C19.1524 14.4969 18.8594 14.6903 18.5761 14.8772C17.9404 15.2153 17.3115 15.9573 17.1088 16.7163C16.9895 17.0327 16.8662 17.3599 16.7034 17.49C16.5266 17.6311 16.1612 17.6844 15.8079 17.7359C15.1007 17.7742 14.1324 18.1751 13.6683 18.7631L13.3977 17.8192C15.0593 17.1416 16.3895 15.7765 16.9958 14.0269C17.9249 13.8802 18.7851 12.9485 18.7572 11.9419C18.7572 10.9734 18.1026 10.1551 17.2126 9.90601L16.5934 7.40662C14.8007 8.27045 13.8619 7.80593 12.911 6.58804C11.4476 7.95142 10.2399 7.63801 9.08744 6.58804C7.87133 8.17986 6.81767 8.04154 5.40507 7.40662L4.78593 9.90601C3.89719 10.1548 3.24312 10.9712 3.24134 11.9379C3.21333 12.9128 4.00876 13.8528 5.00201 14.0249C5.60798 15.7755 6.93856 17.1413 8.60077 17.8191L8.32498 18.7812C7.86492 18.2141 6.93697 17.7549 6.14668 17.7175ZM2.92058 22.5948C3.41263 21.8583 4.1757 21.3225 5.06215 21.124L8.4714 20.3604C9.03189 21.1947 9.95642 21.6935 10.9991 21.6935C12.0419 21.6935 12.9664 21.1947 13.5268 20.3604L16.9361 21.124C17.8226 21.3225 18.5857 21.8583 19.0777 22.5948H2.92058Z" fill="black"/>
</svg>
