<svg width="18" height="20" viewBox="0 0 18 20" fill="none" xmlns="http://www.w3.org/2000/svg">
<path d="M9.82596 19.7408L5.98575 19.7378C5.43525 19.7099 4.88821 19.6277 4.34786 19.5232C4.02696 19.4611 3.48283 19.4164 3.3261 19.0705C3.27968 18.9681 3.26519 18.9902 3.16345 18.9903L1.5112 18.9908C0.948581 18.9911 0.484776 19.0676 0.172261 18.4615C0.0278624 18.1814 0.0628312 17.893 0.0611905 17.5878L0.0623392 13.7781L0.153792 12.2748L0.530081 9.27766L0.906417 7.35604L1.81614 4.12258C1.92827 3.77953 1.87265 3.98304 1.83663 3.70387L1.83459 3.68716C1.80602 3.47789 1.83611 3.2954 1.94835 3.11573L1.95979 3.09766C2.49637 2.22738 4.29888 2.09299 5.18622 2.10384C5.27116 1.22737 6.06361 0.602926 6.87609 0.409614C7.30502 0.307555 7.76873 0.29106 8.20823 0.268173L9.63649 0.263184L10.5349 0.34308C11.3268 0.432606 12.0824 0.641926 12.5425 1.35595C12.7388 1.66052 12.726 1.80025 12.8123 2.10157C13.1562 2.1003 13.4991 2.10253 13.8416 2.1382C14.5861 2.21575 16.579 2.72943 16.1202 3.83128C16.0989 3.88258 16.1389 3.97629 16.153 4.02722L16.507 5.12568C16.5884 5.33908 16.7313 5.85712 16.7754 6.1L17.1036 7.47672C17.1196 7.58315 17.1547 7.69701 17.1795 7.80269L17.5517 9.88863L17.8324 12.2567C17.8559 12.4505 17.8514 12.6563 17.8639 12.8525L17.9574 15.0626C17.963 15.1758 17.9817 15.2876 17.9852 15.4012L17.9864 18.0449C17.9854 18.639 17.4944 18.9896 16.9383 18.9905L14.7231 18.9919C14.5834 19.373 14.105 19.4432 13.7576 19.5158C13.1858 19.6353 12.7646 19.6884 12.1846 19.7167L9.82596 19.7408ZM8.70051 0.928755L8.09714 0.934966C7.83035 0.939606 7.55329 0.967075 7.28974 1.01133C6.77779 1.09727 6.28103 1.28074 5.98776 1.73845C5.81819 2.00313 5.74495 2.38713 5.87315 2.68673C6.17029 3.38104 6.76572 3.53053 7.36446 3.88814C8.0039 4.2701 8.64117 4.89513 8.92087 5.60365C8.94586 5.66693 8.96592 5.72149 9.00525 5.77795L9.08847 5.5672C9.47798 4.76182 10.0942 4.15291 10.8836 3.74639C11.1656 3.60117 11.4714 3.46999 11.7121 3.25929C12.4339 2.62732 12.2887 1.65187 11.4483 1.23047C11.0969 1.05433 10.7246 1.01819 10.3399 0.981419L8.70051 0.928755ZM4.90045 2.7495C4.20501 2.7505 3.48508 2.84749 2.86054 3.17081C2.421 3.39839 2.43951 3.48869 2.578 3.89449C2.68207 4.19936 2.79686 4.50956 2.86331 4.82536L2.92429 5.05605C2.96006 5.18095 2.97855 5.31492 3.00194 5.44272L3.07399 5.86242C3.09665 6.05006 3.12135 6.24281 3.12623 6.4315L3.13448 6.84846C3.15093 7.28198 3.23165 7.64625 3.16368 8.10846C3.105 8.5075 3.0952 9.33862 3.12949 9.765L3.20282 10.5205C3.21452 10.7152 3.1923 10.9132 3.20057 11.1086C3.20496 11.2124 3.23146 11.3129 3.23378 11.4181L3.23707 12.4785C3.24107 12.5831 3.26983 12.6826 3.27175 12.789L3.27607 15.6558C3.27625 15.7719 3.26913 15.8948 3.28314 16.0103C3.42257 17.1592 4.4976 17.404 5.45486 17.5148C5.71823 17.5453 5.96158 17.5598 6.2283 17.5594L8.41263 17.5619C8.49639 17.5626 8.58996 17.5716 8.67262 17.562L8.67253 7.42495C8.6726 7.31658 8.6826 7.20311 8.67288 7.09558C8.55693 5.81196 7.85273 4.87912 6.74526 4.2975C6.11629 3.96717 5.44296 3.59793 5.23535 2.84564C5.20708 2.74319 5.23059 2.75142 5.12646 2.75083L4.90045 2.7495ZM12.7857 2.7495C12.6273 3.31303 12.2034 3.78281 11.6985 4.06453C10.541 4.71056 9.87677 5.0328 9.48192 6.39058C9.35128 6.83983 9.31706 7.10468 9.31697 7.56232L9.31764 17.5615L11.9851 17.5594C13.2036 17.5365 14.719 17.2843 14.7188 15.7324L14.7228 11.6281C14.7251 11.5467 14.7446 11.4687 14.7502 11.3881L14.7558 11.1425C14.7617 11.0445 14.7726 10.9478 14.7735 10.8494L14.806 8.13832C14.8131 7.98335 14.8457 7.83112 14.8537 7.67505L14.8961 6.95057C14.9469 6.25284 15.0215 5.55609 15.1604 4.86961C15.2377 4.48739 15.3665 4.1249 15.4683 3.75016C15.5602 3.41184 15.3946 3.29629 15.1053 3.15625C14.36 2.79557 13.6018 2.74699 12.7857 2.7495ZM2.21383 4.96261L1.54727 7.45699L1.07843 9.95894L0.748167 12.9132L0.707948 13.8554L0.710105 17.3125C0.713456 17.4059 0.735042 17.4978 0.73755 17.5917L0.737386 18.0217C0.738558 18.3596 0.935808 18.3313 1.19425 18.3316L1.77152 18.3318L3.19413 18.3392L3.19685 17.6272C3.19675 17.5093 3.20779 17.3776 3.19132 17.2616C2.78085 16.8655 2.62396 16.2895 2.62195 15.7341L2.61862 13.1993C2.61363 13.0837 2.59167 12.9723 2.59054 12.8552L2.55389 10.6929C2.53767 10.3561 2.46754 10.024 2.45918 9.68728L2.49285 8.38743L2.48758 6.80034C2.48235 6.68763 2.46107 6.58054 2.45475 6.4695L2.36367 5.58061C2.32996 5.35933 2.28841 5.17118 2.21383 4.96261ZM15.7925 5.01363C15.6876 5.54768 15.6341 6.07593 15.5816 6.61661L15.5019 7.54725L15.4215 9.68313L15.4146 11.0312C15.4119 11.1923 15.3778 11.3484 15.3741 11.5092L15.3696 15.7192C15.3688 16.2026 15.2753 16.6513 14.9835 17.0502L14.8453 17.2287C14.7568 17.3396 14.7917 18.19 14.8094 18.332L16.3606 18.3318L16.8888 18.3323C17.2934 18.3314 17.3476 18.2479 17.3475 17.8166L17.3411 15.5022C17.337 15.4158 17.3167 15.332 17.3125 15.2452L17.3035 14.2735L17.2 12.5184L16.9179 10.0351L16.5877 8.16586L15.8388 5.16499C15.8271 5.11776 15.8206 5.06093 15.798 5.0178L15.7925 5.01363ZM3.85755 17.7871C3.83582 17.9171 3.80517 18.5962 3.87325 18.6892C3.97577 18.8292 4.8835 18.9748 5.13925 19.0007L8.63064 19.0631L8.66423 18.2214L6.80158 18.2184C5.75235 18.2182 4.82746 18.2194 3.85755 17.7871ZM14.146 17.7814C13.2308 18.272 12.0058 18.2198 11.0038 18.2193L9.31945 18.2182L9.31907 18.8287C9.31942 18.8935 9.33452 18.9979 9.31762 19.0571L11.2969 19.0581C12.09 19.058 13.4205 19.0735 14.1014 18.7157C14.1991 18.5871 14.1668 17.9509 14.146 17.7814Z" fill="black"/>
</svg>
