<svg width="24" height="24" viewBox="0 0 24 24" fill="none" xmlns="http://www.w3.org/2000/svg">
<path d="M18.9899 20.2162C18.9899 20.2162 16.2787 19.875 16.2787 14.325C16.2787 8.775 13.8337 8.19 13.8337 8.19L14.6249 4.64625C12.6749 3.40875 12.1424 5.445 12.1424 5.445C12.1424 5.445 11.5837 3.40875 9.55492 4.64625L10.3912 8.19C10.3912 8.19 7.84117 8.79 7.84117 14.325C7.84117 19.86 5.01367 20.2162 5.01367 20.2162C5.01367 20.2162 7.12492 21.8887 9.31117 20.895C9.31117 20.895 12.4987 22.605 14.9362 20.895C14.9362 20.895 17.5237 21.2925 18.9974 20.2162H18.9899Z" stroke="black" stroke-width="1.3" stroke-linecap="round" stroke-linejoin="round"/>
<path d="M10.3875 8.19L10.4512 8.23125C10.957 8.55285 11.5455 8.7202 12.1448 8.71288C12.7442 8.70555 13.3284 8.52387 13.8262 8.19" stroke="black" stroke-width="1.3" stroke-linecap="round" stroke-linejoin="round"/>
<path d="M10.3875 4.29V2.34375" stroke="black" stroke-width="1.3" stroke-linecap="round" stroke-linejoin="round"/>
<path d="M13.9761 4.3275V2.34375" stroke="black" stroke-width="1.3" stroke-linecap="round" stroke-linejoin="round"/>
<path d="M10.6687 10.68C10.6687 10.68 10.0275 12 10.1737 15.255C10.32 18.51 8.77124 19.5787 8.77124 19.5787" stroke="black" stroke-width="1.3" stroke-linecap="round" stroke-linejoin="round"/>
<path d="M13.635 10.68C13.635 10.68 14.2763 11.985 14.13 15.255C13.9838 18.525 15.5325 19.5787 15.5325 19.5787" stroke="black" stroke-width="1.3" stroke-linecap="round" stroke-linejoin="round"/>
</svg>
