<svg width="20" height="18" viewBox="0 0 20 18" fill="none" xmlns="http://www.w3.org/2000/svg">
<path d="M10.5595 17.8245L10.5477 17.8223C10.3492 17.8165 10.1586 17.7522 10.0156 17.6106L10.0054 17.6003C9.64988 17.9022 8.89011 17.8544 8.39433 17.8893L7.6114 17.9411C7.29896 17.9703 6.629 17.9795 6.33024 17.9421C5.36464 17.8211 4.69667 16.9422 4.61968 16.0078C4.58883 15.6335 4.61164 15.258 4.58082 14.8819C4.54566 15.0379 4.47779 15.1955 4.42158 15.3457C3.86879 16.8229 3.15073 18.4277 1.26176 17.3887C0.708403 17.0844 0.37463 16.7314 0.490786 16.0485L0.49388 16.0312C0.525544 15.8448 0.589012 15.6627 0.646997 15.483L2.53669 9.52435L2.85511 8.15717C2.99865 7.60731 3.17616 7.07028 3.37283 6.53766C3.91517 5.06893 4.53141 4.19581 6.06404 3.79693C6.03326 3.49857 6.04158 3.21397 6.1445 2.93009C6.3319 2.41316 6.23497 2.53984 6.22606 2.02269C6.20918 1.04302 7.31332 0.380938 8.14822 0.195711C8.43371 0.132383 8.71986 0.115461 9.01081 0.100743L9.93851 0.0712114C10.048 0.0704849 10.1547 0.0549693 10.2634 0.0516177L10.9911 0.0474456C11.8703 0.0362191 12.198 0.105805 12.9529 0.668727C13.403 1.00438 13.8822 1.53479 13.7692 2.14864L13.7035 2.49608C13.6879 2.55195 13.6863 2.58596 13.7082 2.64113L13.7143 2.65428C13.867 3.00399 13.9611 3.35708 13.9612 3.74309C13.9855 3.7595 14.0092 3.77549 14.0365 3.78638L14.5335 3.99416C15.5555 4.40581 16.0292 5.14871 16.4385 6.0999L17.212 8.48598L17.3509 9.04524C17.374 9.16592 17.4171 9.37852 17.4601 9.49428L18.3037 11.8834L18.5853 12.7879C18.6226 12.8911 18.6407 13.0018 18.6784 13.1024L18.9466 14.0172C18.9563 14.069 18.9807 14.1151 18.9913 14.1671L19.0389 14.341C19.0527 14.4175 19.0762 14.5026 19.101 14.5758L19.4134 15.7602C19.4176 15.7822 19.4209 15.8007 19.4287 15.8217C19.7508 16.681 19.3757 17.2194 18.6031 17.5122C17.8894 17.7827 16.9569 17.8828 16.5857 17.0626C16.4759 16.82 16.4293 16.5196 16.3654 16.2604L15.792 14.1558C15.6947 13.8096 15.5888 13.4661 15.5154 13.1138C15.4781 13.2546 15.4823 13.4024 15.4823 13.5469L15.4824 14.0569C15.4827 14.8283 15.5141 15.6218 15.3517 16.3794C15.1847 17.1586 14.5012 17.8001 13.7205 17.9404C13.4132 17.9957 13.1312 17.9665 12.824 17.9528L11.6193 17.886C11.2669 17.8585 10.8956 17.8609 10.5595 17.8245ZM11.1692 0.720688L8.84759 0.781485C8.59006 0.799508 8.34755 0.823133 8.09963 0.899469C7.56256 1.06487 6.7726 1.50141 6.90396 2.16969C6.9631 2.47053 7.2735 2.70566 7.50525 2.88228C7.9175 2.53665 8.58453 2.40676 9.10362 2.37966C9.37273 2.38379 9.65897 2.38515 9.88041 2.56299C9.91974 2.59459 9.97064 2.68543 10.0149 2.64477C10.6066 2.10092 11.8294 2.47857 12.4482 2.82908C12.5606 2.89278 12.6866 2.72281 12.7674 2.65107C12.9342 2.50299 13.0705 2.34891 13.1064 2.12108L13.1096 2.1016C13.2232 1.3827 12.0742 0.827797 11.5141 0.722188C11.4081 0.702196 11.277 0.713704 11.1692 0.720688ZM9.09343 3.03995C8.69504 3.06709 8.27649 3.16613 7.92472 3.35926L9.1752 5.53677L9.47302 5.97777C9.53124 6.05797 9.59752 6.13862 9.64709 6.22412L9.65007 4.32013C9.64993 3.98316 9.67327 3.62689 9.63624 3.29295L9.63446 3.27505C9.60804 3.05281 9.25447 3.0327 9.09343 3.03995ZM10.7536 3.05115C10.2339 3.12406 10.3358 3.41206 10.3351 3.84903L10.3341 5.66905C10.334 5.85545 10.3208 6.04803 10.3467 6.2326L10.8973 5.40704L11.9306 3.59284C11.9787 3.51922 12.0481 3.45153 12.0878 3.37494C11.746 3.17389 11.164 2.99145 10.7536 3.05115ZM6.74229 3.13475C6.69757 3.29691 6.66882 3.62694 6.73714 3.78835C6.97786 4.3572 7.19799 4.52745 7.75397 4.83137C7.86661 4.89294 7.99829 4.946 8.10169 5.02147L8.12227 5.01927C7.82342 4.31898 7.38258 3.58749 6.75816 3.13489L6.74229 3.13475ZM13.19 3.14647C12.8812 3.37562 12.6827 3.64374 12.4778 3.96659L12.1256 4.54672C12.0435 4.6917 11.9521 4.8392 11.886 4.99217L11.9763 4.96672C12.6534 4.68823 13.4211 4.14456 13.2746 3.32225L13.2713 3.30324C13.2612 3.24606 13.2431 3.19452 13.2155 3.14352L13.19 3.14647ZM13.7309 4.37694C13.6703 4.44746 13.6226 4.52717 13.566 4.60072C12.9548 5.39408 12.3864 5.39752 11.6228 5.89796C11.0262 6.28899 10.4731 6.96587 10.3717 7.68835C10.3335 7.96048 10.336 8.23114 10.3358 8.50505L10.3344 16.3853C10.3341 16.5416 10.3229 16.7077 10.3372 16.8629C10.3714 17.2346 10.7166 17.1586 10.9546 17.1699C11.0604 17.175 11.1639 17.1967 11.2692 17.2022L11.827 17.2162C11.9452 17.2217 12.0603 17.2457 12.1791 17.2519L12.7632 17.27C13.51 17.3226 14.1727 17.3254 14.5828 16.5707C14.9678 15.8619 14.7929 14.2786 14.8388 13.4507L14.8913 12.8634C14.9815 12.1841 14.9474 11.9697 14.8437 11.2851L14.6783 10.0805C14.5844 9.36746 14.6735 8.63853 14.9122 7.96189C14.9741 7.7863 15.0381 7.52155 15.2392 7.45869L15.2864 7.44645C15.4889 7.45435 15.5705 7.51102 15.6367 7.6992L15.6435 7.7147C15.6644 7.77594 15.645 7.85752 15.6256 7.916L15.6173 7.94527C15.5543 8.16507 15.4615 8.37425 15.4022 8.59679C15.2508 9.16503 15.269 10.073 15.4572 10.6449L15.4882 10.7636C15.4917 10.7807 15.497 10.7939 15.5033 10.8099L16.5198 14.3759C16.5236 14.3947 16.5293 14.4109 16.5353 14.4289L16.6848 14.9575C16.6988 15.0069 16.7042 15.0575 16.7225 15.1054L17.098 16.5039C17.1585 16.6983 17.1822 16.9008 17.3885 17.0041L17.5157 17.0542C17.7315 17.1277 18.4745 16.8612 18.6537 16.7626C19.032 16.5543 18.8247 16.0782 18.7416 15.7571L17.6753 12.0445L16.9145 9.97452C16.8679 9.8281 16.8373 9.67768 16.8025 9.52826L16.1431 7.16298C15.7726 6.07498 15.406 5.045 14.2618 4.60351L13.8836 4.44791C13.8346 4.42557 13.7754 4.40673 13.7309 4.37694ZM6.32386 4.43248C6.10531 4.50474 5.88083 4.55448 5.66529 4.6374C3.843 5.33846 3.49779 8.63708 2.97268 10.3548L1.23347 15.791C1.1799 15.9836 1.07201 16.2134 1.13745 16.4169L1.14858 16.4431C1.27414 16.7189 1.69967 16.8881 1.9665 16.9908L2.15386 17.0488C2.88263 17.2562 3.29295 16.3617 3.53028 15.8364C3.81495 15.2063 4.05558 14.5434 4.23818 13.8764C4.35523 13.4489 4.30704 13.0308 4.30072 12.5924C4.28869 11.7601 4.37834 11.4117 4.59293 10.6138C4.83446 9.71588 4.76717 8.93581 4.40782 8.0791C4.29317 7.80573 4.27854 7.49431 4.62973 7.44334C5.04036 7.49342 5.19652 8.2764 5.25818 8.61441C5.33494 9.03519 5.39768 9.52229 5.32585 9.94974L5.05578 11.7506C5.02775 11.9807 4.99411 12.2189 4.99463 12.4512C4.99538 12.7838 5.07823 13.1146 5.10455 13.4454L5.15689 14.0517C5.1762 14.3 5.20292 14.5423 5.21419 14.7911L5.22448 15.1699C5.22961 15.2605 5.2482 15.3503 5.25225 15.4408C5.29215 16.3311 5.33365 16.9827 6.38942 17.2732L6.42999 17.2839C6.50384 17.3025 6.58212 17.2976 6.65773 17.2974L7.25759 17.2667C7.69676 17.2467 8.13509 17.2274 8.57426 17.2051C8.70507 17.1985 8.83048 17.1723 8.9604 17.1678L9.25796 17.1645C9.4681 17.1626 9.65018 17.0969 9.6563 16.8443L9.64807 8.17184C9.64622 7.22429 9.25758 6.49548 8.45295 5.95295C7.58797 5.36968 6.97571 5.37048 6.32386 4.43248Z" fill="black"/>
</svg>
