<svg width="24" height="24" viewBox="0 0 24 24" fill="none" xmlns="http://www.w3.org/2000/svg">
<path d="M13.71 4.695C13.71 4.695 11.835 6.3975 10.125 4.695C10.125 4.695 9.94878 6.27375 8.65128 6.83625L9.33753 8.925C9.63974 9.8402 9.57796 10.8366 9.16503 11.7075L5.41503 19.5825C5.32314 19.777 5.30094 19.9972 5.35215 20.2061C5.40336 20.4151 5.52486 20.6 5.69628 20.73L5.73378 20.76C6.04657 20.9973 6.41932 21.1426 6.81016 21.1797C7.201 21.2168 7.59443 21.1442 7.94628 20.97C8.22832 20.8323 8.5374 20.7588 8.85125 20.7549C9.1651 20.7511 9.4759 20.8168 9.76128 20.9475L10.8863 21.4575C11.1437 21.5747 11.4218 21.6394 11.7045 21.6477C11.9872 21.6561 12.2687 21.608 12.5325 21.5062L14.25 20.85C14.7103 20.6721 15.2182 20.6602 15.6863 20.8162L16.35 21.0375C16.6706 21.1442 17.0119 21.173 17.3458 21.1215C17.6797 21.07 17.9965 20.9396 18.27 20.7412C18.4468 20.6121 18.5726 20.4249 18.6254 20.2124C18.6781 19.9999 18.6546 19.7756 18.5588 19.5787L14.7975 11.7375C14.3685 10.8495 14.3065 9.82832 14.625 8.895L15.375 6.75L13.71 4.695Z" stroke="black" stroke-width="1.2" stroke-linecap="round" stroke-linejoin="round"/>
<path d="M10.125 4.695V2.34" stroke="black" stroke-width="1.2" stroke-linecap="round" stroke-linejoin="round"/>
<path d="M13.71 4.695V2.34" stroke="black" stroke-width="1.2" stroke-linecap="round" stroke-linejoin="round"/>
<path d="M9.51758 10.3462H9.56258C11.1489 10.8476 12.8512 10.8476 14.4376 10.3462" stroke="black" stroke-width="1.2" stroke-linecap="round" stroke-linejoin="round"/>
</svg>
