<svg width="24" height="8" viewBox="0 0 24 8" fill="none" xmlns="http://www.w3.org/2000/svg">
<path d="M1.12523 6.57251V6.74876C1.12423 7.03753 1.23773 7.31492 1.44087 7.52017C1.644 7.72541 1.92021 7.84177 2.20898 7.84376H17.0477C18.2771 7.84234 19.5019 7.69507 20.6965 7.40501L22.4215 7.00001C22.6184 6.95037 22.7978 6.8471 22.9396 6.70169C23.0814 6.55628 23.1801 6.3744 23.2248 6.17627C23.2694 5.97814 23.2583 5.7715 23.1927 5.5793C23.127 5.3871 23.0093 5.21687 22.8527 5.08751H22.8302C22.9465 4.33751 22.969 3.23126 22.2752 2.52251C21.1502 1.37501 18.3227 0.685008 17.3327 0.591258C16.9846 0.560038 16.6352 0.635067 16.3306 0.80645C16.026 0.977832 15.7805 1.23752 15.6265 1.55126C15.3977 1.99751 14.8765 2.58626 13.6915 2.84126C11.2802 3.37001 7.08023 3.07001 5.79398 1.97876C5.12715 1.42134 4.42301 0.910154 3.68648 0.448758C3.48383 0.322668 3.25755 0.23933 3.02153 0.203863C2.78551 0.168395 2.54473 0.181546 2.31398 0.242508C2.08717 0.305309 1.8758 0.414354 1.69316 0.562786C1.51053 0.711217 1.36057 0.895827 1.25273 1.10501C1.09674 1.41202 0.971146 1.73355 0.877728 2.06501C0.491478 3.31001 1.12523 5.21876 1.36898 5.87501C1.20882 6.07194 1.12259 6.31869 1.12523 6.57251ZM22.3765 5.65001C22.4155 5.6833 22.4468 5.7247 22.4682 5.77134C22.4895 5.81797 22.5005 5.86871 22.5002 5.92001C22.5015 5.99677 22.4765 6.07168 22.4295 6.13235C22.3825 6.19303 22.3161 6.23585 22.2415 6.25376L20.5165 6.67376C19.3812 6.95187 18.2166 7.09288 17.0477 7.09376H2.20148C2.11295 7.08987 2.0294 7.05169 1.96851 6.98731C1.90762 6.92292 1.87417 6.83737 1.87523 6.74876V6.57251C1.87422 6.48264 1.9087 6.396 1.97119 6.33141C2.03368 6.26681 2.11913 6.22948 2.20898 6.22751H17.3065C18.2946 6.22819 19.2805 6.13274 20.2502 5.94251L22.1252 5.56751C22.1705 5.56319 22.2162 5.56829 22.2595 5.58249C22.3027 5.59669 22.3426 5.61968 22.3765 5.65001ZM1.58648 2.25251C1.67163 1.96524 1.78336 1.68654 1.92023 1.42001C1.97925 1.30321 2.06216 1.20012 2.16359 1.11743C2.26501 1.03474 2.38269 0.974293 2.50898 0.940008C2.63964 0.905317 2.77607 0.89807 2.90967 0.918723C3.04327 0.939376 3.17114 0.987482 3.28523 1.06001C3.9935 1.50108 4.67014 1.99102 5.31023 2.52626C6.93773 3.91001 11.5315 4.05626 13.8527 3.55001C15.319 3.22751 15.9902 2.45501 16.294 1.86626C16.3801 1.68912 16.5171 1.54169 16.6874 1.44283C16.8577 1.34396 17.0537 1.29815 17.2502 1.31126C18.3002 1.41251 20.8315 2.10626 21.7277 3.02126C22.1777 3.48251 22.1627 4.29251 22.1027 4.83251C22.054 4.82882 22.0052 4.82882 21.9565 4.83251L20.0815 5.20751C19.1598 5.38736 18.223 5.47778 17.284 5.47751H2.20148C2.14213 5.47922 2.0831 5.48676 2.02523 5.50001C1.73648 4.68251 1.32023 3.16001 1.58648 2.25251Z" fill="black"/>
</svg>
