<svg width="22" height="18" viewBox="0 0 22 18" fill="none" xmlns="http://www.w3.org/2000/svg">
<path d="M21.4661 15.9525L19.4598 4.74C19.3248 3.9975 18.6836 3.46125 17.9336 3.46125H15.7286C15.6573 1.66125 14.1761 0.217499 12.3573 0.217499H9.63858C7.82358 0.217499 6.33858 1.66125 6.26733 3.46125H4.06233C3.31233 3.46125 2.66733 4.00125 2.53608 4.74L0.529829 15.9525C0.447329 16.4062 0.567329 16.8675 0.863579 17.2237C1.15983 17.58 1.59483 17.7825 2.05608 17.7825H19.9361C20.3973 17.7825 20.8323 17.58 21.1286 17.2237C21.4248 16.8675 21.5448 16.4062 21.4623 15.9525H21.4661ZM7.01358 3.83625V3.6C7.01358 2.1525 8.19108 0.971249 9.64233 0.971249H12.3611C13.8086 0.971249 14.9898 2.14875 14.9898 3.6V3.83625V4.30125L7.01733 4.32375V3.84L7.01358 3.83625ZM20.5548 16.74C20.4011 16.9237 20.1761 17.0287 19.9398 17.0287H2.05983C1.81983 17.0287 1.59483 16.9237 1.44483 16.74C1.29108 16.5562 1.22733 16.3162 1.27233 16.0837L3.27858 4.87125C3.34608 4.48875 3.67983 4.2075 4.06983 4.2075H6.26733V4.32C6.26733 4.72125 6.59358 5.0475 6.99483 5.0475H15.0086C15.4098 5.0475 15.7361 4.72125 15.7361 4.32V4.2075H17.9336C18.3236 4.2075 18.6536 4.485 18.7248 4.87125L20.7311 16.0837C20.7723 16.3162 20.7086 16.5562 20.5586 16.74H20.5548Z" fill="black"/>
</svg>
