<svg width="22" height="17" viewBox="0 0 22 17" fill="none" xmlns="http://www.w3.org/2000/svg">
<path d="M19.6562 11.6428L14.875 10.5656L4.53063 0.219375C4.45898 0.147758 4.37356 0.0913974 4.27954 0.0536947C4.18551 0.015992 4.08482 -0.00227135 3.98354 6.53439e-06C3.88226 0.00228442 3.7825 0.0250564 3.69026 0.0669484C3.59802 0.10884 3.51523 0.168984 3.44687 0.24375C1.38531 2.4975 0.25 5.34375 0.25 8.25V15C0.25 15.3978 0.408035 15.7794 0.68934 16.0607C0.970644 16.342 1.35218 16.5 1.75 16.5H4.75C5.14782 16.5 5.52936 16.342 5.81066 16.0607C6.09196 15.7794 6.25 15.3978 6.25 15V10.4119C6.48344 10.5478 6.71312 10.6931 6.93812 10.8469C8.64061 12.0153 9.96249 13.6579 10.7397 15.5709C10.852 15.8471 11.0445 16.0832 11.2923 16.2488C11.5401 16.4144 11.8319 16.5019 12.13 16.5H20.5C20.8978 16.5 21.2794 16.342 21.5607 16.0607C21.842 15.7794 22 15.3978 22 15V14.5566C22.0017 13.876 21.77 13.2155 21.3434 12.6852C20.9169 12.1549 20.3213 11.787 19.6562 11.6428ZM4.75 15H1.75V9.02719C2.77755 9.09981 3.7886 9.32477 4.75 9.69469V15ZM20.5 15H12.1262C11.2386 12.8186 9.73035 10.9456 7.78844 9.61312C6.01134 8.3846 3.93325 7.66317 1.77719 7.52625C1.9463 5.4511 2.73583 3.47482 4.04312 1.85438L13.9694 11.7806C14.0698 11.8807 14.1966 11.9503 14.335 11.9813L19.3263 13.1063C19.6591 13.1771 19.9574 13.3602 20.1711 13.625C20.3849 13.8898 20.501 14.22 20.5 14.5603V15Z" fill="#343330"/>
</svg>
