<svg width="14" height="18" viewBox="0 0 14 18" fill="none" xmlns="http://www.w3.org/2000/svg">
<path d="M7.31033 10.7956L7.19237 9.99215C7.17444 9.83615 7.13429 9.43115 6.86197 9.61701C6.84034 9.63177 6.82873 9.72588 6.82541 9.75337L6.59307 11.4174C6.56361 11.6619 6.58353 11.9117 6.5551 12.1582L6.48573 12.6269C6.45008 12.8942 6.41816 13.164 6.35727 13.4271L6.11717 14.3457C5.96415 14.977 5.97474 15.1743 5.61472 15.7441C5.46069 15.988 5.44013 15.9581 5.43917 16.2766L5.43812 16.962C5.43809 17.0988 5.46718 17.3091 5.40153 17.4285L5.39323 17.4434C5.22334 17.7614 4.81794 17.8164 4.49248 17.8613C3.43634 18.0071 1.81238 17.9123 1.11144 16.9644L1.06456 16.8978C1.01363 16.8145 0.968281 16.731 0.964391 16.632L0.962891 4.80142C0.963266 4.56344 0.98518 4.34212 1.0269 4.10742L1.16867 3.4746C1.31459 2.91318 1.62861 2.16004 1.63878 1.58997C1.64103 1.46435 1.61328 1.32963 1.64462 1.20623L1.64928 1.18945C1.67033 1.10817 1.71905 1.03849 1.75344 0.962432C2.02972 0.351627 2.16552 0.0549086 2.85795 0.0542054L5.52427 0.0538539L11.0007 0.0524005C11.177 0.0521192 11.3988 0.0277913 11.5693 0.0634397C12.0329 0.16033 12.2439 0.626244 12.3257 1.04779L12.3294 1.06741C12.3666 1.26107 12.3231 1.46282 12.3535 1.6548C12.371 1.7654 12.4268 1.87375 12.4604 1.98046L12.7471 3.08774C12.7854 3.25553 12.8195 3.42468 12.8597 3.59179L12.9811 4.20053C13.0093 4.38541 13.0315 4.56592 13.0317 4.75317L13.0332 16.1051C13.0355 16.9199 13.0162 17.1564 12.2501 17.5551C11.8902 17.7424 11.3674 17.8996 10.9625 17.9455C10.3562 18.0143 8.88969 17.9619 8.62112 17.4232L8.61144 17.4032C8.55495 17.2885 8.57335 17.1396 8.57295 17.0141L8.5715 16.3311C8.57131 16.2248 8.60877 16.0282 8.53658 15.9402C8.17039 15.4936 7.96991 14.5738 7.83915 14.0098C7.73035 13.5404 7.60456 13.0689 7.53226 12.5921L7.31033 10.7956ZM6.7363 0.800479L3.08195 0.801487C2.65334 0.801909 2.62334 0.739799 2.46479 1.22488L3.89794 1.37934C3.99884 1.39007 4.10063 1.40784 4.20223 1.40749C4.41636 1.41649 4.61375 1.4486 4.81191 1.45717L5.96966 1.50342L7.7026 1.50239C7.89821 1.49245 8.16713 1.48682 8.34657 1.46594C8.25434 1.15394 7.98268 0.944432 7.68566 0.831861C7.52077 0.769354 7.32329 0.797151 7.14887 0.79858L6.7363 0.800479ZM10.5728 0.801088L9.51055 0.801205C9.28927 0.801393 9.06151 0.790588 8.84164 0.815104L8.8382 0.824783C8.96391 1.03804 9.01459 1.19941 9.08073 1.44107L9.78629 1.37299L11.3653 1.23049C11.4494 1.22341 11.5372 1.22493 11.6197 1.20789L11.6149 1.19742C11.4187 0.764455 11.5538 0.79926 11.0369 0.799799L10.5728 0.801088ZM2.32911 1.95878L2.21802 2.5371C2.13005 2.90271 1.99991 3.26163 1.89659 3.6236L1.70377 4.47356C1.67471 4.60094 1.68898 4.75453 1.68877 4.8857L1.68458 7.30907C1.68566 7.339 1.69159 7.36092 1.70218 7.38867L1.71978 7.40636C1.76994 7.38534 1.79752 7.32787 1.82335 7.2831C2.25472 6.45257 2.37814 5.41141 2.44381 4.4901L2.56271 2.61154C2.56653 2.54931 2.57994 2.48964 2.58521 2.428L2.61017 1.99614L2.32911 1.95878ZM11.6637 1.96288L11.4541 1.97955C11.4443 2.12064 11.4499 2.26253 11.4518 2.40384L11.5306 4.01589C11.5748 4.72478 11.6348 5.79117 11.8277 6.48046L11.9274 6.82338C11.9848 7.00617 12.0805 7.21113 12.1948 7.36528L12.2332 7.41463C12.2593 7.43892 12.285 7.47562 12.3127 7.49509L12.3156 5.64635C12.3156 5.32614 12.3379 4.99176 12.3099 4.67348C12.2756 4.2836 12.1665 3.89716 12.0808 3.51583L11.8101 2.41992C11.7714 2.27153 11.7377 2.11349 11.6887 1.96846L11.6637 1.96288ZM10.4943 2.08007L9.05366 2.19637C9.04538 2.85239 9.10379 3.54405 8.9885 4.19345C8.91479 4.60872 8.76988 5.00629 8.63769 5.4052C8.39799 6.12853 7.83425 6.37879 7.13734 6.37546C6.83408 6.37403 6.62764 6.27112 6.49037 5.97602L6.4708 5.9294C6.39596 5.74919 6.44602 5.08338 6.44605 4.85362L6.44591 2.48648C6.44577 2.4089 6.45172 2.32574 6.44019 2.24922L3.35584 2.09299C3.3286 2.27467 3.33664 2.45817 3.32096 2.64077L3.04428 5.76522C2.94446 6.43345 2.64936 7.69724 2.12216 8.08893L1.85366 8.26141C1.79832 8.29162 1.73865 8.29685 1.68995 8.33871L1.6883 11.9838C1.68833 12.2719 1.70295 12.2041 1.95601 12.3691C2.32311 12.6086 2.78192 12.772 3.21781 12.8008C3.51427 12.821 3.81908 12.86 4.11462 12.8163C4.68884 12.7315 5.31179 12.4396 5.67301 11.9727C5.81031 11.7953 5.82137 11.6987 5.84061 11.4816C5.8734 11.1118 5.97683 10.7488 6.01979 10.3798L6.06052 9.99913C6.08959 9.61652 6.11335 9.27006 6.44422 9.02027C6.93725 8.64808 7.53896 8.87184 7.81002 9.37206L7.8493 9.4567C7.8908 9.54574 7.88666 9.66445 7.89521 9.76117L8.10275 11.2353C8.11522 11.3868 8.1136 11.5474 8.14269 11.6959L8.14571 11.7122C8.18546 11.9197 8.5685 12.2753 8.74074 12.3923C9.73707 13.069 11.1168 12.8811 12.1036 12.2805C12.1551 12.2492 12.311 12.1858 12.3177 12.1328L12.3175 8.42123C12.2691 8.37466 12.2146 8.36901 12.1601 8.33545C11.1995 7.74414 11.0779 6.59355 10.9307 5.57589C10.9016 5.37522 10.8659 5.16325 10.8552 4.96101L10.8108 4.27303C10.7978 3.98826 10.7619 3.69424 10.7583 3.41962L10.712 2.07288C10.6408 2.07405 10.5645 2.07035 10.4943 2.08007ZM7.60461 2.24121L7.16989 2.24484L7.17727 5.62729C7.38329 5.60634 7.56188 5.57519 7.74352 5.46857C7.96152 5.28149 8.28643 4.12978 8.3112 3.82183C8.34134 3.44706 8.32147 3.05753 8.32168 2.68117L8.3217 2.38415C8.32166 2.33788 8.3282 2.28386 8.31425 2.24017L7.60461 2.24121ZM5.64153 13.0254C5.39727 13.1508 5.17391 13.2996 4.91532 13.3987C3.95314 13.7672 2.7268 13.5666 1.81597 13.1647C1.77568 13.147 1.72597 13.1365 1.69196 13.1087L1.68798 14.7292C1.688 14.8331 1.6772 14.8968 1.75119 14.9804L1.96009 15.2322C2.33495 15.5883 2.78605 15.8551 3.3043 15.9329C4.04042 16.0433 4.86245 15.721 5.17065 15.01C5.27 14.7807 5.30966 14.5373 5.37132 14.2969L5.59182 13.3727C5.61369 13.2637 5.64645 13.1495 5.65316 13.0386L5.64153 13.0254ZM12.2967 13.084C11.3201 13.5713 10.1556 13.7632 9.11675 13.4199C8.85777 13.3343 8.62698 13.2087 8.38651 13.0831L8.61866 14.0859C8.6957 14.4125 8.74203 14.719 8.87593 15.0311C8.93567 15.1584 9.0008 15.2888 9.08586 15.4014C9.47 15.9095 10.2567 16.0508 10.8556 15.9029C11.3968 15.7693 11.8181 15.5464 12.2073 15.1383C12.2974 15.0438 12.3129 15.0697 12.3139 14.9347L12.3156 13.3847C12.3151 13.2879 12.3264 13.1749 12.3075 13.0809L12.2967 13.084ZM1.6967 16.008L1.68882 16.3941C1.68976 16.61 1.77549 16.6135 1.96658 16.739C2.7699 17.2661 3.8011 17.255 4.70837 17.0472L4.71364 16.9313L4.70973 16.4612C3.68405 16.9158 2.56955 16.7177 1.6967 16.008ZM12.297 16.0759C11.5468 16.5496 10.7251 16.8611 9.82402 16.6598L9.30971 16.5022C9.27624 16.6087 9.28534 16.9009 9.30069 17.0098L9.31456 17.0486C9.48899 17.1315 9.69083 17.1425 9.87706 17.1823C10.6431 17.3463 11.6259 17.0954 12.2777 16.6893C12.2897 16.6818 12.2983 16.672 12.3077 16.6617L12.311 16.2333C12.3095 16.1863 12.3135 16.1193 12.297 16.0759Z" fill="black"/>
</svg>
