<svg width="24" height="22" viewBox="0 0 24 22" fill="none" xmlns="http://www.w3.org/2000/svg">
<path d="M21.7423 20.5662H2.25732C1.58607 20.5662 1.03857 20.0225 1.03857 19.3475V16.9587H22.9611V19.3475C22.9611 20.0225 22.4173 20.5662 21.7423 20.5662Z" stroke="#231F20" stroke-miterlimit="10" stroke-linecap="round" stroke-linejoin="round"/>
<path d="M22.9611 16.9587H1.03857L3.38607 13.0362H20.6136L22.9611 16.9587Z" stroke="#231F20" stroke-miterlimit="10" stroke-linecap="round" stroke-linejoin="round"/>
<path d="M3.38623 13.0362H20.6137V2.46125C20.6137 1.895 20.1562 1.43375 19.5862 1.43375H4.41373C3.84748 1.43375 3.38623 1.89125 3.38623 2.46125V13.0362Z" stroke="#231F20" stroke-miterlimit="10" stroke-linecap="round" stroke-linejoin="round"/>
<path d="M13.8521 15.2487C14.7446 14.6487 15.3371 13.6325 15.3371 12.4737C15.3371 10.6325 13.8409 9.14 11.9996 9.14C10.1584 9.14 8.66211 10.6325 8.66211 12.4737C8.66211 13.6325 9.25086 14.6525 10.1471 15.2487" stroke="#231F20" stroke-miterlimit="10" stroke-linecap="round" stroke-linejoin="round"/>
<path d="M11.9997 9.13624L10.376 7.05874L11.1897 5.97874H11.9997" stroke="#231F20" stroke-miterlimit="10" stroke-linecap="round" stroke-linejoin="round"/>
<path d="M11.9997 9.13624L10.376 7.05874L11.1897 5.97874H11.9997" stroke="#231F20" stroke-miterlimit="10" stroke-linecap="round" stroke-linejoin="round"/>
<path d="M12 9.13624L13.6238 7.05874L12.81 5.97874H12" stroke="#231F20" stroke-miterlimit="10" stroke-linecap="round" stroke-linejoin="round"/>
<path d="M8.66992 15.2487H15.3299" stroke="#231F20" stroke-miterlimit="10" stroke-linecap="round" stroke-linejoin="round"/>
<path d="M9.04496 6.7175H7.89746" stroke="#231F20" stroke-miterlimit="10" stroke-linecap="round" stroke-linejoin="round"/>
<path d="M9.04492 4.12624L9.80992 4.78624" stroke="#231F20" stroke-miterlimit="10" stroke-linecap="round" stroke-linejoin="round"/>
<path d="M12 2.89999V4.02499" stroke="#231F20" stroke-miterlimit="10" stroke-linecap="round" stroke-linejoin="round"/>
<path d="M14.9546 6.7175H16.1021" stroke="#231F20" stroke-miterlimit="10" stroke-linecap="round" stroke-linejoin="round"/>
<path d="M14.9549 4.12624L14.1899 4.78624" stroke="#231F20" stroke-miterlimit="10" stroke-linecap="round" stroke-linejoin="round"/>
</svg>
    