<svg width="15" height="25" viewBox="0 0 15 25" fill="none" xmlns="http://www.w3.org/2000/svg">
<path d="M10.1095 9.99983L4.77749 9.99904C4.65967 9.99499 4.5632 9.91482 4.51951 9.80859L4.51478 9.79685C4.47486 9.70457 4.49476 9.54918 4.49465 9.44834L4.49447 8.92426C4.49444 8.84212 4.52991 8.76446 4.44843 8.72077C4.00175 8.4812 3.76619 8.03475 3.64475 7.56783C3.62368 7.48685 3.60868 7.39826 3.57905 7.32025L3.55832 7.25526L2.3047 9.07454C1.94797 9.62137 1.22706 9.6459 0.721307 9.30382C0.638044 9.24751 0.563711 9.17961 0.480682 9.12257C0.283097 8.98684 0.0666099 8.92823 0.0146442 8.65699L0.00193634 8.57985C-0.0242114 8.2853 0.220934 7.91389 0.346385 7.65459L3.3774 1.53474C3.64742 1.02769 4.21595 0.643512 4.77864 0.544029C5.19818 0.46985 5.13349 0.522163 5.47609 0.177777C5.56089 0.0925319 5.60695 0.0193378 5.73674 0.00595874C5.89662 0.013039 5.96344 0.100784 6.08364 0.190968C6.26549 0.327369 6.44744 0.462895 6.64952 0.568896C7.3761 0.950059 8.12363 0.796356 8.76813 0.325666L9.00068 0.150331C9.29561 -0.0824432 9.33752 -0.0283017 9.57795 0.198971C9.6389 0.256598 9.86519 0.48151 9.9414 0.506455C9.97445 0.517287 10.0333 0.514395 10.0701 0.518724C10.6747 0.589871 11.3127 0.924613 11.6179 1.46592L14.208 6.68865L14.9336 8.22037C14.9969 8.36344 15.0209 8.53079 14.9792 8.68301L14.9758 8.695C14.9097 8.93615 14.7265 9.0034 14.5392 9.13133L14.2798 9.32442C14.0617 9.48249 13.7374 9.62561 13.4577 9.57894L13.3955 9.56764C13.0386 9.4914 12.8255 9.21212 12.6322 8.93159L11.5507 7.34119C11.5295 7.313 11.5065 7.28841 11.4873 7.25845L11.3445 7.77541C11.2287 8.16746 10.911 8.5561 10.5498 8.75052C10.4852 8.78531 10.6021 9.70754 10.5066 9.84661L10.4988 9.85759C10.3944 10.0088 10.279 10.0001 10.1095 9.99983ZM9.24678 0.558565C9.10703 0.671849 8.97141 0.784712 8.81857 0.880944C7.91713 1.44854 6.82652 1.38347 5.9936 0.723818C5.8296 0.593951 5.84616 0.515489 5.66213 0.662675L5.63458 0.685744C5.69738 0.921628 5.77674 1.12478 5.91797 1.32938C6.8892 2.62036 8.94017 2.29792 9.40024 0.705094L9.24678 0.558565ZM5.21751 0.960781C4.65841 1.03929 4.25721 1.14388 3.88994 1.62648C3.74458 1.81751 3.65549 2.05546 3.5479 2.26896L2.31777 4.71097L1.08454 7.23549L2.46479 7.98964L3.35687 6.72418C3.40637 6.65703 3.40634 6.66863 3.38916 6.58792L3.00104 5.04065C2.97842 4.9244 3.03539 4.83517 3.13551 4.77968L3.14786 4.77271C3.25326 4.71683 3.38045 4.77166 3.43384 4.87011L3.44058 4.88204C3.49314 4.98263 3.59397 5.44146 3.62419 5.56798L3.71766 5.95774C3.73565 6.03206 3.75086 6.11191 3.77601 6.18384L3.99514 7.01345C4.0067 7.04934 4.01 7.08563 4.01909 7.12157L4.10043 7.43772C4.23531 7.9705 4.63285 8.44619 5.21292 8.50741C5.33627 8.52043 5.47336 8.5123 5.59723 8.50469L5.20352 7.7346C5.16877 7.6785 5.12486 7.61672 5.10946 7.5522L5.10724 7.54344C5.05804 7.33597 5.30997 7.18913 5.48431 7.29999C5.5471 7.33991 5.59983 7.46084 5.63603 7.52469L6.09207 8.41257C6.10262 8.43618 6.12115 8.49961 6.14459 8.51035C6.16418 8.5193 6.95628 8.51105 7.06467 8.51105L7.07719 8.41213C7.08522 8.32685 7.11974 8.234 7.14738 8.15324L7.37139 7.58827C7.40359 7.51217 7.44887 7.35809 7.51263 7.30525C7.65151 7.19013 7.83268 7.28049 7.8966 7.42716L7.90245 7.43976C7.92612 7.49321 7.92435 7.54963 7.90304 7.60299L7.61265 8.30524C7.58668 8.37167 7.55116 8.43773 7.5318 8.5061L8.87696 8.51135C8.91546 8.46366 8.96562 8.33919 8.99664 8.27914L9.21481 7.86407L9.43583 7.4625C9.51812 7.31595 9.60988 7.17428 9.82199 7.29213C9.86891 7.31822 9.89672 7.36351 9.91674 7.41153L9.9209 7.42116C9.93949 7.4649 9.94888 7.52061 9.93108 7.56633L9.91846 7.5944C9.87567 7.68735 9.81345 7.77444 9.762 7.86315L9.62938 8.11842C9.56132 8.24602 9.48302 8.37246 9.43064 8.50717C10.0451 8.54731 10.5957 8.31574 10.8581 7.72176C10.9556 7.50109 10.9862 7.24804 11.0444 7.01488L11.5355 5.06167C11.5521 4.99706 11.5646 4.91585 11.6011 4.85949C11.7345 4.65384 12.1383 4.75055 11.999 5.15303C11.9855 5.19229 11.9754 5.23519 11.9649 5.27546L11.6448 6.60413C11.6378 6.64655 11.6493 6.64523 11.6734 6.68084L12.4772 7.84157C12.5063 7.8837 12.5316 7.94711 12.5661 7.98269L13.9594 7.23211L11.4827 2.23901C11.1226 1.5175 10.8394 1.09263 9.99116 0.9904L9.8259 0.969268C9.78819 1.10623 9.72375 1.24304 9.65457 1.36742C8.67242 3.13318 5.97296 2.97749 5.25715 1.09254C5.24307 1.05547 5.2366 0.990681 5.21751 0.960781ZM14.1681 7.66482L12.8486 8.37515C12.9678 8.61493 13.0959 8.81071 13.3452 8.92737C13.5875 9.05012 13.7568 9.08896 14.0002 8.93421L14.5615 8.5651C14.5246 8.45483 14.2369 7.74862 14.1681 7.66482ZM0.863976 7.67144L0.467125 8.54083C0.555785 8.61188 0.656395 8.66957 0.749861 8.7344C0.949051 8.87258 1.12215 9.05447 1.38502 9.02491L1.3999 9.02311C1.51385 9.01008 1.59651 8.98842 1.69894 8.93809C1.92796 8.81147 2.06302 8.60666 2.18736 8.38395L0.863976 7.67144ZM4.98865 8.95684L4.98638 9.51098L10.0491 9.49218L10.0485 9.15076C10.0484 9.08813 10.0525 9.02283 10.0457 8.96078L10.0327 8.96378C9.87562 8.99883 9.72598 8.99933 9.56621 8.99948L5.53647 8.99945C5.29236 8.99936 5.22207 8.99526 4.98865 8.95684Z" fill="black"/>
<path d="M8.19994 20.3057L7.91464 17.6944C7.90498 17.7557 7.8917 17.8176 7.88569 17.8793L7.79937 18.9073L7.46753 21.8049L7.13166 23.9913L6.94137 24.7872C6.92865 24.8483 6.88972 24.9196 6.83371 24.9533L6.82344 24.9593C6.66755 25.0514 5.8609 24.8916 5.65071 24.8629L5.05853 24.7938C4.70432 24.7606 4.53737 24.9011 4.45768 24.4895L4.41102 24.2244C4.31464 23.7048 4.25656 23.1079 4.22412 22.5774L4.18136 21.6659C4.17843 21.6146 4.16807 21.5643 4.1665 21.5128L4.16667 19.1348C4.16814 19.0654 4.18161 18.9976 4.18326 18.9288L4.18696 18.5175C4.19056 18.4342 4.20878 18.3525 4.21296 18.2688L4.21943 17.9215C4.22051 17.8463 4.21934 17.7695 4.23575 17.6957C4.27376 17.5246 4.26562 17.1953 4.27908 16.9859L4.33172 15.9651C4.33438 15.929 4.34321 15.894 4.34536 15.8577L4.52603 13.0378L4.77057 11.1391C4.78099 10.9795 4.7728 10.8988 4.95192 10.8353L10.8546 10.8333C10.9499 10.8346 11.0157 10.8851 11.0426 10.9755L11.0464 10.9898C11.066 11.0502 11.0614 11.0998 11.0642 11.1625L11.1463 11.8906C11.225 12.3647 11.3014 12.8424 11.3336 13.3219L11.381 14.5915L11.5174 16.5517C11.5217 16.6041 11.5319 16.6549 11.5346 16.708L11.5675 17.2683C11.5762 17.3888 11.5625 17.5169 11.5855 17.6359L11.5987 17.7058C11.6076 17.7682 11.604 17.8377 11.6059 17.9009L11.6136 18.3996C11.6167 18.4841 11.6361 18.5674 11.6392 18.652L11.647 19.2097C11.6488 19.288 11.6646 19.3642 11.6665 19.4421L11.666 21.5342C11.6643 21.5935 11.651 21.6508 11.6479 21.7096L11.6014 22.7068C11.5986 22.754 11.5892 22.7996 11.5842 22.8465L11.5459 23.2474C11.5192 23.5185 11.494 23.7903 11.4468 24.059L11.3656 24.4994C11.3008 24.7783 11.2612 24.7834 10.9994 24.7851C10.8921 24.7858 10.7828 24.7891 10.6761 24.8011L9.18468 24.9976C8.97336 25.0193 8.91842 24.889 8.87566 24.7209L8.80841 24.4445C8.60135 23.5781 8.46591 22.6984 8.35995 21.8157L8.19994 20.3057ZM5.32805 11.2368L5.17677 11.2408L4.8835 13.5321C5.04407 13.4833 5.18781 13.3936 5.30998 13.2831C5.76235 12.8454 5.98892 12.2553 5.98943 11.6444L5.9839 11.2382L5.32805 11.2368ZM6.48062 11.2368L6.39561 11.2422C6.38482 11.3211 6.39067 11.4046 6.3908 11.4842L6.37917 11.8503C6.3277 12.5441 6.05676 13.2361 5.46171 13.6719C5.27506 13.8087 5.10232 13.9038 4.87201 13.946L4.80097 15.1141C4.79783 15.1606 4.78677 15.2065 4.78379 15.2537L4.76618 15.5932C4.76102 15.6485 4.74881 15.7026 4.74513 15.7587L4.67025 17.1227C4.66749 17.1681 4.65341 17.2095 4.6501 17.2562L4.60399 18.5488C4.60127 18.6263 4.5811 18.7027 4.57892 18.781L4.58078 21.8481C4.58373 21.9191 4.60199 21.9878 4.60655 22.0581L4.65121 22.9191L4.76828 23.9295C4.79084 24.0778 4.80341 24.2394 4.84528 24.3837C5.07517 24.3836 5.30196 24.4097 5.52934 24.44L6.11132 24.5167C6.26653 24.5393 6.42751 24.5733 6.58445 24.5796L6.75626 23.7898C6.93533 22.8898 7.04663 21.976 7.14538 21.0651L7.6778 16.3059C7.68764 16.2306 7.68423 16.1496 7.71101 16.0775C7.78599 15.8757 8.05246 15.8938 8.11473 16.0876L8.12089 16.1039C8.1477 16.1755 8.14155 16.2592 8.14878 16.3347L8.19934 16.7565C8.20903 16.8399 8.20895 16.93 8.22837 17.0117L8.60504 20.2885L8.78711 22.0145L8.94552 23.1191C9.0217 23.6133 9.14636 24.0987 9.25301 24.5874L10.9774 24.3773C11.0318 24.1401 11.0598 23.9077 11.0933 23.668L11.2124 22.4777L11.253 21.7229L11.2542 18.9994L11.2219 18.552L11.0792 15.8393L11.0231 15.2072L10.9541 13.9261C10.9055 13.9148 10.8545 13.9119 10.8069 13.8989C10.1155 13.7107 9.62659 12.8889 9.50043 12.2647C9.42378 11.8854 9.48478 11.5731 9.43989 11.2393L6.48062 11.2368ZM9.91179 11.2368L9.85515 11.2417C9.83873 11.266 9.84276 11.3267 9.84089 11.3574L9.83756 11.6293C9.83774 11.714 9.83523 11.8013 9.8522 11.8848L9.85738 11.9068C9.86986 11.9628 9.86973 12.0215 9.88007 12.0779L9.93373 12.3053C10.0537 12.7631 10.3482 13.271 10.8156 13.4681L10.8801 13.4908L10.9213 13.4963C10.938 13.4695 10.9235 13.3798 10.9222 13.3454L10.9163 13.1394L10.6692 11.2385L9.91179 11.2368Z" fill="black"/>
</svg>
