<svg width="10" height="20" viewBox="0 0 10 20" fill="none" xmlns="http://www.w3.org/2000/svg">
<path d="M5.38811 9.51654C5.4352 9.06281 5.50605 8.52757 5.39304 8.0771L5.38727 8.0546C5.34604 7.8904 5.15514 7.61747 4.98815 7.58644C4.9241 7.60399 4.89049 7.65659 4.84851 7.7036C4.56412 8.022 4.56314 8.06841 4.55125 8.51944C4.53881 8.99152 4.58723 9.45987 4.62522 9.9296L4.66197 10.2882L4.66293 12.156L4.33779 16.8794C4.3301 17.129 4.34304 17.394 4.29923 17.64C4.24797 17.928 4.33776 19.3469 4.25756 19.4519L4.24863 19.4628C4.21694 19.5022 4.18638 19.53 4.14346 19.5571L4.12682 19.5673C4.01439 19.6381 3.8185 19.5991 3.69114 19.5992L1.92797 19.5994C1.78193 19.5993 1.48115 19.6538 1.35993 19.5593L1.34948 19.551C1.30757 19.5201 1.28104 19.495 1.25273 19.4502L1.24127 19.4313C1.16634 19.3111 1.22845 19.1253 1.24343 18.9942L1.3113 18.3363C1.36228 17.6867 1.35736 16.7372 1.31048 16.0881L1.15603 14.5761L0.752199 11.8444L0.587809 9.89667L0.586426 7.74141C0.594066 7.56028 0.626293 7.38239 0.636465 7.20218L0.731879 6.19132C0.832285 5.34492 0.98634 4.49412 1.48307 3.78096L1.96961 3.14904C2.41919 2.52785 2.58269 1.78528 2.4217 1.02921C2.3703 0.787853 2.21613 0.478548 2.56664 0.381494L6.92165 0.378798C7.10296 0.378869 7.3027 0.362345 7.48218 0.386205C7.78971 0.427126 7.61196 0.899251 7.58292 1.04428C7.42762 1.81985 7.59243 2.57817 8.06758 3.21656L8.41589 3.64997C8.57805 3.8659 8.74502 4.12828 8.84904 4.38047L8.98943 4.74635C9.00382 4.78458 9.01615 4.82283 9.02444 4.86293L9.12876 5.27719C9.18417 5.4517 9.19673 5.65315 9.2234 5.8339L9.3592 7.09367C9.36803 7.1985 9.38826 7.30144 9.39464 7.4063L9.40443 10.0828L9.24236 12.039L8.80446 15.006C8.78831 15.1203 8.78454 15.2375 8.77336 15.3525L8.66353 16.9093C8.63711 17.7951 8.77614 18.5393 8.79607 19.3872C8.76532 19.4519 8.72807 19.4996 8.67218 19.545L8.65591 19.5579C8.55288 19.6419 8.35556 19.5992 8.2316 19.5994L6.46741 19.5994C6.32599 19.5994 6.0175 19.6428 5.8975 19.5708L5.88464 19.5628C5.78723 19.5038 5.73576 19.4358 5.73056 19.3233L5.70932 17.5203C5.70555 17.3527 5.67754 17.1868 5.66953 17.0194L5.65994 16.5131L5.37368 12.6542C5.362 12.524 5.33894 12.3929 5.33214 12.2627L5.32882 10.3601C5.33346 10.0769 5.37082 9.79922 5.38811 9.51654ZM3.17219 0.944978L2.95734 0.955197L3.00295 1.15029C3.05083 1.32752 3.00932 1.53481 3.06239 1.70998L6.8778 1.7112L6.97783 1.7224C6.97877 1.55646 6.9701 1.38516 7.00106 1.22149L7.0331 0.953556L3.17219 0.944978ZM2.99957 2.26341C2.90922 2.73713 2.59711 3.25163 2.31065 3.63333C2.12205 3.8846 1.91224 4.12955 1.76655 4.41007C1.27757 5.35153 1.23625 6.47759 1.179 7.51549L1.14972 9.99992C1.16618 10.4122 1.20077 10.9545 1.25219 11.3503L1.46144 12.9296C1.47232 12.9993 1.47286 13.0715 1.48518 13.1405L1.843 15.6635L1.86239 16.2753C1.86722 16.3932 1.89117 16.5089 1.89316 16.6269L1.89438 17.4052C1.8941 17.5807 1.90003 17.7591 1.88854 17.9341L1.83614 18.6133C1.82388 18.7528 1.80096 18.8869 1.80204 19.0283L3.72583 19.0328C3.7725 18.483 3.73244 17.9145 3.77095 17.3411L3.83573 15.7444C3.84098 15.6574 3.85924 15.573 3.86575 15.4865L4.06242 12.9143L4.10505 11.8828C4.11318 11.393 4.12629 10.8903 4.09959 10.4015L3.99246 9.05867L3.9896 8.57508C3.99576 7.91159 4.09392 7.5252 4.666 7.11145C4.88742 6.95133 4.75357 6.96492 4.7283 6.64826C4.7036 6.33839 4.71853 6.01742 4.71958 5.70633L4.72214 5.40816C4.73252 5.0974 5.10269 4.99967 5.24913 5.29109C5.2908 5.37399 5.26858 5.55124 5.26858 5.64767L5.27097 6.42917C5.2747 6.52535 5.2949 6.61531 5.30371 6.70945L5.36882 7.03509C5.40457 7.21931 5.77757 7.43585 5.90198 7.81437L5.9081 7.82995C6.02311 8.14045 6.00403 8.9708 5.98188 9.32569L5.8916 10.4044L5.88923 12.0189C5.89111 12.1791 5.91579 12.3348 5.92361 12.4942L5.93669 12.9501C5.94253 13.04 5.96207 13.1267 5.96875 13.2162L6.21154 16.5067C6.22242 16.6942 6.25434 16.8834 6.26039 17.0699L6.26634 18.2558C6.27021 18.361 6.28793 18.4668 6.29425 18.5722L6.30143 19.0321L7.52528 19.0324C7.74996 19.0321 7.98902 19.0471 8.21236 19.0235L8.18018 18.6346C8.1232 18.0329 8.09791 17.4302 8.11718 16.8254L8.18011 15.763C8.18735 15.6145 8.18641 15.4628 8.20293 15.3151L8.64993 12.2933L8.84552 10.0842L8.8511 7.82222L8.71989 6.30701C8.63611 5.62287 8.56174 4.96704 8.20624 4.35586C7.76191 3.59194 7.24429 3.24992 7.00432 2.27152L2.99957 2.26341Z" fill="black"/>
</svg>
