<svg width="12" height="24" viewBox="0 0 12 24" fill="none" xmlns="http://www.w3.org/2000/svg">
<path d="M10.5327 17.9044L10.0255 18.0939C9.60956 18.2696 9.20705 18.4994 8.83713 18.7577C8.646 19.137 8.5436 19.5823 8.43565 19.9912L7.8023 22.6077C7.70998 23.0198 7.73224 23.1639 7.24336 23.2289C6.77953 23.2906 6.31029 23.331 5.84191 23.3206L5.3078 23.2831C5.15023 23.2711 4.94173 23.196 4.78868 23.2181C4.72069 23.228 4.63416 23.2381 4.56713 23.2193L4.48254 23.1909C4.2908 23.099 4.26117 22.7978 4.21645 22.616L3.46441 19.5858C3.38126 19.3052 3.27073 19.0378 3.17433 18.7624C2.48046 18.2973 1.6718 17.833 0.820477 17.7606C0.621306 17.7436 0.454922 17.7608 0.329414 17.5638C0.00459394 17.0542 0.885306 14.1712 1.10597 13.5384L1.40309 12.6535C1.7007 11.7618 1.81402 11.3074 1.5698 10.3627C1.44595 9.88368 1.27528 9.42787 1.11605 8.96041L0.997594 8.60156C0.907828 8.28159 0.881977 8.3024 0.747797 8.01932C0.231376 6.93002 0.338063 6.19097 0.800766 5.148L1.28564 4.10864C1.41551 3.8148 1.41663 3.88863 1.37719 3.58007L1.14837 1.98455C1.06973 1.44062 1.00041 0.806157 1.72366 0.695438C2.09627 0.62498 2.48285 0.966127 2.58577 1.30055C2.69241 1.64715 2.72363 2.00712 2.74971 2.36718L2.78918 3.64629C2.81363 3.6719 2.83289 3.69061 2.86746 3.70087L2.88469 3.70589C2.94624 3.7255 3.00473 3.75958 3.06431 3.78489L3.40512 3.931C4.37777 4.36903 5.02966 4.90275 5.62772 5.76754C5.73211 5.9185 5.85884 6.08664 5.93836 6.25195C6.02102 6.42375 6.03009 6.31263 6.09417 6.19921L6.28165 5.88354C6.79957 5.07117 7.47684 4.47869 8.34099 4.06453L9.09837 3.73057C9.13043 3.71606 9.21879 3.69686 9.23693 3.66911C9.25057 3.64825 9.24438 3.05585 9.24562 2.98036C9.24759 2.86068 9.26524 2.743 9.27223 2.62371L9.32391 1.96551C9.3702 1.46394 9.48068 0.7982 10.0909 0.701544L10.1075 0.699008C10.4575 0.643735 10.7937 0.867523 10.9148 1.19657C10.988 1.39558 10.9437 1.586 10.9171 1.78784L10.6659 3.693C10.6518 3.84714 10.6672 3.86306 10.7256 4.01203L11.0214 4.74309C11.1605 5.10044 11.3975 5.45517 11.4769 5.83101L11.5399 6.06738C11.6406 6.37666 11.6267 6.89266 11.5435 7.19311L11.4941 7.39125C11.404 7.83321 11.1816 8.07487 11.0472 8.47809L10.4986 10.1074C10.3043 10.7511 10.1812 11.4402 10.4141 12.0949L11.3388 15.0103C11.3981 15.3535 11.5335 15.6929 11.5729 16.0406L11.7301 17.1712C11.7436 17.2558 11.7543 17.3553 11.7258 17.4378L11.7194 17.4551C11.6126 17.7607 11.4107 17.734 11.1532 17.7716C10.9448 17.802 10.7342 17.8428 10.5327 17.9044ZM10.1887 1.44726C10.0685 1.55117 10.0399 1.97933 10.0292 2.12606L9.95156 3.27382C9.94528 3.32259 9.96101 3.38599 9.97425 3.43289L10.1915 1.6986C10.1969 1.65336 10.251 1.45162 10.1887 1.44726ZM1.80181 1.45898C1.80506 1.55107 1.82477 1.64909 1.84655 1.73835L1.86931 1.87134C1.91231 2.07811 2.01291 3.2872 2.07272 3.3757L2.09583 3.38086C2.08125 3.05793 2.03147 1.4428 1.80181 1.45898ZM2.08418 4.16943L1.76128 4.82599C1.53488 5.28126 0.981821 6.339 1.13252 6.86904L1.13681 6.88448C1.15366 6.94418 1.16742 7.00938 1.19124 7.06636L1.24751 7.22735C1.27463 7.31393 1.32232 7.40032 1.37313 7.47518L1.38415 7.49179C1.93064 8.29699 3.05044 8.5316 3.95803 8.33191L4.92649 8.07778C5.61991 7.92968 6.1418 7.94953 6.82275 8.02947C7.19806 8.07354 7.5571 8.19682 7.92038 8.29378C8.8226 8.5346 9.78021 8.37937 10.47 7.71389C10.8124 7.38354 10.9113 7.00263 10.8752 6.52441C10.8299 6.0964 10.6703 5.76243 10.4955 5.37323L10.2254 4.74236C10.1452 4.55594 10.0598 4.37271 9.99415 4.18047L9.08965 4.53731C7.94412 5.02338 7.3227 5.52616 6.69427 6.61933L6.44227 7.06549C6.05372 7.75019 5.80983 7.44536 5.47282 6.90647C4.62213 5.54615 4.3177 5.10743 2.77479 4.45097L2.08418 4.16943ZM5.79795 8.72111C4.41888 8.81322 3.45434 9.51487 2.01919 8.89922C1.96106 8.87428 1.90512 8.84032 1.84634 8.81824L2.22277 9.98826C2.4979 10.7229 2.49089 11.5539 2.27726 12.3026L1.41075 14.9909C1.27275 15.4638 1.16501 15.951 1.08225 16.4365L0.998016 17.033C1.14014 17.0744 1.28944 17.0931 1.43409 17.127C1.90153 17.2364 2.39491 17.435 2.81116 17.6712L3.29667 17.9639C4.44994 18.5849 5.35064 18.8807 5.80697 20.2058C6.00649 20.7852 6.08684 21.7324 5.81735 22.2949C5.77036 22.3931 5.70909 22.4828 5.66236 22.5811C5.82166 22.6194 6.02552 22.597 6.19055 22.5966L6.32154 22.5936C6.27488 22.4878 6.21553 22.3899 6.17041 22.2839C5.91811 21.6911 6.0353 21.0023 6.17409 20.3948C6.50163 18.9615 7.46309 18.6239 8.59022 18.0277C9.05688 17.7808 9.50182 17.4595 10.0119 17.3022L10.4064 17.1715C10.6022 17.1158 10.7998 17.0868 10.9986 17.0471L10.8703 16.1985C10.8061 15.8372 10.7153 15.4705 10.6155 15.1172L9.96518 13.0804C9.72696 12.3695 9.46207 11.5922 9.59597 10.8317L9.63537 10.5352C9.67685 10.2977 9.74545 10.0569 9.81846 9.82729L10.0494 9.14322C10.081 9.04563 10.1231 8.93913 10.1381 8.83814L10.1283 8.84367C9.36935 9.26261 8.37448 9.19415 7.57425 8.95837C6.95126 8.77481 6.44534 8.71577 5.79795 8.72111ZM4.12688 19.2322L4.17502 19.4074C4.20532 19.5202 4.24744 19.6292 4.26844 19.7449L4.87875 22.2412C4.89834 22.3214 4.92345 22.3227 4.96767 22.26L5.07827 22.0956C5.59284 21.2415 5.05706 19.7931 4.22677 19.2944L4.12688 19.2322ZM7.85536 19.248C7.08621 19.6989 6.88385 20.3851 6.77222 21.2017C6.72096 21.5767 6.73502 21.8501 6.95648 22.1786C6.98796 22.2289 7.04728 22.3284 7.10677 22.3459L7.85536 19.248Z" fill="black"/>
</svg>
    