<svg width="14" height="24" viewBox="0 0 14 24" fill="none" xmlns="http://www.w3.org/2000/svg">
<path d="M1.55017 22.491C1.15804 22.4903 0.767754 22.2225 0.644566 21.8453C0.580863 21.6503 0.587754 21.5004 0.587519 21.2967L0.634511 19.4576L0.858551 17.5195L1.12239 15.9824L1.63621 13.887C2.03096 12.5085 2.52189 11.1551 3.21341 9.89716L3.58771 9.19976C3.85129 8.66227 4.0135 7.88902 3.72599 7.33985C3.34876 6.61938 3.24214 6.01587 3.31135 5.20116C3.34635 4.78936 3.51034 4.32982 3.7945 4.02023C3.89502 3.91073 3.88025 3.93811 3.87388 3.79226L3.62692 0.947937C3.62202 0.858933 3.61025 0.754912 3.62708 0.666736C3.68422 0.367228 4.1229 0.329346 4.27082 0.590529L5.44968 2.46352C5.66863 2.78428 5.89107 3.10294 6.13614 3.40472L7.00321 4.37358C7.44397 3.90539 7.8448 3.39253 8.22432 2.87393L9.34855 1.17615C9.50928 0.915916 9.67719 0.489349 9.98959 0.400493C10.0282 0.39776 10.0656 0.394029 10.1033 0.404761L10.1172 0.408942C10.4709 0.509475 10.3878 0.878578 10.3638 1.15003L10.3053 1.77539C10.2396 2.42527 10.1424 3.07725 10.1278 3.73055C10.1221 3.98456 10.1282 3.89803 10.2639 4.10088C10.7813 4.87465 10.8302 5.98507 10.5136 6.84961C10.2996 7.43391 9.99868 7.65898 10.1576 8.376C10.2296 8.70087 10.2333 8.84393 10.3808 9.1632L10.9082 10.2175L11.6939 12.0398L12.1635 13.4152L12.6324 15.0986L13.1087 17.3201C13.1985 17.7714 13.2466 18.2375 13.2997 18.6942C13.3243 18.9058 13.3467 19.1214 13.3592 19.334L13.3793 19.7565C13.3842 19.8584 13.4055 19.9578 13.4103 20.0596L13.4245 21.1375C13.4256 21.3041 13.4436 21.4939 13.4194 21.6579C13.3589 22.0676 13.0053 22.3829 12.6144 22.4691C12.3222 22.5335 12.135 22.3558 11.8623 22.3017C11.1871 22.1677 10.8287 22.4487 10.3691 22.8307C9.86317 23.2512 8.70308 23.4506 8.01428 23.4834L7.5204 23.4874C6.6107 23.4867 6.32291 23.3934 5.51207 23.1288C5.1655 23.0157 4.81475 22.9244 4.47458 22.7906L3.88853 22.5342C3.38455 22.2983 2.86925 22.1875 2.3045 22.2896C2.04957 22.3357 1.80721 22.4805 1.55017 22.491ZM9.56312 2.13403L9.03198 2.95144C8.77175 3.32341 7.43818 5.12348 7.06949 5.20012C6.99543 5.21552 6.91869 5.20671 6.85349 5.16872L6.83921 5.16063C6.71982 5.08919 6.60313 4.94433 6.5035 4.84409C5.70662 4.04229 5.02018 3.11222 4.42848 2.15071L4.47006 2.75501L4.53458 3.42195C4.57663 3.64657 4.47217 4.05574 4.64563 4.1343C4.74531 4.17945 4.85174 4.2927 4.93958 4.36191L6.15341 5.37033C6.35495 5.53561 6.5664 5.76816 6.83591 5.81391L6.85272 5.817C7.36014 5.90201 7.65275 5.57416 7.99597 5.27212L8.76505 4.60495C8.97245 4.42451 9.26504 4.21277 9.446 4.03369L9.56312 2.13403ZM4.18049 4.64648C3.96866 4.99537 3.91501 5.80127 4.00942 6.21558L4.01943 6.2553C4.06951 6.45377 4.12063 6.63954 4.21325 6.82556C4.28579 6.9712 4.3835 7.11059 4.43518 7.26562L4.48637 7.44202C4.60766 7.84186 4.51103 8.32617 4.48597 8.73312L5.59124 8.73206C5.80302 8.73225 5.79032 8.724 5.96251 8.59587C6.623 8.10438 7.40202 8.11322 8.06472 8.5957C8.3372 8.79408 8.26433 8.7285 8.61807 8.72906L9.5076 8.72932C9.44514 8.25881 9.39257 7.70276 9.57332 7.25091C9.653 7.05792 9.76522 6.8817 9.84425 6.68918C10.089 6.09302 10.1169 5.21353 9.80165 4.63254L8.49493 5.74713C8.23414 5.96965 7.98282 6.23742 7.66728 6.38325C7.21004 6.59454 6.65373 6.56489 6.22168 6.30764C5.81385 6.0648 4.3059 4.6417 4.18049 4.64648ZM6.9376 8.90932C6.48404 8.99627 6.40661 9.18797 6.03547 9.34341C5.70653 9.4812 4.77976 9.38693 4.36754 9.42462C4.23728 9.43655 4.25856 9.43048 4.19143 9.54244L3.21814 11.4274C2.19625 13.8762 1.4721 16.9025 1.30752 19.5753C1.30182 19.6678 1.27461 19.7511 1.27016 19.8453L1.26011 21.3131C1.26001 21.8984 1.44688 21.7833 1.87316 21.6765C2.56961 21.5019 3.37457 21.5331 4.03129 21.8268C4.48204 22.0284 4.9014 22.2403 5.38229 22.3669C5.51849 22.4027 5.66113 22.4262 5.79453 22.4707C5.93153 22.5164 6.0343 22.6137 6.17966 22.6481L7.12342 22.7897C7.91668 22.8063 9.13035 22.7765 9.83129 22.3577C9.94672 22.2887 10.0367 22.2 10.1393 22.1152C10.7429 21.6165 11.608 21.4311 12.3504 21.7207C12.7574 21.8794 12.7465 21.6035 12.7474 21.2798L12.7198 19.7887L12.622 18.6812C12.3429 16.1937 11.5289 13.06 10.4217 10.7816L9.92265 9.7762C9.87601 9.67887 9.81596 9.48863 9.75908 9.40959L8.83452 9.40833C8.45736 9.40755 8.08356 9.44977 7.75993 9.22706C7.48407 9.03724 7.28818 8.89268 6.9376 8.90932Z" fill="black"/>
</svg>
