<svg width="22" height="24" viewBox="0 0 22 24" fill="none" xmlns="http://www.w3.org/2000/svg">
<path d="M19.4375 2.81249H18.0649L16.5612 0.232687C16.4772 0.0886405 16.323 0 16.1563 0H6.31254C6.16043 0 6.01779 0.073828 5.9299 0.198L4.07984 2.81249H2.5625C1.27015 2.81249 0.21875 3.8639 0.21875 5.15624V21.6563C0.21875 22.9486 1.27015 24 2.5625 24H19.4375C20.7298 24 21.7812 22.9486 21.7812 21.6563V5.15624C21.7813 3.8639 20.7299 2.81249 19.4375 2.81249ZM20.8438 18.9852H16.8981V17.2227H20.8438V18.9852ZM17.3642 3.47212C17.9396 5.40693 15.1307 10.4011 12.6723 14.6473L11.7311 12.3673L16.2272 1.52147L17.3642 3.47212ZM14.6773 2.81249H7.8332C7.81797 2.81249 7.80288 2.81324 7.78797 2.8147L7.01313 0.937498H15.4545L14.6773 2.81249ZM14.2886 3.74999L11.2248 11.1407L8.17408 3.74999H14.2886ZM6.20383 1.43386L15.1318 23.0625H13.8646L7.68213 11.5384C7.68133 11.537 7.68058 11.5355 7.67978 11.5341C6.199 8.84281 4.29541 5.09924 4.74837 3.49087L6.20383 1.43386ZM1.1563 17.2227H5.10194V18.9852H1.1563V17.2227ZM1.1563 21.6563V19.9227H5.57069C5.82954 19.9227 6.03944 19.7129 6.03944 19.454V16.754C6.03944 16.4951 5.82954 16.2852 5.57069 16.2852H1.1563V5.15624C1.1563 4.38084 1.78714 3.74999 2.56254 3.74999H3.75682C3.69106 4.55132 3.90471 5.59499 4.40252 6.91471C4.89987 8.23316 5.67982 9.84382 6.85703 11.9836L12.8007 23.0625H2.56254C1.78714 23.0625 1.1563 22.4317 1.1563 21.6563ZM19.4375 23.0625H16.146L13.123 15.7392C16.2932 10.2718 18.5633 6.12139 18.3622 3.74999H19.4375C20.2129 3.74999 20.8437 4.38084 20.8437 5.15624V16.2852H16.4293C16.1705 16.2852 15.9606 16.4951 15.9606 16.754V19.454C15.9606 19.7129 16.1705 19.9227 16.4293 19.9227H20.8437V21.6563C20.8438 22.4317 20.2129 23.0625 19.4375 23.0625Z" fill="black"/>
</svg>
