<svg width="19" height="19" viewBox="0 0 19 19" fill="none" xmlns="http://www.w3.org/2000/svg">
<path d="M6.68963 13.8317L4.81463 1.83167C4.81463 1.83167 0.419634 4.88042 1.06463 7.83167C1.70963 10.7829 2.32088 15.1367 2.32088 15.1367L6.68963 13.8317Z" stroke="black" stroke-width="1.5" stroke-linecap="round" stroke-linejoin="round"/>
<path d="M13.5221 1.81667C13.5221 1.81667 9.28838 -0.0208334 4.80713 1.81667" stroke="black" stroke-width="1.5" stroke-linecap="round" stroke-linejoin="round"/>
<path d="M2.29468 15.1292L2.49343 17.5292" stroke="black" stroke-width="1.5" stroke-linecap="round" stroke-linejoin="round"/>
<path d="M3.83203 14.6754L4.10953 17.1317" stroke="black" stroke-width="1.5" stroke-linecap="round" stroke-linejoin="round"/>
<path d="M5.22705 14.2629L5.63955 16.8204" stroke="black" stroke-width="1.5" stroke-linecap="round" stroke-linejoin="round"/>
<path d="M6.6897 13.8317L7.0872 16.5654" stroke="black" stroke-width="1.5" stroke-linecap="round" stroke-linejoin="round"/>
<path d="M11.6321 13.8317L13.5071 1.83167C13.5071 1.83167 17.9021 4.88042 17.2571 7.83167C16.6121 10.7829 16.0008 15.1367 16.0008 15.1367L11.6321 13.8317Z" stroke="black" stroke-width="1.5" stroke-linecap="round" stroke-linejoin="round"/>
<path d="M16.0271 15.1292L15.8284 17.5292" stroke="black" stroke-width="1.5" stroke-linecap="round" stroke-linejoin="round"/>
<path d="M14.4897 14.6754L14.2122 17.1317" stroke="black" stroke-width="1.5" stroke-linecap="round" stroke-linejoin="round"/>
<path d="M13.0946 14.2629L12.6821 16.8204" stroke="black" stroke-width="1.5" stroke-linecap="round" stroke-linejoin="round"/>
<path d="M11.6321 13.8317L11.2346 16.5654" stroke="black" stroke-width="1.5" stroke-linecap="round" stroke-linejoin="round"/>
<path d="M5.38086 5.48792C7.80435 4.50159 10.5174 4.50159 12.9409 5.48792" stroke="black" stroke-width="1.5" stroke-linecap="round" stroke-linejoin="round"/>
</svg>
