<svg width="22" height="15" viewBox="0 0 22 15" fill="none" xmlns="http://www.w3.org/2000/svg">
<path d="M15.7138 14.6756C15.2586 14.7532 14.6594 14.8145 14.1888 14.8387L7.88976 14.8369C7.79066 14.8317 7.69298 14.8132 7.59414 14.8059L6.69318 14.7278C5.54252 14.5861 4.39328 14.3059 3.29568 13.9353L2.10623 13.4762C1.57335 13.2674 0.436471 12.8816 0.163293 12.322L0.155273 12.3053C0.107798 12.2081 0.087719 12.1119 0.109136 12.0044L0.11331 11.9844C0.261492 11.2419 0.860153 10.1636 1.27468 9.55609C1.54164 9.16485 1.84886 8.7883 2.06634 8.36647C2.51317 7.49973 2.77609 6.5526 3.29915 5.72282C3.52164 5.36987 3.75796 5.02609 4.0207 4.70178L4.5685 4.02735C4.64179 3.93121 4.72387 3.8301 4.78309 3.72484C4.88453 3.54465 4.75169 3.44619 5.05171 3.32851C5.06413 3.18071 5.05628 3.02856 5.05633 2.88008L5.0568 2.09291C5.05694 1.9494 5.03324 1.75548 5.07843 1.61896C5.24505 1.1154 5.64119 0.798995 6.17952 0.750902L15.4411 0.743847C15.5859 0.743964 15.7347 0.737589 15.8789 0.748464C16.637 0.805652 16.9334 1.42478 16.9423 2.09364L16.9481 3.20687C16.9521 3.30496 16.9317 3.30306 17.0091 3.35607C17.215 3.49693 17.1034 3.57313 17.2027 3.72308C17.6195 4.35261 18.1655 4.88357 18.5693 5.52735C18.8535 5.98053 19.108 6.4588 19.3217 6.94949C19.5956 7.57799 19.8065 8.24099 20.1942 8.81328L21.2011 10.3224L21.482 10.8593C21.6795 11.2515 21.8488 11.6453 21.9466 12.074C21.8371 12.5008 20.8905 13.1273 20.5188 13.2602C20.3368 13.3253 20.1295 13.3455 19.9533 13.4183C19.7899 13.4859 19.6359 13.5763 19.4703 13.6426L18.2649 14.0664C17.6803 14.256 17.0933 14.4258 16.4901 14.5464L15.7138 14.6756ZM6.43476 1.41395C6.14812 1.41995 5.9346 1.40603 5.77145 1.69532L5.76416 1.70804C5.74577 1.7409 5.73484 1.77683 5.72334 1.8125L5.71888 1.82582C5.70344 1.87602 5.69631 3.2053 5.71328 3.26558L15.5328 3.26532L16.2952 3.26525L16.2921 2.01308C16.2867 1.59864 16.0669 1.41299 15.6433 1.41343L6.43476 1.41395ZM14.8626 3.93955C14.2047 3.94733 6.98997 3.92978 6.96081 3.95061C7.0615 4.76711 6.95209 4.84358 6.41397 5.45162L6.01975 5.92578C5.37259 6.73623 4.87009 8.0057 4.44902 8.94742L2.87376 12.5153C2.80963 12.6601 2.72092 12.8214 2.68349 12.9743C2.87013 13.0993 3.1424 13.1639 3.35226 13.2376C4.14693 13.5164 4.95522 13.7565 5.78498 13.9062L7.1883 14.1028L8.34442 14.1749L13.8065 14.1713L14.7359 14.1028C16.2406 13.9771 17.7395 13.6386 19.1332 13.0498C19.1843 13.0282 19.2659 13.004 19.3072 12.9685L17.8624 9.69692C17.2075 8.23386 16.6484 6.62153 15.5605 5.40892C15.1626 4.96536 14.8362 4.61933 14.9624 3.94004L14.8626 3.93955ZM6.05153 3.95096L5.42976 3.95375C5.38438 4.01113 5.36338 4.07211 5.32382 4.13136L4.39059 5.31055C3.89894 5.9436 3.52117 6.64257 3.21684 7.38336L2.96929 8.02848C2.70377 8.67852 2.32888 9.19368 1.93708 9.7712C1.5527 10.3378 1.22629 10.9169 0.966007 11.5509L0.850828 11.8672C0.735815 12.2172 1.13029 12.3575 1.40966 12.48L2.04051 12.746L3.73035 8.91425C4.31434 7.61052 4.85238 6.27718 5.77373 5.16868L6.1378 4.75761C6.39306 4.46371 6.37891 4.32632 6.24348 3.9556L6.05153 3.95096ZM15.8103 3.94705L15.7049 3.95678C15.4929 4.30665 15.6362 4.48253 15.8729 4.75534L16.0762 4.99642C16.4972 5.49601 17.1313 6.37827 17.3763 6.99027L19.8783 12.6055C19.9023 12.653 19.9191 12.6928 19.9526 12.7355C20.2533 12.6534 20.4513 12.5922 20.7209 12.4246C20.9122 12.2915 21.0705 12.1545 21.2291 11.9843C20.9567 11.1923 20.5496 10.4858 20.0796 9.79557C19.6217 9.12308 19.3434 8.75549 19.0212 7.97441L18.7696 7.33316C18.4603 6.60491 18.0676 5.90181 17.5829 5.27539C17.2419 4.83475 16.8722 4.42417 16.5669 3.95544L15.8103 3.94705Z" fill="black"/>
</svg>
