<svg width="18" height="22" viewBox="0 0 18 22" fill="none" xmlns="http://www.w3.org/2000/svg">
<path d="M12.0262 21.3453L9.95312 21.4833C9.82841 21.4927 9.69973 21.4872 9.57451 21.4875L7.14256 21.4442C6.28939 21.3954 5.44405 21.2869 4.60444 21.1292L4.19799 21.0462C3.82309 20.9612 3.82904 20.8005 3.8288 20.4431L3.83054 10.527C3.72174 10.8112 3.63875 11.1062 3.55658 11.3991L2.79104 13.9427C2.56278 14.6353 2.44388 15.0823 2.44044 15.8425C2.43959 16.0313 2.40476 16.0793 2.20991 16.156L2.19601 16.1613C2.01472 16.2325 1.78023 16.1914 1.59369 16.1587L1.29694 16.1152C0.939851 16.0622 0.203983 16.0284 0.047702 15.6238L0.0268895 15.5718C0.00495202 15.5005 0.0117725 15.4195 0.0116553 15.3456L0.0115616 12.6797C0.0121007 12.1419 0.00600669 12.1545 0.136296 11.6605L1.40314 6.23561C1.51601 5.68748 1.49944 5.43369 1.5211 4.89716C1.57923 3.45791 2.54122 2.11199 3.83933 1.51356C4.265 1.31731 4.71669 1.17747 5.15387 1.00981L5.99152 0.686014C6.16161 0.617201 6.32951 0.532566 6.50426 0.47768C6.67906 0.461684 6.8199 0.585886 6.97163 0.655582C8.01784 1.13611 9.98757 1.15179 11.0585 0.632285C11.547 0.395323 11.4742 0.461916 11.9949 0.678893L13.6639 1.31573C14.8468 1.77845 15.6728 2.43222 16.1777 3.6614C16.2237 3.77333 16.2747 3.88731 16.3041 4.00504L16.3526 4.17587C16.3851 4.33825 16.4282 4.49172 16.4458 4.65847C16.5009 5.1816 16.4656 5.57971 16.567 6.11821L17.858 11.6914C17.888 11.8255 17.9616 11.9558 17.9772 12.0929C18.0028 12.3182 17.9884 12.5547 17.9884 12.7816L17.9883 15.0809C17.9879 15.7841 17.9585 15.865 17.2471 16.0283C16.9538 16.0957 16.2861 16.2402 15.9899 16.197L15.9726 16.1942C15.7755 16.1639 15.5726 16.0462 15.572 15.8292L15.5692 15.5833C15.5511 15.1591 15.4626 14.769 15.3456 14.3641L14.3233 11.0707C14.2607 10.8622 14.1963 10.6552 14.1541 10.4414L14.1456 10.5872C14.1176 10.7857 14.1564 10.9784 14.1587 11.1772L14.1625 20.453C14.1635 20.5511 14.1721 20.6549 14.1607 20.7523L14.1587 20.7676C14.1236 21.0553 13.5898 21.0865 13.3776 21.1272L12.0262 21.3453ZM6.51026 1.12696L6.46857 1.14454C6.4393 1.19916 6.5053 1.4286 6.51936 1.5009C6.93901 3.65868 9.58407 4.56585 10.9245 2.69704C11.1995 2.33205 11.3432 1.92222 11.4623 1.486C11.5541 1.14961 11.6254 1.06193 11.2558 1.22506C10.1048 1.73312 8.15419 1.75464 6.97105 1.30902L6.72387 1.20741C6.65419 1.17544 6.58754 1.13498 6.51026 1.12696ZM5.86405 1.38477L5.08913 1.6783C4.64722 1.83688 4.20266 1.99382 3.79681 2.23511C2.8006 2.82737 2.10976 3.91077 2.10861 5.07897L2.10683 5.53907C2.1008 5.80162 2.05119 6.06728 2.00009 6.32423L0.779233 11.5821C0.672593 11.9774 0.617749 12.1028 0.616648 12.5164L0.615616 13.4293C0.61571 13.4783 0.609687 13.5402 0.62478 13.5865L2.14676 13.9967C2.32616 13.4946 2.45558 12.9741 2.60736 12.4634L3.68677 8.97852C3.7674 8.73709 3.85979 8.22133 4.24091 8.38258C4.30787 8.41091 4.34595 8.45795 4.38708 8.51563L4.39501 8.52632C4.46712 8.62879 4.41903 9.15191 4.41896 9.29537L4.42339 10.9574L13.5668 10.9557L13.5706 9.41504L13.5671 8.82158C13.5663 8.55648 13.5754 8.4141 13.8915 8.3463C14.2378 8.43306 14.284 9.04673 14.4099 9.37042L14.6493 10.0977C14.6835 10.1946 14.7066 10.295 14.7424 10.3906L15.6223 13.2887C15.6808 13.4443 15.7767 13.8929 15.8435 14.0006C16.1176 13.9405 16.3843 13.8476 16.6552 13.7749L17.1643 13.6367C17.2333 13.6175 17.3116 13.6056 17.3768 13.5773L17.363 12.3387C17.3587 12.1375 17.3123 11.973 17.2641 11.7798L16.1869 7.11505C16.0777 6.6167 15.9125 6.10091 15.8912 5.58794C15.8834 5.40027 15.8974 5.21085 15.8864 5.02349C15.8072 3.68127 14.991 2.56933 13.7888 2.02166L12.1141 1.37769C12.0168 1.70338 11.9411 2.03158 11.816 2.34925C10.8397 4.82776 7.5548 4.98763 6.3091 2.64709C6.15758 2.3624 6.04503 2.05965 5.96429 1.7478C5.93485 1.63403 5.92585 1.49741 5.8843 1.38972L5.86405 1.38477ZM13.4347 11.5564L4.75688 11.5631C4.64647 11.5636 4.53284 11.5585 4.42313 11.5704L4.42311 12.208C4.4494 12.2299 4.59282 12.22 4.6347 12.2207L13.568 12.2238L13.5697 11.5566L13.4347 11.5564ZM4.42109 12.8172L4.42032 13.4606L13.5703 13.469L13.5711 12.8164L4.42109 12.8172ZM4.42834 14.0603L4.41779 18.7634L6.11628 19.0605L7.40033 19.1712C7.55016 19.181 7.69796 19.2132 7.84869 19.2197L10.0432 19.2205C10.3234 19.2143 10.6145 19.1745 10.9022 19.1566L11.4448 19.106C11.9304 19.0677 12.6845 18.9549 13.1385 18.8428L13.5786 18.7585L13.5706 14.0591L4.42834 14.0603ZM0.612218 14.1934L0.614491 15.0723C0.613858 15.4837 0.570827 15.3956 1.07424 15.4687L1.85616 15.5839C1.85677 15.5402 1.85787 15.4975 1.85234 15.4541L1.97715 14.5574L0.612218 14.1934ZM17.354 14.2168L16.0278 14.5584C16.1029 14.8577 16.1528 15.213 16.1512 15.5247L16.1643 15.5894L16.9771 15.4674C17.1087 15.4483 17.2651 15.432 17.3907 15.3884L17.3921 14.6419C17.3919 14.5024 17.402 14.3532 17.3796 14.2154L17.354 14.2168ZM4.42951 19.3796L4.42079 20.4763C4.96398 20.5775 5.50862 20.6887 6.05853 20.7458L7.11087 20.8208C7.20943 20.8264 7.30456 20.8472 7.40424 20.8506L10.6302 20.8522C10.7262 20.8487 10.8192 20.8276 10.9146 20.8212L12.7617 20.6215C13.0268 20.578 13.3122 20.5501 13.5685 20.468L13.5785 20.4168L13.577 19.3856L11.9472 19.6618L10.4483 19.803L8.62494 19.8377L7.57557 19.8036C6.9916 19.776 6.40241 19.7132 5.82416 19.6294L4.9092 19.4733C4.75477 19.4458 4.57857 19.4281 4.42951 19.3796Z" fill="black"/>
</svg>
