<svg width="24" height="10" viewBox="0 0 24 10" fill="none" xmlns="http://www.w3.org/2000/svg">
<path d="M22.6986 6.22625C22.6986 5.43875 22.5524 3.27875 21.0786 2.57375C19.8561 1.9925 18.1574 1.895 16.9199 1.82375C16.4999 1.7975 16.1249 1.775 15.8211 1.7375C15.1978 1.59113 14.6355 1.25428 14.2124 0.773749C14.0121 0.573684 13.75 0.447352 13.4688 0.415345C13.1875 0.383338 12.9037 0.447545 12.6636 0.597499L12.1199 0.934999C11.9377 1.04701 11.7871 1.20355 11.6821 1.38987C11.5771 1.57618 11.5213 1.78615 11.5199 2C11.5193 2.18425 11.5596 2.36633 11.6381 2.53302C11.7166 2.69972 11.8312 2.84685 11.9736 2.96375C12.2241 3.17677 12.3804 3.47995 12.4086 3.8075L10.9724 3.155C10.4961 2.93677 9.97236 2.84259 9.44989 2.88125H9.39364L7.67989 3.25625C7.20762 3.36478 6.72447 3.41888 6.23989 3.4175C4.95606 3.42803 3.69796 3.05738 2.62489 2.3525C2.57697 2.32279 2.52329 2.30362 2.46739 2.29625C2.28573 2.26919 2.10014 2.29811 1.93534 2.37918C1.77053 2.46024 1.63434 2.58959 1.54489 2.75C0.719891 4.28375 1.09489 5.91125 1.40614 6.77375C1.13579 6.96465 0.933333 7.23677 0.828186 7.55059C0.723039 7.8644 0.720676 8.20357 0.821439 8.51882C0.922202 8.83407 1.12084 9.10899 1.38851 9.30364C1.65618 9.49829 1.97893 9.60254 2.30989 9.60125H16.8749C18.1667 9.59446 19.4532 9.4346 20.7074 9.125L22.1249 8.79875C22.3904 8.7345 22.6328 8.59773 22.825 8.40372C23.0173 8.20971 23.1518 7.96609 23.2137 7.70004C23.2755 7.434 23.2622 7.156 23.1752 6.89708C23.0883 6.63816 22.9311 6.40851 22.7211 6.23375L22.6986 6.22625ZM12.4499 2.3975C12.3943 2.35197 12.3493 2.29479 12.3182 2.22999C12.2871 2.1652 12.2706 2.09437 12.2699 2.0225C12.2692 1.93505 12.2913 1.84892 12.334 1.77263C12.3768 1.69634 12.4387 1.63253 12.5136 1.5875L13.0611 1.25C13.1574 1.18894 13.2717 1.16271 13.385 1.17567C13.4982 1.18864 13.6037 1.24001 13.6836 1.32125C14.2207 1.92121 14.9355 2.33379 15.7236 2.49875C16.0424 2.53625 16.4286 2.55875 16.8786 2.585C18.0524 2.65625 19.6649 2.74625 20.7561 3.2675C21.6036 3.6725 21.8811 4.96625 21.9411 5.93C21.7958 5.90753 21.6478 5.90753 21.5024 5.93L20.1036 6.19625C19.1349 6.38358 18.1504 6.47776 17.1636 6.4775H11.9511L12.8661 5C13.1203 4.58837 13.2181 4.0991 13.1417 3.62139C13.0653 3.14367 12.8198 2.70932 12.4499 2.3975ZM2.20489 3.1025C2.21431 3.08517 2.22773 3.07035 2.24404 3.05926C2.26034 3.04817 2.27907 3.04114 2.29864 3.03875C3.47249 3.79889 4.84142 4.20266 6.23989 4.20125C6.7812 4.20195 7.32087 4.14156 7.84864 4.02125L9.53239 3.64625C9.91903 3.62142 10.3057 3.69361 10.6574 3.85625L12.1574 4.5425C12.1848 4.54599 12.2125 4.54599 12.2399 4.5425L12.2174 4.595L11.0511 6.47H2.30989C2.24245 6.46613 2.17484 6.46613 2.10739 6.47C1.80739 5.67125 1.53364 4.34375 2.20489 3.1025ZM21.9486 8.07125L20.5349 8.40875C19.3365 8.69874 18.1078 8.84477 16.8749 8.84375H2.30989C2.09507 8.84375 1.88904 8.75841 1.73713 8.60651C1.58523 8.4546 1.49989 8.24857 1.49989 8.03375C1.49989 7.81892 1.58523 7.6129 1.73713 7.46099C1.88904 7.30909 2.09507 7.22375 2.30989 7.22375H17.1636C18.1992 7.22235 19.2325 7.12443 20.2499 6.93125L21.6449 6.66125C21.7494 6.64066 21.8573 6.64378 21.9605 6.67039C22.0637 6.697 22.1596 6.74641 22.2411 6.815C22.3239 6.88173 22.3905 6.96631 22.436 7.06242C22.4814 7.15854 22.5046 7.26368 22.5036 7.37C22.5031 7.53217 22.448 7.68944 22.3474 7.8166C22.2468 7.94376 22.1063 8.03344 21.9486 8.07125Z" fill="black"/>
</svg>
