<svg width="22" height="20" viewBox="0 0 22 20" fill="none" xmlns="http://www.w3.org/2000/svg">
<path d="M8.885 19.366L7.874 19.3661C7.66086 19.3661 7.4341 19.3813 7.22234 19.3623C6.17178 19.2683 5.38841 18.3753 5.18757 17.377C5.09188 16.9013 5.18136 16.4331 5.16371 15.9579C5.12764 16.037 5.08199 16.1102 5.04125 16.1869L4.68969 16.8592C4.51147 17.219 4.2861 17.9285 4.25406 18.3011C4.23186 18.5591 4.06874 18.7591 3.82065 18.8406L3.80492 18.8455C3.76377 18.8588 3.72802 18.8607 3.68504 18.861L2.06176 18.8605C1.45609 18.8595 1.43431 18.5459 1.43539 18.0114L1.43706 17.0949C1.4251 17.072 1.4132 17.0483 1.39063 17.0342L1.36013 17.0167C1.31224 16.9878 1.26717 16.9304 1.22803 16.8903C0.690673 16.3396 0.510563 15.7096 0.509768 14.9648C0.508728 13.9936 0.799313 13.4596 1.12063 12.5547L3.545 6.10524C3.66095 5.78877 3.73344 5.45865 3.86738 5.14895C4.25237 4.25884 5.01927 3.53689 5.92642 3.19529C6.18892 3.09643 6.46065 3.02919 6.72981 2.95208L7.50936 2.71313C7.73846 2.63977 7.70804 2.69293 7.69857 2.47074C7.69013 2.27312 7.67802 2.05395 7.7011 1.85804C7.77585 1.22389 8.30394 0.703955 8.93774 0.632494C9.39137 0.58133 9.76803 0.769627 10.1889 0.894759C11.4121 1.25842 11.7679 0.709814 12.8077 0.618408C13.4532 0.571931 14.0086 0.972291 14.2348 1.5684C14.3597 1.8977 14.3084 2.29074 14.3122 2.63874C14.4736 2.72694 14.6718 2.76067 14.8466 2.8171L15.4735 3.01124C16.736 3.38082 17.5559 3.93913 18.1377 5.19135C18.2628 5.46045 18.2763 5.63565 18.3669 5.87675L20.8198 12.3789L21.2662 13.6329C21.299 13.7224 21.3357 13.8165 21.3536 13.9105L21.4658 14.4725C21.5016 14.635 21.5111 15.1802 21.4737 15.3533L21.4422 15.5476C21.3531 16.0031 21.1391 16.4918 20.816 16.8298C20.5985 17.0573 20.5901 16.9315 20.5874 17.2799L20.5883 18.2444C20.5873 18.5302 20.4433 18.8383 20.1229 18.8587C19.8052 18.879 19.4749 18.8605 19.1555 18.8604L18.6684 18.8616C17.999 18.8727 17.8624 18.7758 17.737 18.1581C17.5942 17.4549 17.3531 16.929 17.0208 16.3097L16.8443 15.9591L16.8599 16.5958C16.8609 16.8184 16.8669 17.0414 16.8399 17.2628C16.7045 18.3729 15.891 19.1464 14.8179 19.3533C14.6485 19.3859 14.4449 19.3659 14.2715 19.3659L8.885 19.366ZM9.09066 1.3678C8.8107 1.39562 8.62843 1.49867 8.50651 1.75004L8.49824 1.76626C8.39527 1.97263 8.38569 2.25338 8.43671 2.4763L8.44156 2.49913C8.58962 3.17879 8.34038 3.21826 7.72829 3.42594L6.47094 3.81329C5.63659 4.07755 4.91429 4.62036 4.55886 5.44243C4.44013 5.717 4.3813 6.00664 4.27693 6.28625L2.09828 12.0702C1.77805 12.9181 1.06992 14.4336 1.25536 15.3512L1.26934 15.4099C1.28479 15.4712 1.28773 15.5346 1.30513 15.5957C1.51524 16.3338 2.17611 16.7992 2.93928 16.811L3.41354 16.8143C3.56666 16.8149 3.73499 16.8296 3.88651 16.8122C3.9257 16.748 3.93793 16.6729 3.97201 16.6051L4.97619 14.67C5.67669 13.3176 5.79725 12.5334 5.72167 10.9668C5.71449 10.8186 5.71611 10.6693 5.70123 10.5215L5.55948 9.51556C5.52849 9.32251 5.42448 9.00559 5.50084 8.81551L5.50815 8.79704C5.57495 8.63445 5.75129 8.52847 5.92602 8.57917L5.94284 8.58388C6.04016 8.61238 6.10981 8.68267 6.15704 8.77051L6.17907 8.81537C6.20907 8.87401 6.21517 8.95163 6.22377 9.01651L6.34815 9.80668C6.46705 10.7147 6.53382 11.6216 6.43703 12.5361C6.3496 13.3618 6.06071 14.1524 5.98731 14.9794L5.94163 15.7272C5.93609 15.8657 5.93677 16.009 5.92405 16.1465L5.88835 16.7559C5.86466 17.6662 6.39896 18.5167 7.37054 18.6236C7.5392 18.6421 7.71554 18.633 7.88534 18.633L14.334 18.6322C14.4409 18.632 14.5741 18.6431 14.677 18.6165C15.4584 18.4148 16.092 17.845 16.1127 17.0052C16.1489 16.5869 16.0867 16.2003 16.0694 15.7874L16.0306 15.3068C16.0139 14.924 16.0143 14.861 15.9376 14.488L15.5593 12.5079C15.5329 12.2687 15.516 12.0269 15.5146 11.7864L15.5617 10.5274L15.7342 9.23832C15.7608 9.08361 15.7699 8.83949 15.861 8.70967C16.0242 8.47688 16.3711 8.54183 16.4845 8.78129L16.4911 8.79474C16.5821 8.98646 16.4248 9.57341 16.3946 9.7922L16.3193 10.4381C16.3125 10.5006 16.2984 10.5622 16.2935 10.6249L16.2719 11.1133C16.2353 11.7019 16.2557 12.7536 16.4573 13.3266L16.569 13.6605C16.8208 14.3209 17.1823 14.9473 17.5024 15.576L17.906 16.3951C17.975 16.5335 18.0327 16.6606 18.0894 16.803C18.1449 16.8285 19.1783 16.8163 19.2783 16.8048C20.2191 16.6963 20.7438 15.9071 20.7548 15.0133C20.7627 14.3749 20.6267 14.0214 20.4143 13.4308L17.6844 6.17832C17.6342 6.02849 17.6048 5.87284 17.5569 5.7227C17.3148 4.96482 16.655 4.28363 15.9391 3.9692C15.6646 3.84866 15.3763 3.77977 15.091 3.6917L14.2373 3.40756C13.9488 3.31025 13.6319 3.26145 13.5112 2.94163C13.4436 2.76228 13.544 2.61053 13.5753 2.43559C13.717 1.6427 13.2708 1.22806 12.51 1.4241L12.7537 2.18127C12.829 2.44318 12.5507 3.26087 12.657 3.76738C12.6674 3.81725 12.6627 3.87336 12.6612 3.9241C12.6077 5.73798 10.3156 6.23328 9.52754 4.68833L9.44356 4.49523C9.2964 4.13059 9.39038 3.74621 9.36139 3.3654C9.34004 3.08518 9.17734 2.38717 9.25114 2.14848L9.48732 1.42953C9.35251 1.40066 9.22925 1.37267 9.09066 1.3678ZM10.2065 1.67138L10.0945 1.96799C9.85717 2.56838 10.0934 2.7433 10.0951 3.34199L10.0958 3.85377C10.0959 3.9467 10.0871 4.05338 10.1087 4.1442C10.273 4.83603 11.135 5.07556 11.6394 4.57824C12.1183 4.04082 11.8008 3.5855 11.9254 2.97936C12.0871 2.19252 11.9805 2.31285 11.824 1.66217C11.2641 1.80099 10.773 1.79511 10.2065 1.67138ZM2.17925 17.4483C2.17904 17.5348 2.16357 18.0786 2.18788 18.1101L3.5091 18.1136L3.53663 18.0065L3.59966 17.7234C3.60903 17.6781 3.6129 17.6228 3.63399 17.5819C3.14492 17.5813 2.6492 17.612 2.17925 17.4483ZM19.8192 17.459C19.296 17.6111 18.8734 17.5616 18.3669 17.5785L18.4857 18.0182L18.5095 18.1029C18.5528 18.1168 18.6047 18.1108 18.6501 18.1108L19.4863 18.1087C19.6012 18.1082 19.7216 18.113 19.8357 18.0999L19.8192 17.459Z" fill="black"/>
</svg>
