<svg width="24" height="24" viewBox="0 0 24 24" fill="none" xmlns="http://www.w3.org/2000/svg">
<path d="M13.1026 21.6825C13.1026 19.6763 15.3038 18.465 16.6613 17.91C16.9335 17.7969 17.1504 17.5815 17.2654 17.3101C17.3805 17.0387 17.3844 16.733 17.2763 16.4588L15.9376 13.0613C15.8591 12.8636 15.8383 12.6478 15.8776 12.4388L16.7438 7.91625C16.7986 7.62906 16.7394 7.33181 16.5788 7.0875L16.1251 6.41625C16.0054 6.23344 15.9415 6.01975 15.9413 5.80125V2.3175H14.3926V5.0775C14.3926 5.39169 14.3307 5.7028 14.2104 5.99307C14.0902 6.28334 13.914 6.54709 13.6918 6.76925C13.4697 6.99142 13.2059 7.16765 12.9156 7.28788C12.6254 7.40812 12.3142 7.47 12.0001 7.47C11.3655 7.47 10.757 7.21793 10.3083 6.76925C9.85963 6.32057 9.60756 5.71203 9.60756 5.0775V2.3175H8.04381V5.80125C8.04806 6.01824 7.98945 6.23182 7.87506 6.41625L7.42131 7.0875C7.26071 7.33181 7.20153 7.62906 7.25631 7.91625L8.12256 12.4388C8.1618 12.6478 8.14099 12.8636 8.06256 13.0613L6.72381 16.4588C6.61577 16.733 6.61967 17.0387 6.73468 17.3101C6.84969 17.5815 7.06662 17.7969 7.33881 17.91C8.69631 18.465 10.8976 19.6763 10.8976 21.6825H13.1026Z" stroke="black" stroke-width="1.5" stroke-linecap="round" stroke-linejoin="round"/>
</svg>
