<svg width="22" height="20" viewBox="0 0 22 20" fill="none" xmlns="http://www.w3.org/2000/svg">
<path d="M14.3776 19.7343C13.6864 19.685 12.9495 19.5454 12.3198 19.2488L11.5107 18.8578C11.0367 18.6164 11.0936 18.5443 10.6051 18.7956L10.195 18.9994C8.2958 19.9142 6.35616 20.0648 4.4487 18.9822C3.60506 18.5034 3.75664 18.3308 3.84185 17.4719L3.88903 16.9101C3.89653 16.776 3.92119 16.6441 3.92672 16.5098L3.92733 12.9366L3.89145 12.5048C3.84799 11.6754 3.84617 11.1234 3.36192 10.4459C2.9967 9.93494 2.58206 9.52439 2.10504 9.11524L1.37241 8.52832C1.00042 8.25888 0.28845 7.93247 0.182817 7.44044L0.179104 7.42244C0.0720443 6.94933 0.39877 6.62604 0.647951 6.26726L2.88785 3.32669C2.99813 3.19291 3.10231 3.04608 3.22271 2.9216C3.84448 2.27887 4.62513 2.01417 5.4451 1.71412L6.24783 1.4055C6.46751 1.32251 6.7027 1.24596 6.91142 1.13883C7.01163 1.0874 7.04503 0.971834 7.12615 0.897443C7.18805 0.840678 7.26131 0.794693 7.32964 0.745873L7.64698 0.517404C7.7539 0.441701 7.86157 0.341824 7.98108 0.28763L7.99613 0.281105C8.05067 0.256636 8.09501 0.248921 8.15389 0.242585C8.39485 0.219938 8.51862 0.420678 8.67408 0.567584C10.3827 2.18215 11.5651 2.27737 13.2154 0.641412C13.7003 0.160756 13.7098 0.107834 14.2381 0.476295C14.4456 0.621021 14.6618 0.756701 14.8497 0.927068C15.0683 1.1253 15.1367 1.25217 15.4224 1.36741L17.015 1.90842C18.0263 2.25839 18.3599 2.39852 19.0825 3.30799L21.0133 5.81055C21.2624 6.14702 21.7932 6.68986 21.8298 7.12291L21.8316 7.14649C21.8832 7.72718 21.5119 7.94803 21.0896 8.24369C20.3271 8.77755 19.4344 9.24973 18.9143 10.0527C18.3432 10.9347 18.2185 11.9706 18.1585 13.0009C18.1518 13.116 18.125 13.2288 18.1201 13.3447L18.1156 16.1721C18.121 16.4643 18.1459 16.8503 18.1792 17.1367L18.2963 17.8891C18.4206 18.6805 18.1215 18.7924 17.5393 19.0718C16.4825 19.5788 15.5765 19.7954 14.3776 19.7343ZM8.12496 1.09603C7.9916 1.17387 7.86457 1.26101 7.7471 1.36139C7.98324 2.6849 9.06293 3.96522 10.4021 4.23462C10.6186 4.27816 10.832 4.29523 11.0468 4.3508L11.0654 4.34034C11.2499 4.2389 11.4857 4.26274 11.6889 4.21397C12.5438 4.0087 13.2274 3.46603 13.7047 2.72876C13.8909 2.42421 14.2402 1.74558 14.2123 1.37583C14.0897 1.27659 13.9477 1.191 13.8106 1.11309C11.7672 3.14866 10.2948 3.03068 8.12496 1.09603ZM7.10459 1.89672L5.71676 2.41195C5.09918 2.64396 4.33383 2.8364 3.87715 3.34828L4.03029 3.63431C4.11652 3.82345 4.22503 4.01608 4.29066 4.21277L4.60416 5.01954L4.8776 5.94633C4.99432 6.35456 5.08003 6.93276 5.12318 7.34824L5.14875 7.73243C5.2197 8.51986 5.21292 9.08191 4.81702 9.77557L4.31698 10.5227L4.50035 11.2361C4.61494 11.6962 4.66528 12.6277 4.66669 13.1082L4.6635 16.5412L4.55553 17.7875C4.5004 18.2415 4.44354 18.1125 4.8724 18.356C5.28558 18.5906 5.70748 18.7539 6.16885 18.8638C7.49311 19.0754 8.40181 19.0054 9.66596 18.4121L10.0842 18.2152C10.1405 18.1867 10.2184 18.1661 10.2562 18.1126L10.2547 4.97773C8.80083 4.61944 7.76867 3.65369 7.22553 2.24798L7.10459 1.89672ZM14.8666 1.95508C14.4003 3.42262 13.3221 4.6819 11.7473 4.97454L11.7398 17.5083C11.7397 18.2218 11.5998 18.0609 12.2117 18.3623C13.2473 18.8725 14.6757 19.1683 15.813 18.8887L16.1626 18.8053L16.7712 18.5926C16.8944 18.5475 17.4859 18.2906 17.5771 18.1947L17.3894 16.4805C17.377 16.2968 17.3834 16.1101 17.3831 15.9259L17.3853 13.3608L17.4413 12.4924C17.5081 11.78 17.6109 11.0638 17.8845 10.3985C17.968 10.1957 17.931 10.2717 17.7509 10.093L17.2815 9.62276C17.1277 9.47201 16.9458 9.32201 16.8232 9.14454L16.8102 9.12663C16.6812 8.94387 16.8186 7.7711 16.8835 7.41122L17.0246 6.49024C17.1644 5.73569 17.6492 4.00999 18.141 3.37364C17.6675 2.91176 17.4386 2.84414 16.8218 2.63576L15.5984 2.22722C15.3534 2.14544 15.1093 2.0771 14.8832 1.9496L14.8666 1.95508ZM3.35433 3.95552C3.12957 4.19062 2.93815 4.45715 2.73607 4.71126L1.07828 6.95344C1.01613 7.04034 0.931976 7.15022 0.901326 7.25285C1.02002 7.37782 1.18197 7.48416 1.32326 7.58241L2.02542 8.07476C2.36843 8.32415 2.68367 8.61595 2.99496 8.90273C3.30872 9.19943 3.6326 9.51323 3.88193 9.86634C4.4116 8.98139 4.50352 8.81379 4.41242 7.74984C4.31609 6.62463 4.05249 5.58691 3.61807 4.5454L3.35433 3.95552ZM18.6552 3.96982C18.1292 4.84711 17.7416 6.5602 17.6126 7.53907L17.5026 8.77694L18.3157 9.57012C18.5464 9.2624 18.8316 8.96203 19.1259 8.71434L19.7364 8.25431C19.9239 8.12243 21.0441 7.41295 21.1002 7.28126C21.1028 7.19487 21.0195 7.08199 20.9716 7.01095L18.6552 3.96982ZM10.9881 5.00196L10.9828 17.3563C10.983 17.5423 10.9703 17.7449 11.0066 17.9276L11.0113 5.51667C11.0112 5.34975 11.0198 5.17333 10.9964 5.00782L10.9881 5.00196Z" fill="black"/>
</svg>
