<svg width="123" height="123" viewBox="0 0 123 123" fill="none" xmlns="http://www.w3.org/2000/svg">
<g clip-path="url(#clip0_4446_15105)">
<path d="M34.388 67.984C34.102 67.676 33.846 67.346 33.626 67.003C33.405 66.658 33.212 66.289 33.053 65.906C32.522 64.641 32.378 63.275 32.602 61.972C32.826 60.678 33.414 59.441 34.346 58.424L34.686 58.074C36.979 55.889 40.457 55.482 43.185 57.123C43.575 57.356 43.947 57.633 44.294 57.95L44.328 57.981C46.259 59.833 49.526 62.862 51.671 64.771L53.512 66.422L76.044 42.787C76.361 42.46 76.71 42.167 77.079 41.911C77.457 41.65 77.854 41.429 78.264 41.25C78.678 41.069 79.116 40.927 79.564 40.829C80.011 40.73 80.467 40.674 80.92 40.664H80.946C81.397 40.659 81.839 40.691 82.287 40.767C82.724 40.841 83.163 40.96 83.62 41.136C84.041 41.297 84.445 41.499 84.827 41.74C85.192 41.971 85.548 42.246 85.883 42.562L86.045 42.709C86.361 43.022 86.646 43.362 86.895 43.723C87.151 44.092 87.37 44.489 87.547 44.901C87.73 45.315 87.872 45.753 87.971 46.2C88.071 46.639 88.125 47.095 88.136 47.56V47.79C88.132 48.189 88.094 48.594 88.022 48.994C87.943 49.429 87.824 49.857 87.666 50.265C87.506 50.683 87.301 51.09 87.059 51.475C86.821 51.852 86.541 52.214 86.227 52.545L59.008 81.105C58.688 81.447 58.345 81.747 57.986 82.003C57.617 82.267 57.219 82.494 56.803 82.684C56.386 82.872 55.952 83.021 55.515 83.124C55.08 83.228 54.626 83.29 54.165 83.311L54.04 83.314C53.617 83.323 53.2 83.298 52.799 83.236L52.697 83.216C52.282 83.146 51.878 83.042 51.492 82.906C51.071 82.756 50.659 82.563 50.266 82.331L50.203 82.291C49.832 82.067 49.486 81.814 49.171 81.537L49.108 81.477C47.528 80.011 45.811 78.519 44.075 77.011C41.068 74.398 36.897 70.629 34.397 67.991L34.388 67.984ZM61.44 0C78.4 0 93.768 6.883 104.893 17.987C115.997 29.112 122.879 44.48 122.879 61.44C122.879 78.401 115.996 93.769 104.893 104.894C93.769 115.998 78.4 122.88 61.44 122.88C44.479 122.88 29.111 115.998 17.986 104.894C6.882 93.769 0 78.4 0 61.439C0 44.48 6.882 29.112 17.986 17.987C29.112 6.883 44.479 0 61.44 0ZM96.899 25.981C87.826 16.907 75.29 11.296 61.44 11.296C47.589 11.296 35.053 16.907 25.98 25.981C16.907 35.054 11.296 47.59 11.296 61.439C11.296 75.29 16.907 87.826 25.98 96.899C35.053 105.972 47.589 111.584 61.44 111.584C75.29 111.584 87.826 105.973 96.899 96.899C105.972 87.825 111.583 75.29 111.583 61.439C111.583 47.59 105.973 35.054 96.899 25.981Z" fill="white"/>
</g>
<defs>
<clipPath id="clip0_4446_15105">
<rect width="122.88" height="122.88" fill="white"/>
</clipPath>
</defs>
</svg>
