<svg width="123" height="123" viewBox="0 0 123 123" fill="none" xmlns="http://www.w3.org/2000/svg">
<g clip-path="url(#clip0_4446_15108)">
<path d="M61.44 0C78.406 0 93.766 6.877 104.885 17.995C116.004 29.113 122.881 44.474 122.881 61.439C122.881 78.406 116.004 93.766 104.885 104.884C93.766 116.002 78.406 122.88 61.44 122.88C44.474 122.88 29.114 116.003 17.996 104.885C6.878 93.767 0 78.406 0 61.439C0 44.474 6.877 29.113 17.996 17.995C29.115 6.877 44.474 0 61.44 0ZM34.556 67.179C33.243 65.991 33.141 63.963 34.33 62.65C35.518 61.337 37.546 61.235 38.859 62.423L52.3 74.611L83.843 41.575C85.066 40.289 87.101 40.239 88.386 41.461C89.671 42.684 89.722 44.718 88.499 46.003L54.793 81.305L54.789 81.301C53.594 82.558 51.607 82.639 50.314 81.469L34.556 67.179ZM100.33 22.55C90.377 12.598 76.627 6.441 61.44 6.441C46.252 6.441 32.502 12.597 22.55 22.549C12.597 32.502 6.442 46.251 6.442 61.439C6.442 76.627 12.598 90.377 22.55 100.33C32.502 110.282 46.252 116.438 61.44 116.438C76.627 116.438 90.377 110.282 100.33 100.33C110.283 90.377 116.437 76.628 116.437 61.439C116.438 46.252 110.283 32.502 100.33 22.55Z" fill="white"/>
</g>
<defs>
<clipPath id="clip0_4446_15108">
<rect width="122.881" height="122.88" fill="white"/>
</clipPath>
</defs>
</svg>
