<svg width="20" height="20" viewBox="0 0 20 20" fill="none" xmlns="http://www.w3.org/2000/svg">
    <path
        d="M15.3922 14.0244L15.7172 16.6577C15.8005 17.3493 15.0589 17.8327 14.4672 17.4743L10.9755 15.3993C10.5922 15.3993 10.2172 15.3744 9.85053 15.3244C10.4672 14.5994 10.8339 13.6827 10.8339 12.691C10.8339 10.3243 8.78386 8.4077 6.25052 8.4077C5.28386 8.4077 4.39219 8.68268 3.65053 9.16601C3.62553 8.95768 3.61719 8.74934 3.61719 8.53267C3.61719 4.74101 6.90886 1.66602 10.9755 1.66602C15.0422 1.66602 18.3339 4.74101 18.3339 8.53267C18.3339 10.7827 17.1755 12.7744 15.3922 14.0244Z"
        stroke="#503C3B" stroke-width="1.2" stroke-linecap="round" stroke-linejoin="round" />
    <path
        d="M10.8346 12.6915C10.8346 13.6832 10.468 14.5999 9.85131 15.3249C9.02631 16.3249 7.71797 16.9665 6.2513 16.9665L4.0763 18.2582C3.70963 18.4832 3.24297 18.1748 3.29297 17.7498L3.5013 16.1082C2.38463 15.3332 1.66797 14.0915 1.66797 12.6915C1.66797 11.2248 2.45131 9.93318 3.65131 9.16651C4.39297 8.68318 5.28464 8.4082 6.2513 8.4082C8.78463 8.4082 10.8346 10.3248 10.8346 12.6915Z"
        stroke="#503C3B" stroke-width="1.2" stroke-linecap="round" stroke-linejoin="round" />
</svg>