<svg width="14" height="17" viewBox="0 0 14 17" fill="none" xmlns="http://www.w3.org/2000/svg">
<g clip-path="url(#clip0_429_1081)">
<path fill-rule="evenodd" clip-rule="evenodd" d="M10.8377 1.85558V2.88306H12.3118H12.313V2.88571C12.7786 2.88704 13.2007 3.0944 13.5054 3.43069C13.8077 3.76432 13.9964 4.22556 13.9976 4.73598H14V4.73863V14.4778V14.4791H13.9976C13.9964 14.9895 13.8077 15.4534 13.5018 15.7897C13.1982 16.122 12.7786 16.3293 12.3142 16.3307V16.3333H12.3118H4.85048H4.84927V16.3307C4.3849 16.3293 3.96165 16.122 3.65691 15.7857C3.35458 15.4521 3.16593 14.9908 3.16472 14.4804H3.1623V14.4778V12.2965H1.68817H1.68697V12.2939C1.2226 12.2925 0.799344 12.0852 0.494601 11.7489C0.192278 11.4153 0.00362788 10.954 0.00241859 10.4436H0V10.4409V1.85558V1.85425H0.00241859C0.00362788 1.3425 0.193487 0.878608 0.498229 0.543647C0.801762 0.211344 1.22139 0.00398763 1.68576 0.00265842V0H1.68817H9.14952H9.15073V0.00265842C9.61631 0.00398763 10.0384 0.211344 10.3431 0.547634C10.6454 0.881266 10.8341 1.3425 10.8353 1.85292H10.8377V1.85558ZM9.55826 2.88306V1.85558V1.85292H9.56068C9.56068 1.73196 9.51352 1.62031 9.43854 1.5379C9.36478 1.45681 9.26199 1.40497 9.15194 1.40497V1.40763H9.15073H1.68938H1.68697V1.40497C1.57692 1.40497 1.47534 1.45681 1.40036 1.53923C1.3266 1.62031 1.27943 1.73329 1.27943 1.85425H1.28185V1.85558V10.4409V10.4436H1.27943C1.27943 10.5646 1.3266 10.6762 1.40157 10.7586C1.47534 10.8397 1.57813 10.8915 1.68817 10.8915V10.8889H1.68938H3.16351V4.73863V4.7373H3.16593C3.16714 4.22556 3.357 3.76166 3.66174 3.4267C3.96528 3.0944 4.3849 2.88704 4.84927 2.88571V2.88306H4.85169H9.55826ZM12.7194 14.4778V4.73863V4.73598H12.7218C12.7218 4.61502 12.6746 4.50336 12.5996 4.42095C12.5259 4.33987 12.4231 4.28803 12.313 4.28803V4.29069H12.3118H4.85048H4.84806V4.28803C4.73802 4.28803 4.63643 4.33987 4.56146 4.42228C4.48769 4.50336 4.44053 4.61635 4.44053 4.7373H4.44295V4.73863V14.4778V14.4804H4.44053C4.44053 14.6014 4.48769 14.713 4.56267 14.7954C4.63643 14.8765 4.73922 14.9284 4.84927 14.9284V14.9257H4.85048H12.3118H12.3142V14.9284C12.4243 14.9284 12.5259 14.8765 12.6008 14.7941C12.6746 14.713 12.7218 14.6 12.7218 14.4791H12.7194V14.4778Z" fill="white"/>
</g>
<defs>
<clipPath id="clip0_429_1081">
<rect width="14" height="16.3333" fill="white"/>
</clipPath>
</defs>
</svg>
