<svg width="10" height="11" viewBox="0 0 10 11" fill="none" xmlns="http://www.w3.org/2000/svg">
<g clip-path="url(#clip0_3881_14358)">
<path d="M3.37589 8.3H2.71125V0.137657C2.71125 0.0679916 2.64325 0 2.57359 0H1.10748C1.03614 0 0.968777 0.0612971 0.968777 0.137657V8.3H0.30497C0.234468 8.3 0.162292 8.32406 0.10497 8.37469C-0.0226454 8.48515 -0.0351977 8.67845 0.0744257 8.80544L1.64932 10.6134C1.77464 10.7521 1.99367 10.7538 2.1148 10.6077L3.60162 8.8113C3.65141 8.75649 3.68133 8.68347 3.68133 8.60544C3.68133 8.43536 3.54514 8.3 3.37589 8.3ZM4.42233 0C4.35267 0 4.28447 0.0679916 4.28447 0.137657V1.32176C4.28447 1.39226 4.34597 1.46046 4.42233 1.46046H9.86229C9.93865 1.46046 9.99995 1.39226 9.99995 1.32176V0.137657C9.99995 0.0679916 9.93196 0 9.86229 0H4.42233ZM4.42233 2.97301C4.35602 2.97301 4.28447 3.04351 4.28447 3.11088V4.29477C4.28447 4.36297 4.34681 4.43347 4.42233 4.43347H8.45664C8.53217 4.43347 8.5943 4.36527 8.5943 4.29477V3.11088C8.5943 3.041 8.52464 2.97301 8.45664 2.97301H4.42233ZM4.42233 5.94603C4.35602 5.94603 4.28447 6.01569 4.28447 6.08389V7.26778C4.28447 7.33682 4.34597 7.40649 4.42233 7.40649H7.051C7.12736 7.40649 7.18865 7.33849 7.18865 7.26778V6.08389C7.18865 6.01402 7.11899 5.94603 7.051 5.94603H4.42233Z" fill="#503C3B"/>
</g>
<defs>
<clipPath id="clip0_3881_14358">
<rect width="10" height="10.7174" fill="white"/>
</clipPath>
</defs>
</svg>
