<svg width="50" height="50" viewBox="0 0 50 50" fill="none" xmlns="http://www.w3.org/2000/svg">
<path d="M36.9375 21.4375C36.2292 22.1458 35.3333 22.5 34.25 22.5C33.1667 22.5 32.2708 22.1458 31.5625 21.4375C30.8542 20.7292 30.5 19.8333 30.5 18.75C30.5 17.6667 30.8542 16.7708 31.5625 16.0625C32.2708 15.3542 33.1667 15 34.25 15C35.3333 15 36.2292 15.3542 36.9375 16.0625C37.6458 16.7708 38 17.6667 38 18.75C38 19.8333 37.6458 20.7292 36.9375 21.4375Z" fill="white"/>
<path d="M19.4375 21.4375C18.7292 22.1458 17.8333 22.5 16.75 22.5C15.6667 22.5 14.7708 22.1458 14.0625 21.4375C13.3542 20.7292 13 19.8333 13 18.75C13 17.6667 13.3542 16.7708 14.0625 16.0625C14.7708 15.3542 15.6667 15 16.75 15C17.8333 15 18.7292 15.3542 19.4375 16.0625C20.1458 16.7708 20.5 17.6667 20.5 18.75C20.5 19.8333 20.1458 20.7292 19.4375 21.4375Z" fill="white"/>
<path d="M16.72 37.25C16.4067 37.4167 16.1042 37.5 15.8125 37.5C15.1042 37.5 14.5733 37.1775 14.22 36.5325C13.865 35.8858 13.9167 35.2083 14.375 34.5C15.5 32.7917 17.0417 31.4058 19 30.3425C20.9583 29.2808 23.125 28.75 25.5 28.75C27.875 28.75 30.0417 29.2808 32 30.3425C33.9583 31.4058 35.4792 32.75 36.5625 34.375C37.0625 35.125 37.1358 35.8333 36.7825 36.5C36.4275 37.1667 35.875 37.5 35.125 37.5C34.8333 37.5 34.5417 37.4167 34.25 37.25C33.9583 37.0833 33.7292 36.875 33.5625 36.625C32.6458 35.375 31.5 34.375 30.125 33.625C28.75 32.875 27.2083 32.5 25.5 32.5C23.7917 32.5 22.25 32.875 20.875 33.625C19.5 34.375 18.3542 35.375 17.4375 36.625C17.2708 36.875 17.0317 37.0833 16.72 37.25Z" fill="white"/>
<circle cx="25" cy="25" r="23" stroke="white" stroke-width="4"/>
</svg>
