<svg width="30" height="16" viewBox="0 0 30 16" fill="none" xmlns="http://www.w3.org/2000/svg">
<g clip-path="url(#clip0_3822_13161)">
<path fill-rule="evenodd" clip-rule="evenodd" d="M4.05032 6.19629C2.82961 6.24756 1.57717 7.29981 0.837426 8.86475C0.452993 9.67584 0.241007 10.5579 0.214867 11.4551C0.0703225 12.4249 -0.00149237 13.4042 2.35024e-05 14.3848C0.244164 15.8887 2.14602 15.4443 2.30959 14.3848L2.54153 11.3525C2.54781 10.9397 2.63059 10.5316 2.78567 10.1489C2.86305 9.95881 2.96928 9.78177 3.10061 9.62402L3.21291 15.1636L3.15676 15.625H8.40334L8.33254 15.1099L8.43508 9.00635C8.88967 8.81003 9.37601 8.69754 9.87063 8.67432C9.83157 8.75081 9.7925 8.83219 9.75344 8.91846C9.34977 9.76997 9.12778 10.6962 9.10159 11.6382C8.94911 12.6581 8.87321 13.688 8.87454 14.7192C9.11868 16.2988 11.128 15.8325 11.2989 14.7192L11.543 11.5454C11.5486 11.1021 11.638 10.6639 11.8067 10.2539C11.8896 10.0547 12.0015 9.86876 12.1387 9.70215L12.2583 15.2271L12.1778 15.7935H17.71L17.6245 15.1709L17.71 10.4565V10.5542L17.7295 9.70215C17.8675 9.86912 17.9809 10.0549 18.0664 10.2539C18.2318 10.6555 18.3212 11.0843 18.3301 11.5186L18.5742 14.6924C18.8184 16.2109 20.9986 16.2427 20.9986 14.6924C21.0007 13.6612 20.9256 12.6313 20.774 11.6113C20.7457 10.6693 20.5229 9.74338 20.1197 8.8916C20.0806 8.81104 20.044 8.73291 20.0049 8.64746C20.5446 8.65205 21.0778 8.76582 21.5723 8.98193L21.6748 15.0855L21.5967 15.625H26.8555L26.7896 15.1636L26.9043 9.62402C27.0357 9.78177 27.1419 9.95881 27.2193 10.1489C27.3743 10.5316 27.4571 10.9397 27.4634 11.3525L27.7075 14.3848C27.8711 15.4443 29.7779 15.8887 30.0171 14.3848C30.0186 13.4042 29.9468 12.4249 29.8023 11.4551C29.7761 10.5579 29.5641 9.67584 29.1797 8.86475C28.4473 7.29981 27.1778 6.24756 25.9668 6.19629C23.9085 6.00612 21.8385 5.97511 19.7754 6.10352C18.9502 6.16699 18.1177 6.22315 17.5318 6.30615C17.2666 6.22051 16.9934 6.16243 16.7163 6.13281C15.7398 6.05225 14.1236 6.13281 13.1543 6.11328C12.8884 6.14837 12.6261 6.2072 12.3706 6.28906C11.792 6.2085 11.0132 6.14258 10.2393 6.10352C8.17881 6.01525 6.115 6.04296 4.05764 6.18652L4.05032 6.19629ZM24.2407 0.317384C23.7028 0.317384 23.177 0.476893 22.7297 0.77574C22.2825 1.07459 21.9339 1.49935 21.728 1.99632C21.5222 2.49328 21.4683 3.04013 21.5733 3.5677C21.6782 4.09528 21.9373 4.57989 22.3176 4.96025C22.698 5.34061 23.1826 5.59964 23.7102 5.70458C24.2377 5.80952 24.7846 5.75566 25.2815 5.54981C25.7785 5.34396 26.2033 4.99537 26.5021 4.54811C26.801 4.10085 26.9605 3.57502 26.9605 3.03711C26.9608 2.67986 26.8907 2.32605 26.7541 1.99594C26.6175 1.66582 26.4172 1.36587 26.1646 1.11326C25.912 0.860643 25.612 0.660322 25.2819 0.523757C24.9518 0.387191 24.598 0.317063 24.2407 0.317384ZM14.9414 1.04293e-06C15.5066 -0.000481793 16.0592 0.166697 16.5293 0.480381C16.9994 0.794066 17.3659 1.24016 17.5824 1.7622C17.7989 2.28425 17.8557 2.85879 17.7456 3.41311C17.6354 3.96744 17.3633 4.47663 16.9637 4.87626C16.5641 5.27589 16.0549 5.54799 15.5005 5.65812C14.9462 5.76826 14.3717 5.71149 13.8496 5.49499C13.3276 5.27849 12.8815 4.91199 12.5678 4.44188C12.2541 3.97177 12.0869 3.41916 12.0874 2.854C12.0881 2.09727 12.389 1.37172 12.9241 0.836634C13.4591 0.301544 14.1847 0.000647545 14.9414 1.04293e-06ZM5.75686 0.317384C6.29487 0.316901 6.82095 0.475999 7.26852 0.774553C7.7161 1.07311 8.06508 1.4977 8.2713 1.99462C8.47752 2.49155 8.53173 3.03847 8.42707 3.5662C8.3224 4.09394 8.06356 4.57878 7.6833 4.95938C7.30304 5.33999 6.81843 5.59926 6.29079 5.7044C5.76315 5.80954 5.21618 5.75582 4.71907 5.55004C4.22196 5.34426 3.79706 4.99567 3.4981 4.54836C3.19915 4.10105 3.03957 3.57513 3.03957 3.03711C3.03957 2.31622 3.32578 1.62481 3.8353 1.11484C4.34482 0.604858 5.03597 0.318031 5.75686 0.317384Z" fill="white"/>
</g>
<defs>
<clipPath id="clip0_3822_13161">
<rect width="30" height="15.8618" fill="white"/>
</clipPath>
</defs>
</svg>
