<svg width="24" height="24" viewBox="0 0 24 24" fill="none" xmlns="http://www.w3.org/2000/svg">
    <path
        d="M19.3333 7.33378H17.7367C17.8973 7.01618 17.9872 6.66749 18 6.31178C17.9769 5.68295 17.7077 5.08836 17.2505 4.65605C16.7932 4.22375 16.1845 3.98831 15.5553 4.00045C14.806 4.03272 14.0794 4.26788 13.4532 4.68083C12.8271 5.09377 12.3248 5.669 12 6.34511C11.6787 5.67089 11.1802 5.09663 10.5579 4.68367C9.93558 4.2707 9.21276 4.03456 8.46667 4.00045C8.44133 4.00045 8.416 4.00045 8.39067 4.00045C7.77053 4.00144 7.17494 4.24283 6.7291 4.67388C6.28326 5.10492 6.02191 5.69203 6 6.31178V6.35578C6.01301 6.69614 6.09918 7.02971 6.25267 7.33378H4.66667C4.48986 7.33378 4.32029 7.40402 4.19526 7.52904C4.07024 7.65407 4 7.82364 4 8.00045V10.0004C4 10.1773 4.07024 10.3468 4.19526 10.4719C4.32029 10.5969 4.48986 10.6671 4.66667 10.6671H19.3333C19.5101 10.6671 19.6797 10.5969 19.8047 10.4719C19.9298 10.3468 20 10.1773 20 10.0004V8.00045C20 7.82364 19.9298 7.65407 19.8047 7.52904C19.6797 7.40402 19.5101 7.33378 19.3333 7.33378ZM15.576 5.33378C15.8483 5.32672 16.113 5.42409 16.3158 5.60594C16.5186 5.78779 16.6441 6.04033 16.6667 6.31178C16.6572 6.58466 16.5427 6.84334 16.347 7.03378C16.1514 7.22423 15.8897 7.33171 15.6167 7.33378H12.9853C13.4 6.49445 14.2247 5.33378 15.576 5.33378ZM7.33333 6.33378C7.3504 6.06097 7.47155 5.80513 7.67177 5.61905C7.87199 5.43297 8.13601 5.33086 8.40933 5.33378C9.78867 5.33911 10.5967 6.48778 11.016 7.33378H8.416C8.14226 7.33584 7.87801 7.23362 7.67691 7.04788C7.47582 6.86214 7.35298 6.60682 7.33333 6.33378V6.33378Z"
        fill="#533B38" />
    <path
        d="M13.334 12V20H16.6673C17.1978 20 17.7065 19.7893 18.0815 19.4142C18.4566 19.0391 18.6673 18.5304 18.6673 18V12H13.334Z"
        fill="#533B38" />
    <path
        d="M10.6673 12H5.33398V18C5.33398 18.5304 5.5447 19.0391 5.91977 19.4142C6.29484 19.7893 6.80355 20 7.33398 20H10.6673V12Z"
        fill="#533B38" />
</svg>