<!-- <svg width="1024" height="1024" viewBox="0 0 1024 1024" fill="none" xmlns="http://www.w3.org/2000/svg">
<path d="M384.852 121.175L154.879 300.375C116.479 330.242 85.332 393.815 85.332 442.028V758.188C85.332 857.175 165.972 938.242 264.959 938.242H759.039C858.025 938.242 938.665 857.175 938.665 758.615V448.002C938.665 396.375 904.105 330.242 861.865 300.802L598.185 116.055C538.452 74.2417 442.452 76.3751 384.852 121.175Z" stroke="#503C3B" stroke-width="60" stroke-linecap="round" stroke-linejoin="round"/>
<path d="M448 768H576C646.4 768 704 710.4 704 640V512C704 441.6 646.4 384 576 384H448C377.6 384 320 441.6 320 512V640C320 710.4 377.6 768 448 768Z" stroke="#503C3B" stroke-width="60" stroke-linecap="round" stroke-linejoin="round"/>
<path d="M512 384V768" stroke="#503C3B" stroke-width="60" stroke-linecap="round" stroke-linejoin="round"/>
<path d="M320 576H704" stroke="#503C3B" stroke-width="60" stroke-linecap="round" stroke-linejoin="round"/>
</svg> -->

<svg fill="none" height="24" viewBox="0 0 24 24" width="24" xmlns="http://www.w3.org/2000/svg">
    <g stroke="#503c3b" stroke-linecap="round" stroke-linejoin="round" stroke-width="1.5">
        <path
            d="m9.02 2.83999-5.39 4.2c-.9.7-1.63 2.19-1.63 3.32001v7.41c0 2.32 1.89 4.22 4.21 4.22h11.58c2.32 0 4.21-1.9 4.21-4.21v-7.28c0-1.21001-.81-2.76001-1.8-3.45001l-6.18-4.33c-1.4-.98-3.65-.93-5 .12z" />
        <path d="m10.5 18h3c1.65 0 3-1.35 3-3v-3c0-1.65-1.35-3-3-3h-3c-1.65 0-3 1.35-3 3v3c0 1.65 1.35 3 3 3z" />
        <path d="m12 9v9" />
        <path d="m7.5 13.5h9" />
    </g>
</svg>