<svg width="24" height="24" viewBox="0 0 24 24" fill="none" xmlns="http://www.w3.org/2000/svg">
<g clip-path="url(#clip0_3890_14904)">
<path fill-rule="evenodd" clip-rule="evenodd" d="M17.2291 16.1761L4.43916 23.5924C4.0171 23.8372 3.81197 23.94 3.30523 23.9965C3.19997 24.0082 1.8463 23.471 1.74902 23.47L13.4322 11.2578L17.2291 16.1761V16.1761Z" fill="white"/>
<path fill-rule="evenodd" clip-rule="evenodd" d="M17.2309 7.83601L20.9612 9.98989C21.4761 10.2871 21.922 10.5052 22.3093 10.9805C22.94 11.7547 22.8577 12.642 21.9491 13.3892C21.5476 13.7194 21.0055 13.9935 20.5521 14.2563L17.2185 16.1853L13.4316 11.2649L17.2309 7.83594V7.83601Z" fill="white"/>
<path fill-rule="evenodd" clip-rule="evenodd" d="M2.87402 0.00414315C2.89562 0.00277514 2.91737 0.00183914 2.93918 0.00119114C3.87468 -0.0253049 4.36335 0.394384 5.12986 0.846112L17.2357 7.8348L13.4326 11.2611L2.8741 0.00399915V0.00414315H2.87402Z" fill="white"/>
<path fill-rule="evenodd" clip-rule="evenodd" d="M2.97206 0.0370185L13.4323 11.2609L1.75209 23.4699C1.67721 23.3812 1.61169 23.2831 1.5551 23.1768C1.19272 22.4946 1.29438 21.4447 1.29438 20.6748V3.20747C1.29438 2.69195 1.25601 2.07152 1.3409 1.53404C1.46013 0.779627 2.54171 -0.171782 2.97199 0.0370905L2.97206 0.0370185Z" fill="white"/>
</g>
<defs>
<clipPath id="clip0_3890_14904">
<rect width="24" height="24" fill="white"/>
</clipPath>
</defs>
</svg>
