<svg width="14" height="14" viewBox="0 0 14 14" fill="none" xmlns="http://www.w3.org/2000/svg">
<path d="M4.73928 3.84375C4.36739 3.84375 4.0752 4.15885 4.0752 4.54396C4.0752 4.92908 4.37403 5.24418 4.73928 5.24418C5.10453 5.24418 5.40336 4.92908 5.40336 4.54396C5.40336 4.15885 5.10453 3.84375 4.73928 3.84375Z" fill="#533B38" fill-opacity="0.5"/>
<path d="M12.9231 2.12865C12.3653 0.763232 11.1367 0 9.42336 0H3.85833C1.72662 0 0 1.82055 0 4.06824V9.93603C0 11.7426 0.723852 13.038 2.01882 13.6262C2.14499 13.6822 2.29109 13.6472 2.38406 13.5491L12.85 2.51377C12.9496 2.40873 12.9829 2.25469 12.9231 2.12865ZM5.66464 7.17018C5.40565 7.43626 5.06696 7.5623 4.72828 7.5623C4.3896 7.5623 4.05092 7.42926 3.79192 7.17018C3.11456 6.49798 2.37078 5.42665 2.65634 4.15226C2.90869 2.99691 3.87825 2.47875 4.72828 2.47875C5.57831 2.47875 6.54787 2.99691 6.80022 4.15927C7.07914 5.42665 6.33537 6.49798 5.66464 7.17018Z" fill="#533B38" fill-opacity="0.5"/>
<path d="M11.6017 12.9722C11.7478 13.1262 11.7279 13.3783 11.5486 13.4833C10.9642 13.8264 10.2536 14.0015 9.4235 14.0015H3.85847C3.66588 14.0015 3.58619 13.7634 3.71901 13.6234L7.73008 9.39409C7.8629 9.25405 8.06876 9.25405 8.20158 9.39409L11.6017 12.9722Z" fill="#533B38" fill-opacity="0.5"/>
<path d="M13.2787 4.06787V9.93566C13.2787 10.8109 13.1126 11.5672 12.7872 12.1763C12.6876 12.3654 12.4486 12.3794 12.3025 12.2324L8.90235 8.64727C8.76953 8.50723 8.76953 8.29016 8.90235 8.15012L12.9134 3.92083C13.0529 3.78078 13.2787 3.86481 13.2787 4.06787Z" fill="#533B38" fill-opacity="0.5"/>
</svg>
