<svg width="30" height="18" viewBox="0 0 30 18" fill="none" xmlns="http://www.w3.org/2000/svg">
<g clip-path="url(#clip0_429_1210)">
<path fill-rule="evenodd" clip-rule="evenodd" d="M10.374 13.1457C10.3351 13.1067 10.289 13.0764 10.2356 13.0548C10.1822 13.0333 10.1237 13.0224 10.0602 13.0224C10.0265 13.0224 9.99168 13.0253 9.95541 13.0311C9.91914 13.0368 9.88377 13.0472 9.84894 13.0617C9.8142 13.0764 9.78108 13.0967 9.74976 13.1226C9.71844 13.1484 9.69108 13.1811 9.66795 13.2204C9.6306 13.1587 9.57993 13.1103 9.51612 13.0751C9.45222 13.0401 9.37914 13.0224 9.29697 13.0224C9.26934 13.0224 9.24081 13.0249 9.2112 13.0299C9.18168 13.0349 9.15234 13.0436 9.12327 13.0559C9.09411 13.0683 9.0663 13.0851 9.03975 13.1063C9.0132 13.1275 8.98917 13.1544 8.96748 13.1868V13.0513H8.73438V14.1605H8.96964V13.5457C8.96964 13.4986 8.97711 13.4568 8.99205 13.42C9.00699 13.3833 9.02706 13.3527 9.05208 13.3281C9.0771 13.3032 9.10635 13.2846 9.14001 13.2719C9.17367 13.2592 9.20949 13.2527 9.24756 13.2527C9.32676 13.2527 9.38823 13.2777 9.43188 13.3281C9.47553 13.3782 9.4974 13.45 9.4974 13.5433V14.1605H9.73275V13.5457C9.73275 13.4986 9.74022 13.4568 9.75516 13.42C9.7701 13.3833 9.79008 13.3527 9.8151 13.3281C9.84012 13.3032 9.86946 13.2846 9.90303 13.2719C9.93669 13.2592 9.97251 13.2527 10.0107 13.2527C10.0898 13.2527 10.1512 13.2777 10.195 13.3281C10.2387 13.3782 10.2605 13.45 10.2605 13.5433V14.1605H10.4959V13.4634C10.4959 13.3986 10.4851 13.3392 10.4639 13.2851C10.4427 13.2311 10.4125 13.1846 10.3737 13.1456L10.374 13.1457ZM21.4229 14.0856V14.1039H21.444C21.4483 14.1039 21.4517 14.1033 21.454 14.102C21.4563 14.1006 21.4575 14.0983 21.4575 14.0949C21.4575 14.0916 21.4563 14.0893 21.454 14.0878C21.4517 14.0863 21.4483 14.0856 21.444 14.0856H21.4229ZM21.4445 14.0611C21.4583 14.0611 21.4688 14.0642 21.4759 14.0703C21.483 14.0764 21.4866 14.0845 21.4866 14.0949C21.4866 14.1029 21.4841 14.1095 21.4789 14.1148C21.4738 14.1201 21.4663 14.1237 21.4566 14.1252L21.4878 14.1613H21.4541L21.4262 14.1263H21.4229V14.1613H21.3948V14.061H21.4446L21.4445 14.0611ZM21.438 14.1931C21.4492 14.1931 21.4598 14.191 21.4697 14.1867C21.4796 14.1823 21.4883 14.1765 21.4956 14.1692C21.5029 14.1618 21.5086 14.1531 21.5129 14.1432C21.5171 14.1333 21.5192 14.1227 21.5192 14.1111C21.5192 14.0999 21.5171 14.0893 21.5129 14.0793C21.5087 14.0693 21.503 14.0607 21.4956 14.0534C21.4884 14.0461 21.4796 14.0402 21.4697 14.036C21.4598 14.0318 21.4492 14.0296 21.438 14.0296C21.4264 14.0296 21.4157 14.0318 21.4057 14.036C21.3957 14.0403 21.3869 14.0461 21.3796 14.0534C21.3723 14.0607 21.3663 14.0693 21.3622 14.0793C21.3581 14.0893 21.3559 14.0999 21.3559 14.1111C21.3559 14.1226 21.358 14.1333 21.3622 14.1432C21.3663 14.1531 21.3722 14.1618 21.3796 14.1692C21.3869 14.1765 21.3957 14.1823 21.4057 14.1867C21.4157 14.191 21.4264 14.1931 21.438 14.1931ZM21.438 13.9982C21.4541 13.9982 21.4692 14.0012 21.4833 14.0072C21.4975 14.013 21.5098 14.0212 21.5202 14.0314C21.5308 14.0417 21.539 14.0535 21.5451 14.0672C21.5512 14.081 21.5542 14.0956 21.5542 14.1112C21.5542 14.1267 21.5512 14.1414 21.5451 14.1551C21.539 14.1687 21.5309 14.1809 21.5202 14.1912C21.5098 14.2016 21.4975 14.2097 21.4833 14.2156C21.4692 14.2217 21.4541 14.2246 21.438 14.2246C21.4215 14.2246 21.4061 14.2217 21.3919 14.2156C21.3776 14.2097 21.3653 14.2016 21.3547 14.1912C21.3443 14.1809 21.336 14.1688 21.3301 14.1551C21.3241 14.1414 21.3211 14.1266 21.3211 14.1112C21.3211 14.0956 21.324 14.0811 21.3301 14.0672C21.336 14.0535 21.3443 14.0416 21.3547 14.0314C21.3653 14.0212 21.3776 14.013 21.3919 14.0072C21.4061 14.0012 21.4215 13.9982 21.438 13.9982ZM16.771 13.3496C16.8018 13.3183 16.8385 13.2939 16.881 13.2766C16.9235 13.2592 16.9694 13.2505 17.0188 13.2505C17.0732 13.2505 17.1236 13.2591 17.1704 13.2766C17.2155 13.2933 17.2547 13.3168 17.2879 13.3466L17.4044 13.1528C17.3607 13.1179 17.3115 13.0893 17.2568 13.0671C17.1838 13.0374 17.1046 13.0225 17.0188 13.0225C16.9331 13.0225 16.8538 13.0374 16.7808 13.0671C16.7078 13.0968 16.645 13.1377 16.5921 13.1898C16.5393 13.2418 16.4978 13.3035 16.4677 13.3745C16.4376 13.4455 16.4225 13.5226 16.4225 13.606C16.4225 13.6894 16.4375 13.7665 16.4677 13.8376C16.4978 13.9086 16.5393 13.9701 16.5921 14.0223C16.6449 14.0744 16.7078 14.1153 16.7808 14.1451C16.8538 14.1748 16.9331 14.1896 17.0188 14.1896C17.1046 14.1896 17.1838 14.1748 17.2568 14.1451C17.3115 14.1228 17.3607 14.0942 17.4044 14.0592L17.2879 13.8654C17.2547 13.8952 17.2155 13.9186 17.1704 13.9355C17.1236 13.9528 17.0732 13.9616 17.0188 13.9616C16.9695 13.9616 16.9235 13.9529 16.881 13.9355C16.8385 13.9181 16.8018 13.8938 16.771 13.8626C16.7402 13.8313 16.7159 13.7939 16.6981 13.7503C16.6804 13.7066 16.6716 13.6586 16.6716 13.6061C16.6716 13.5536 16.6804 13.5055 16.6981 13.462C16.7159 13.4182 16.7402 13.3809 16.7711 13.3497L16.771 13.3496ZM20.6769 13.7473C20.6607 13.7906 20.6379 13.828 20.6085 13.8596C20.5792 13.8913 20.5441 13.9161 20.5032 13.9342C20.4624 13.9524 20.4167 13.9615 20.3667 13.9615C20.3141 13.9615 20.2673 13.952 20.226 13.9331C20.1847 13.9142 20.1498 13.8888 20.1212 13.8567C20.0927 13.8247 20.0707 13.7871 20.0552 13.7439C20.0397 13.7006 20.0321 13.6548 20.0321 13.6061C20.0321 13.5575 20.0398 13.5116 20.0552 13.4683C20.0707 13.4251 20.0927 13.3875 20.1212 13.3554C20.1498 13.3234 20.1847 13.2979 20.226 13.279C20.2673 13.26 20.3142 13.2506 20.3667 13.2506C20.4167 13.2506 20.4624 13.2597 20.5032 13.2778C20.5442 13.2959 20.5793 13.3209 20.6085 13.3525C20.6379 13.3842 20.6606 13.4216 20.6769 13.4649C20.6931 13.5081 20.7011 13.555 20.7011 13.6061C20.7011 13.6571 20.693 13.7042 20.6769 13.7474V13.7473ZM20.6862 12.6006V13.1858C20.6475 13.1364 20.5997 13.0968 20.5426 13.0671C20.4854 13.0374 20.4171 13.0225 20.3376 13.0225C20.2596 13.0225 20.1871 13.0369 20.1199 13.0659C20.0528 13.0949 19.9941 13.1352 19.9439 13.1868C19.8937 13.2385 19.8543 13.3001 19.8258 13.3715C19.7971 13.4429 19.7829 13.521 19.7829 13.606C19.7829 13.6909 19.7971 13.7691 19.8258 13.8404C19.8543 13.9119 19.8937 13.9734 19.9439 14.0252C19.994 14.0769 20.0527 14.1172 20.1199 14.1462C20.1871 14.1751 20.2596 14.1895 20.3376 14.1895C20.417 14.1895 20.4854 14.1749 20.5426 14.1455C20.5996 14.1163 20.6475 14.0769 20.6862 14.0275V14.1606H20.9281V12.6006H20.6862ZM19.5559 13.0225C19.4879 13.0225 19.4266 13.0348 19.3718 13.0595C19.3169 13.0842 19.271 13.1436 19.2341 13.1969V13.0515H19.0143V14.1606H19.2364V13.5504C19.2364 13.5034 19.2429 13.4613 19.2561 13.4243C19.2692 13.3872 19.2873 13.356 19.3105 13.3305C19.3336 13.305 19.3615 13.2857 19.3939 13.2725C19.4264 13.2594 19.4618 13.2528 19.5004 13.2528C19.5298 13.2528 19.5614 13.2563 19.5953 13.2633C19.6127 13.2669 19.6288 13.2712 19.6439 13.2763L19.7155 13.0448C19.696 13.0386 19.6764 13.0334 19.6562 13.03C19.6264 13.0249 19.593 13.0225 19.556 13.0225H19.5559ZM16.1918 13.0225C16.1239 13.0225 16.0625 13.0348 16.0077 13.0595C15.9529 13.0842 15.907 13.1436 15.8699 13.1969V13.0515H15.6503V14.1606H15.8723V13.5504C15.8723 13.5034 15.8789 13.4613 15.892 13.4243C15.9051 13.3872 15.9232 13.356 15.9464 13.3305C15.9697 13.305 15.9974 13.2857 16.0299 13.2725C16.0622 13.2594 16.0977 13.2528 16.1363 13.2528C16.1658 13.2528 16.1974 13.2563 16.2314 13.2633C16.2487 13.2669 16.2649 13.2712 16.28 13.2763L16.3515 13.0448C16.3321 13.0386 16.3124 13.0334 16.2921 13.03C16.2624 13.0249 16.229 13.0225 16.192 13.0225H16.1918ZM14.007 13.9395C13.9681 13.9542 13.9296 13.9615 13.8918 13.9615C13.8671 13.9615 13.8441 13.9576 13.8229 13.9499C13.8016 13.9422 13.7832 13.9301 13.7673 13.9134C13.7514 13.8969 13.7389 13.8754 13.7296 13.8492C13.7203 13.823 13.7157 13.7912 13.7157 13.7542V13.2714H14.1044V13.0514H13.7157V12.7156H13.4726V13.0514H13.2515V13.2714H13.4726V13.7588C13.4726 13.9063 13.5074 14.0148 13.5773 14.0848C13.6472 14.1546 13.745 14.1895 13.8709 14.1895C13.9411 14.1895 14.0041 14.1787 14.0601 14.1571C14.0971 14.1428 14.1314 14.1264 14.1635 14.1084L14.0808 13.9059C14.0574 13.9184 14.0329 13.9296 14.0069 13.9394L14.007 13.9395ZM18.441 13.7473C18.4248 13.7906 18.402 13.828 18.3727 13.8596C18.3433 13.8913 18.3082 13.9161 18.2673 13.9342C18.2264 13.9524 18.1809 13.9615 18.1307 13.9615C18.0782 13.9615 18.0313 13.952 17.99 13.9331C17.9487 13.9142 17.9138 13.8888 17.8852 13.8567C17.8566 13.8247 17.8346 13.7871 17.8193 13.7439C17.8038 13.7006 17.7961 13.6548 17.7961 13.6061C17.7961 13.5575 17.8039 13.5116 17.8193 13.4683C17.8347 13.4251 17.8567 13.3875 17.8852 13.3554C17.9138 13.3234 17.9487 13.2979 17.99 13.279C18.0313 13.26 18.0782 13.2506 18.1307 13.2506C18.1809 13.2506 18.2265 13.2597 18.2673 13.2778C18.3082 13.2959 18.3433 13.3209 18.3727 13.3525C18.402 13.3842 18.4248 13.4216 18.441 13.4649C18.4572 13.5081 18.4653 13.555 18.4653 13.6061C18.4653 13.6571 18.4572 13.7042 18.441 13.7474V13.7473ZM18.4502 13.1858C18.4115 13.1364 18.3638 13.0968 18.3066 13.0671C18.2495 13.0374 18.1811 13.0225 18.1017 13.0225C18.0237 13.0225 17.9511 13.0369 17.884 13.0659C17.8168 13.0949 17.7581 13.1352 17.708 13.1868C17.6578 13.2385 17.6184 13.3001 17.5898 13.3715C17.5612 13.4429 17.547 13.521 17.547 13.606C17.547 13.6909 17.5612 13.7691 17.5898 13.8404C17.6184 13.9119 17.6578 13.9734 17.708 14.0252C17.7581 14.0769 17.8168 14.1172 17.884 14.1462C17.9511 14.1751 18.0237 14.1895 18.1017 14.1895C18.1811 14.1895 18.2495 14.1749 18.3066 14.1455C18.3638 14.1163 18.4115 14.0769 18.4502 14.0275V14.1606H18.6922V13.0515H18.4502V13.1858ZM14.5583 13.5111C14.5645 13.4711 14.5753 13.4341 14.5908 13.4006C14.6063 13.367 14.6261 13.3381 14.6504 13.3137C14.6747 13.2894 14.7036 13.2707 14.7372 13.2576C14.7709 13.2444 14.8092 13.2379 14.8524 13.2379C14.9295 13.2379 14.9925 13.2618 15.0411 13.3097C15.0898 13.3576 15.1206 13.4247 15.1337 13.5111H14.5583ZM15.2351 13.1841C15.1891 13.1328 15.1339 13.093 15.0696 13.0648C15.005 13.0366 14.9343 13.0225 14.8572 13.0225C14.7753 13.0225 14.7006 13.0365 14.633 13.0648C14.5654 13.093 14.5073 13.1327 14.4587 13.1841C14.4101 13.2354 14.3723 13.2969 14.3453 13.3687C14.3183 13.4406 14.3048 13.5197 14.3048 13.6061C14.3048 13.6941 14.3187 13.7739 14.3464 13.8457C14.3742 13.9176 14.4131 13.9788 14.4633 14.0298C14.5136 14.0807 14.5734 14.1201 14.6429 14.1479C14.7123 14.1757 14.7888 14.1896 14.8721 14.1896C14.9563 14.1896 15.0364 14.178 15.1124 14.1549C15.1885 14.1318 15.2604 14.0912 15.3284 14.0333L15.2081 13.8608C15.1617 13.8978 15.1105 13.9266 15.0545 13.947C14.9986 13.9675 14.9428 13.9777 14.8872 13.9777C14.8478 13.9777 14.81 13.9724 14.7737 13.9615C14.7375 13.9507 14.7046 13.9339 14.6753 13.9112C14.6459 13.8884 14.6208 13.8592 14.6 13.8237C14.5792 13.7882 14.5649 13.7454 14.5571 13.6952H15.3769C15.3785 13.6813 15.3796 13.6666 15.3804 13.6512C15.3812 13.6358 15.3816 13.6203 15.3816 13.6048C15.3816 13.5184 15.3686 13.4395 15.3428 13.368C15.3171 13.2966 15.2812 13.2353 15.2352 13.1839L15.2351 13.1841ZM12.9693 13.6044C12.9013 13.5515 12.8068 13.5162 12.6856 13.4985L12.571 13.4811C12.5454 13.4772 12.5215 13.4728 12.4992 13.4677C12.4768 13.4627 12.4575 13.4559 12.4413 13.4475C12.4252 13.439 12.4121 13.4281 12.4025 13.4151C12.3929 13.4019 12.3881 13.3857 12.3881 13.3664C12.3881 13.327 12.4065 13.2951 12.4431 13.2708C12.4797 13.2465 12.5313 13.2345 12.5976 13.2345C12.6324 13.2345 12.6666 13.2374 12.7001 13.2437C12.7337 13.2499 12.7655 13.2576 12.7956 13.2668C12.8257 13.276 12.8531 13.2863 12.8779 13.2975C12.9025 13.3087 12.9234 13.3194 12.9404 13.3293L13.0446 13.1407C12.9867 13.1036 12.9192 13.0749 12.842 13.0544C12.7648 13.0339 12.6826 13.0237 12.5953 13.0237C12.5243 13.0237 12.4606 13.032 12.4042 13.0486C12.348 13.0652 12.2999 13.0887 12.2601 13.1192C12.2203 13.1498 12.1898 13.1869 12.1686 13.2309C12.1473 13.275 12.1368 13.3244 12.1368 13.3792C12.1368 13.4687 12.1686 13.5411 12.2322 13.5963C12.2959 13.6515 12.3896 13.6876 12.513 13.7045L12.6289 13.7196C12.6953 13.7288 12.7439 13.7438 12.7748 13.7642C12.8057 13.7846 12.8211 13.8106 12.8211 13.8424C12.8211 13.884 12.7999 13.917 12.7574 13.9413C12.7149 13.9656 12.6521 13.9778 12.5686 13.9778C12.5231 13.9778 12.4824 13.9747 12.4465 13.9685C12.4107 13.9623 12.3778 13.9541 12.3481 13.9437C12.3184 13.9332 12.2917 13.9213 12.2681 13.9078C12.2446 13.8943 12.2228 13.8798 12.2028 13.8645L12.0905 14.0462C12.1306 14.0762 12.1727 14.1006 12.2167 14.1192C12.2608 14.1376 12.3039 14.1521 12.3463 14.1624C12.3888 14.173 12.429 14.1798 12.4668 14.1832C12.5046 14.1867 12.5378 14.1885 12.5663 14.1885C12.6458 14.1885 12.7171 14.1797 12.78 14.1619C12.843 14.1441 12.8958 14.1192 12.9386 14.0871C12.9816 14.0551 13.0142 14.0169 13.0371 13.9725C13.06 13.9282 13.0712 13.8794 13.0712 13.8261C13.0712 13.7312 13.0374 13.6573 12.9694 13.6044H12.9693ZM11.6056 13.7474C11.5894 13.7907 11.5667 13.8281 11.5373 13.8597C11.508 13.8914 11.4729 13.9162 11.432 13.9343C11.3911 13.9525 11.3455 13.9616 11.2954 13.9616C11.2429 13.9616 11.196 13.9521 11.1547 13.9332C11.1134 13.9143 11.0785 13.8888 11.05 13.8568C11.0214 13.8248 10.9994 13.7871 10.984 13.7439C10.9685 13.7007 10.9609 13.6548 10.9609 13.6062C10.9609 13.5576 10.9686 13.5117 10.984 13.4684C10.9995 13.4252 11.0215 13.3875 11.05 13.3555C11.0785 13.3235 11.1135 13.298 11.1547 13.2791C11.1961 13.2601 11.2429 13.2507 11.2954 13.2507C11.3455 13.2507 11.3911 13.2597 11.432 13.2779C11.4729 13.296 11.508 13.3209 11.5373 13.3526C11.5667 13.3843 11.5894 13.4217 11.6056 13.4649C11.6218 13.5081 11.6299 13.5551 11.6299 13.6062C11.6299 13.6572 11.6218 13.7043 11.6056 13.7475V13.7474ZM11.6149 13.1859C11.5763 13.1365 11.5284 13.0968 11.4713 13.0672C11.4141 13.0374 11.3458 13.0226 11.2663 13.0226C11.1884 13.0226 11.1159 13.037 11.0486 13.066C10.9815 13.095 10.9228 13.1353 10.8727 13.1869C10.8225 13.2386 10.7831 13.3002 10.7545 13.3716C10.726 13.443 10.7117 13.5211 10.7117 13.6061C10.7117 13.691 10.726 13.7691 10.7545 13.8405C10.7831 13.912 10.8225 13.9735 10.8727 14.0253C10.9228 14.0769 10.9815 14.1173 11.0486 14.1462C11.1159 14.1752 11.1884 14.1896 11.2663 14.1896C11.3458 14.1896 11.4142 14.175 11.4713 14.1456C11.5284 14.1164 11.5763 14.0769 11.6149 14.0276V14.1607H11.8569V13.0516H11.6149V13.1859Z" fill="#141515"/>
<path fill-rule="evenodd" clip-rule="evenodd" d="M13.235 7.86654C13.235 6.5376 13.8558 5.35455 14.8224 4.58874C14.1096 4.02408 13.2093 3.68604 12.2293 3.68604C9.92056 3.68604 8.04883 5.55777 8.04883 7.86645C8.04883 10.1752 9.92047 12.0469 12.2293 12.0469C13.2093 12.0469 14.1096 11.7089 14.8224 11.1443C13.8558 10.3785 13.235 9.19539 13.235 7.86645V7.86654Z" fill="#DE2C1D"/>
<path fill-rule="evenodd" clip-rule="evenodd" d="M13.2363 7.86667C13.2363 9.1957 13.8571 10.3788 14.8237 11.1445C15.7904 10.3788 16.4111 9.19561 16.4111 7.86667C16.4111 6.53773 15.7903 5.35468 14.8237 4.58887C13.8571 5.35459 13.2363 6.53773 13.2363 7.86667Z" fill="#ED6100"/>
<path fill-rule="evenodd" clip-rule="evenodd" d="M17.4153 3.68604C16.4353 3.68604 15.535 4.02408 14.8223 4.58874C15.7889 5.35446 16.4096 6.5376 16.4096 7.86654C16.4096 9.19557 15.7888 10.3786 14.8223 11.1443C15.535 11.709 16.4353 12.047 17.4153 12.047C19.724 12.047 21.5957 10.1753 21.5957 7.86654C21.5957 5.55777 19.724 3.68613 17.4153 3.68613V3.68604ZM21.8895 10.2794V10.102L21.8319 10.2551H21.7684L21.7108 10.1023V10.2794H21.6508V10.0236H21.7367L21.8003 10.1874L21.8633 10.0236H21.9494V10.2794H21.8893H21.8895ZM21.4598 10.2794V10.0787H21.3785V10.0236H21.6008V10.0787H21.5196V10.2794H21.4597H21.4598Z" fill="#F79F06"/>
<path d="M2.82285 0H27.1769C27.9537 0 28.6595 0.31752 29.1709 0.828901C29.6824 1.34037 29.9999 2.04624 29.9999 2.82294V15.0877C29.9999 15.8643 29.6823 16.5702 29.1709 17.0817C28.6594 17.593 27.9536 17.9106 27.177 17.9106H2.82294C2.04633 17.9106 1.34037 17.5931 0.828901 17.0817C0.31752 16.5703 0 15.8645 0 15.0877V2.82294C0 2.04615 0.31752 1.34028 0.828901 0.828901C1.34028 0.31752 2.04624 0 2.82303 0H2.82285ZM27.1769 0.972991H2.82285C2.31462 0.972991 1.8522 1.18134 1.51668 1.51686C1.18116 1.85238 0.972811 2.3148 0.972811 2.82303V15.0878C0.972811 15.5959 1.18116 16.0584 1.51668 16.3939C1.85229 16.7295 2.31471 16.9378 2.82285 16.9378H27.1769C27.6849 16.9378 28.1473 16.7295 28.483 16.3939C28.8185 16.0583 29.0269 15.5958 29.0269 15.0879V2.82312C29.0269 2.31507 28.8186 1.85256 28.483 1.51695C28.1475 1.18143 27.685 0.973081 27.1769 0.973081V0.972991Z" fill="#808080"/>
</g>
<defs>
<clipPath id="clip0_429_1210">
<rect width="30" height="17.9106" fill="white"/>
</clipPath>
</defs>
</svg>
