<svg width="23" height="28" viewBox="0 0 23 28" fill="none" xmlns="http://www.w3.org/2000/svg">
<g clip-path="url(#clip0_3822_13151)">
<path d="M16.5152 4.96399V12.4631C16.5152 12.7368 16.4977 12.9974 16.4666 13.2476L7.83878 2.9846C9.43027 -1.5708 16.5152 -0.911911 16.5152 4.96399ZM0.342972 3.18019C-0.176599 2.56227 -0.0968328 1.64005 0.521079 1.12048C1.13899 0.600909 2.06122 0.680675 2.58079 1.29859L7.52299 7.17722V7.15264L15.0652 16.1247L15.0538 16.135L17.2604 18.7602L17.2719 18.7493L18.7115 20.4615L18.7 20.4724L22.5485 25.0502C23.068 25.6681 22.9883 26.5909 22.3704 27.1105C21.7525 27.6301 20.8302 27.5503 20.3107 26.9324L16.2825 22.1404L16.1049 22.2251C15.1659 22.6602 14.1632 22.9423 13.135 23.0605V26.8838C13.135 27.1914 13.0094 27.4711 12.8078 27.6727C12.7042 27.7764 12.5813 27.8587 12.4459 27.9149C12.3105 27.9711 12.1654 28 12.0188 27.9999C11.7112 27.9999 11.4321 27.8743 11.2305 27.6727C11.1267 27.5692 11.0444 27.4462 10.9882 27.3108C10.9321 27.1754 10.9032 27.0303 10.9032 26.8838V23.0605C9.87541 22.9422 8.87324 22.6598 7.93493 22.224C6.87995 21.7356 5.92604 21.0647 5.11526 20.2539L5.09614 20.2331C4.20178 19.3344 3.48007 18.2641 2.98672 17.0791C2.49517 15.8975 2.24246 14.6302 2.24315 13.3503C2.24315 13.0444 2.36881 12.7647 2.57095 12.5625C2.77201 12.3604 3.05119 12.2347 3.35878 12.2347C3.66691 12.2347 3.94609 12.3604 4.14769 12.562L4.17009 12.5865C4.35913 12.786 4.47495 13.0559 4.47495 13.3503C4.47495 14.3676 4.67928 15.339 5.04807 16.2252C5.43214 17.148 5.99487 17.9806 6.69201 18.6777C7.39023 19.3748 8.22286 19.9387 9.14399 20.3217C10.0551 20.7004 11.0321 20.8952 12.0188 20.8948C12.9962 20.8948 13.9316 20.7063 14.7893 20.3643L12.2024 17.2873C9.89521 17.378 7.52299 15.7695 7.52299 12.4631V11.7206L0.342972 3.18019ZM18.9836 16.2416L18.9902 16.2252C19.3589 15.339 19.5633 14.3676 19.5633 13.3503C19.5633 13.0427 19.6889 12.763 19.8905 12.5614C20.0921 12.3598 20.3713 12.2347 20.6789 12.2347C20.9865 12.2347 21.2662 12.3598 21.4678 12.5614L21.4902 12.586C21.6787 12.786 21.7951 13.0553 21.7951 13.3503C21.7959 15.0166 21.3679 16.655 20.5521 18.1079L18.9836 16.2416Z" fill="white"/>
</g>
<defs>
<clipPath id="clip0_3822_13151">
<rect width="22.8917" height="28" fill="white"/>
</clipPath>
</defs>
</svg>
