<svg xmlns="http://www.w3.org/2000/svg" version="1.1" width="189px" height="330px" style="shape-rendering:geometricPrecision; text-rendering:geometricPrecision; image-rendering:optimizeQuality; fill-rule:evenodd; clip-rule:evenodd" xmlns:xlink="http://www.w3.org/1999/xlink">
    <g><path style="opacity:0.989" fill="#50353b" d="M 15.5,-0.5 C 19.8333,-0.5 24.1667,-0.5 28.5,-0.5C 30.2726,0.892318 32.2726,2.05898 34.5,3C 84.0275,52.861 133.861,102.361 184,151.5C 185.795,154.099 187.295,156.766 188.5,159.5C 188.5,162.5 188.5,165.5 188.5,168.5C 187.379,170.741 186.213,173.075 185,175.5C 135.167,225.333 85.3333,275.167 35.5,325C 32.1847,326.83 28.8514,328.33 25.5,329.5C 23.1667,329.5 20.8333,329.5 18.5,329.5C 9.5792,327.211 3.24587,321.877 -0.5,313.5C -0.5,309.167 -0.5,304.833 -0.5,300.5C 0.892318,298.727 2.05898,296.727 3,294.5C 46.347,251.32 89.5137,207.986 132.5,164.5C 90.1804,121.68 47.6804,79.0137 5,36.5C 2.49722,33.4505 0.663882,30.1172 -0.5,26.5C -0.5,23.1667 -0.5,19.8333 -0.5,16.5C 2.10035,8.23374 7.43368,2.56708 15.5,-0.5 Z"/></g>
</svg>