<svg width="23" height="19" viewBox="0 0 23 19" fill="none" xmlns="http://www.w3.org/2000/svg">
<g clip-path="url(#clip0_248_422)">
<path d="M16.3141 7.23534C15.9377 6.8482 15.9462 6.22884 16.3334 5.85244C16.7205 5.47608 17.3399 5.48461 17.7163 5.87175L19.503 7.70939L21.3405 5.92289C21.7276 5.54648 22.3469 5.55501 22.7233 5.94215C23.0997 6.32929 23.0912 6.94861 22.7041 7.32501L20.8664 9.1117L22.6527 10.9488C23.0291 11.336 23.0206 11.9553 22.6334 12.3317C22.2463 12.7081 21.627 12.6996 21.2506 12.3124L19.4642 10.4752L17.6269 12.2615C17.2398 12.6379 16.6204 12.6293 16.2441 12.2422C15.8677 11.8551 15.8762 11.2357 16.2633 10.8593L18.1007 9.07279L16.3141 7.23534Z" fill="#503C3B"/>
<g clip-path="url(#clip1_248_422)">
<path d="M11.8954 9.35223V16.4792C11.8954 16.8338 11.7527 17.1324 11.5335 17.3481C11.3016 17.5762 10.9896 17.7042 10.6644 17.7047V17.7025C10.3663 17.7023 10.064 17.5958 9.82022 17.3608L6.61959 14.7605H2.64919C1.92211 14.7605 1.25972 14.4629 0.779859 13.9833C0.298734 13.5028 0 12.8407 0 12.1133V7.26686C0 6.53931 0.298734 5.87739 0.779859 5.39683C1.25972 4.9173 1.92211 4.61973 2.64919 4.61973H6.58317L9.79537 1.3682C10.0449 1.11423 10.3573 1 10.6644 1C10.8247 1 10.9845 1.03202 11.1322 1.09225C11.2818 1.15345 11.4181 1.2432 11.5335 1.35648C11.7524 1.57216 11.8954 1.87023 11.8954 2.22536V9.35223ZM10.7473 16.4792V2.22536C10.7473 2.20033 10.7407 2.18247 10.7306 2.17258C10.7243 2.16644 10.7141 2.16034 10.7015 2.15523C10.6897 2.15045 10.6771 2.14802 10.6644 2.14806C10.6462 2.14806 10.6269 2.15538 10.6115 2.17108L7.2578 5.56572C7.20396 5.62911 7.13697 5.68002 7.06148 5.71492C6.98599 5.74981 6.90381 5.76786 6.82064 5.7678H2.64919C2.23552 5.7678 1.8593 5.9365 1.58709 6.20852C1.31625 6.47903 1.14806 6.8537 1.14806 7.26686V12.1133C1.14806 12.5267 1.31625 12.9011 1.58709 13.1717C1.8593 13.4437 2.23552 13.6124 2.64919 13.6124H6.82064V13.6143C6.95219 13.614 7.07977 13.6593 7.18172 13.7425L10.5541 16.4824C10.574 16.4979 10.5932 16.5149 10.6115 16.5335C10.6285 16.5508 10.6477 16.5588 10.6644 16.5588V16.5566C10.6775 16.5566 10.6903 16.5541 10.7015 16.5495C10.7139 16.5445 10.7243 16.5382 10.7306 16.5319C10.7407 16.522 10.7473 16.5042 10.7473 16.4792Z" fill="#503C3B"/>
</g>
</g>
<defs>
<clipPath id="clip0_248_422">
<rect width="23" height="18.1852" fill="white"/>
</clipPath>
<clipPath id="clip1_248_422">
<rect width="24" height="16.7047" fill="white" transform="translate(0 1)"/>
</clipPath>
</defs>
</svg>
