<svg width="123" height="123" viewBox="0 0 123 123" fill="none" xmlns="http://www.w3.org/2000/svg">
<g clip-path="url(#clip0_221_403)">
<path d="M73.81 7.47001C81.036 9.70632 87.547 13.8033 92.69 19.35C98.2554 25.2876 101.991 32.7037 103.45 40.71V40.99C103.66 42.2 103.81 43.35 103.9 44.43C104.01 45.69 104.07 46.96 104.07 48.23V58.36C104.07 61.17 104.07 64.03 104.27 66.9C104.533 72.0492 106.021 77.0613 108.61 81.52C111.523 86.0864 115.413 89.9492 120 92.83C121.301 93.6807 122.244 94.9796 122.65 96.48C122.954 97.6511 122.926 98.8838 122.57 100.04C122.219 101.196 121.558 102.233 120.66 103.04C119.486 104.07 117.972 104.629 116.41 104.61H82.27V104.69C78.13 128.89 44.66 128.82 40.62 104.61H6.45002C4.80331 104.647 3.20698 104.041 2.00002 102.92C1.14147 102.1 0.520175 101.063 0.201621 99.9188C-0.116933 98.7748 -0.12094 97.5661 0.190023 96.42C0.621589 94.8714 1.62622 93.545 3.00002 92.71C8.66002 88.88 12.62 84.71 15.12 79.95C17.62 75.19 18.77 69.51 18.77 62.67V48.23C18.77 47.07 18.83 45.81 18.95 44.46C19.07 43.11 19.24 41.94 19.46 40.7C20.8995 32.9331 24.456 25.7145 29.7372 19.8404C35.0185 13.9662 41.8194 9.66463 49.39 7.41001C54 -2.46999 69.2 -2.48999 73.81 7.47001ZM87.71 24C83.0368 18.9534 77.0273 15.3366 70.38 13.57C69.8153 13.4149 69.2999 13.1173 68.8831 12.7058C68.4664 12.2943 68.1623 11.7827 68 11.22C66.29 5.35001 57 5.22001 55.28 11.17C55.1126 11.7498 54.7951 12.2752 54.3597 12.6931C53.9242 13.111 53.3862 13.4065 52.8 13.55C46.1142 15.2369 40.0514 18.8033 35.3287 23.8273C30.6059 28.8513 27.4208 35.1228 26.15 41.9C25.9634 42.9533 25.8234 44.0033 25.73 45.05C25.64 46.05 25.6 47.05 25.6 48.23V62.67C25.6 70.58 24.22 77.23 21.15 83.1C18.21 88.72 13.79 93.49 7.61002 97.82H115.27C110.249 94.4824 105.997 90.1117 102.8 85C99.6628 79.6366 97.8461 73.6039 97.5 67.4C97.28 64.52 97.29 61.4 97.3 58.4V48.23C97.3 47.13 97.3 46.06 97.17 45.01C97.04 43.96 96.96 43.01 96.81 42.16L96.75 41.89C95.5244 35.1851 92.4008 28.9727 87.75 23.99L87.71 24Z" fill="#503C3B"/>
<circle cx="96" cy="31" r="14" fill="#D51515"/>
</g>
<defs>
<clipPath id="clip0_221_403">
<rect width="122.88" height="122.83" fill="white"/>
</clipPath>
</defs>
</svg>
