<svg xmlns="http://www.w3.org/2000/svg" shape-rendering="geometricPrecision" text-rendering="geometricPrecision" image-rendering="optimizeQuality" fill-rule="evenodd" clip-rule="evenodd" viewBox="0 0 504 512.08"><path fill-rule="nonzero" d="m13.49 173.45 23.38 3.69c12.5-47.72 39.52-89.77 76.2-120.89C152.09 23.15 202.1 2.35 257.25.19c65.47-2.58 125.83 21.67 170.47 62.93 44.62 41.26 73.52 99.53 76.09 164.99.96 24.59-1.81 48.38-7.8 70.78a235.64 235.64 0 0 1-18.85 48.3l-.58-.94a60.46 60.46 0 0 0-23.62-21.56 62.33 62.33 0 0 0-13.7-5.07c4.95-10.41 9-21.33 12.03-32.68a191.43 191.43 0 0 0 6.36-57.02c-2.07-52.79-25.33-99.74-61.25-132.95-35.92-33.2-84.54-52.7-137.34-50.62-44.38 1.74-84.66 18.51-116.12 45.2-28.42 24.11-49.63 56.31-60.17 92.84l18.78 2.96c6.38.99 10.76 6.97 9.77 13.35-.43 2.79-1.82 5.21-3.78 6.95l-52.48 46.73c-4.83 4.3-12.25 3.87-16.56-.97-.73-.81-1.32-1.71-1.78-2.64L1.61 190.93c-3.27-5.57-1.4-12.74 4.17-16.01 2.42-1.42 5.14-1.86 7.71-1.47zm248.2 26.83h36.4v28.74h-32.18c-.4 6.75-1.63 12.85-3.72 18.29-1.68 4.14-4.47 8.44-8.39 12.9 4.46-.98 8.31-1.47 11.5-1.47 4.09 0 9.42.78 15.97 2.33 8.96 2.05 16.12 3.07 21.49 3.07 4.38 0 8.18-.37 11.42-1.1 3.27-.74 7.53-2.29 12.77-4.67l16.33 35.86c-7.89 3.93-14.85 6.67-20.87 8.19-5.98 1.51-12.41 2.25-19.28 2.25-7.54 0-16.09-1.31-25.79-3.93-12.69-3.48-20.56-5.48-23.63-6.06-3.03-.53-6.3-.82-9.82-.82-10.32 0-21.7 3.61-34.14 10.81l-15.56-34.14c16.87-12.04 25.3-24.07 25.3-36.11 0-.65-.08-2.46-.25-5.4h-25.05v-28.74h17.93c-3.03-10.52-4.79-16.66-5.16-18.34-.49-2.54-.74-5.69-.74-9.46 0-9.98 2.67-18.95 7.99-26.89 5.28-7.95 12.28-13.72 20.96-17.28 8.68-3.6 20.34-5.41 35.04-5.41 13.76 0 24.65 1.56 32.67 4.63 8.03 3.07 14.82 8.19 20.35 15.31 5.56 7.17 9.37 15.8 11.46 25.96l-45.93 7.16c-2.29-8.51-4.96-14.16-7.95-16.95-2.98-2.78-6.38-4.17-10.19-4.17-4.63 0-8.35 1.52-11.21 4.54-2.87 3.03-4.3 7.33-4.3 12.9 0 2.98.28 5.81.86 8.55.53 2.79 2.45 9.25 5.72 19.45zm-151.1 264.19V327.33c67.65 0 79.15-3.05 140.13 35.33h47.92c21.69 1.29 33.05 23.29 11.96 37.73-16.79 12.33-38.96 11.63-61.69 9.59-15.68-.78-16.35 20.28 0 20.35 5.68.45 11.84-.89 17.22-.89 28.35-.04 51.71-5.46 66.01-27.86l7.17-16.75 71.28-35.32c35.66-11.74 61.03 25.56 34.73 51.52-51.63 37.55-104.56 68.45-158.71 93.41-39.34 23.93-78.67 23.1-117.97 0l-58.05-29.97zM4.95 314.15h87.06v164.1H4.95v-164.1z"/></svg>