<svg width="24" height="24" viewBox="0 0 24 24" fill="none" xmlns="http://www.w3.org/2000/svg">
    <g clip-path="url(#clip0_605_3084)">
        <path d="M19.852 2.88422C19.6167 2.64844 19.3402 2.53219 19.02 2.53219C18.7003 2.53219 18.42 2.64844 18.188 2.88422L16.92 4.14844C16.5802 3.92812 16.2202 3.73594 15.8442 3.56391C15.4683 3.39188 15.0839 3.24422 14.6958 3.11625V1.17188C14.6958 0.84375 14.5842 0.567656 14.3559 0.339844C14.1281 0.112031 13.852 0 13.5239 0H11.0841C10.7719 0 10.5005 0.112031 10.2642 0.339844C10.0322 0.567656 9.91594 0.84375 9.91594 1.17188V2.95219C9.50812 3.04781 9.11203 3.16781 8.73187 3.31594C8.34797 3.46406 7.98422 3.63187 7.64016 3.81984L6.23578 2.43563C6.01594 2.20406 5.74828 2.08406 5.42391 2.08406C5.10375 2.08406 4.82812 2.20406 4.59188 2.43563L2.88422 4.14844C2.64844 4.38422 2.53219 4.66031 2.53219 4.97953C2.53219 5.29969 2.64844 5.58 2.88422 5.81156L4.14844 7.08C3.92812 7.42031 3.73641 7.77984 3.56437 8.15578C3.39188 8.53172 3.24422 8.91609 3.11625 9.30375H1.17234C0.84375 9.30375 0.567656 9.41578 0.339844 9.64406C0.112031 9.87187 0 10.148 0 10.4761V12.9159C0 13.2277 0.112031 13.5 0.339844 13.7362C0.567656 13.9678 0.84375 14.0841 1.17234 14.0841H2.95219C3.04781 14.4919 3.16781 14.888 3.31594 15.2677C3.46453 15.652 3.63234 16.0238 3.81984 16.3837L2.43609 17.7638C2.20406 17.9841 2.08406 18.2517 2.08406 18.5761C2.08406 18.8958 2.20406 19.1719 2.43609 19.4081L4.14844 21.1402C4.38422 21.36 4.66031 21.4683 4.98047 21.4683C5.30016 21.4683 5.58 21.36 5.8125 21.1402L7.08 19.852C7.42031 20.0719 7.78031 20.2636 8.15625 20.4361C8.53219 20.6077 8.91609 20.7563 9.30422 20.8837V22.8281C9.30422 23.1562 9.41625 23.4319 9.64406 23.6597C9.87187 23.888 10.1484 24 10.4761 24H12.9159C13.2281 24 13.5 23.888 13.7362 23.6597C13.9678 23.4319 14.0841 23.1562 14.0841 22.8281V21.0478C14.4919 20.9522 14.888 20.8322 15.2677 20.6841C15.652 20.5359 16.0242 20.3681 16.3837 20.1802L17.7638 21.5644C17.9841 21.7964 18.2555 21.9159 18.5845 21.9159C18.9159 21.9159 19.1878 21.7964 19.4081 21.5644L21.1402 19.852C21.36 19.6158 21.4683 19.3402 21.4683 19.02C21.4683 18.7003 21.36 18.42 21.1402 18.188L19.852 16.92C20.0723 16.5797 20.2641 16.2202 20.4361 15.8438C20.6077 15.4683 20.7563 15.0839 20.8842 14.6958H22.8281C23.1562 14.6958 23.4319 14.5833 23.6597 14.3559C23.888 14.1277 24 13.852 24 13.5239V11.0841C24 10.7719 23.888 10.5005 23.6597 10.2638C23.4319 10.0317 23.1562 9.91594 22.8281 9.91594H21.0478C20.9522 9.52406 20.8322 9.13172 20.6841 8.74406C20.5359 8.35172 20.3681 7.98422 20.1802 7.63969L21.5644 6.23578C21.7964 6.01594 21.9159 5.74781 21.9159 5.42391C21.9159 5.10375 21.7964 4.82812 21.5644 4.59188L19.852 2.88422ZM17.5828 14.977C16.5178 16.9702 14.4169 18.3258 12 18.3258C9.58219 18.3258 7.48266 16.9702 6.41766 14.978C6.54234 14.4338 6.74813 13.9589 7.35047 13.6261C8.18297 13.1625 9.61641 13.1972 10.2984 12.5836L11.2406 15.0577L11.7141 13.7091L11.482 13.455C11.3077 13.2 11.3677 12.9103 11.6911 12.8578C11.8003 12.8405 11.9231 12.8512 12.0413 12.8512C12.1673 12.8512 12.3075 12.8395 12.4266 12.8663C12.727 12.9323 12.758 13.2234 12.6084 13.455L12.3764 13.7091L12.8503 15.0577L13.7025 12.5836C14.3175 13.1367 15.9727 13.2483 16.65 13.6261C17.2542 13.9645 17.4591 14.4342 17.5828 14.977ZM10.1245 10.9247C10.0392 10.9261 9.96937 10.9153 9.89344 10.8731C9.79266 10.8173 9.72141 10.7213 9.67313 10.613C9.57141 10.3852 9.49078 9.78656 9.74672 9.615L9.69891 9.58406L9.69375 9.51797C9.68391 9.3975 9.68156 9.25172 9.67875 9.09844C9.66937 8.53594 9.65766 7.85344 9.19266 7.71703L8.99344 7.65797L9.12516 7.49953C9.50062 7.04766 9.89297 6.6525 10.2886 6.34922C10.7362 6.00562 11.1914 5.77734 11.6363 5.71125C12.0942 5.64375 12.5377 5.74641 12.9473 6.06844C13.0678 6.16359 13.1855 6.27844 13.2989 6.41203C13.7353 6.45328 14.093 6.6825 14.348 7.00969C14.4998 7.20469 14.6156 7.43578 14.6897 7.68141C14.7628 7.92609 14.7947 8.18625 14.7811 8.44219C14.7562 8.90156 14.5842 9.34922 14.2369 9.67641C14.2978 9.67828 14.3555 9.69187 14.4061 9.71906C14.6002 9.81984 14.6062 10.0387 14.5556 10.223C14.505 10.3767 14.4413 10.5548 14.3808 10.7048C14.3077 10.9069 14.2003 10.9448 13.9931 10.9228C13.5277 12.9595 10.7128 13.0289 10.1245 10.9247ZM12 4.56422C16.1081 4.56422 19.4358 7.89422 19.4358 12C19.4358 16.1081 16.1058 19.4358 12 19.4358C7.89234 19.4358 4.56422 16.1058 4.56422 12C4.56422 7.89188 7.89422 4.56422 12 4.56422Z" fill="#503C3B"/>
    </g>
    <defs>
        <clipPath id="clip0_605_3084">
            <rect width="24" height="24" fill="white"/>
        </clipPath>
    </defs>
</svg>
