<svg width="50" height="51" viewBox="0 0 50 51" fill="none" xmlns="http://www.w3.org/2000/svg">
<path fill-rule="evenodd" clip-rule="evenodd" d="M6.41141 0H35.77C39.2968 0 42.1814 2.88752 42.1814 6.41141V43.8585C42.1814 47.3815 39.2939 50.269 35.77 50.269H6.41141C2.88752 50.269 0 47.3844 0 43.8585V6.41141C0 2.8846 2.8846 0 6.41141 0ZM44.0437 32.8639H48.5869C48.7585 32.8639 48.9202 32.8922 49.08 32.9487C49.2876 33.0218 49.4562 33.128 49.5956 33.2674L49.5946 33.2684C49.7388 33.4106 49.846 33.5831 49.9142 33.78H49.9133L49.9142 33.7839C49.9708 33.9466 50 34.1133 50 34.277V40.8979C50 41.0129 49.9844 41.1279 49.9532 41.2449C49.9454 41.276 49.9367 41.3082 49.9259 41.3413C49.8616 41.5333 49.7583 41.7 49.6199 41.8393C49.5203 41.9399 49.4051 42.0238 49.2789 42.0878C49.0995 42.1785 48.9134 42.2233 48.7214 42.2233H44.0437V32.8639ZM44.0437 8.04569H48.5879C48.7994 8.04569 48.9972 8.09149 49.1872 8.18017C49.4026 8.28152 49.5702 8.42088 49.7028 8.59824L49.6998 8.60019C49.8022 8.7376 49.8792 8.88085 49.9289 9.03775L49.924 9.03873C49.9747 9.19563 50 9.3496 50 9.50553V16.1362C50 16.2795 49.9737 16.4227 49.9201 16.5621C49.9006 16.6186 49.8753 16.6741 49.846 16.7287C49.7661 16.8749 49.655 17.0084 49.5127 17.1185C49.4396 17.178 49.3617 17.2277 49.2798 17.2696L49.2789 17.2686L49.275 17.2696C49.0947 17.3602 48.9105 17.406 48.7224 17.406H44.0437V8.04569ZM44.0437 20.3315L48.5869 20.3325C48.8013 20.3325 49.0001 20.3773 49.1911 20.467L49.1902 20.4689C49.4036 20.5693 49.5702 20.7077 49.7028 20.8841L49.6998 20.886C49.7895 21.0069 49.8587 21.1306 49.9064 21.2583C49.9688 21.424 50 21.5887 50 21.7524V28.422C50 28.614 49.9552 28.7992 49.8636 28.9795C49.801 29.1053 49.7184 29.2202 49.619 29.3196L49.617 29.3176C49.5098 29.4239 49.3958 29.5077 49.275 29.5681L49.272 29.5642C49.0917 29.6548 48.9085 29.6997 48.7214 29.6997H44.0437V20.3315ZM15.6246 24.5503C15.1461 23.7979 14.2544 22.7649 14.2544 21.8703C14.2758 21.2778 14.6598 20.7584 15.2201 20.5635C15.1763 19.8111 15.1461 19.0442 15.1461 18.285C15.1461 17.8368 15.1461 17.3846 15.1714 16.9402C15.1948 16.6585 15.2455 16.3798 15.3225 16.107C15.6723 14.9666 16.4351 13.9977 17.4616 13.39C17.8285 13.1658 18.2174 12.9797 18.6222 12.8345C19.3629 12.5685 18.9964 11.3308 19.8024 11.3142C21.6852 11.2655 24.7802 12.9885 25.9877 14.2963C26.7574 15.1471 27.1953 16.2464 27.2214 17.3933L27.1444 20.6911C27.506 20.7662 27.8052 21.0205 27.9367 21.3665C28.194 22.4092 27.1142 23.7024 26.6124 24.5317C26.1485 25.2958 24.3787 27.7662 24.3787 27.7828C24.6292 31.5142 33.2177 28.5906 33.2177 36.4736H8.96369C8.96369 28.7729 17.9323 31.256 17.8397 27.7759C17.8397 27.7272 15.8058 24.8504 15.6246 24.56V24.5503Z" fill="white" fill-opacity="0.8"/>
</svg>
