<svg width="48" height="48" viewBox="0 0 48 48" fill="none" xmlns="http://www.w3.org/2000/svg">
<path d="M20.98 4.46012L11.0001 8.20011C8.70006 9.06011 6.82007 11.7801 6.82007 14.2401V29.1001C6.82007 31.4601 8.38009 34.5601 10.2801 35.9801L18.8801 42.4001C21.7001 44.5201 26.34 44.5201 29.16 42.4001L37.7601 35.9801C39.6601 34.5601 41.22 31.4601 41.22 29.1001V14.2401C41.22 11.7801 39.34 9.06011 37.04 8.20011L27.0601 4.46012C25.3601 3.84012 22.64 3.84012 20.98 4.46012Z" stroke="#503C3B" stroke-width="3" stroke-linecap="round" stroke-linejoin="round"/>
<path d="M24.0001 21.8398C23.9201 21.8398 23.8201 21.8398 23.7401 21.8398C21.8601 21.7798 20.3601 20.2198 20.3601 18.3198C20.3601 16.3798 21.9401 14.7998 23.8801 14.7998C25.8201 14.7998 27.4001 16.3798 27.4001 18.3198C27.3801 20.2398 25.8801 21.7798 24.0001 21.8398Z" stroke="#503C3B" stroke-width="3" stroke-linecap="round" stroke-linejoin="round"/>
<path d="M20.0201 27.4397C18.1001 28.7197 18.1001 30.8197 20.0201 32.0997C22.2001 33.5597 25.7801 33.5597 27.9601 32.0997C29.8801 30.8197 29.8801 28.7197 27.9601 27.4397C25.8001 25.9797 22.2201 25.9797 20.0201 27.4397Z" stroke="#503C3B" stroke-width="3" stroke-linecap="round" stroke-linejoin="round"/>
</svg>
