<svg width="216" height="216" viewBox="0 0 216 216" fill="none" xmlns="http://www.w3.org/2000/svg">
<circle cx="108" cy="108" r="102.5" stroke="#969090" stroke-opacity="0.5" stroke-width="11"/>
<circle cx="108" cy="109" r="84.5" stroke="#969090" stroke-opacity="0.5" stroke-width="11"/>
<circle cx="108" cy="109" r="71" fill="black" fill-opacity="0.5"/>
<circle cx="108" cy="109" r="67" stroke="#969090" stroke-opacity="0.5" stroke-width="8"/>
<ellipse cx="114" cy="66.5" rx="6" ry="4.5" fill="#EEEEEE" fill-opacity="0.5"/>
<path d="M119.5 66.5C119.5 67.55 118.934 68.5387 117.943 69.282C116.951 70.0254 115.559 70.5 114 70.5C112.441 70.5 111.049 70.0254 110.057 69.282C109.066 68.5387 108.5 67.55 108.5 66.5C108.5 65.45 109.066 64.4613 110.057 63.718C111.049 62.9746 112.441 62.5 114 62.5C115.559 62.5 116.951 62.9746 117.943 63.718C118.934 64.4613 119.5 65.45 119.5 66.5Z" stroke="#969090" stroke-opacity="0.5"/>
<ellipse cx="129" cy="75.5" rx="4" ry="2.5" fill="#EEEEEE" fill-opacity="0.5"/>
<path d="M132.5 75.5C132.5 75.9558 132.203 76.444 131.563 76.8438C130.931 77.2391 130.026 77.5 129 77.5C127.974 77.5 127.069 77.2391 126.437 76.8438C125.797 76.444 125.5 75.9558 125.5 75.5C125.5 75.0442 125.797 74.556 126.437 74.1562C127.069 73.7609 127.974 73.5 129 73.5C130.026 73.5 130.931 73.7609 131.563 74.1562C132.203 74.556 132.5 75.0442 132.5 75.5Z" stroke="#969090" stroke-opacity="0.5"/>
<ellipse cx="140" cy="81.5" rx="2" ry="1.5" fill="#EEEEEE" fill-opacity="0.5"/>
<path d="M141.5 81.5C141.5 81.7215 141.381 81.9602 141.114 82.1607C140.847 82.3612 140.455 82.5 140 82.5C139.545 82.5 139.153 82.3612 138.886 82.1607C138.619 81.9602 138.5 81.7215 138.5 81.5C138.5 81.2785 138.619 81.0398 138.886 80.8393C139.153 80.6388 139.545 80.5 140 80.5C140.455 80.5 140.847 80.6388 141.114 80.8393C141.381 81.0398 141.5 81.2785 141.5 81.5Z" stroke="#969090" stroke-opacity="0.5"/>
</svg>
