<svg width="20" height="24" viewBox="0 0 20 24" fill="none" xmlns="http://www.w3.org/2000/svg">
<g clip-path="url(#clip0_3890_16318)">
<path d="M0 0.784462C0 0.350745 0.350745 0 0.784462 0C1.21818 0 1.56892 0.350745 1.56892 0.784462V1.98001H19.4117C19.736 1.98001 20 2.24401 20 2.56836V15.165C20 15.4893 19.736 15.7533 19.4117 15.7533H1.56892V22.3873C1.56892 22.821 1.21818 23.1718 0.784462 23.1718C0.350745 23.1718 0 22.821 0 22.3873V0.784462ZM15.9193 10.4281H18.8233V7.11484H15.9193V10.4281ZM15.4743 14.5767V10.8731H12.2459V14.5767H15.4743ZM15.4743 6.66981V3.1567H12.2459V6.66981H15.4743ZM8.12747 14.5767V10.8731H4.89723V14.5767H8.12747ZM8.57251 10.4281H11.8009V7.11484H8.57251V10.4281ZM8.12747 6.66981V3.1567H4.89723V6.66981H8.12747ZM4.45408 10.4281V7.11484H1.58967V10.4281H4.45408Z" fill="white"/>
</g>
<defs>
<clipPath id="clip0_3890_16318">
<rect width="20" height="23.1718" fill="white"/>
</clipPath>
</defs>
</svg>
