<svg width="40" height="40" viewBox="0 0 40 40" fill="none" xmlns="http://www.w3.org/2000/svg">
<g clip-path="url(#clip0_1_142)">
<path fill-rule="evenodd" clip-rule="evenodd" d="M16.4158 0.0292969L25.1463 0C26.7251 0 27.7993 0.279948 28.8344 1.6276L31.2986 6.02865L33.7986 4.48568L29.492 12.0215L20.7876 11.9889L23.4373 10.446L18.9646 2.85482C18.6066 2.16807 18.1529 1.53567 17.617 0.976562C17.2508 0.619655 16.8482 0.302161 16.4158 0.0292969ZM18.5219 36.543H10.1463C8.29408 36.2565 7.10593 35.2409 6.75111 33.8542C6.44837 32.6465 6.75111 32.0898 7.27194 31.0514C7.9002 29.8112 8.63913 28.6133 9.34876 27.4056L18.6229 27.4382L18.5219 36.5267V36.543ZM5.17559 33.2878L0.790821 25.7357C-0.000194992 24.3717 -0.296419 23.2975 0.364388 21.7188L2.94577 17.3828L0.361133 15.9928L9.0265 15.9505L13.3462 23.5156L10.6801 21.9824L6.35397 29.6615C5.92868 30.3151 5.59978 31.0266 5.37741 31.7741C5.25501 32.2677 5.18517 32.7729 5.16908 33.2812L5.17559 33.2878ZM35.4197 13.5612L39.6222 20.804C40.3058 22.5456 40.0389 24.0885 38.9972 25.0814C38.1053 25.9505 37.4705 25.9701 36.3084 26.0352C34.9217 26.11 33.5154 26.0677 32.1124 26.0579L27.5031 18.0111L35.4262 13.5547L35.4197 13.5612ZM39.2641 26.7448L34.9249 34.3197C34.1404 35.6901 33.3559 36.4811 31.6697 36.696L26.6242 36.6276L26.712 39.5573L22.3501 32.0703L26.7283 24.5443V27.6204L35.5434 27.5326C36.3204 27.5696 37.0988 27.4951 37.8546 27.3112C38.3433 27.1704 38.8158 26.9783 39.2641 26.7383V26.7448ZM6.92038 9.95117L11.0936 2.69206C12.2654 1.22721 13.7303 0.703125 15.117 1.09375C16.3149 1.43555 16.6502 1.97266 17.2882 2.94596C18.0467 4.10807 18.714 5.34831 19.4074 6.56901L14.7394 14.5833L6.92689 9.95117H6.92038Z" fill="url(#paint0_linear_1_142)"/>
</g>
<defs>
<linearGradient id="paint0_linear_1_142" x1="0.000288088" y1="40" x2="53.3336" y2="-24.1667" gradientUnits="userSpaceOnUse">
<stop stop-color="#018100"/>
<stop offset="1" stop-color="white"/>
</linearGradient>
<clipPath id="clip0_1_142">
<rect width="40" height="39.5573" fill="white"/>
</clipPath>
</defs>
</svg>
