<svg width="24" height="24" viewBox="0 0 24 24" fill="none" xmlns="http://www.w3.org/2000/svg">
<g clip-path="url(#clip0_3822_13130)">
<path fill-rule="evenodd" clip-rule="evenodd" d="M8.89442 0.408701C11.1861 -0.205316 13.6085 -0.125992 15.8551 0.636645C18.1017 1.39928 20.0717 2.81098 21.5161 4.69323C22.9604 6.57548 23.8142 8.84374 23.9694 11.2112C24.1246 13.5787 23.5744 15.939 22.3882 17.9937C21.202 20.0485 19.4332 21.7053 17.3054 22.7548C15.1775 23.8042 12.7863 24.1992 10.434 23.8897C8.08178 23.5802 5.87412 22.5801 4.09021 21.0159C2.30631 19.4517 1.02628 17.3937 0.411995 15.1021C0.00408304 13.5803 -0.100082 11.9931 0.105449 10.4311C0.31098 8.86912 0.82218 7.3629 1.60986 5.99847C2.39754 4.63404 3.44627 3.43813 4.69616 2.47903C5.94605 1.51994 7.37262 0.816435 8.89442 0.408701Z" fill="#FBD433"/>
<path fill-rule="evenodd" clip-rule="evenodd" d="M8.94141 6.30469C9.78125 6.30469 10.4629 7.28125 10.4629 8.50586C10.4629 9.73047 9.78125 10.707 8.94141 10.707C8.10156 10.707 7.42188 9.72266 7.42188 8.50586C7.42188 7.28906 8.10156 6.30469 8.94141 6.30469Z" fill="#141518"/>
<path fill-rule="evenodd" clip-rule="evenodd" d="M15.0586 6.30469C15.8984 6.30469 16.5781 7.28125 16.5781 8.50586C16.5781 9.73047 15.8984 10.707 15.0586 10.707C14.2188 10.707 13.5371 9.73047 13.5371 8.50586C13.5371 7.28125 14.2188 6.30469 15.0586 6.30469Z" fill="#141518"/>
<path d="M5.625 13.8347C6.11174 14.4679 6.69348 15.022 7.34961 15.4773C8.78385 16.4651 10.4912 16.9794 12.2324 16.948C13.9325 16.9402 15.5847 16.384 16.9434 15.3621C17.5065 14.9272 17.9998 14.4089 18.4063 13.825C18.4143 13.817 18.4252 13.8125 18.4365 13.8125C18.4479 13.8125 18.4588 13.817 18.4668 13.825L18.9453 14.2879C18.9526 14.2955 18.9567 14.3056 18.9567 14.3162C18.9567 14.3267 18.9526 14.3369 18.9453 14.3445C18.2642 15.528 17.3216 16.5401 16.1895 17.3035C15.0293 18.0855 13.6701 18.5205 12.2715 18.5574C10.8504 18.58 9.45128 18.2045 8.23243 17.4734C6.95271 16.694 5.86732 15.6333 5.0586 14.3719C5.05258 14.364 5.04932 14.3544 5.04932 14.3445C5.04932 14.3346 5.05258 14.325 5.0586 14.3172L5.55078 13.8289C5.5548 13.8246 5.55964 13.8212 5.56502 13.8189C5.57039 13.8166 5.57618 13.8154 5.58203 13.8154C5.58789 13.8154 5.59368 13.8166 5.59905 13.8189C5.60442 13.8212 5.60927 13.8246 5.61328 13.8289L5.625 13.8347Z" fill="black"/>
</g>
<defs>
<clipPath id="clip0_3822_13130">
<rect width="24" height="24" fill="white"/>
</clipPath>
</defs>
</svg>
