<svg width="1115" height="1000" viewBox="0 0 1115 1000" fill="none" xmlns="http://www.w3.org/2000/svg">
<path d="M538.368 51.9378C544.737 34.3497 569.611 34.3496 575.979 51.9378L677.491 332.3C680.357 340.218 687.876 345.492 696.296 345.492H1019.78C1039.68 345.492 1047.37 371.38 1030.71 382.245L772.858 550.359C765.079 555.431 761.814 565.19 764.976 573.922L864.318 848.292C870.854 866.344 850.672 882.341 834.589 871.855L568.097 698.105C561.458 693.776 552.889 693.776 546.251 698.105L279.758 871.855C263.676 882.341 243.493 866.344 250.03 848.293L349.372 573.922C352.533 565.19 349.269 555.431 341.49 550.359L83.6416 382.245C66.9767 371.38 74.6706 345.492 94.5647 345.492H418.051C426.472 345.492 433.99 340.218 436.857 332.3L538.368 51.9378Z" fill="url(#paint0_linear_4981_18223)"/>
<defs>
<linearGradient id="paint0_linear_4981_18223" x1="557.174" y1="-6.54817e-06" x2="360" y2="1097.5" gradientUnits="userSpaceOnUse">
<stop stop-color="#FFD700"/>
<stop offset="1" stop-color="#998100" stop-opacity="0.5"/>
</linearGradient>
</defs>
</svg>
