<svg width="24" height="23" viewBox="0 0 24 23" fill="none" xmlns="http://www.w3.org/2000/svg">
<g clip-path="url(#clip0_3881_13554)">
<mask id="mask0_3881_13554" style="mask-type:luminance" maskUnits="userSpaceOnUse" x="-1" y="0" width="26" height="23">
<path d="M12.5794 0.380166L15.6485 7.56232L23.4284 8.25823C23.7764 8.285 24.0262 8.58835 23.9995 8.9363C23.9816 9.10582 23.9102 9.24857 23.7853 9.35563L17.8968 14.4947L19.6366 22.114C19.7169 22.453 19.5028 22.7831 19.1638 22.8634C18.9942 22.8991 18.8158 22.8634 18.682 22.7742L11.9905 18.7772L5.28123 22.7921C4.98681 22.9705 4.60317 22.8724 4.42473 22.5779C4.33551 22.4352 4.31767 22.2657 4.35335 22.114L6.09313 14.4947L0.204654 9.35563C-0.054082 9.13258 -0.0808478 8.7311 0.142201 8.47236C0.267108 8.33853 0.427702 8.27608 0.588297 8.26716L8.35038 7.57124L11.4195 0.380166C11.5534 0.0589767 11.9192 -0.0837742 12.2403 0.0500548C12.4009 0.112508 12.5169 0.237415 12.5794 0.380166Z" fill="white"/>
</mask>
<g mask="url(#mask0_3881_13554)">
<mask id="mask1_3881_13554" style="mask-type:luminance" maskUnits="userSpaceOnUse" x="-1" y="-1" width="26" height="24">
<path d="M24.0259 -0.09375H-0.0722656V22.9694H24.0259V-0.09375Z" fill="white"/>
</mask>
<g mask="url(#mask1_3881_13554)">
<rect width="27.4082" height="24.4104" transform="matrix(1 0 0 -1 -1.01855 23.8672)" fill="white"/>
</g>
</g>
<path d="M12.5792 0.380166L15.6484 7.56232L23.4283 8.25823C23.7763 8.285 24.0261 8.58835 23.9993 8.9363C23.9815 9.10582 23.9101 9.24857 23.7852 9.35563L22.7324 10.2746C19.8685 11.2649 16.1123 11.8627 11.9993 11.8627C7.88631 11.8627 4.12125 11.2649 1.26623 10.2746L0.213443 9.35563C-0.045293 9.13258 -0.0720588 8.7311 0.15099 8.47236C0.266975 8.33853 0.42757 8.27608 0.588164 8.26716L8.35025 7.57125L11.4194 0.380166C11.5532 0.0589767 11.919 -0.0837742 12.2402 0.0500548C12.4008 0.112508 12.5168 0.237415 12.5792 0.380166Z" fill="white"/>
</g>
<defs>
<clipPath id="clip0_3881_13554">
<rect width="24" height="22.8848" fill="white"/>
</clipPath>
</defs>
</svg>
