<svg width="20" height="15" viewBox="0 0 20 15" fill="none" xmlns="http://www.w3.org/2000/svg">
<path fill-rule="evenodd" clip-rule="evenodd" d="M16.9717 11.7761L16.8838 7.77806L11.5371 9.67606C11.0554 9.80606 10.5801 9.86806 10.1146 9.87006C9.61493 9.87206 9.12339 9.80606 8.64 9.67606L3.53259 7.75806V11.8121C3.67907 13.9181 8.59605 14.5621 10.1048 14.6501C11.3141 14.7221 16.0912 13.9461 16.7194 12.7361C16.8545 12.4721 16.9391 12.1521 16.9717 11.7761ZM19.138 4.90006V9.78606H19.2633C19.3496 9.78606 19.4196 9.87206 19.4196 9.97806V11.2921C19.4196 11.3961 19.3496 11.4841 19.2633 11.4841H19.138V11.9441C19.2975 11.9801 19.4196 12.1541 19.4196 12.3601C19.4196 12.5921 19.2633 12.7841 19.0745 12.7841H18.4577C18.2689 12.7841 18.1126 12.5941 18.1126 12.3601C18.1126 12.1541 18.2347 11.9801 18.3942 11.9441V11.4841H18.2689C18.1842 11.4841 18.1126 11.3981 18.1126 11.2921V9.97806C18.1126 9.87206 18.1826 9.78606 18.2689 9.78606H18.3942V5.18606L11.8871 7.67006C10.7087 8.01406 9.53029 8.03806 8.35191 7.67006L1.16931 5.03606L0.519896 4.79806C-0.289022 4.39206 -0.0871993 3.43806 0.66638 3.21806L8.78974 0.238062C9.62795 -0.0559379 10.4645 -0.101938 11.3028 0.238062L19.2796 3.18206C20.1471 3.44206 20.318 4.42806 19.3089 4.83406L19.138 4.90006Z" fill="white"/>
</svg>