<svg width="20" height="20" viewBox="0 0 20 20" fill="none" xmlns="http://www.w3.org/2000/svg">
<path d="M16.2503 10.4193C16.2503 9.26927 17.1837 8.33594 18.3337 8.33594V7.5026C18.3337 4.16927 17.5003 3.33594 14.167 3.33594H5.83366C2.50033 3.33594 1.66699 4.16927 1.66699 7.5026V7.91927C2.81699 7.91927 3.75033 8.8526 3.75033 10.0026C3.75033 11.1526 2.81699 12.0859 1.66699 12.0859V12.5026C1.66699 15.8359 2.50033 16.6693 5.83366 16.6693H14.167C17.5003 16.6693 18.3337 15.8359 18.3337 12.5026C17.1837 12.5026 16.2503 11.5693 16.2503 10.4193Z" stroke="#503C3B" stroke-width="1.5" stroke-linecap="round" stroke-linejoin="round"/>
<path d="M8.33301 3.33594L8.33301 16.6693" stroke="#503C3B" stroke-width="1.5" stroke-linecap="round" stroke-linejoin="round" stroke-dasharray="5 5"/>
</svg>
