<svg width="20" height="21" viewBox="0 0 20 21" fill="none" xmlns="http://www.w3.org/2000/svg">
<path d="M17.7503 9.53542C18.0753 9.53542 18.3337 9.27708 18.3337 8.95208V8.17708C18.3337 4.76042 17.292 3.71875 13.8753 3.71875H6.12533C2.70866 3.71875 1.66699 4.76042 1.66699 8.17708V8.56875C1.66699 8.89375 1.92533 9.15208 2.25033 9.15208C3.00033 9.15208 3.60866 9.76042 3.60866 10.5104C3.60866 11.2604 3.00033 11.8604 2.25033 11.8604C1.92533 11.8604 1.66699 12.1187 1.66699 12.4438V12.8354C1.66699 16.2521 2.70866 17.2937 6.12533 17.2937H13.8753C17.292 17.2937 18.3337 16.2521 18.3337 12.8354C18.3337 12.5104 18.0753 12.2521 17.7503 12.2521C17.0003 12.2521 16.392 11.6438 16.392 10.8938C16.392 10.1438 17.0003 9.53542 17.7503 9.53542ZM7.50033 7.90208C7.95866 7.90208 8.33366 8.27708 8.33366 8.73542C8.33366 9.19375 7.96699 9.56875 7.50033 9.56875C7.04199 9.56875 6.66699 9.19375 6.66699 8.73542C6.66699 8.27708 7.03366 7.90208 7.50033 7.90208ZM12.5003 13.7354C12.0337 13.7354 11.6587 13.3604 11.6587 12.9021C11.6587 12.4438 12.0337 12.0688 12.492 12.0688C12.9503 12.0688 13.3253 12.4438 13.3253 12.9021C13.3253 13.3604 12.967 13.7354 12.5003 13.7354ZM13.2503 8.40208L7.64199 14.0104C7.51699 14.1354 7.35866 14.1938 7.20033 14.1938C7.04199 14.1938 6.88366 14.1354 6.75866 14.0104C6.51699 13.7687 6.51699 13.3687 6.75866 13.1271L12.367 7.51875C12.6087 7.27708 13.0087 7.27708 13.2503 7.51875C13.492 7.76042 13.492 8.16042 13.2503 8.40208Z" fill="#666666"/>
</svg>
