<svg width="47" height="21" viewBox="0 0 47 21" fill="none" xmlns="http://www.w3.org/2000/svg">
    <path d="M13.0607 0.939341C12.4749 0.353554 11.5251 0.353554 10.9393 0.939341L1.3934 10.4853C0.807611 11.0711 0.807611 12.0208 1.3934 12.6066C1.97919 13.1924 2.92893 13.1924 3.51472 12.6066L12 4.12132L20.4853 12.6066C21.0711 13.1924 22.0208 13.1924 22.6066 12.6066C23.1924 12.0208 23.1924 11.0711 22.6066 10.4853L13.0607 0.939341ZM13.5 21L13.5 2H10.5L10.5 21H13.5Z" fill="#503C3B" fill-opacity="0.3"/>
    <path d="M25.6061 0.939341C25.0203 0.353554 24.0705 0.353554 23.4848 0.939341L13.9388 10.4853C13.353 11.0711 13.353 12.0208 13.9388 12.6066C14.5246 13.1924 15.4743 13.1924 16.0601 12.6066L24.5454 4.12132L33.0307 12.6066C33.6165 13.1924 34.5662 13.1924 35.152 12.6066C35.7378 12.0208 35.7378 11.0711 35.152 10.4853L25.6061 0.939341ZM26.0454 21V2H23.0454V21H26.0454Z" fill="#503C3B" fill-opacity="0.6"/>
    <path d="M36.0607 0.939341C35.4749 0.353554 34.5251 0.353554 33.9393 0.939341L24.3934 10.4853C23.8076 11.0711 23.8076 12.0208 24.3934 12.6066C24.9792 13.1924 25.9289 13.1924 26.5147 12.6066L35 4.12132L43.4853 12.6066C44.0711 13.1924 45.0208 13.1924 45.6066 12.6066C46.1924 12.0208 46.1924 11.0711 45.6066 10.4853L36.0607 0.939341ZM36.5 21V2H33.5V21H36.5Z" fill="#503C3B"/>
</svg>
