<svg width="24" height="24" viewBox="0 0 24 24" fill="none" xmlns="http://www.w3.org/2000/svg">
<path d="M21.25 13V8.5C21.25 7.17392 20.7232 5.90215 19.7855 4.96447C18.8479 4.02678 17.5761 3.5 16.25 3.5H7.75C6.42392 3.5 5.15215 4.02678 4.21447 4.96447C3.27678 5.90215 2.75 7.17392 2.75 8.5V15.5C2.75 16.1566 2.87933 16.8068 3.1306 17.4134C3.38188 18.02 3.75017 18.5712 4.21447 19.0355C5.15215 19.9732 6.42392 20.5 7.75 20.5H14.01" stroke="#543B3A" stroke-width="1.5" stroke-linecap="round" stroke-linejoin="round"/>
<path d="M3.00977 16.9999L5.74977 13.7999C6.10961 13.4425 6.58188 13.2204 7.08665 13.1712C7.59141 13.122 8.09768 13.2487 8.51977 13.5299C8.94185 13.8111 9.44812 13.9378 9.95289 13.8886C10.4577 13.8394 10.9299 13.6173 11.2898 13.2599L13.6198 10.9299C14.2893 10.2581 15.1757 9.84609 16.1208 9.76733C17.0659 9.68857 18.0083 9.9482 18.7798 10.4999L21.2498 12.4099M8.00977 10.1699C8.22776 10.1686 8.44336 10.1243 8.64426 10.0397C8.84516 9.95506 9.02742 9.83168 9.18063 9.67661C9.33385 9.52154 9.45502 9.3378 9.53723 9.1359C9.61944 8.934 9.66108 8.71788 9.65977 8.49988C9.65845 8.28189 9.61421 8.06629 9.52958 7.86539C9.44494 7.66449 9.32157 7.48223 9.16649 7.32902C9.01142 7.1758 8.82768 7.05463 8.62578 6.97242C8.42388 6.89021 8.20776 6.84857 7.98977 6.84988C7.54951 6.85254 7.12833 7.02997 6.8189 7.34316C6.50946 7.65634 6.33711 8.07962 6.33977 8.51988C6.34242 8.96014 6.51985 9.38132 6.83304 9.69075C7.14623 10.0002 7.56951 10.1725 8.00977 10.1699Z" stroke="#543B3A" stroke-width="1.5" stroke-linecap="round" stroke-linejoin="round"/>
<path d="M18.707 15V20" stroke="#543B3A" stroke-width="1.5" stroke-miterlimit="10" stroke-linecap="round"/>
<path d="M21.0001 17.105L19.0331 15.138C18.9905 15.0948 18.9397 15.0606 18.8837 15.0372C18.8278 15.0138 18.7677 15.0017 18.7071 15.0017C18.6464 15.0017 18.5864 15.0138 18.5304 15.0372C18.4744 15.0606 18.4237 15.0948 18.3811 15.138L16.4141 17.105" stroke="#543B3A" stroke-width="1.5" stroke-linecap="round" stroke-linejoin="round"/>
</svg>