<svg width="182" height="206" viewBox="0 0 182 206" fill="none" xmlns="http://www.w3.org/2000/svg">
<g filter="url(#filter0_d_155_486)">
<path fill-rule="evenodd" clip-rule="evenodd" d="M77.2713 35.1251C77.2713 27.6373 83.3413 21.5673 90.8291 21.5673C98.3169 21.5673 104.387 27.6373 104.387 35.1251V35.3481C120.184 40.9319 131.502 55.9978 131.502 73.7071V102.254H131.73C131.73 102.254 131.782 108.937 136.308 108.937C138.018 108.937 139.83 109.623 141.422 110.478C144.621 112.194 146.072 115.812 146.072 119.442C146.072 126.601 140.268 132.405 133.109 132.405H48.2573C41.2591 132.405 35.5859 126.732 35.5859 119.734C35.5859 115.943 37.2163 112.208 40.577 110.455C42.1938 109.611 43.958 108.937 45.4668 108.937C47.9004 108.937 49.3714 106.499 50.1549 104.569V73.7071C50.1549 55.9973 61.4734 40.9311 77.2713 35.3477V35.1251ZM90.4224 156.63C99.6202 156.63 107.077 152.951 107.077 148.414C107.077 143.876 99.6202 140.198 90.4224 140.198C81.2246 140.198 73.7683 143.876 73.7683 148.414C73.7683 152.951 81.2246 156.63 90.4224 156.63Z" fill="#EAECFB"/>
</g>
<g filter="url(#filter1_d_155_486)">
<ellipse cx="134.372" cy="134.266" rx="14.2982" ry="14.1074" fill="#503C3B"/>
</g>
<path fill-rule="evenodd" clip-rule="evenodd" d="M78.6426 93.3084C78.6426 93.9516 79.0272 94.5298 79.6318 94.7492C81.5859 95.4581 86.1351 96.9136 90.5445 96.9136C94.9419 96.9136 99.3393 95.4659 101.234 94.7549C101.827 94.5322 102.202 93.9604 102.202 93.3266V93.3266C102.202 92.1763 101.01 91.375 99.9183 91.7371C97.6885 92.4764 94.1103 93.4298 90.4851 93.4298C86.8309 93.4298 83.1766 92.4611 80.9142 91.7194C79.8251 91.3623 78.6426 92.1623 78.6426 93.3084V93.3084Z" fill="#503C3B"/>
<path opacity="0.2" fill-rule="evenodd" clip-rule="evenodd" d="M72.1436 79.3201C72.1436 78.8563 72.3264 78.4098 72.6806 78.1104C73.5476 77.3775 75.3341 76.073 77.0685 76.073C78.8099 76.073 80.5513 77.3881 81.3849 78.1194C81.7211 78.4143 81.8923 78.8455 81.8923 79.2927V79.2927C81.8923 80.8617 79.7724 81.7602 78.2692 81.3103C77.8698 81.1907 77.4576 81.1188 77.0439 81.1188C76.6083 81.1188 76.1727 81.1985 75.7508 81.3297C74.2475 81.797 72.1436 80.8944 72.1436 79.3201V79.3201Z" fill="#5265FF"/>
<path opacity="0.2" fill-rule="evenodd" clip-rule="evenodd" d="M99.7646 79.3201C99.7646 78.8563 99.9475 78.4098 100.302 78.1104C101.169 77.3775 102.955 76.073 104.69 76.073C106.431 76.073 108.172 77.3881 109.006 78.1194C109.342 78.4143 109.513 78.8455 109.513 79.2927V79.2927C109.513 80.8617 107.393 81.7602 105.89 81.3103C105.491 81.1907 105.079 81.1188 104.665 81.1188C104.229 81.1188 103.794 81.1985 103.372 81.3297C101.869 81.797 99.7646 80.8944 99.7646 79.3201V79.3201Z" fill="#5265FF"/>
<path opacity="0.1" d="M35.2231 51.5813C33.6464 42.9494 40.6238 32.741 48.7933 30.6187" stroke="#5265FF" stroke-width="3" stroke-linecap="round" stroke-linejoin="round"/>
<path opacity="0.1" d="M22.2901 48.1357C20.249 36.9619 29.2812 23.7473 39.8565 21" stroke="#5265FF" stroke-width="3" stroke-linecap="round" stroke-linejoin="round"/>
<path d="M134.67 141.244C133.641 141.244 132.758 140.983 132.02 140.462C131.287 139.937 130.722 139.181 130.326 138.194C129.935 137.202 129.739 136.008 129.739 134.612C129.743 133.217 129.941 132.029 130.333 131.05C130.728 130.067 131.293 129.317 132.026 128.8C132.764 128.283 133.645 128.025 134.67 128.025C135.695 128.025 136.576 128.283 137.314 128.8C138.051 129.317 138.616 130.067 139.008 131.05C139.403 132.033 139.601 133.221 139.601 134.612C139.601 136.012 139.403 137.208 139.008 138.2C138.616 139.187 138.051 139.942 137.314 140.462C136.581 140.983 135.699 141.244 134.67 141.244ZM134.67 139.287C135.47 139.287 136.101 138.894 136.564 138.106C137.031 137.315 137.264 136.15 137.264 134.612C137.264 133.596 137.158 132.742 136.945 132.05C136.733 131.358 136.433 130.837 136.045 130.487C135.658 130.133 135.199 129.956 134.67 129.956C133.874 129.956 133.245 130.352 132.783 131.144C132.32 131.931 132.087 133.087 132.083 134.612C132.078 135.633 132.181 136.492 132.389 137.187C132.601 137.883 132.901 138.408 133.289 138.762C133.676 139.112 134.137 139.287 134.67 139.287Z" fill="white"/>
<defs>
<filter id="filter0_d_155_486" x="0.585938" y="0.567261" width="180.485" height="205.062" filterUnits="userSpaceOnUse" color-interpolation-filters="sRGB">
<feFlood flood-opacity="0" result="BackgroundImageFix"/>
<feColorMatrix in="SourceAlpha" type="matrix" values="0 0 0 0 0 0 0 0 0 0 0 0 0 0 0 0 0 0 127 0" result="hardAlpha"/>
<feOffset dy="14"/>
<feGaussianBlur stdDeviation="17.5"/>
<feColorMatrix type="matrix" values="0 0 0 0 0.208044 0 0 0 0 0.283314 0 0 0 0 0.429427 0 0 0 0.057 0"/>
<feBlend mode="normal" in2="BackgroundImageFix" result="effect1_dropShadow_155_486"/>
<feBlend mode="normal" in="SourceGraphic" in2="effect1_dropShadow_155_486" result="shape"/>
</filter>
<filter id="filter1_d_155_486" x="112.074" y="114.159" width="44.5967" height="44.2147" filterUnits="userSpaceOnUse" color-interpolation-filters="sRGB">
<feFlood flood-opacity="0" result="BackgroundImageFix"/>
<feColorMatrix in="SourceAlpha" type="matrix" values="0 0 0 0 0 0 0 0 0 0 0 0 0 0 0 0 0 0 127 0" result="hardAlpha"/>
<feOffset dy="2"/>
<feGaussianBlur stdDeviation="4"/>
<feColorMatrix type="matrix" values="0 0 0 0 0.337255 0 0 0 0 0.411765 0 0 0 0 1 0 0 0 0.15 0"/>
<feBlend mode="normal" in2="BackgroundImageFix" result="effect1_dropShadow_155_486"/>
<feBlend mode="normal" in="SourceGraphic" in2="effect1_dropShadow_155_486" result="shape"/>
</filter>
</defs>
</svg>
