<svg width="30" height="18" viewBox="0 0 30 18" fill="none" xmlns="http://www.w3.org/2000/svg">
<rect width="30" height="17.9106" rx="2" fill="white"/>
<rect x="0.5" y="0.5" width="29" height="16.9106" rx="1.5" stroke="black" stroke-opacity="0.2"/>
<path d="M18.5312 5.45876C16.8744 5.45876 15.3939 6.22778 15.3939 7.6486C15.3939 9.27801 18.0197 9.39055 18.0197 10.2091C18.0197 10.5538 17.5786 10.8623 16.8253 10.8623C15.7562 10.8623 14.9571 10.4312 14.9571 10.4312L14.6152 11.865C14.6152 11.865 15.5357 12.2291 16.7578 12.2291C18.5692 12.2291 19.9945 11.4224 19.9945 9.97724C19.9945 8.25547 17.3578 8.14627 17.3578 7.3865C17.3578 7.11651 17.7198 6.82067 18.471 6.82067C19.3185 6.82067 20.01 7.13421 20.01 7.13421L20.3446 5.74943C20.3446 5.74943 19.5922 5.45876 18.5312 5.45876V5.45876ZM3.37345 5.56327L3.33333 5.7723C3.33333 5.7723 4.03033 5.88653 4.6581 6.11441C5.46639 6.37571 5.52397 6.52783 5.6601 7.0003L7.14351 12.1214H9.13202L12.1955 5.56327H10.2115L8.24307 10.0221L7.43982 6.2426C7.36616 5.81003 6.99302 5.56327 6.53629 5.56327H3.37345V5.56327ZM12.9933 5.56327L11.4369 12.1214H13.3288L14.8796 5.56327H12.9933V5.56327ZM23.5449 5.56327C23.0887 5.56327 22.8469 5.782 22.6696 6.16421L19.8979 12.1214H21.8818L22.2657 11.1285H24.6827L24.9161 12.1214H26.6667L25.1395 5.56327H23.5449V5.56327ZM23.8029 7.33507L24.391 9.79598H22.8155L23.8029 7.33507V7.33507Z" fill="#1434CB"/>
</svg>
