<svg width="20" height="14" viewBox="0 0 20 14" fill="none" xmlns="http://www.w3.org/2000/svg">
<path d="M1.84211 3.23501H5.51493L8.5531 0.167544C8.6613 0.0602206 8.80752 0 8.95992 0C9.11232 0 9.25855 0.0602206 9.36675 0.167544C9.41973 0.22134 9.46143 0.285188 9.48937 0.355333C9.51732 0.425478 9.53095 0.500504 9.52948 0.575997V13.2348C9.52934 13.3497 9.49499 13.4621 9.43082 13.5575C9.36664 13.6528 9.27554 13.727 9.1691 13.7704C9.06266 13.8139 8.9457 13.8247 8.83311 13.8014C8.72051 13.7782 8.61738 13.722 8.53682 13.64L5.53445 11.199H1.84211C1.35451 11.1977 0.887198 11.0037 0.542107 10.6592C0.197017 10.3147 0.00214633 9.84777 0 9.36017L0 5.07711C0.00214087 4.58922 0.196907 4.12191 0.541906 3.77691C0.886904 3.43191 1.35421 3.23715 1.84211 3.23501ZM12.1576 5.15034C12.1186 5.01641 12.133 4.87262 12.1977 4.74905C12.2624 4.62548 12.3723 4.5317 12.5045 4.48735C12.6368 4.44299 12.781 4.45149 12.9071 4.51106C13.0332 4.57064 13.1314 4.67667 13.1811 4.80698C13.3667 5.35864 13.4562 6.21622 13.4415 7.0315C13.4269 7.84678 13.3097 8.61324 13.0851 9.07702C13.0223 9.2065 12.9107 9.30572 12.7747 9.35287C12.6388 9.40002 12.4896 9.39123 12.3602 9.32844C12.2307 9.26564 12.1315 9.15399 12.0843 9.01803C12.0372 8.88207 12.046 8.73295 12.1088 8.60348C12.2715 8.27802 12.348 7.66615 12.361 7.0136C12.3867 6.38564 12.317 5.75741 12.1543 5.15034H12.1576ZM14.9468 3.13249C14.9195 3.06677 14.9055 2.99634 14.9055 2.9252C14.9054 2.85406 14.9194 2.78362 14.9466 2.71789C15.0015 2.58513 15.107 2.47964 15.2397 2.42461C15.3724 2.36958 15.5215 2.36953 15.6543 2.42446C15.787 2.47939 15.8925 2.58481 15.9476 2.71753C16.4488 3.92173 16.7205 5.43675 16.7433 6.94851C16.7661 8.46027 16.5464 9.91834 16.0696 11.0998C16.0163 11.2325 15.9125 11.3386 15.7809 11.3947C15.6494 11.4509 15.501 11.4525 15.3682 11.3992C15.2355 11.3459 15.1294 11.242 15.0733 11.1105C15.0171 10.979 15.0155 10.8305 15.0688 10.6978C15.4919 9.64983 15.6856 8.31056 15.666 6.95502C15.6465 5.59948 15.4008 4.21139 14.9484 3.13086L14.9468 3.13249ZM17.6432 1.41731C17.5811 1.28784 17.5729 1.13897 17.6205 1.00348C17.6681 0.867976 17.7676 0.756939 17.8971 0.69479C18.0265 0.632641 18.1754 0.624473 18.3109 0.67208C18.4464 0.719688 18.5574 0.819173 18.6196 0.948649C19.5172 2.86018 19.9881 4.94415 19.9995 7.05591C20.0158 9.10306 19.6025 11.1437 18.6977 12.8833C18.6681 12.9503 18.6252 13.0105 18.5715 13.0603C18.5178 13.1101 18.4546 13.1485 18.3856 13.173C18.3166 13.1976 18.2433 13.2078 18.1702 13.2031C18.0972 13.1983 18.0258 13.1788 17.9606 13.1455C17.8953 13.1123 17.8375 13.0661 17.7907 13.0098C17.7439 12.9534 17.7091 12.8882 17.6884 12.8179C17.6677 12.7477 17.6615 12.674 17.6702 12.6013C17.679 12.5286 17.7024 12.4584 17.7392 12.3951C18.5529 10.815 18.9304 8.95009 18.9158 7.07056C18.9069 5.11803 18.472 3.19096 17.6416 1.42382L17.6432 1.41731Z" fill="white"/>
</svg>