<svg width="24" height="17" viewBox="0 0 24 17" fill="none" xmlns="http://www.w3.org/2000/svg">
<g clip-path="url(#clip0_248_414)">
<path d="M21.3497 2.16591C21.2039 1.86356 21.3308 1.49995 21.6332 1.35408C21.9355 1.20816 22.2991 1.33514 22.445 1.63748C23.4377 3.69703 23.9804 6.11536 23.9995 8.51672C24.0175 10.8241 23.5528 13.1224 22.5398 15.0813C22.3861 15.3797 22.0193 15.4971 21.7208 15.3433C21.4224 15.1896 21.3052 14.8227 21.4589 14.5243C22.3793 12.7442 22.8015 10.6435 22.785 8.52624C22.7675 6.30333 22.2661 4.06744 21.3497 2.16591ZM11.8954 8.35223V15.4792C11.8954 15.8338 11.7527 16.1324 11.5335 16.3481C11.3016 16.5762 10.9896 16.7042 10.6644 16.7047V16.7025C10.3663 16.7023 10.064 16.5958 9.82022 16.3608L6.61959 13.7605H2.64919C1.92211 13.7605 1.25972 13.4629 0.779859 12.9833C0.298734 12.5028 0 11.8407 0 11.1133V6.26686C0 5.53931 0.298734 4.87739 0.779859 4.39683C1.25972 3.9173 1.92211 3.61973 2.64919 3.61973H6.58317L9.79537 0.368203C10.0449 0.114234 10.3573 0 10.6644 0C10.8247 0 10.9845 0.0320156 11.1322 0.09225C11.2818 0.15345 11.4181 0.243198 11.5335 0.356484C11.7524 0.572156 11.8954 0.870234 11.8954 1.22536V8.35223ZM10.7473 15.4792V1.22536C10.7473 1.20033 10.7407 1.18247 10.7306 1.17258C10.7243 1.16644 10.7141 1.16034 10.7015 1.15523C10.6897 1.15045 10.6771 1.14802 10.6644 1.14806C10.6462 1.14806 10.6269 1.15538 10.6115 1.17108L7.2578 4.56572C7.20396 4.62911 7.13697 4.68002 7.06148 4.71492C6.98599 4.74981 6.90381 4.76786 6.82064 4.7678H2.64919C2.23552 4.7678 1.8593 4.9365 1.58709 5.20852C1.31625 5.47903 1.14806 5.8537 1.14806 6.26686V11.1133C1.14806 11.5267 1.31625 11.9011 1.58709 12.1717C1.8593 12.4437 2.23552 12.6124 2.64919 12.6124H6.82064V12.6143C6.95219 12.614 7.07977 12.6593 7.18172 12.7425L10.5541 15.4824C10.574 15.4979 10.5932 15.5149 10.6115 15.5335C10.6285 15.5508 10.6477 15.5588 10.6644 15.5588V15.5566C10.6775 15.5566 10.6903 15.5541 10.7015 15.5495C10.7139 15.5445 10.7243 15.5382 10.7306 15.5319C10.7407 15.522 10.7473 15.5042 10.7473 15.4792ZM15.1704 6.37022C15.064 6.05203 15.2355 5.7075 15.5537 5.60109C15.8719 5.49469 16.2165 5.6663 16.3229 5.98448C16.5322 6.60614 16.6332 7.5712 16.6163 8.48897C16.6 9.38831 16.4686 10.272 16.2142 10.794C16.0672 11.0963 15.7024 11.2221 15.4 11.075C15.0977 10.9279 14.9719 10.5631 15.119 10.2608C15.2956 9.89799 15.3885 9.20531 15.4019 8.46989C15.4165 7.67625 15.337 6.86475 15.1704 6.37022ZM18.3127 4.09706C18.1839 3.78675 18.331 3.43059 18.6413 3.30173C18.9517 3.17283 19.3078 3.31992 19.4367 3.63028C20.0029 4.98586 20.3084 6.69352 20.334 8.39072C20.3593 10.0626 20.1125 11.7369 19.5756 13.0671C19.4508 13.3786 19.0965 13.53 18.785 13.4052C18.4734 13.2804 18.3221 12.9262 18.4469 12.6146C18.9237 11.4334 19.1426 9.92508 19.1195 8.40502C19.0962 6.861 18.8216 5.31511 18.3127 4.09706Z" fill="#503C3B"/>
</g>
<defs>
<clipPath id="clip0_248_414">
<rect width="24" height="16.7047" fill="white"/>
</clipPath>
</defs>
</svg>
