<svg width="10" height="14" viewBox="0 0 10 14" fill="none" xmlns="http://www.w3.org/2000/svg">
<path d="M1.84211 3.23501H5.51493L8.5531 0.167544C8.6613 0.0602206 8.80752 0 8.95992 0C9.11232 0 9.25855 0.0602206 9.36675 0.167544C9.41973 0.22134 9.46143 0.285188 9.48937 0.355333C9.51732 0.425478 9.53095 0.500504 9.52948 0.575997V13.2348C9.52934 13.3497 9.49499 13.4621 9.43082 13.5575C9.36664 13.6528 9.27554 13.727 9.1691 13.7704C9.06266 13.8139 8.9457 13.8247 8.83311 13.8014C8.72051 13.7782 8.61738 13.722 8.53683 13.64L5.53445 11.199H1.84211C1.35451 11.1977 0.887198 11.0037 0.542107 10.6592C0.197017 10.3147 0.00214633 9.84777 0 9.36017L0 5.07711C0.00214087 4.58922 0.196907 4.12191 0.541906 3.77691C0.886904 3.43191 1.35421 3.23715 1.84211 3.23501Z" fill="white"/>
</svg>