<svg width="80" height="80" viewBox="0 0 80 80" fill="none" xmlns="http://www.w3.org/2000/svg">
<g clip-path="url(#clip0_317_1103)">
<path d="M47.0013 65.6667C48.8423 65.6667 50.3346 64.1743 50.3346 62.3333C50.3346 60.4924 48.8423 59 47.0013 59C45.1604 59 43.668 60.4924 43.668 62.3333C43.668 64.1743 45.1604 65.6667 47.0013 65.6667Z" fill="#C7C7C7"/>
<path d="M48.4676 35.6666L42.1343 29.3666L33.9343 21.2333L28.7676 16.0666L22.7009 9.96663C22.3902 9.65584 22.0212 9.4093 21.6151 9.2411C21.209 9.0729 20.7738 8.98633 20.3343 8.98633C19.8948 8.98633 19.4595 9.0729 19.0535 9.2411C18.6474 9.4093 18.2784 9.65584 17.9676 9.96663C17.3399 10.5943 16.9873 11.4456 16.9873 12.3333C16.9873 13.221 17.3399 14.0723 17.9676 14.7L22.5676 19.2666L27.4343 24.1333L34.8676 31.6L40.0343 36.7333L49.1676 45.8666L58.4676 55.2L71.3009 68.0333C71.6108 68.3457 71.9795 68.5937 72.3857 68.7629C72.7919 68.9322 73.2276 69.0193 73.6676 69.0193C74.1077 69.0193 74.5433 68.9322 74.9495 68.7629C75.3557 68.5937 75.7244 68.3457 76.0343 68.0333C76.3467 67.7234 76.5947 67.3548 76.7639 66.9486C76.9331 66.5424 77.0203 66.1067 77.0203 65.6666C77.0203 65.2266 76.9331 64.7909 76.7639 64.3847C76.5947 63.9785 76.3467 63.6099 76.0343 63.3L48.4676 35.6666ZM79.4009 25.4333C70.7191 17.0139 59.0948 12.3139 47.0009 12.3333C41.9692 12.3469 36.9722 13.1685 32.2009 14.7666L37.6009 20.1666C44.1403 18.5327 50.9883 18.5935 57.4976 20.3433C64.0068 22.0931 69.9623 25.4741 74.8009 30.1666C75.4189 30.7622 76.2427 31.0966 77.1009 31.1C77.55 31.0983 77.994 31.0058 78.4064 30.8283C78.8188 30.6507 79.1911 30.3916 79.5009 30.0666C80.0885 29.4322 80.4065 28.5943 80.3879 27.7297C80.3692 26.8652 80.0153 26.0418 79.4009 25.4333ZM19.7343 21.1666C17.9257 22.4673 16.2104 23.893 14.6009 25.4333C14.0384 26.0588 13.7332 26.8739 13.7465 27.7151C13.7598 28.5562 14.0907 29.3612 14.6728 29.9686C15.2549 30.576 16.0451 30.9408 16.8849 30.9899C17.7247 31.039 18.5521 30.7687 19.2009 30.2333C20.8633 28.6624 22.6466 27.2246 24.5343 25.9333L19.7343 21.1666ZM63.6676 42.8C63.9763 43.1149 64.3445 43.3655 64.7507 43.5372C65.157 43.7088 65.5933 43.7981 66.0343 43.8C66.6857 43.7975 67.3221 43.6042 67.8648 43.244C68.4076 42.8838 68.8329 42.3724 69.0882 41.7732C69.3435 41.1739 69.4177 40.5129 69.3015 39.8719C69.1852 39.231 68.8838 38.6381 68.4343 38.1666C65.6541 35.2858 62.3254 32.9907 58.6444 31.4164C54.9633 29.842 51.0044 29.0204 47.0009 29H46.4676L54.3009 36.8333C57.8579 38.0394 61.0711 40.0862 63.6676 42.8ZM31.7676 33.2C29.4383 34.5567 27.3072 36.2279 25.4343 38.1666C24.8199 38.8164 24.4887 39.6837 24.5137 40.5776C24.5387 41.4715 24.9178 42.3189 25.5676 42.9333C26.2174 43.5477 27.0846 43.8789 27.9786 43.8538C28.8725 43.8288 29.7199 43.4498 30.3343 42.8C32.2762 40.8694 34.5301 39.2804 37.0009 38.1L31.7676 33.2ZM35.4343 50.3333C34.7978 50.9477 34.4314 51.7898 34.4158 52.6744C34.408 53.1124 34.4866 53.5476 34.6471 53.9552C34.8075 54.3628 35.0467 54.7348 35.3509 55.05C35.6552 55.3651 36.0185 55.6173 36.4202 55.7921C36.8219 55.9668 37.254 56.0608 37.692 56.0685C38.5766 56.0841 39.4311 55.7477 40.0676 55.1333C41.7837 53.5506 43.9907 52.6045 46.3202 52.4528C48.6498 52.3011 50.9608 52.9531 52.8676 54.3L44.4676 45.9C41.0717 46.4118 37.9167 47.9601 35.4343 50.3333Z" fill="#C7C7C7"/>
</g>
<defs>
<clipPath id="clip0_317_1103">
<rect width="80" height="80" rx="8" fill="white"/>
</clipPath>
</defs>
</svg>
