<svg width="24" height="25" viewBox="0 0 24 25" fill="none" xmlns="http://www.w3.org/2000/svg">
    <g clip-path="url(#clip0_605_3079)">
        <path d="M7.97729 9.32617C7.64364 9.18172 7.33643 9.021 7.05363 8.84603C6.69963 8.6263 6.38631 8.38013 6.11369 8.11361C5.8431 7.84505 5.5603 7.49919 5.26327 7.07398C4.96826 6.6508 4.65902 6.14828 4.3335 5.56641L3.56649 4.17684C3.10262 3.3488 2.61027 2.72624 2.09147 2.31527C1.58285 1.9104 1.04777 1.70898 0.484212 1.70898H0.134277C0.0590007 1.70695 0 1.64795 0 1.57471V0.134277C0 0.0590007 0.0590007 0 0.134277 0H1.08643C1.9633 0 2.79744 0.30721 3.58683 0.919596C4.36605 1.52384 5.10457 2.4292 5.80037 3.63363L6.85832 5.47485C7.20418 6.073 7.55819 6.57959 7.91829 6.99666C8.27637 7.4117 8.64054 7.73519 9.01286 7.96712C9.38314 8.20109 9.81242 8.37809 10.2987 8.49406C10.789 8.61206 11.3403 8.67106 11.9527 8.67106C12.559 8.67106 13.1063 8.61206 13.5966 8.49406L13.6007 8.49203C14.0849 8.37606 14.5121 8.19906 14.8824 7.96509C15.2547 7.73112 15.6209 7.40763 15.981 6.99259C16.3432 6.57552 16.6972 6.06689 17.0451 5.46875L18.103 3.62549C18.7968 2.4231 19.5333 1.52181 20.3084 0.917562C21.0917 0.30721 21.9218 0 22.7946 0H23.7467C23.82 0 23.881 0.0590007 23.881 0.134277V1.57471C23.881 1.64795 23.822 1.70898 23.7467 1.70898H23.409C22.8414 1.70898 22.3022 1.91244 21.7916 2.31527C21.2708 2.72827 20.7764 3.35083 20.3105 4.18294L19.5414 5.57251C19.2179 6.15031 18.9107 6.6508 18.6157 7.07194C18.3187 7.49715 18.0359 7.84505 17.7653 8.11157C17.4927 8.38013 17.1794 8.62427 16.8254 8.84603C16.5446 9.021 16.2354 9.18172 15.9017 9.32617C16.5527 9.70662 17.1366 10.1339 17.6534 10.6079C18.2332 11.1389 18.7256 11.731 19.1325 12.38L19.1366 12.3861C19.5435 13.0351 19.8486 13.7146 20.0521 14.4267C20.2576 15.1408 20.3593 15.8875 20.3593 16.6626C20.3593 17.7836 20.1497 18.8334 19.7306 19.81C19.3115 20.7865 18.6849 21.6878 17.8467 22.5159L17.8385 22.522C17.0064 23.3459 16.099 23.9644 15.1184 24.3774C14.1337 24.7925 13.0778 25 11.9486 25C10.8175 25 9.75749 24.7925 8.77279 24.3795C7.78809 23.9665 6.87663 23.3439 6.03841 22.5159C5.2002 21.6878 4.57153 20.7845 4.15243 19.81C3.73332 18.8334 3.52173 17.7836 3.52173 16.6646C3.52173 15.8895 3.62345 15.1428 3.82894 14.4287C4.03239 13.7166 4.3396 13.033 4.74854 12.384C5.15544 11.733 5.64779 11.143 6.22762 10.612C6.74235 10.1339 7.32625 9.70662 7.97729 9.32617ZM11.9486 22.8129C12.8052 22.8129 13.5986 22.6644 14.3311 22.3653C15.0635 22.0683 15.7328 21.6207 16.3432 21.0225C16.9535 20.4264 17.4113 19.7693 17.7144 19.0511C18.0176 18.335 18.1702 17.5557 18.1702 16.7155C18.1702 15.861 18.0196 15.0716 17.7165 14.3453C17.4154 13.621 16.9617 12.9578 16.3554 12.3596L16.3493 12.3535C15.745 11.7574 15.0798 11.3118 14.3473 11.0148C13.6129 10.7157 12.8153 10.5672 11.9486 10.5672C11.0799 10.5672 10.2783 10.7157 9.54386 11.0148C8.80737 11.3139 8.13599 11.7615 7.5297 12.3617C6.92342 12.9598 6.46769 13.621 6.16455 14.3473C5.86141 15.0736 5.71086 15.863 5.71086 16.7175C5.71086 17.5578 5.86344 18.337 6.16659 19.0531L6.16862 19.0592C6.4738 19.7734 6.92952 20.4285 7.53784 21.0246C8.14819 21.6207 8.81958 22.0683 9.55404 22.3674C10.2865 22.6624 11.086 22.8129 11.9486 22.8129Z" fill="#503C3B"/>
    </g>
    <defs>
        <clipPath id="clip0_605_3079">
            <rect width="23.879" height="25" fill="white"/>
        </clipPath>
    </defs>
</svg>
